<?xml version="1.0" encoding="UTF-8"?>
<svg id="_Слой_2" data-name="Слой 2" xmlns="http://www.w3.org/2000/svg" viewBox="0 0 657.23 321.68">
  <defs>
    <style>
      .cls-1 {
        fill: #fff;
      }
    </style>
  </defs>
  <g id="Layer_1" data-name="Layer 1">
    <g>
      <g>
        <path class="cls-1" d="M164.23,130.9c4.42,1.33,8.54,3.51,12.12,6.43,3.45,2.87,6.21,6.48,8.06,10.57,2.08,4.64,3.09,9.7,2.96,14.78.12,5.21-.89,10.37-2.96,15.15-1.87,4.18-4.68,7.87-8.2,10.79-3.58,2.93-7.73,5.07-12.2,6.28-4.81,1.33-9.79,2-14.78,2-4.89.02-9.75-.73-14.41-2.22-4.36-1.36-8.4-3.57-11.9-6.5-3.44-2.91-6.19-6.54-8.06-10.64-2.07-4.65-3.08-9.7-2.96-14.78-.11-5.08.87-10.12,2.88-14.78,1.81-4.09,4.52-7.73,7.91-10.64,3.49-2.95,7.54-5.16,11.9-6.5,4.78-1.49,9.77-2.24,14.78-2.22,5.01-.01,10,.74,14.78,2.22M155.81,187.89c1.57-.85,2.95-2,4.07-3.4,1.15-1.47,2.04-3.12,2.66-4.88.67-1.85,1.19-3.76,1.55-5.69.37-1.95.62-3.93.74-5.91,0-1.97,0-3.79,0-5.47-.01-2.87-.19-5.73-.52-8.57-.17-2.9-.74-5.76-1.7-8.5-1.02-2.52-2.65-4.76-4.73-6.5-2.36-1.82-5.3-2.73-8.28-2.59-2.84-.13-5.64.73-7.91,2.44-2.01,1.65-3.61,3.75-4.66,6.13-1.14,2.58-1.89,5.32-2.22,8.13-.37,2.72-.57,5.46-.59,8.2v6.06c.08,2.11.3,4.21.67,6.28.34,2.01.86,3.99,1.55,5.91.65,1.8,1.6,3.47,2.81,4.95,1.21,1.44,2.73,2.61,4.43,3.4,2,.88,4.17,1.31,6.36,1.26,2,.05,3.99-.41,5.77-1.33"/>
        <path class="cls-1" d="M260.91,160.25l-3.99-4.21v24.02c0,2.76.15,5.54.44,8.35l.44,7.39-2.59-.59c-1.01-.09-2.02-.09-3.03,0-1.01-.08-2.02-.08-3.03,0l-3.25.59c0-2.66.22-5.47.67-8.43.44-2.96.62-5.96.52-9.02v-33.19c0-5.08.07-10.3.22-15.67l3.92.59c1.3.07,2.61.07,3.92,0,1.21.08,2.42.08,3.62,0l3.55-.59c1.72,2.27,3.6,4.73,5.62,7.39,2.02,2.66,4.02,4.98,5.99,6.95l5.69,6.28,4.73,5.17,3.92,3.77,3.18,3.47,3.1,3.47,3.47,3.7v-40.06l3.25.67h5.91c.91-.14,1.8-.36,2.66-.67,0,2.37-.15,4.83-.44,7.39-.3,2.56-.44,5.03-.44,7.39-.25,6.36-.44,12.59-.59,18.7-.15,6.11-.15,12.34,0,18.7,0,2.46,0,4.93,0,7.39,0,2.46,0,4.93,0,7.39-1.17-.28-2.35-.47-3.55-.59-1.35-.08-2.71-.08-4.07,0-1.3-.1-2.61-.1-3.92,0l-3.25.59-5.99-7.39-6.73-6.8-5.32-6.06-5.32-6.06-5.1-5.84c-1.23-1.43-2.54-2.83-3.92-4.21"/>
        <path class="cls-1" d="M406.08,170.45v14.78c0,3.55.39,7.14,1.18,10.79-2.01-.34-4.03-.56-6.06-.67h-5.03c-1.92,0-3.82,0-5.69,0l-5.69.59c0-2.22.15-4.68.44-7.39.3-2.71.3-5.35,0-7.91v-11.46c-.04-.65-.22-1.27-.52-1.85-.34-.74-.86-1.72-1.55-2.96l-4.73-9.17c-1.53-2.96-3.2-6.01-5.03-9.17l-3.84-8.28-4.95-8.28c2.27.3,4.53.52,6.8.67h12.57c1.86-.1,3.71-.32,5.54-.67.54,1.63,1.13,3.18,1.77,4.66.64,1.48,1.4,3.2,2.29,5.17l3.4,7.02,5.1,10.27c2.17-4.43,4.26-8.89,6.28-13.38s3.87-9.07,5.54-13.75l3.18.59c1.06.09,2.12.09,3.18,0,1.16.08,2.32.08,3.47,0,1.02-.12,2.04-.32,3.03-.59-3.55,5.62-6.85,11.33-9.9,17.15-3.06,5.81-6.11,11.6-9.17,17.37l-1.18,2.44v3.92"/>
        <path class="cls-1" d="M493.44,189.96l-5.62,9.39c-2.42-.61-4.9-.93-7.39-.96-1.23-.09-2.47-.09-3.7,0l-3.33.67c4.14-5.42,8.15-10.89,12.05-16.41,3.89-5.52,7.64-10.91,11.23-16.19l-5.4-9.68-5.99-10.72-5.99-10.79-5.4-9.61c4.9.64,9.84.96,14.78.96h6.36l6.28-.67c1.53,3.7,3.18,7.34,4.95,10.94,1.77,3.6,3.67,7.17,5.69,10.72l6.58-10.72c2.18-3.54,4.18-7.19,5.99-10.94l3.47.59c1.3.11,2.61.11,3.92,0,1.3.11,2.61.11,3.92,0l3.47-.59-5.62,7.39-5.25,7.39c-1.77,2.41-3.6,4.88-5.47,7.39l-6.21,9.17c1.03,2.22,2.49,5.1,4.36,8.65l6.13,11.46c2.22,4.04,4.46,8.06,6.73,12.05s4.34,7.49,6.21,10.5h-20.47c-2.51,0-4.71.22-6.58.67-1.77-3.89-3.62-7.79-5.54-11.68s-3.89-7.79-5.91-11.68l-2.66,4.51c-1.87,3.1-3.7,6.21-5.47,9.31"/>
        <path class="cls-1" d="M95.05,36.81l-2.29.81.59-.37c63.91-17.69,129.93-26.57,196.24-26.39,184.26,0,333.57,69.92,333.57,156.18,0,47.9-46.05,90.76-118.26,119.37l.67.81c91.21-27.87,151.67-76.43,151.67-131.05C657.23,69.93,507.85,0,323.66,0c-77.72-.31-154.95,12.18-228.61,36.96"/>
        <path class="cls-1" d="M562.1,284.72l2.29-.81-.59.44c-63.93,17.7-129.98,26.58-196.31,26.39-184.19,0-333.49-69.92-333.49-156.18,0-47.9,46.05-90.76,118.26-119.37l-.67-.81C60.39,62.24,0,110.5,0,165.35c0,86.26,149.3,156.33,333.57,156.33,77.72.31,154.95-12.18,228.61-36.96"/>
      </g>
      <g>
        <path class="cls-1" d="M613.52,303.96c1.31-1.31,2.33-2.83,3.05-4.52.74-1.76,1.12-3.62,1.12-5.54s-.38-3.79-1.12-5.54c-.72-1.7-1.74-3.22-3.05-4.52-1.31-1.31-2.83-2.33-4.52-3.05-1.76-.74-3.62-1.12-5.54-1.12s-3.79.38-5.54,1.12c-1.7.72-3.22,1.74-4.52,3.05-1.31,1.31-2.33,2.83-3.05,4.52-.74,1.76-1.12,3.62-1.12,5.54s.38,3.79,1.12,5.54c.72,1.7,1.74,3.22,3.05,4.52,1.31,1.31,2.83,2.33,4.52,3.05,1.76.74,3.62,1.12,5.54,1.12s3.79-.38,5.54-1.12c1.7-.72,3.22-1.74,4.52-3.05ZM592.23,293.9c0-6.19,5.04-11.23,11.23-11.23s11.23,5.04,11.23,11.23-5.04,11.23-11.23,11.23-11.23-5.04-11.23-11.23Z"/>
        <path class="cls-1" d="M609.62,301.57v.16h-3.61l-2.88-5.66h-2.44v5.66h-3.38v-15.66h5.91c1.21,0,2.25.18,3.12.54.87.36,1.54.9,2.01,1.6.47.71.7,1.57.7,2.59,0,1.11-.24,2.02-.72,2.73-.48.71-1.17,1.26-2.06,1.67l3.36,6.37ZM600.68,293.34h2.54c.8,0,1.41-.2,1.83-.6.42-.4.62-.95.62-1.66s-.21-1.28-.62-1.68c-.41-.4-1.02-.6-1.83-.6h-2.54v4.54Z"/>
      </g>
    </g>
  </g>
</svg>