<?xml version="1.0" encoding="UTF-8"?>
<svg id="_Слой_2" data-name="Слой 2" xmlns="http://www.w3.org/2000/svg" viewBox="0 0 1140 1140">
  <defs>
    <style>
      .cls-1 {
        fill: #fff;
      }

      .cls-2 {
        fill: #03203d;
      }
    </style>
  </defs>
  <g id="Layer_1" data-name="Layer 1">
    <g>
      <rect class="cls-1" width="1140" height="1140"/>
      <rect class="cls-2" x="30" y="30" width="1080" height="1080"/>
      <g>
        <path class="cls-1" d="M578.83,866.92c-47.61,0-81.06,33.45-81.06,83.96,0,54.69,34.42,84.93,82.03,84.93,44.39,0,73.02-25.09,76.24-57.91h-46.97c-2.25,14.48-14.47,22.52-29.27,22.52-19.95,0-34.42-16.09-34.74-38.28h111.95s0-9.01,0-9.01c0-52.11-28.63-86.21-78.17-86.21ZM544.73,931.58c1.93-18.01,15.12-31.2,33.78-31.2,18.01,0,30.56,12.55,30.88,31.2h-64.66Z"/>
        <rect class="cls-1" x="671.59" y="870.25" width="46.64" height="159.77"/>
        <path class="cls-1" d="M820.53,934.16l-21.23-4.5c-17.05-3.22-22.52-7.4-22.52-15.12,0-9.65,9.97-14.47,22.2-14.47,15.12,0,24.45,9.01,25.74,21.55h46.32c-1.29-32.49-27.99-54.69-71.74-54.69-40.53,0-67.55,21.23-67.55,49.22,0,27.02,19.3,42.46,50.83,48.9l22.19,4.5c14.48,2.9,21.55,7.08,21.55,15.77,0,10.29-9.65,17.37-24.44,17.37-18.01,0-27.99-10.62-28.63-26.38h-46.97c1.93,36.03,30.24,59.51,75.6,59.51,42.78,0,70.13-22.19,70.13-53.08,0-28.95-21.55-42.78-51.47-48.57Z"/>
        <path class="cls-1" d="M968.5,934.16l-21.23-4.5c-17.05-3.22-22.52-7.4-22.52-15.12,0-9.65,9.97-14.47,22.2-14.47,15.12,0,24.45,9.01,25.74,21.55h46.32c-1.29-32.49-27.99-54.69-71.74-54.69-40.53,0-67.55,21.23-67.55,49.22,0,27.02,19.3,42.46,50.83,48.9l22.2,4.5c14.48,2.9,21.55,7.08,21.55,15.77,0,10.29-9.65,17.37-24.44,17.37-18.01,0-27.99-10.62-28.63-26.38h-46.97c1.93,36.03,30.24,59.51,75.6,59.51,42.78,0,70.13-22.19,70.13-53.08,0-28.95-21.55-42.78-51.47-48.57Z"/>
        <path class="cls-1" d="M291.23,624.01c0-49.86-36.99-69.49-84.6-69.49h-94.97s0,225.18,0,225.18h50.18s0-86.21,0-86.21h44.79c46.32,0,84.6-18.66,84.6-69.49ZM161.84,651.99v-55.65s43.82,0,43.82,0c24.77,0,34.1,10.62,34.1,27.67,0,17.37-10.3,27.99-34.1,27.99h-43.82Z"/>
        <path class="cls-1" d="M338,673.22c1.61-14.47,11.9-23.16,27.66-23.16,14.8,0,22.84,8.37,22.84,18.01,0,7.08-4.18,11.26-16.73,12.87l-22.52,2.58c-33.45,4.18-62.08,16.4-62.08,51.79,0,32.17,26.7,50.18,54.36,50.18,25.74,0,42.14-10.61,50.51-26.06-.97,4.83-1.29,9.65-1.29,14.47v5.79s43.11,0,43.11,0v-92.97c0-44.39-20.26-70.13-69.8-70.13-42.78,0-70.77,23.8-73.34,56.61h47.29ZM389.48,718.9c0,19.95-14.48,33.45-33.46,33.45-12.55,0-21.87-7.07-21.87-19.3,0-11.9,10.61-17.7,26.7-20.59l10.94-1.93c9.33-1.93,14.47-3.54,17.69-6.43v14.8Z"/>
        <path class="cls-1" d="M503.35,785.49c25.09,0,38.92-10.94,47.61-25.74-.97,4.82-1.61,9.65-1.61,14.48v5.47s46.33,0,46.33,0v-157.63s-46.33,0-46.33,0v92.96c0,21.23-12.87,33.78-30.24,33.78-16.73,0-25.09-13.51-25.09-33.46v-93.29s-46.64,0-46.64,0v100.36c0,41.17,24.45,63.05,55.97,63.05Z"/>
        <rect class="cls-1" x="610.41" y="554.52" width="46.64" height="225.18"/>
        <path class="cls-1" d="M670.87,808.01v28.31c31.26,0,56.61-25.35,56.61-56.62h0s0-56.62,0-56.62h-56.62s0,56.62,0,56.62h28.31c0,15.63-12.68,28.31-28.31,28.31Z"/>
        <path class="cls-1" d="M461.88,808.01l-30.8,135.15c-3.21,13.51-5.15,24.13-7.4,39.89-2.57-15.12-5.15-26.38-8.04-39.57l-29.86-135.48h-69.66s-32.38,135.48-32.38,135.48c-2.89,13.19-5.14,23.8-7.72,39.57-2.58-15.76-4.82-26.38-7.72-39.57l-30.18-135.48h-54.27s56.14,222.01,56.14,222.01h66.27s44.71-170.33,44.71-170.33l38.6,170.33h67.88s56.46-222.01,56.46-222.01h-52.03Z"/>
      </g>
    </g>
  </g>
</svg>