<svg width="4930" height="357" viewBox="0 0 4930 357" fill="none" xmlns="http://www.w3.org/2000/svg">
<path d="M1991.53 5.67772H1651.53V232.344C1651.53 294.927 1702.28 345.678 1764.86 345.678H1991.53V232.344H1878.19C1940.8 232.344 1991.53 181.594 1991.53 119.011H1878.19C1940.8 119.011 1991.53 68.2604 1991.53 5.67772Z" fill="white"/>
<path d="M1519.26 5.67772H1292.6V345.678H1405.93V232.344C1405.93 294.927 1456.68 345.678 1519.26 345.678H1632.6V232.344H1519.26C1581.87 232.344 1632.6 181.594 1632.6 119.011C1632.6 56.4284 1581.87 5.67772 1519.26 5.67772Z" fill="white"/>
<path d="M1160.41 5.67772H1047.07C984.492 5.67772 933.741 56.4284 933.741 119.011H1047.07C984.492 119.011 933.741 169.762 933.741 232.344C933.741 294.927 984.492 345.678 1047.07 345.678H1160.41V232.344C1160.41 294.927 1211.16 345.678 1273.74 345.678V119.011C1273.74 56.4284 1222.99 5.67772 1160.41 5.67772Z" fill="white"/>
<path d="M461.501 5.67772V232.344C461.501 294.927 410.75 345.678 348.167 345.678C285.585 345.678 234.834 294.927 234.834 232.344C234.834 294.927 184.083 345.678 121.501 345.678C58.9181 345.678 8.16748 294.927 8.16748 232.344V5.67772H121.501V119.011C121.501 56.4284 172.251 5.67772 234.834 5.67772C297.417 5.67772 348.167 56.4284 348.167 119.011C348.167 56.4284 398.918 5.67772 461.501 5.67772Z" fill="white"/>
<path d="M820.381 5.67772H480.381V232.344C480.381 294.927 531.132 345.678 593.715 345.678H820.381V232.344H707.048C769.631 232.344 820.381 181.594 820.381 119.011H707.048C769.631 119.011 820.381 68.2604 820.381 5.67772Z" fill="white"/>
<path d="M4031.23 286.167C4031.23 290.179 4030.73 293.42 4029.73 295.914C4028.73 298.407 4027.31 300.334 4025.47 301.671C4023.63 303.008 4021.23 303.666 4018.24 303.666C4014.55 303.666 4011.73 302.17 4009.74 299.178C4007.72 296.163 4006.73 291.834 4006.73 286.167V195.659H3952.23V277.667C3952.23 302.011 3957.81 320.167 3968.99 332.18C3980.14 344.171 3996.57 350.178 4018.24 350.178C4040.23 350.178 4056.98 343.922 4068.47 331.41C4079.98 318.92 4085.72 300.016 4085.72 274.675V5.66709H4031.23V286.167ZM3554 13.1697C3549.18 18.1564 3546.75 25.1604 3546.75 34.1591V345.667H3655.75V295.166H3601.26V195.16H3647.25V146.155H3601.26V56.1684H3655.75V5.66709H3574.74C3565.75 5.66709 3558.83 8.16041 3554 13.1697ZM4114.73 13.1697C4109.88 18.1564 4107.48 25.1604 4107.48 34.1591V345.667H4216.46V295.166H4161.97V195.16H4207.96V146.155H4161.97V56.1684H4216.46V5.66709H4135.47C4126.47 5.66709 4119.56 8.16041 4114.73 13.1697ZM3835 300.674L3810.5 5.66709H3757.51L3733.5 300.674L3718 5.66709H3665.5L3689.01 317.674C3689.66 326.332 3692.59 333.155 3697.76 338.164C3702.92 343.174 3710 345.667 3718.99 345.667H3766.01L3783.5 121.811L3799.01 317.674C3800.01 326.672 3803.16 333.586 3808.48 338.414C3813.83 343.264 3820.99 345.667 3829.99 345.667H3876.98L3902.48 5.66709H3849.49L3835 300.674ZM3476.51 253.708L3441.01 5.66709H3393.52C3386.84 5.66709 3381.69 7.50309 3378.02 11.1751C3374.35 14.8471 3372.51 19.9924 3372.51 26.6564V345.667H3420.52V93.2057L3458.01 345.667H3523.49V5.66709H3476.51V253.708ZM4762.43 5.66709L4743.94 218.666H4742.94L4724.44 5.66709H4667.44L4691.44 233.671C4692.1 240.675 4694.68 246.16 4699.19 250.172C4703.45 253.958 4708.92 255.816 4715.44 256.02V345.667H4769.93V256.179H4789.93L4818.42 5.66709H4762.43ZM4509.7 152.162C4503.19 148.172 4493.61 144.5 4480.96 141.168L4463.96 136.658H4463.46C4459.45 135.66 4456.45 134.663 4454.46 133.666C4452.44 132.668 4450.95 131.24 4449.95 129.427C4448.95 127.591 4448.45 124.667 4448.45 120.655V64.1697C4448.45 60.4977 4448.95 57.5058 4449.95 55.1711C4450.95 52.8364 4452.35 51.0004 4454.21 49.6631C4456.02 48.3484 4458.29 47.6684 4460.94 47.6684C4464.95 47.6684 4467.95 49.0964 4469.94 51.9071C4471.96 54.7404 4472.96 58.8431 4472.96 64.1697V117.663H4526.45V69.6551C4526.45 46.3311 4521.03 29.0817 4510.2 17.9071C4499.36 6.75507 4483.11 1.15639 4461.44 1.15639C4439.45 1.15639 4422.77 6.84573 4411.46 18.1564C4400.13 29.5124 4394.46 46.6711 4394.46 69.6551V128.158C4394.46 139.514 4395.87 148.512 4398.7 155.176C4401.53 161.84 4406.11 167.099 4412.46 170.907C4418.78 174.76 4427.62 177.843 4438.96 180.155L4458.95 185.164C4462.96 186.162 4466.02 187.25 4468.2 188.428C4470.37 189.584 4471.87 191.33 4472.71 193.664C4473.52 195.999 4473.95 199.331 4473.95 203.66V287.164C4473.95 290.836 4473.45 293.851 4472.46 296.163C4471.46 298.498 4470.03 300.334 4468.2 301.671C4466.36 303.008 4463.96 303.666 4460.94 303.666C4458.61 303.666 4456.52 303.008 4454.71 301.671C4452.87 300.334 4451.45 298.498 4450.45 296.163C4449.45 293.851 4448.95 290.836 4448.95 287.164V204.658H4394.96V277.667C4394.96 294.01 4397.45 307.587 4402.46 318.422C4407.45 329.256 4414.86 337.258 4424.7 342.426C4434.54 347.594 4446.62 350.178 4460.94 350.178C4475.61 350.178 4487.94 347.594 4497.96 342.426C4507.95 337.258 4515.52 329.256 4520.69 318.422C4525.86 307.587 4528.44 294.01 4528.44 277.667V197.676C4528.44 185.346 4526.95 175.667 4523.96 168.663C4520.94 161.659 4516.2 156.174 4509.7 152.162ZM4318.71 131.172C4318.71 137.836 4317.21 142.755 4314.2 145.928C4311.21 149.079 4306.72 150.666 4300.71 150.666H4290.22V52.1564H4300.71C4306.72 52.1564 4311.21 53.6751 4314.2 56.6671C4317.21 59.6591 4318.71 64.5097 4318.71 71.1737V131.172ZM4329.36 168.391C4334.98 167.847 4340.04 167.054 4344.46 165.92C4352.96 163.744 4359.96 158.848 4365.45 151.164C4370.96 143.503 4373.7 132.011 4373.7 116.666V71.1737C4373.7 55.1711 4371.36 42.4097 4366.69 32.9124C4362.03 23.4151 4354.7 16.5017 4344.71 12.1724C4334.71 7.84306 4321.04 5.66709 4303.7 5.66709H4236.23V345.667H4290.22V196.679H4301.21C4306.54 196.679 4310.62 197.495 4313.45 199.172C4316.28 200.85 4318.28 203.343 4319.46 206.675C4320.61 210.007 4321.2 214.336 4321.2 219.663V328.168C4321.2 333.835 4322.79 338.164 4325.96 341.179C4329.11 344.171 4333.53 345.667 4339.2 345.667H4375.19V216.671C4375.19 200.011 4371.36 187.748 4363.7 179.928C4356.61 172.675 4345.03 168.912 4329.36 168.391ZM4555.94 13.1697C4551.11 18.1564 4548.69 25.1604 4548.69 34.1591V345.667H4657.69V295.166H4603.2V195.16H4649.19V146.155H4603.2V56.1684H4657.69V5.66709H4576.68C4567.68 5.66709 4560.77 8.16041 4555.94 13.1697ZM2924.78 287.164C2924.78 290.836 2924.28 293.851 2923.28 296.163C2922.28 298.498 2920.79 300.334 2918.79 301.671C2916.78 303.008 2914.28 303.666 2911.29 303.666C2908.62 303.666 2906.28 303.008 2904.29 301.671C2902.29 300.334 2900.8 298.498 2899.78 296.163C2898.78 293.851 2898.28 290.836 2898.28 287.164V64.1697C2898.28 60.4977 2898.78 57.5058 2899.78 55.1711C2900.8 52.8364 2902.29 51.0004 2904.29 49.6631C2906.28 48.3484 2908.62 47.6684 2911.29 47.6684C2914.28 47.6684 2916.78 48.3484 2918.79 49.6631C2920.79 51.0004 2922.28 52.8364 2923.28 55.1711C2924.28 57.5058 2924.78 60.4977 2924.78 64.1697V287.164ZM2911.29 1.15639C2889.28 1.15639 2872.46 6.84573 2860.79 18.1564C2849.12 29.5124 2843.29 46.8297 2843.29 70.1764V281.158C2843.29 304.504 2849.12 321.844 2860.79 333.155C2872.46 344.511 2889.28 350.178 2911.29 350.178C2933.62 350.178 2950.53 344.511 2962.04 333.155C2973.53 321.844 2979.29 304.504 2979.29 281.158V70.1764C2979.29 46.8297 2973.53 29.5124 2962.04 18.1564C2950.53 6.84573 2933.62 1.15639 2911.29 1.15639ZM2762.05 218.666H2761.03L2742.54 5.66709H2685.55L2709.56 233.671C2710.21 240.675 2712.8 246.16 2717.29 250.172C2721.57 253.958 2727.03 255.816 2733.54 256.02V345.667H2788.05V256.179H2808.04L2836.54 5.66709H2780.55L2762.05 218.666ZM3303.76 5.66709H3249.27L3214.28 143.752V5.66709H3159.79V345.667H3214.28V170.952L3250.27 345.667H3304.78V343.672L3264.21 150.734L3303.76 5.66709ZM2286.33 13.1697C2281.47 18.1564 2279.07 25.1604 2279.07 34.1591V345.667H2388.05V295.166H2333.56V195.16H2379.55V146.155H2333.56V56.1684H2388.05V5.66709H2307.07C2298.07 5.66709 2291.15 8.16041 2286.33 13.1697ZM2208.78 253.708L2173.31 5.7124H2125.8C2119.14 5.7124 2113.97 7.54841 2110.32 11.1977C2106.65 14.8697 2104.81 20.0377 2104.81 26.7017V345.667H2152.8V93.2284L2190.29 345.667H2255.79V5.7124H2208.78V253.708ZM2567.3 300.674L2542.8 5.66709H2489.8L2465.82 300.674L2450.32 5.66709H2397.82L2421.31 317.674C2421.99 326.332 2424.89 333.155 2430.08 338.164C2435.22 343.174 2442.32 345.667 2451.32 345.667H2498.3L2515.83 121.811L2531.31 317.674C2532.3 326.672 2535.48 333.586 2540.8 338.414C2546.13 343.264 2553.32 345.667 2562.31 345.667H2609.3L2634.8 5.66709H2581.81L2567.3 300.674ZM3082.54 131.172C3082.54 137.836 3081.04 142.755 3078.03 145.928C3075.03 149.079 3070.52 150.666 3064.54 150.666H3054.05V52.1564H3064.54C3070.52 52.1564 3075.03 53.6751 3078.03 56.6671C3081.04 59.6591 3082.54 64.5097 3082.54 71.1737V131.172ZM3093.19 168.391C3098.81 167.847 3103.87 167.054 3108.29 165.92C3116.79 163.744 3123.79 158.848 3129.28 151.164C3134.78 143.503 3137.53 132.011 3137.53 116.666V71.1737C3137.53 55.1711 3135.19 42.4097 3130.52 32.9124C3125.85 23.4151 3118.53 16.5017 3108.54 12.1724C3098.54 7.84306 3084.85 5.66709 3067.53 5.66709H3000.03V345.667H3054.05V196.679H3065.04C3070.37 196.679 3074.45 197.495 3077.28 199.172C3080.11 200.85 3082.11 203.343 3083.29 206.675C3084.44 210.007 3085.03 214.336 3085.03 219.663V328.168C3085.03 333.835 3086.62 338.164 3089.79 341.179C3092.94 344.171 3097.36 345.667 3103.03 345.667H3139.02V216.671C3139.02 200.011 3135.19 187.748 3127.53 179.928C3120.44 172.675 3108.85 168.912 3093.19 168.391Z" fill="white"/>
<path d="M4857.1 264.764H4844.34V345.48H4857.1V313.316H4921.83V297.019H4857.1V264.764Z" fill="white"/>
<path d="M4921.83 150.318H4851.41C4849.19 150.318 4847.46 150.907 4846.22 152.086C4844.97 153.264 4844.34 154.964 4844.34 157.163V175.16L4905.67 203.607L4844.34 232.167V250.074C4844.34 252.204 4844.97 253.882 4846.22 255.128C4847.46 256.398 4849.19 257.01 4851.41 257.01H4921.83V241.166H4857.12L4921.83 211.54V195.923L4857.12 166.162H4921.83V150.318Z" fill="white"/>
</svg>
