<svg width="34" height="34" viewBox="0 0 34 34" fill="none" xmlns="http://www.w3.org/2000/svg">
<rect width="34" height="34" rx="17" fill="#10164F"/>
<path d="M22.6006 18.09C22.5527 18.3836 22.3157 18.6201 22.0227 18.668C21.5382 18.7475 21.1252 18.3346 21.2048 17.8501C21.2527 17.5571 21.4891 17.3206 21.7827 17.2721C22.2672 17.1926 22.6802 17.6055 22.6006 18.09ZM22.6525 10.1835H15.9619C14.9813 10.1835 14.1796 10.9484 14.1202 11.9139H22.6104V15.8291H20.4607V20.0937H21.195V20.7784C21.195 21.1677 21.4995 21.5022 21.8894 21.5092C22.2862 21.5167 22.6104 21.1971 22.6104 20.8015V20.0937H22.9882C23.8216 20.0937 24.4982 19.4178 24.4982 18.5837V12.0292C24.4982 11.0101 23.6717 10.1835 22.6525 10.1835ZM17.9962 18.1362H12.8998C12.0657 18.1362 11.3897 17.4602 11.3897 16.6262V14.3785H17.9962V18.1362ZM17.9864 20.3971C17.9385 20.6907 17.7014 20.9272 17.4084 20.9751C16.9239 21.0547 16.511 20.6417 16.5906 20.1572C16.6384 19.8642 16.8749 19.6277 17.1685 19.5793C17.653 19.4997 18.066 19.9126 17.9864 20.3971ZM12.7954 20.3971C12.7475 20.6907 12.5104 20.9272 12.2174 20.9751C11.7329 21.0547 11.32 20.6417 11.3996 20.1572C11.4474 19.8642 11.6839 19.6277 11.9775 19.5793C12.462 19.4997 12.875 19.9126 12.7954 20.3971ZM18.0383 12.4907H11.3476C10.3285 12.4907 9.50195 13.3172 9.50195 14.3363V20.8909C9.50195 21.7249 10.1779 22.4009 11.012 22.4009H11.3897V23.0855C11.3897 23.4748 11.6943 23.8094 12.0842 23.8163C12.481 23.8238 12.8052 23.5042 12.8052 23.1086V22.4009H16.5802V23.0855C16.5802 23.4748 16.8853 23.8094 17.2752 23.8163C17.672 23.8238 17.9962 23.5042 17.9962 23.1086V22.4009H18.374C19.2074 22.4009 19.884 21.7249 19.884 20.8909V14.3363C19.884 13.3172 19.0574 12.4907 18.0383 12.4907Z" fill="white"/>
</svg>
