<svg width="34" height="34" viewBox="0 0 34 34" fill="none" xmlns="http://www.w3.org/2000/svg">
<rect width="34" height="34" rx="17" fill="#10164F"/>
<path d="M19.746 22.4667L17.666 21.0827V19.7713L19.512 18.2827L20.7667 18.684L21.474 21.17C20.9813 21.698 20.3967 22.1387 19.746 22.4667ZM15.8387 23.008L17.0033 22.2327L18.1667 23.0067C17.7887 23.08 17.3993 23.12 17 23.12C16.6027 23.12 16.2147 23.0807 15.8387 23.008ZM12.5647 21.21L13.2833 18.684L14.5073 18.292L16.3413 19.7713V21.082L14.258 22.4687C13.622 22.1487 13.05 21.7213 12.5647 21.21ZM11.5787 19.8347C11.1833 19.0813 10.9393 18.2367 10.89 17.3413L11.9953 18.3713L11.5787 19.8347ZM11.8527 13.6967L13.9167 13.896L14.5533 15.0887L14.0727 17.0407L12.91 17.4127L11.0293 15.66C11.1887 14.9513 11.4707 14.2893 11.8527 13.6967ZM14.6013 11.37L13.9573 12.5693L12.8933 12.466C13.3947 12.012 13.9707 11.64 14.6013 11.37ZM18.632 17.2907L17.0033 18.604L15.3753 17.2907L15.7713 15.682H18.2353L18.632 17.2907ZM17.704 10.922L18.966 13.2707L18.3853 14.3573H15.6647L15.084 13.2707L16.3493 10.9147C16.5633 10.892 16.78 10.88 17 10.88C17.238 10.88 17.4727 10.8953 17.704 10.922ZM19.4647 11.4C20.0713 11.668 20.6267 12.0307 21.1113 12.4707L20.0927 12.5693L19.4647 11.4ZM20.1333 13.896L22.1507 13.7007C22.5813 14.3707 22.8847 15.1293 23.0267 15.9427L21.172 17.4233L19.9307 17.026L19.4673 15.1433L20.1333 13.896ZM22.0647 18.406L23.0913 17.5867C23.0167 18.3667 22.794 19.104 22.4533 19.772L22.0647 18.406ZM17 9C12.582 9 9 12.5813 9 17C9 21.418 12.582 25 17 25C21.418 25 25 21.418 25 17C25 12.5813 21.418 9 17 9Z" fill="white"/>
</svg>
