<svg width="34" height="34" viewBox="0 0 34 34" fill="none" xmlns="http://www.w3.org/2000/svg">
<rect width="34" height="34" rx="17" fill="#10164F"/>
<path d="M23.4017 20.9176L23.3138 20.5955L23.1464 19.987L23.0783 19.7403L22.7946 18.7052L22.7132 18.4083L22.6339 18.1206L22.3131 16.9506L22.116 16.231L22.0313 15.9241L23.9269 15.4036L23.9758 15.5821C23.6352 15.7991 23.3508 16.0974 23.1458 16.4578C22.4586 17.6635 22.8812 19.2033 24.0869 19.8891C24.4428 20.0915 24.8423 20.2046 25.2484 20.2178L25.2973 20.3971L23.4017 20.9176ZM21.827 20.2291L21.5062 19.0591L22.075 18.903L22.3958 20.073L21.827 20.2291ZM12.2599 23.9752L12.211 23.7973C12.5509 23.5804 12.8353 23.2821 13.0403 22.9216C13.7275 21.7159 13.3049 20.1755 12.0985 19.489C11.744 19.2866 11.3445 19.1742 10.9391 19.1609L10.8895 18.9817L20.0227 16.475L20.1067 16.7819L20.3044 17.5022L20.5882 18.5372L20.7859 19.2568L21.1074 20.4268L21.3045 21.1464L21.3931 21.4685L12.2599 23.9752ZM17.2356 12.8334L18.0934 13.6919L17.6767 14.1092L16.8189 13.2514L17.2356 12.8334ZM18.5226 14.1211L19.3805 14.9783L18.9631 15.3956L18.1053 14.5378L18.5226 14.1211ZM19.8091 15.4075L20.0855 15.684L19.4307 15.8632L19.3917 15.8242L19.8091 15.4075ZM21.2059 15.7369L21.4328 16.5636L20.864 16.7197L20.7257 16.2164L21.2059 15.7369ZM21.9143 18.3183L21.3455 18.4744L21.0247 17.3044L21.5935 17.1483L21.9143 18.3183ZM25.8006 19.4096C25.6478 19.4513 25.4898 19.4731 25.3304 19.4731C25.0341 19.4731 24.7331 19.3984 24.4567 19.2403C23.6068 18.7575 23.3105 17.6774 23.7946 16.8275C24.0367 16.4029 24.4269 16.1165 24.8634 15.9962L24.4494 14.4862L21.7026 15.2395L23.118 13.8248L22.0102 12.717C21.6907 13.0378 21.2476 13.2355 20.7595 13.2355C19.7819 13.2355 18.9896 12.4432 18.9896 11.4656C18.9896 10.9775 19.188 10.535 19.5081 10.2143L18.4009 9.10709L15.9551 11.5529L16.807 12.4055L16.3903 12.8228L15.5378 11.9696L7.78491 19.7231L8.89142 20.8296C9.2122 20.5102 9.65401 20.3118 10.1421 20.3118C11.1203 20.3118 11.9133 21.1048 11.9133 22.0823C11.9133 22.5704 11.7156 23.0136 11.3948 23.3337L11.4166 23.3555C11.3855 23.3654 11.3545 23.3753 11.3234 23.3839L11.7381 24.8926L22.3111 21.991L21.9877 20.8138L22.5565 20.6577L22.8792 21.835L26.2153 20.9196L25.8006 19.4096Z" fill="white"/>
</svg>
