<svg width="200" height="114" viewBox="0 0 200 114" fill="none" xmlns="http://www.w3.org/2000/svg">
<path d="M132.337 113.278C131.757 112.798 131.467 112.098 131.467 111.168V106.668H133.847V111.408C133.847 111.698 133.927 111.918 134.077 112.078C134.227 112.238 134.447 112.318 134.717 112.318C135.277 112.318 135.557 112.018 135.557 111.408V106.308C135.557 106.088 135.497 105.928 135.387 105.838C135.277 105.748 135.067 105.678 134.747 105.608L133.477 105.348C132.647 105.168 132.107 104.958 131.837 104.718C131.567 104.478 131.437 104.018 131.437 103.368V99.9181C131.437 99.0581 131.727 98.4081 132.307 97.9781C132.887 97.5481 133.697 97.3281 134.717 97.3281C135.737 97.3281 136.467 97.5481 137.027 97.9781C137.587 98.4081 137.867 99.0481 137.867 99.8881V102.858H135.487V99.9181C135.487 99.3081 135.207 99.0081 134.647 99.0081C134.087 99.0081 133.777 99.3081 133.777 99.9181V103.288C133.777 103.468 133.837 103.598 133.957 103.678C134.077 103.768 134.287 103.838 134.577 103.908L135.817 104.168C136.447 104.298 136.897 104.418 137.177 104.538C137.457 104.658 137.657 104.838 137.777 105.088C137.897 105.338 137.957 105.708 137.957 106.198V111.148C137.957 112.078 137.657 112.778 137.067 113.258C136.477 113.738 135.677 113.978 134.667 113.978C133.657 113.978 132.897 113.738 132.317 113.258L132.337 113.278Z" fill="white"/>
<path d="M139.868 113.337C139.268 112.897 138.968 112.257 138.968 111.407V97.5273H141.378V111.407C141.378 112.017 141.688 112.317 142.318 112.317C142.948 112.317 143.258 112.017 143.258 111.407V97.5273H145.668V111.407C145.668 112.257 145.368 112.897 144.768 113.337C144.168 113.777 143.348 113.997 142.318 113.997C141.288 113.997 140.478 113.777 139.868 113.337Z" fill="white"/>
<path d="M146.804 97.5273H149.924C151.244 97.5273 152.164 97.7373 152.684 98.1573C153.204 98.5773 153.474 99.2573 153.474 100.207V104.447C153.474 106.207 152.234 107.077 149.754 107.077H149.214V113.807H146.804V97.5273ZM149.754 105.457C150.224 105.457 150.554 105.377 150.764 105.217C150.964 105.057 151.064 104.797 151.064 104.427V100.267C151.064 99.8873 150.964 99.6173 150.764 99.4573C150.564 99.2973 150.224 99.2173 149.754 99.2173H149.214V105.467H149.754V105.457Z" fill="white"/>
<path d="M154.343 97.5273H157.463C158.783 97.5273 159.703 97.7373 160.223 98.1573C160.743 98.5773 161.013 99.2573 161.013 100.207V104.447C161.013 106.207 159.773 107.077 157.293 107.077H156.753V113.807H154.343V97.5273ZM157.293 105.457C157.763 105.457 158.093 105.377 158.303 105.217C158.503 105.057 158.603 104.797 158.603 104.427V100.267C158.603 99.8873 158.503 99.6173 158.303 99.4573C158.103 99.2973 157.763 99.2173 157.293 99.2173H156.753V105.467H157.293V105.457Z" fill="white"/>
<path d="M162.72 113.338C162.12 112.898 161.82 112.258 161.82 111.408V99.9181C161.82 99.0681 162.12 98.4281 162.72 97.9881C163.32 97.5481 164.14 97.3281 165.17 97.3281C166.2 97.3281 167.01 97.5481 167.62 97.9881C168.22 98.4281 168.52 99.0681 168.52 99.9181V111.408C168.52 112.258 168.22 112.898 167.62 113.338C167.02 113.778 166.2 113.998 165.17 113.998C164.14 113.998 163.33 113.778 162.72 113.338ZM165.17 112.318C165.79 112.318 166.11 112.018 166.11 111.408V99.9181C166.11 99.3081 165.8 99.0081 165.17 99.0081C164.54 99.0081 164.23 99.3081 164.23 99.9181V111.408C164.23 112.018 164.54 112.318 165.17 112.318Z" fill="white"/>
<path d="M169.586 97.5295H172.806C174.106 97.5295 175.016 97.7395 175.536 98.1595C176.056 98.5795 176.326 99.2595 176.326 100.21V103.11C176.326 103.84 176.126 104.37 175.726 104.69C175.326 105.01 174.756 105.19 174.016 105.24C174.906 105.29 175.536 105.46 175.896 105.75C176.256 106.05 176.436 106.53 176.436 107.2V113.81H175.066C174.756 113.81 174.506 113.74 174.316 113.61C174.126 113.47 174.036 113.3 174.036 113.07V107.42C174.036 106.96 173.936 106.63 173.756 106.45C173.566 106.27 173.176 106.17 172.596 106.17H172.026V113.8H169.616V97.5195L169.586 97.5295ZM172.636 104.45C173.086 104.45 173.406 104.37 173.606 104.21C173.806 104.05 173.906 103.78 173.906 103.4V100.26C173.906 99.8795 173.806 99.6095 173.606 99.4495C173.406 99.2895 173.086 99.2095 172.636 99.2095H171.996V104.45H172.636Z" fill="white"/>
<path d="M178.837 99.2573H176.687V97.5273H183.387V99.2573H181.247V113.807H178.837V99.2573Z" fill="white"/>
<path d="M184.266 97.8373C184.556 97.6273 184.966 97.5273 185.506 97.5273H189.226V99.2473H186.246V104.417H188.896V106.137H186.246V112.077H189.226V113.797H183.836V98.7173C183.836 98.3373 183.976 98.0373 184.276 97.8273L184.266 97.8373Z" fill="white"/>
<path d="M190.031 97.5295H193.251C194.551 97.5295 195.461 97.7395 195.981 98.1595C196.501 98.5795 196.771 99.2595 196.771 100.21V103.11C196.771 103.84 196.571 104.37 196.171 104.69C195.771 105.01 195.201 105.19 194.461 105.24C195.351 105.29 195.981 105.46 196.341 105.75C196.701 106.05 196.881 106.53 196.881 107.2V113.81H195.511C195.201 113.81 194.951 113.74 194.761 113.61C194.571 113.47 194.481 113.3 194.481 113.07V107.42C194.481 106.96 194.381 106.63 194.201 106.45C194.011 106.27 193.621 106.17 193.041 106.17H192.471V113.8H190.061V97.5195L190.031 97.5295ZM193.081 104.45C193.531 104.45 193.851 104.37 194.051 104.21C194.251 104.05 194.351 103.78 194.351 103.4V100.26C194.351 99.8795 194.251 99.6095 194.051 99.4495C193.851 99.2895 193.521 99.2095 193.081 99.2095H192.441V104.45H193.081Z" fill="white"/>
<path d="M104.127 113.278C103.547 112.798 103.257 112.098 103.257 111.168V100.158C103.257 99.2381 103.557 98.5281 104.157 98.0481C104.757 97.5681 105.577 97.3281 106.607 97.3281C107.637 97.3281 108.407 97.5781 108.987 98.0781C109.567 98.5781 109.857 99.3081 109.857 100.268V102.968H107.447V99.9081C107.447 99.2981 107.167 98.9981 106.607 98.9981C105.977 98.9981 105.667 99.2981 105.667 99.9081V111.398C105.667 112.008 105.977 112.308 106.607 112.308C107.167 112.308 107.447 112.008 107.447 111.398V106.688H109.857V111.048C109.857 112.008 109.557 112.738 108.947 113.238C108.347 113.738 107.527 113.988 106.497 113.988C105.467 113.988 104.697 113.748 104.117 113.268L104.127 113.278Z" fill="white"/>
<path d="M113.339 97.5273H110.929V113.807H113.339V97.5273Z" fill="white"/>
<path d="M116.087 99.2573H113.937V97.5273H120.637V99.2573H118.497V113.807H116.087V99.2573Z" fill="white"/>
<path d="M123.215 97.5273L124.485 107.407H124.555L125.725 97.5273H128.205L126.525 108.747H125.655V113.797H123.245V108.727C122.665 108.627 122.315 108.347 122.205 107.867L120.695 97.5273H123.205H123.215Z" fill="white"/>
<path d="M74.9824 106.147H72.9724V113.807H70.5624V97.5273H72.9724V104.427H74.9824V97.5273H77.3924V113.807H74.9824V106.147Z" fill="white"/>
<path d="M79.3684 113.338C78.7684 112.898 78.4684 112.258 78.4684 111.408V99.9181C78.4684 99.0681 78.7684 98.4281 79.3684 97.9881C79.9684 97.5481 80.7884 97.3281 81.8184 97.3281C82.8484 97.3281 83.6584 97.5481 84.2684 97.9881C84.8684 98.4281 85.1684 99.0681 85.1684 99.9181V111.408C85.1684 112.258 84.8684 112.898 84.2684 113.338C83.6684 113.778 82.8484 113.998 81.8184 113.998C80.7884 113.998 79.9784 113.778 79.3684 113.338ZM81.8084 112.318C82.4384 112.318 82.7484 112.018 82.7484 111.408V99.9181C82.7484 99.3081 82.4384 99.0081 81.8084 99.0081C81.1784 99.0081 80.8684 99.3081 80.8684 99.9181V111.408C80.8684 112.018 81.1784 112.318 81.8084 112.318Z" fill="white"/>
<path d="M87.1734 113.278C86.5934 112.798 86.3034 112.098 86.3034 111.168V106.668H88.6834V111.408C88.6834 111.698 88.7634 111.918 88.9134 112.078C89.0734 112.238 89.2834 112.318 89.5534 112.318C90.1134 112.318 90.3934 112.018 90.3934 111.408V106.308C90.3934 106.088 90.3334 105.928 90.2234 105.838C90.1134 105.748 89.9034 105.678 89.5834 105.608L88.3134 105.348C87.4834 105.168 86.9434 104.958 86.6734 104.718C86.4034 104.468 86.2734 104.018 86.2734 103.368V99.9181C86.2734 99.0581 86.5634 98.4081 87.1434 97.9781C87.7234 97.5481 88.5334 97.3281 89.5534 97.3281C90.5734 97.3281 91.3034 97.5481 91.8634 97.9781C92.4234 98.4081 92.7034 99.0481 92.7034 99.8881V102.858H90.3234V99.9181C90.3234 99.3081 90.0434 99.0081 89.4834 99.0081C88.9234 99.0081 88.6134 99.3081 88.6134 99.9181V103.288C88.6134 103.468 88.6734 103.598 88.7934 103.678C88.9134 103.768 89.1234 103.838 89.4134 103.908L90.6534 104.168C91.2734 104.298 91.7334 104.418 92.0134 104.538C92.2934 104.658 92.4934 104.838 92.6134 105.088C92.7334 105.338 92.7934 105.708 92.7934 106.198V111.148C92.7934 112.078 92.4934 112.778 91.9034 113.258C91.3134 113.738 90.5134 113.978 89.5034 113.978C88.4934 113.978 87.7334 113.738 87.1534 113.258L87.1734 113.278Z" fill="white"/>
<path d="M95.1504 99.2573H93.0004V97.5273H99.7004V99.2573H97.5604V113.807H95.1504V99.2573Z" fill="white"/>
<path d="M45.4325 113.278C44.8525 112.798 44.5625 112.098 44.5625 111.168V100.158C44.5625 99.2381 44.8625 98.5281 45.4625 98.0481C46.0625 97.5681 46.8825 97.3281 47.9125 97.3281C48.9424 97.3281 49.7124 97.5781 50.2924 98.0781C50.8724 98.5781 51.1624 99.3081 51.1624 100.268V102.968H48.7524V99.9081C48.7524 99.2981 48.4725 98.9981 47.9125 98.9981C47.2825 98.9981 46.9725 99.2981 46.9725 99.9081V111.398C46.9725 112.008 47.2825 112.308 47.9125 112.308C48.4725 112.308 48.7524 112.008 48.7524 111.398V106.688H51.1624V111.048C51.1624 112.008 50.8624 112.738 50.2524 113.238C49.6524 113.738 48.8324 113.988 47.8025 113.988C46.7725 113.988 46.0025 113.748 45.4225 113.268L45.4325 113.278Z" fill="white"/>
<path d="M53.0724 113.337C52.4724 112.897 52.1724 112.257 52.1724 111.407V97.5273H54.5824V111.407C54.5824 112.017 54.8924 112.317 55.5224 112.317C56.1524 112.317 56.4624 112.017 56.4624 111.407V97.5273H58.8724V111.407C58.8724 112.257 58.5724 112.897 57.9724 113.337C57.3724 113.777 56.5524 113.997 55.5224 113.997C54.4924 113.997 53.6824 113.777 53.0724 113.337Z" fill="white"/>
<path d="M60.0004 97.5273H63.1204C64.4404 97.5273 65.3604 97.7373 65.8804 98.1573C66.4004 98.5773 66.6704 99.2573 66.6704 100.207V104.447C66.6704 106.207 65.4304 107.077 62.9504 107.077H62.4104V113.807H60.0004V97.5273ZM62.9504 105.457C63.4204 105.457 63.7504 105.377 63.9604 105.217C64.1604 105.057 64.2604 104.797 64.2604 104.427V100.267C64.2604 99.8873 64.1604 99.6173 63.9604 99.4573C63.7604 99.2973 63.4204 99.2173 62.9504 99.2173H62.4104V105.467H62.9504V105.457Z" fill="white"/>
<path d="M2.03 113.499C1.73 113.289 1.56 113.009 1.51 112.639L0 97.5391H2.38L3.45 111.679L4.89 97.5391H7.07L8.61 111.679L9.58 97.5391H11.96L10.35 113.819H8.71C8.17 113.819 7.75 113.719 7.44 113.509C7.13 113.299 6.95 113.019 6.9 112.649L5.96 103.459L4.92 113.819H3.28C2.74 113.819 2.33 113.719 2.02 113.509L2.03 113.499Z" fill="white"/>
<path d="M13.3297 113.338C12.7297 112.898 12.4297 112.258 12.4297 111.408V99.9181C12.4297 99.0681 12.7297 98.4281 13.3297 97.9881C13.9297 97.5481 14.7497 97.3281 15.7797 97.3281C16.8097 97.3281 17.6197 97.5481 18.2297 97.9881C18.8297 98.4281 19.1297 99.0681 19.1297 99.9181V111.408C19.1297 112.258 18.8297 112.898 18.2297 113.338C17.6297 113.778 16.8097 113.998 15.7797 113.998C14.7497 113.998 13.9397 113.778 13.3297 113.338ZM15.7797 112.318C16.4097 112.318 16.7197 112.018 16.7197 111.408V99.9181C16.7197 99.3081 16.4097 99.0081 15.7797 99.0081C15.1497 99.0081 14.8397 99.3081 14.8397 99.9181V111.408C14.8397 112.018 15.1497 112.318 15.7797 112.318Z" fill="white"/>
<path d="M20.2032 97.5295H23.4231C24.7231 97.5295 25.6331 97.7395 26.1531 98.1595C26.6731 98.5795 26.9431 99.2595 26.9431 100.21V103.11C26.9431 103.84 26.7431 104.37 26.3431 104.69C25.9431 105.01 25.3731 105.19 24.6331 105.24C25.5231 105.29 26.1531 105.46 26.5131 105.75C26.8731 106.05 27.0531 106.53 27.0531 107.2V113.81H25.6831C25.3731 113.81 25.1231 113.74 24.9331 113.61C24.7431 113.47 24.6531 113.3 24.6531 113.07V107.42C24.6531 106.96 24.5531 106.63 24.3631 106.45C24.1731 106.27 23.7831 106.17 23.2032 106.17H22.6331V113.8H20.2231V97.5195L20.2032 97.5295ZM23.2531 104.45C23.7031 104.45 24.0231 104.37 24.2231 104.21C24.4231 104.05 24.5231 103.78 24.5231 103.4V100.26C24.5231 99.8795 24.4231 99.6095 24.2231 99.4495C24.0231 99.2895 23.6931 99.2095 23.2531 99.2095H22.6131V104.45H23.2531Z" fill="white"/>
<path d="M28.0391 97.5273H30.4491V112.087H33.3391V113.807H28.0391V97.5273Z" fill="white"/>
<path d="M33.7969 97.5273H36.8469C38.1469 97.5273 39.0769 97.7573 39.6569 98.2073C40.2369 98.6573 40.5269 99.3873 40.5269 100.377V110.957C40.5269 111.947 40.2369 112.667 39.6569 113.127C39.0769 113.577 38.1369 113.807 36.8469 113.807H33.7969V97.5273ZM36.9169 112.127C37.3669 112.127 37.6769 112.047 37.8569 111.887C38.0369 111.727 38.1269 111.447 38.1269 111.047V100.277C38.1269 99.8773 38.0369 99.5973 37.8569 99.4373C37.6769 99.2773 37.3669 99.1973 36.9169 99.1973H36.2169V112.117H36.9169V112.127Z" fill="white"/>
<path d="M7.17 76.63H11.19V92.72H6.29L4.07 82.69V92.72H0V77.91C0 77.5 0.110002 77.18 0.330002 76.96C0.550002 76.74 0.86 76.63 1.25 76.63H5.2L7.16 85.63V76.63H7.17ZM12.84 77.08C12.55 77.38 12.4 77.79 12.4 78.31V92.72H20.73V88.96H16.87V86.5H20.02V82.95H16.87V80.39H20.73V76.63H14.08C13.54 76.63 13.13 76.78 12.84 77.08ZM33.7 89.88L32.26 76.63H27.76L26.35 89.88L25.52 76.63H21.28L22.65 91.06C22.7 91.57 22.88 91.97 23.21 92.27C23.53 92.57 23.96 92.72 24.5 92.72H28.93L30 81.75L30.92 91.06C31 91.58 31.2 91.99 31.52 92.28C31.84 92.57 32.27 92.72 32.81 92.72H37.24L38.78 76.63H34.52L33.71 89.88H33.7ZM47.36 85.5L46.32 76.63H41.66L43.13 86.64C43.19 87.11 43.37 87.48 43.67 87.73C43.97 87.98 44.36 88.11 44.83 88.11H45.11V92.72H49.5804V88.11H51.1904L53.0804 76.64H48.49L47.35 85.51L47.36 85.5ZM62.5504 77.49C63.3904 78.26 63.8004 79.51 63.8004 81.24V88.12C63.8004 89.82 63.3804 91.06 62.5504 91.83C61.7104 92.6 60.3804 92.99 58.5504 92.99C56.7204 92.99 55.4304 92.6 54.5904 91.83C53.7504 91.06 53.3204 89.82 53.3204 88.12V81.24C53.3204 79.51 53.7404 78.26 54.5904 77.49C55.4304 76.73 56.7604 76.34 58.5504 76.34C60.3404 76.34 61.7104 76.72 62.5504 77.49ZM59.3604 80.44C59.3604 80.28 59.3204 80.15 59.2504 80.04C59.1804 79.93 59.0904 79.84 58.9804 79.78C58.8704 79.72 58.7304 79.69 58.5504 79.69C58.4104 79.69 58.2804 79.72 58.1704 79.78C58.0604 79.84 57.9704 79.93 57.9104 80.04C57.8504 80.15 57.8204 80.28 57.8204 80.44V88.96C57.8204 89.1 57.8504 89.23 57.9104 89.34C57.9704 89.45 58.0604 89.53 58.1704 89.59C58.2804 89.65 58.4104 89.67 58.5504 89.67C58.7204 89.67 58.8704 89.64 58.9804 89.59C59.0904 89.53 59.1804 89.45 59.2504 89.34C59.3204 89.23 59.3604 89.1 59.3604 88.96V80.44ZM74.8504 85.3C75.3504 85.81 75.6004 86.55 75.6004 87.51L75.5804 92.71H72.2404C71.9104 92.71 71.6504 92.62 71.4704 92.44C71.2904 92.26 71.2004 92.01 71.2004 91.69V87.57C71.2004 87.41 71.1604 87.27 71.0904 87.13C71.0204 87 70.9204 86.9 70.7904 86.83C70.6604 86.77 70.5104 86.74 70.3404 86.74H69.3504V92.7H64.9204V76.61H70.3904C71.6204 76.61 72.6104 76.74 73.3504 76.99C74.0904 77.24 74.6304 77.66 74.9604 78.23C75.2904 78.81 75.4604 79.6 75.4604 80.61V81.37C75.4604 82.28 75.2804 82.98 74.9204 83.44C74.5604 83.91 74.1004 84.21 73.5504 84.34C73.2804 84.41 72.9704 84.46 72.6304 84.5C73.6304 84.52 74.3804 84.79 74.8704 85.29L74.8504 85.3ZM70.9304 80.63C70.9304 80.41 70.8604 80.24 70.7204 80.12C70.5804 80 70.3904 79.94 70.1504 79.94H69.3504V83.54H70.1504C70.3904 83.54 70.5804 83.48 70.7204 83.35C70.8604 83.22 70.9304 83.05 70.9304 82.83V80.63ZM82.7604 76.63L81.1304 82.82V76.63H76.6604V92.72H81.1304V84.79L82.6704 92.72H87.2404V92.63L85.3304 83.44L87.2804 76.64H82.7604V76.63ZM98.2704 85.62L96.3104 76.62H92.3604C91.9704 76.62 91.6604 76.73 91.4404 76.95C91.2204 77.17 91.1104 77.49 91.1104 77.9V92.71H95.1804V82.68L97.4004 92.71H102.3V76.62H98.2804V85.62H98.2704ZM103.93 77.08C103.64 77.38 103.49 77.79 103.49 78.31V92.72H111.82V88.96H107.96V86.5H111.11V82.95H107.96V80.39H111.82V76.63H105.17C104.63 76.63 104.22 76.78 103.93 77.08ZM124.79 89.88L123.35 76.63H118.85L117.44 89.88L116.61 76.63H112.37L113.74 91.06C113.79 91.57 113.97 91.97 114.3 92.27C114.62 92.57 115.05 92.72 115.59 92.72H120.02L121.09 81.75L122.01 91.06C122.09 91.58 122.29 91.99 122.61 92.28C122.93 92.57 123.36 92.72 123.9 92.72H128.33L129.87 76.63H125.61L124.8 89.88H124.79ZM138.26 88.88C138.26 89.04 138.23 89.17 138.18 89.28C138.12 89.39 138.04 89.48 137.93 89.55C137.82 89.62 137.69 89.66 137.55 89.66C137.31 89.66 137.13 89.59 137.01 89.45C136.88 89.31 136.82 89.12 136.82 88.88V85.45H132.35L132.37 88.12C132.37 89.82 132.78 91.06 133.61 91.82C134.44 92.59 135.75 92.97 137.55 92.97C139.35 92.97 140.64 92.59 141.48 91.82C142.32 91.06 142.73 89.81 142.73 88.09V76.62H138.26V88.88ZM144.26 77.08C143.97 77.38 143.82 77.79 143.82 78.31V92.72H152.15V88.96H148.29V86.5H151.44V82.95H148.29V80.39H152.15V76.63H145.5C144.96 76.63 144.55 76.78 144.26 77.08ZM163.2 85.3C163.7 85.81 163.95 86.55 163.95 87.51L163.93 92.71H160.59C160.26 92.71 160 92.62 159.82 92.44C159.64 92.26 159.55 92.01 159.55 91.69V87.57C159.55 87.41 159.51 87.27 159.44 87.13C159.37 87 159.27 86.9 159.14 86.83C159.01 86.77 158.86 86.74 158.69 86.74H157.7V92.7H153.27V76.61H158.74C159.97 76.61 160.96 76.74 161.7 76.99C162.44 77.24 162.98 77.66 163.31 78.23C163.64 78.81 163.81 79.6 163.81 80.61V81.37C163.81 82.28 163.63 82.98 163.27 83.44C162.91 83.91 162.45 84.21 161.9 84.34C161.63 84.41 161.32 84.46 160.98 84.5C161.98 84.52 162.73 84.79 163.22 85.29L163.2 85.3ZM159.28 80.63C159.28 80.41 159.21 80.24 159.07 80.12C158.93 80 158.74 79.94 158.5 79.94H157.7V83.54H158.5C158.74 83.54 158.93 83.48 159.07 83.35C159.21 83.22 159.28 83.05 159.28 82.83V80.63ZM174.04 83.73C173.56 83.43 172.85 83.16 171.9 82.93L170.57 82.6H170.55C170.22 82.52 169.98 82.45 169.83 82.39C169.68 82.33 169.57 82.23 169.51 82.09C169.45 81.96 169.42 81.74 169.42 81.44V80.3C169.42 80.16 169.45 80.04 169.5 79.94C169.56 79.85 169.63 79.77 169.74 79.72C169.84 79.66 169.96 79.64 170.11 79.64C170.35 79.64 170.52 79.7 170.64 79.82C170.76 79.94 170.82 80.1 170.82 80.31V81.94H175.2V81.06C175.2 79.42 174.79 78.22 173.97 77.48C173.15 76.73 171.87 76.36 170.14 76.36C168.41 76.36 167.05 76.74 166.21 77.51C165.37 78.28 164.96 79.45 164.96 81.02V82.13C164.96 82.9 165.06 83.52 165.27 83.99C165.48 84.46 165.8 84.83 166.24 85.11C166.68 85.39 167.31 85.62 168.11 85.8L169.74 86.18C170.07 86.24 170.32 86.32 170.47 86.4C170.63 86.49 170.74 86.61 170.8 86.77C170.86 86.93 170.89 87.17 170.89 87.5V89.09C170.89 89.2 170.86 89.31 170.81 89.41C170.75 89.51 170.67 89.59 170.56 89.65C170.45 89.71 170.32 89.73 170.16 89.73C170.02 89.73 169.89 89.7 169.77 89.64C169.65 89.58 169.56 89.49 169.51 89.39C169.45 89.29 169.43 89.17 169.43 89.05V86.85H164.93V88.25C164.95 89.37 165.14 90.28 165.52 90.98C165.9 91.68 166.47 92.2 167.22 92.53C167.98 92.86 168.96 93.03 170.16 93.03C171.36 93.03 172.32 92.86 173.08 92.53C173.84 92.2 174.42 91.68 174.8 90.98C175.18 90.28 175.37 89.38 175.37 88.27V86.8C175.37 86 175.27 85.36 175.07 84.9C174.87 84.44 174.53 84.05 174.05 83.75L174.04 83.73ZM176.9 77.08C176.61 77.38 176.46 77.79 176.46 78.31V92.72H184.79V88.96H180.93V86.5H184.08V82.95H180.93V80.39H184.79V76.63H178.14C177.6 76.63 177.19 76.78 176.9 77.08ZM196.86 76.63H192.27L191.13 85.5L190.09 76.63H185.43L186.9 86.64C186.96 87.11 187.14 87.48 187.44 87.73C187.74 87.98 188.13 88.11 188.6 88.11H188.88V92.72H193.35V88.11H194.96L196.85 76.64L196.86 76.63ZM196.25 68.13H195.59V72.3H196.25V70.64H199.59V69.8H196.25V68.13ZM199.59 61.97H195.95C195.84 61.97 195.75 62 195.68 62.06C195.62 62.12 195.58 62.21 195.58 62.32V63.25L198.75 64.72L195.58 66.19V67.11C195.58 67.22 195.61 67.31 195.68 67.37C195.75 67.43 195.83 67.47 195.95 67.47H199.59V66.65H196.25L199.59 65.12V64.31L196.25 62.77H199.59V61.95V61.97ZM196.86 24.1H172.76C186.07 24.1 196.86 34.89 196.86 48.2C196.86 61.51 186.07 72.3 172.76 72.3H124.56C111.25 72.3 100.46 61.51 100.46 48.2V24.1C100.46 10.79 111.25 0 124.56 0H172.76C186.07 0 196.86 10.79 196.86 24.1ZM96.4004 24.1C96.4004 37.41 85.6104 48.2 72.3004 48.2H96.4004V72.3H0V48.2C0 34.89 10.79 24.1 24.1 24.1H0C0 10.79 10.79 0 24.1 0H72.3004C85.6104 0 96.4004 10.79 96.4004 24.1Z" fill="white"/>
</svg>
