<svg width="133" height="269" viewBox="0 0 133 269" fill="none" xmlns="http://www.w3.org/2000/svg">
<path d="M91.5321 185.304L90.7507 182.705H84.002L83.2556 185.304H77.3754L84.3668 165.956H90.575L97.563 185.304H91.5321ZM71.7027 178.315V185.304H65.7287V165.956H80.4628L78.94 170.172H71.7027V174.088H77.5294L75.9999 178.315H71.7027ZM61.6206 185.304H55.6484V165.956H61.6206V185.304ZM52.2983 170.172H45.0592V174.088H50.8876L49.3581 178.315H45.0592V185.304H39.087V165.956H53.821L52.2983 170.172ZM99.4221 105.192H79.0136C78.9049 105.435 78.7743 105.669 78.6137 105.894C78.4531 106.116 78.3426 106.374 78.197 106.611C78.095 106.776 78.0832 106.93 78.1686 107.11C78.3409 107.475 78.3627 107.853 78.2439 108.24C78.2004 108.381 78.1452 108.515 78.018 108.597C77.9075 108.669 77.8423 108.774 77.8138 108.89C77.7352 109.2 77.6231 109.515 77.6231 109.828C77.6214 110.128 77.5578 110.394 77.4474 110.66C77.3671 110.853 77.2901 111.04 77.357 111.267C77.3938 111.385 77.3754 111.534 77.3453 111.66C77.2633 111.995 77.2415 112.335 77.2499 112.678C77.2549 112.873 77.2148 113.05 77.0826 113.201C76.9839 113.313 76.942 113.447 76.9521 113.6C76.9571 113.665 76.9638 113.739 76.9403 113.795C76.8416 114.04 76.8617 114.238 77.0926 114.405C77.2131 114.494 77.1863 114.641 77.1579 114.775C77.0893 115.088 77.0307 115.403 76.9571 115.715C76.9219 115.861 76.9203 115.998 76.9521 116.14C77.0725 116.668 77.193 117.192 77.3938 117.7C77.5059 117.981 77.5879 118.289 77.5879 118.601C77.5879 118.825 77.6247 119.041 77.6616 119.259C77.6984 119.477 77.7335 119.688 77.8908 119.865C77.9946 119.984 78.0063 120.151 78.0096 120.307C78.013 120.461 78.0029 120.617 77.9962 120.771C77.9879 120.996 78.0046 121.208 78.1284 121.409C78.2539 121.612 78.2874 121.845 78.264 122.081C78.2322 122.411 78.2138 122.744 78.1368 123.067C78.1017 123.213 78.1117 123.354 78.1602 123.493C78.2288 123.684 78.2456 123.881 78.2372 124.081C78.2021 124.787 78.2071 125.498 78.0598 126.194C78.0347 126.315 78.0314 126.429 78.0966 126.546C78.5869 127.414 78.8597 128.385 79.3851 129.234C79.5726 129.534 79.7416 129.845 79.9273 130.145C79.9792 130.227 80.0528 130.303 80.1315 130.361C80.513 130.641 80.7807 131.021 81.0568 131.393C81.3647 131.812 81.6609 132.239 82.0709 132.57C82.2064 132.681 82.3152 132.825 82.4307 132.959C82.4809 133.016 82.5277 133.083 82.5512 133.155C82.7988 133.919 83.0984 134.664 83.336 135.431C83.5702 136.191 83.8129 136.948 84.0522 137.709C84.084 137.814 84.1208 137.92 84.1358 138.029C84.1509 138.159 84.1961 138.263 84.3166 138.323C84.4538 138.39 84.5241 138.516 84.6027 138.637C85.2419 139.61 85.7925 140.631 86.2727 141.688C86.4351 142.045 86.666 142.343 86.8735 142.661C87.4776 143.592 87.9662 144.584 88.4481 145.579C88.5117 145.711 88.5669 145.838 88.4816 145.986C88.4264 146.084 88.4799 146.16 88.5653 146.205C88.7393 146.292 88.8129 146.455 88.8815 146.615C89.5408 148.15 90.1767 149.694 90.7105 151.276C90.8277 151.623 90.9013 151.965 91.169 152.261C91.5087 152.64 91.5522 153.146 91.4937 153.643C91.4686 153.856 91.3598 154.05 91.3581 154.278C91.3581 154.444 91.1958 154.532 91.0419 154.581C90.734 154.678 90.4143 154.705 90.0931 154.717C88.5151 154.78 86.9354 154.785 85.3557 154.795C82.9461 154.809 80.5381 154.852 78.1301 154.869C76.5387 154.881 74.9474 154.867 73.356 154.871C72.2298 154.872 71.1019 154.901 69.9758 154.886C68.694 154.871 67.4122 154.872 66.1304 154.837C63.5333 154.837 60.9362 154.847 58.3408 154.834C56.5168 154.825 54.6945 154.795 52.8722 154.763C50.5747 154.725 48.2771 154.683 45.9796 154.631C44.6543 154.601 43.329 154.549 42.0053 154.505C41.8949 154.502 41.7861 154.48 41.6757 154.467C41.2791 154.418 41.2624 154.403 41.1938 154.02C41.1804 153.941 41.1502 153.872 41.1118 153.805C41.0599 153.717 41.0415 153.618 41.0549 153.517C41.1285 152.893 41.264 152.293 41.7828 151.864C41.8414 151.817 41.8665 151.77 41.8531 151.695C41.8129 151.471 41.8731 151.255 41.9334 151.042C42.3869 149.458 42.9792 147.92 43.5917 146.391C43.6369 146.279 43.6955 146.172 43.7808 146.081C43.8712 145.987 43.908 145.885 43.8293 145.755C43.7574 145.637 43.8092 145.518 43.8628 145.406C44.3832 144.316 45.0007 143.282 45.6801 142.286C45.7754 142.147 45.9177 142.062 46.0198 141.929C46.2524 141.629 46.3645 141.269 46.5368 140.943C46.9719 140.119 47.4789 139.342 47.9826 138.561C48.0178 138.506 48.0579 138.424 48.1081 138.414C48.4043 138.353 48.3842 138.114 48.4462 137.898C48.6503 137.186 48.8712 136.479 49.0937 135.773C49.3297 135.024 49.574 134.279 49.8183 133.533C49.8417 133.458 49.8585 133.388 49.8551 133.307C49.8518 133.146 49.912 132.972 50.0241 132.889C50.3689 132.629 50.409 132.167 50.7253 131.897C50.7621 131.865 50.7738 131.797 50.7805 131.743C50.8307 131.333 51.0332 130.993 51.2842 130.679C51.3495 130.597 51.3729 130.51 51.3963 130.411C51.5503 129.755 51.6122 129.078 51.8414 128.44C52.0606 127.827 52.1761 127.186 52.412 126.574C52.6246 126.025 52.8254 125.459 52.8789 124.859C52.9007 124.63 52.9977 124.439 53.1433 124.263C53.4596 123.881 53.5617 123.446 53.4529 122.96C53.4111 122.771 53.4378 122.59 53.4981 122.406C53.5817 122.145 53.6704 121.888 53.6001 121.597C53.5432 121.366 53.6821 121.16 53.8495 121.012C54.1691 120.728 54.3046 120.341 54.4753 119.971C54.5138 119.887 54.5222 119.8 54.5004 119.711C54.3983 119.269 54.4335 118.807 54.3013 118.369C54.2778 118.294 54.2695 118.209 54.3063 118.14C54.4368 117.902 54.3314 117.696 54.1858 117.535C53.6905 116.986 53.6604 116.314 53.6738 115.638C53.6905 114.772 53.8829 113.929 54.0804 113.089C54.1105 112.96 54.1256 112.832 54.0837 112.698C53.9817 112.385 53.9767 112.065 54.0637 111.749C54.1908 111.288 54.1306 110.856 53.9097 110.437C53.7658 110.163 53.7541 109.86 53.7809 109.562C53.8244 109.098 53.7307 108.655 53.5867 108.225C53.4579 107.843 53.3843 107.456 53.3742 107.056C53.3675 106.734 53.3324 106.418 53.2755 106.1C53.237 105.884 53.2002 105.661 53.2002 105.441C53.2002 105.358 53.2002 105.276 53.1985 105.192H33.1398C14.8381 105.192 0 120.043 0 138.362V171.53C0 189.849 14.8381 204.7 33.1398 204.7H99.4221C117.725 204.7 132.563 189.849 132.563 171.53C132.563 153.211 117.725 138.362 99.4221 138.362H132.563C132.563 120.043 117.725 105.192 99.4221 105.192ZM85.0696 178.986H89.7634L87.3755 170.927L85.0696 178.986ZM132.563 33.1694C132.563 14.8505 117.725 0 99.4221 0H33.1398C14.8381 0 0 14.8503 0 33.1692H33.1398C14.8381 33.1692 0 48.0199 0 66.3393V99.5076H52.9475C52.9224 99.4355 52.8957 99.3652 52.8655 99.2932C52.6915 98.8611 52.735 98.4022 52.894 97.9634C52.9241 97.878 52.9843 97.8026 53.068 97.7708C53.2588 97.6988 53.2738 97.5547 53.237 97.3923C53.0931 96.7575 52.9609 96.1228 52.5258 95.5969C52.3451 95.3791 52.228 95.1078 52.0874 94.8566C51.8163 94.3742 51.5235 93.907 51.152 93.4916C50.8926 93.2019 50.727 92.8702 50.6048 92.4884C50.4425 91.9809 50.2233 91.4785 49.7045 91.1904C49.3766 91.0078 49.3481 90.8973 49.4485 90.5339C49.5037 90.3329 49.4552 90.152 49.3648 89.9912C49.1623 89.6378 49.0067 89.2576 48.7607 88.926C48.5951 88.7016 48.6403 88.4169 48.6871 88.1556C48.7607 87.7453 48.7557 87.3617 48.5298 86.9782C48.2855 86.5679 48.1634 86.0972 48.1031 85.6266C48.0412 85.151 47.8605 84.7105 47.7768 84.2466C47.6262 83.4058 47.2631 82.6253 47.1125 81.7862C47.0757 81.5769 47.0522 81.3709 47.1024 81.1615C47.1175 81.0962 47.1259 81.0376 47.1091 80.9689C46.9719 80.433 46.8581 79.8937 46.7745 79.346C46.7577 79.2388 46.7243 79.13 46.6791 79.0295C46.4766 78.5823 46.4214 78.0932 46.2925 77.626C46.2423 77.4434 46.2423 77.2475 46.2959 77.0666C46.3511 76.8874 46.3343 76.7232 46.2858 76.5491C46.2323 76.3581 46.2206 76.1572 46.2055 75.9595C46.1553 75.3449 46.152 74.7235 45.9461 74.1306C45.8842 73.9514 45.8926 73.7739 45.9277 73.5796C45.9779 73.3116 45.9612 73.0286 45.8441 72.769C45.7771 72.6199 45.747 72.4759 45.829 72.3252C45.8625 72.2649 45.8708 72.2012 45.8574 72.1326C45.7604 71.6117 45.6951 71.0808 45.4458 70.6018C45.3554 70.4293 45.3169 70.2467 45.3404 70.0558C45.3772 69.7308 45.337 69.4059 45.4374 69.0726C45.5178 68.8047 45.4793 68.4781 45.2985 68.2135C45.0224 67.8098 44.8534 67.361 44.676 66.9054C44.3899 66.1718 44.1874 65.4165 43.9331 64.6746C43.8042 64.3011 43.7005 63.9142 43.5264 63.5558C43.503 63.5055 43.4779 63.4519 43.4746 63.3983C43.4562 63.0148 43.2871 62.6773 43.1516 62.33C43.1466 62.3199 43.1499 62.3067 43.1449 62.2978C42.7918 61.6833 42.7701 60.943 42.4036 60.3358C42.1325 59.8849 41.992 59.3856 41.8246 58.8947C41.7443 58.6633 41.7025 58.4243 41.6405 58.189C41.5502 57.8366 41.4632 57.4852 41.2858 57.1588C41.1352 56.8819 41.0934 56.5682 41.1469 56.2564C41.177 56.0805 41.1603 55.9022 41.2004 55.7291C41.2222 55.6323 41.1854 55.5558 41.1302 55.4836C40.9461 55.2423 40.9494 54.9708 41.003 54.6916C41.013 54.6373 41.0214 54.5819 41.0415 54.5303C41.167 54.1823 41.1653 53.8287 41.1603 53.4598C41.1486 52.5545 41.2021 51.6484 41.3092 50.7482C41.3644 50.2963 41.8464 49.9803 42.3032 50.0754C42.4103 50.098 42.5191 50.1243 42.6278 50.129C42.8604 50.1387 42.924 50.0625 42.8905 49.8307C42.8504 49.5465 42.8069 49.2628 42.7667 48.9784C42.6412 48.0747 42.7048 47.1696 42.7466 46.2645C42.755 46.0731 42.8186 45.8773 42.5642 45.7604C42.4354 45.7015 42.4722 45.5236 42.4756 45.3935C42.4923 44.8838 42.5626 44.3789 42.658 43.8793C43.3742 40.0933 44.7062 36.5407 46.7058 33.244C47.2346 32.3717 47.832 31.5492 48.5566 30.8258C48.6101 30.7712 48.657 30.6888 48.7239 30.6686C49.0402 30.5709 49.1439 30.2715 49.3297 30.0507C49.4234 29.941 49.5188 29.8377 49.6276 29.7415C50.0074 29.4061 50.3337 29.0219 50.6249 28.6052C50.737 28.4441 50.8909 28.3106 51.0349 28.1731C54.0135 25.3145 57.5694 23.5348 61.5503 22.5624C62.5828 22.3103 63.6437 22.2246 64.6996 22.137C65.461 22.074 66.2224 22.0492 66.9854 22.0528C68.1936 22.0581 69.3867 22.2077 70.5765 22.3978C72.1378 22.6472 73.6823 22.9754 75.1682 23.5254C77.7486 24.4808 80.1248 25.8015 82.2248 27.5909C83.0532 28.2953 83.7978 29.082 84.4504 29.9529C84.6931 30.2758 84.9608 30.5813 85.1482 30.9424C85.185 31.0109 85.2637 31.0834 85.2553 31.144C85.2085 31.4539 85.4444 31.5155 85.6419 31.5795C85.8226 31.6381 85.9448 31.7477 86.0619 31.8805C86.5823 32.4688 87.0224 33.1224 87.5161 33.732C87.6198 33.8589 87.7302 34.0006 87.5478 34.1626C87.4943 34.2086 87.5479 34.2673 87.5863 34.3041C88.157 34.8652 88.4565 35.6049 88.8665 36.2702C89.1677 36.7579 89.3886 37.2922 89.5944 37.8305C89.8002 38.3666 89.9742 38.9139 90.2119 39.4388C90.5315 40.1477 90.6854 40.9086 90.8494 41.6656C90.9883 42.3134 91.1439 42.9583 91.3096 43.5999C91.42 44.0251 91.5974 44.0693 91.9153 43.7484C92.0927 43.5691 92.2684 43.3879 92.4492 43.2107C92.6065 43.0561 92.7788 42.9177 92.9344 42.7625C93.075 42.6233 93.2306 42.625 93.3896 42.7112C93.6155 42.834 93.7795 43.0082 93.7594 43.2877C93.7494 43.447 93.7678 43.595 93.8431 43.7369C93.91 43.8674 93.9267 44.0117 93.9368 44.1551C93.9485 44.3537 93.9535 44.553 93.9602 44.752C93.9702 45.023 93.9652 45.273 94.1945 45.5037C94.4622 45.7731 94.5175 46.1493 94.4405 46.5292C94.4137 46.6633 94.407 46.7901 94.4873 46.9109C94.5108 46.9467 94.5359 46.9953 94.5308 47.0346C94.4857 47.4183 94.6932 47.7543 94.73 48.1221C94.75 48.3068 94.7852 48.4825 94.8571 48.6627C94.9843 48.9814 94.8555 49.2978 94.7082 49.5845C94.3049 50.3772 94.0456 51.2242 93.8213 52.0762C93.6741 52.6389 93.6272 53.2315 93.5703 53.8142C93.4532 55.0508 93.1553 56.2513 92.8809 57.4574C92.8692 57.5112 92.8541 57.5661 92.8307 57.6152C92.491 58.2993 92.2935 59.0409 91.9689 59.7306C91.8501 59.9827 91.6777 60.2009 91.4836 60.3996C91.2778 60.6103 91.2025 60.8536 91.2259 61.1506C91.2811 61.8332 91.2745 62.5191 91.3498 63.2024C91.3882 63.539 91.3046 63.8824 91.2443 64.2207C91.0653 65.239 90.7155 66.207 90.3641 67.1684C90.2035 67.6089 90.0981 68.0744 89.8521 68.4881C89.6329 68.8549 89.4555 69.2485 89.2547 69.6287C89.2129 69.7074 89.1777 69.7861 89.1677 69.8749C89.1024 70.3941 88.9317 70.8915 88.7627 71.3755C88.5351 72.0337 88.3193 72.6903 88.1804 73.3736C88.1319 73.6114 88.0214 73.8342 87.8122 73.9866C87.747 74.0352 87.7085 74.1005 87.6767 74.1708C87.4759 74.6264 87.2701 75.0802 87.081 75.5391C86.9806 75.782 86.8768 76.0265 86.927 76.3062C86.9505 76.4402 86.8952 76.5725 86.8149 76.6797C86.5204 77.0699 86.4451 77.5473 86.2945 77.9944C86.2343 78.172 86.1907 78.3562 86.1506 78.5388C86.1004 78.7632 86.0167 78.9792 86.0552 79.2221C86.0803 79.3728 86.0251 79.5336 85.9531 79.6709C85.7306 80.098 85.6971 80.5636 85.7088 81.0275C85.7256 81.6573 85.5934 82.2535 85.3892 82.8414C85.1717 83.4611 85.0545 84.0992 85.0629 84.7574C85.0646 84.8679 85.0595 84.9785 85.0579 85.089C85.0562 85.3905 84.9223 85.6149 84.6763 85.7857C84.4588 85.9381 84.4119 85.9951 84.5274 86.2145C84.8236 86.7839 84.5994 87.2813 84.3768 87.7922C84.258 88.0652 84.1459 88.3398 84.1425 88.648C84.1392 88.9076 84.0154 89.1471 83.9083 89.3648C83.5619 90.0733 83.4866 90.8504 83.2858 91.594C83.2707 91.6476 83.2674 91.7046 83.2456 91.7531C82.9544 92.4063 82.8708 93.1148 82.7101 93.8014C82.6432 94.0862 82.5378 94.3474 82.3805 94.5903C82.1546 94.937 82.0274 95.3238 81.9052 95.7158C81.7329 96.2634 81.5103 96.7944 81.343 97.3437C81.1154 98.0873 80.7556 98.774 80.4695 99.4925C80.4711 99.4875 80.4678 99.4975 80.4695 99.4925L132.563 99.5076V66.3393H99.4221C117.725 66.3393 132.563 51.4883 132.563 33.1694Z" fill="#FFB343"/>
<path d="M46.7445 33.276C47.2733 32.4036 47.8707 31.5811 48.5953 30.8579C48.6488 30.8033 48.6957 30.7207 48.7626 30.7005C49.0789 30.6028 49.1826 30.3037 49.3683 30.0829C49.4621 29.9731 49.5574 29.8696 49.6662 29.7736C50.0461 29.4381 50.3724 29.0539 50.6635 28.6372C50.7271 28.5446 50.8058 28.4614 50.8878 28.381V6.91626V0.0320566H41.45V6.91626H38.304V36.3667H45.0979C45.5865 35.3131 46.1337 34.2826 46.7445 33.276Z" fill="#FFB343"/>
<path d="M126.288 80.2337H132.499V66.3661H126.288V80.2337Z" fill="#FFB343"/>
<path d="M79.0925 0.0243829V6.90858H88.5303V35.8333C88.6173 35.9889 88.7043 36.1437 88.7981 36.2946C89.0976 36.7823 89.3185 37.3167 89.526 37.8548C89.7301 38.3911 89.9041 38.9383 90.1418 39.4633C90.4631 40.1719 90.6153 40.933 90.7793 41.69C90.9199 42.3378 91.0755 42.9826 91.2412 43.6244C91.3499 44.0495 91.5273 44.0939 91.8453 43.7728C92.0226 43.5936 92.1983 43.4122 92.3791 43.2352C92.538 43.0805 92.7087 42.9423 92.8644 42.7869C93.0049 42.6477 93.1622 42.6495 93.3212 42.7356C93.5471 42.8584 93.7094 43.0325 93.691 43.3122C93.6793 43.4715 93.6994 43.6196 93.773 43.7614C93.8416 43.8917 93.8567 44.0361 93.8667 44.1796C93.8801 44.3783 93.8851 44.5776 93.8918 44.7765C93.9002 45.0475 93.8951 45.2976 94.1244 45.528C94.3921 45.7975 94.4474 46.1737 94.3721 46.5537C94.3453 46.6877 94.3386 46.8146 94.4189 46.9354C94.4423 46.9711 94.4674 47.0198 94.4624 47.059C94.4156 47.4429 94.6247 47.7788 94.6616 48.1465C94.68 48.3314 94.7151 48.507 94.7871 48.6871C94.9142 49.006 94.7854 49.3222 94.6398 49.6091C94.2348 50.4016 93.9771 51.2484 93.7529 52.1007C93.6057 52.6633 93.5571 53.2557 93.5019 53.8385C93.3831 55.0752 93.0852 56.2759 92.8125 57.4818C92.7991 57.5355 92.7857 57.5906 92.7606 57.6394C92.4226 58.3239 92.2234 59.0655 91.8988 59.755C91.78 60.0071 91.6093 60.2255 91.4152 60.4241C91.2094 60.6348 91.1341 60.8781 91.1575 61.1751C91.2127 61.8577 91.2044 62.5434 91.2813 63.2258C91.3181 63.5641 91.2362 63.9074 91.1759 64.2457C90.9952 65.2623 90.6471 66.2321 90.294 67.1934C90.1334 67.6322 90.028 68.0995 89.782 68.5115C89.5628 68.88 89.3854 69.2735 89.1863 69.652C89.1428 69.7324 89.1093 69.8112 89.0976 69.8999C89.034 70.4191 88.8616 70.9165 88.6943 71.4006C88.6391 71.5614 88.5839 71.7205 88.5303 71.8812V80.5351H96.3935V99.5326H122.281V80.0946H107.406V66.3627H99.352C102.13 66.3627 104.827 66.021 107.406 65.3779V36.3592H101.114V6.90858H107.406V1.01069C104.827 0.36638 102.13 0.0243829 99.352 0.0243829H97.9681V6.90858H88.5303V0.0243829H79.0925Z" fill="#FFB343"/>
<path d="M12.681 6.90839H12.8551V33.1936H25.4388V6.90839H31.7307V0.0442857C28.4409 0.158174 25.2715 0.752238 22.2929 1.75847V6.90839H12.8551V6.77457C12.7965 6.81896 12.7396 6.86367 12.681 6.90839Z" fill="#FFB343"/>
<path d="M43.5917 146.436C43.6369 146.324 43.6955 146.217 43.7808 146.126C43.8712 146.033 43.908 145.93 43.8293 145.8C43.7574 145.683 43.8092 145.564 43.8628 145.451C44.3832 144.361 45.0007 143.328 45.6801 142.331C45.7754 142.192 45.9177 142.107 46.0198 141.974C46.2524 141.675 46.3645 141.316 46.5368 140.988C46.9719 140.164 47.4789 139.387 47.9826 138.606C48.0178 138.551 48.0579 138.469 48.1081 138.459C48.4043 138.399 48.3842 138.159 48.4462 137.943C48.6503 137.231 48.8712 136.525 49.0937 135.818C49.3297 135.071 49.574 134.324 49.8183 133.579C49.8417 133.503 49.8585 133.433 49.8551 133.352C49.8518 133.192 49.912 133.017 50.0241 132.934C50.3689 132.674 50.409 132.212 50.7253 131.942C50.7621 131.91 50.7738 131.842 50.7805 131.788C50.8006 131.624 50.8458 131.472 50.9077 131.328V105.237H33.1398C29.4534 105.237 25.9075 105.84 22.5942 106.952V146.741H6.95654V118.071C2.59574 123.687 0 130.743 0 138.407V171.575C0 186.207 9.46326 198.624 22.5976 203.032V146.82H43.4394C43.4896 146.692 43.5415 146.563 43.5917 146.436Z" fill="#FFB343"/>
<path d="M99.4389 138.353H122.367V114.403C116.415 108.692 108.336 105.184 99.4389 105.184H96.4804V146.766H107.443V203.719C121.879 200.136 132.58 187.081 132.58 171.523C132.58 153.204 117.742 138.353 99.4389 138.353Z" fill="#FFB343"/>
<path d="M132.09 36.3517H126.025V52.5265C129.357 47.8874 131.522 42.3523 132.09 36.3517Z" fill="#FFB343"/>
<path d="M31.6874 36.3593H25.3955V34.0371C20.7519 35.1058 16.4815 37.1508 12.8118 39.9444V80.5352H22.3082V99.5327H50.62V93.1885C50.4928 92.9825 50.3957 92.758 50.3171 92.5135C50.1547 92.006 49.9372 91.5036 49.4185 91.2155C49.0888 91.0313 49.0604 90.9224 49.1608 90.5573C49.216 90.358 49.1691 90.1755 49.0771 90.0163C48.8746 89.6613 48.719 89.2828 48.473 88.9495C48.3073 88.7251 48.3525 88.442 48.3994 88.1807C48.473 87.7687 48.4697 87.3852 48.2421 87.0033C47.9978 86.593 47.8773 86.1207 47.8154 85.6501C47.7551 85.1761 47.5727 84.7339 47.4907 84.2717C47.3401 83.4309 46.977 82.6505 46.8264 81.8114C46.7879 81.602 46.7645 81.3943 46.8147 81.1867C46.8314 81.1214 46.8398 81.061 46.8214 80.9924C46.7829 80.84 46.7461 80.6876 46.7109 80.5352H31.6874V36.3593Z" fill="#FFB343"/>
<path d="M0.52778 33.1942V27.3367C0.18089 29.2381 0 31.1955 0 33.1942H0.52778Z" fill="#FFB343"/>
<path d="M6.95822 80.5954H0V99.5327H6.95822V80.5954Z" fill="#FFB343"/>
<path d="M60.1363 0.0125691V6.89761H63.2823V22.2675C63.7039 22.2221 64.1273 22.1874 64.5507 22.1524C65.3104 22.0893 66.0718 22.0647 66.8348 22.068C68.043 22.0734 69.2378 22.2228 70.4276 22.413C71.9888 22.6626 73.5333 22.9908 75.0193 23.541C75.3054 23.6465 75.5882 23.7567 75.8677 23.8713V6.89761H69.5758V0.0125691H60.1363Z" fill="#FFB343"/>
<path d="M116.49 6.91652H113.344V36.3672H125.928V13.8634C123.395 10.3353 120.185 7.32518 116.49 5.02296V6.91652Z" fill="#FFB343"/>
<path d="M10.0035 214.783C10.7575 214.783 11.635 214.88 12.636 215.075C13.65 215.27 14.391 215.478 14.859 215.699V219.853H13.0065C12.0055 217.968 10.6275 217.025 8.8725 217.025C8.1575 217.025 7.501 217.253 6.903 217.708C6.305 218.163 5.8305 218.787 5.4795 219.58C5.1415 220.373 4.9725 221.263 4.9725 222.251C4.9725 223.369 5.1415 224.396 5.4795 225.332C5.8305 226.255 6.357 226.996 7.059 227.555C7.761 228.101 8.632 228.374 9.672 228.374C10.855 228.374 12.5385 227.724 14.7225 226.424L15.5025 227.672L11.9145 230.461C11.3425 230.63 10.79 230.741 10.257 230.793C9.737 230.858 9.178 230.89 8.58 230.89C7.124 230.89 5.8305 230.559 4.6995 229.895C3.5685 229.232 2.691 228.322 2.067 227.165C1.443 225.995 1.131 224.669 1.131 223.187C1.131 221.666 1.599 220.262 2.535 218.975C3.471 217.675 4.6345 216.655 6.0255 215.914C7.4165 215.16 8.7425 214.783 10.0035 214.783ZM33.6553 230.5H26.4013V229.408L28.5268 228.14L27.3373 225.235H21.3118L20.2393 227.848L23.2228 229.232L22.5988 230.5H16.3003V229.408L18.4063 227.828L23.3983 215.797L26.7718 214.802L32.3098 228.238L34.2988 229.232L33.6553 230.5ZM24.3538 217.883L21.9358 223.733H26.7328L24.3538 217.883ZM42.9571 222.875C43.6461 222.875 44.1921 222.635 44.5951 222.154C44.9981 221.673 45.1996 221.01 45.1996 220.165C45.1996 219.138 44.9526 218.306 44.4586 217.669C43.9646 217.019 43.2366 216.694 42.2746 216.694C41.6376 216.694 41.0396 216.889 40.4806 217.279V228.491L43.8736 229.232L43.2301 230.5H35.1181V229.408L36.9511 227.965V217.103L34.7866 216.44L35.4301 215.173H38.6671C39.8241 215.173 40.9616 215.134 42.0796 215.056C42.9116 215.004 43.5226 214.978 43.9126 214.978C44.9266 214.978 45.8236 215.179 46.6036 215.582C47.3836 215.972 47.9881 216.512 48.4171 217.201C48.8461 217.89 49.0606 218.657 49.0606 219.502C49.0606 220.438 48.7031 221.315 47.9881 222.134C47.2731 222.953 46.3696 223.597 45.2776 224.065C44.1856 224.533 43.1196 224.741 42.0796 224.689L41.2216 224.162L41.8651 222.895H42.9571V222.875ZM58.401 222.875C59.09 222.875 59.636 222.635 60.039 222.154C60.442 221.673 60.6435 221.01 60.6435 220.165C60.6435 219.138 60.3965 218.306 59.9025 217.669C59.4085 217.019 58.6805 216.694 57.7185 216.694C57.0815 216.694 56.4835 216.889 55.9245 217.279V228.491L59.3175 229.232L58.674 230.5H50.562V229.408L52.395 227.965V217.103L50.2305 216.44L50.874 215.173H54.111C55.268 215.173 56.4055 215.134 57.5235 215.056C58.3555 215.004 58.9665 214.978 59.3565 214.978C60.3705 214.978 61.2675 215.179 62.0475 215.582C62.8275 215.972 63.432 216.512 63.861 217.201C64.29 217.89 64.5045 218.657 64.5045 219.502C64.5045 220.438 64.147 221.315 63.432 222.134C62.717 222.953 61.8135 223.597 60.7215 224.065C59.6295 224.533 58.5635 224.741 57.5235 224.689L56.6655 224.162L57.309 222.895H58.401V222.875ZM78.3298 230.52H66.0058V229.427L67.8388 227.984V217.084L65.6743 216.44L66.3178 215.173H78.1348L79.5388 214.822V219.794L78.4663 220.223L76.0678 216.655H71.3683V221.92H73.6888L75.1123 219.736H76.2043V225.41L74.9368 226.054L73.6693 223.421H71.3683V229.018H75.9118L78.6613 225.04L79.7338 225.489V230.871L78.3298 230.52ZM94.4429 230.5H82.0019V229.408L83.8349 227.965V217.006L81.6704 216.44L82.3139 215.173H89.2169V216.265L87.3644 217.708V229.018H91.7519L94.7744 224.65L95.8469 225.098V230.851L94.4429 230.5ZM109.982 230.5H97.541V229.408L99.374 227.965V217.006L97.2095 216.44L97.853 215.173H104.756V216.265L102.903 217.708V229.018H107.291L110.313 224.65L111.386 225.098V230.851L109.982 230.5ZM129.48 230.5H122.226V229.408L124.351 228.14L123.162 225.235H117.136L116.064 227.848L119.047 229.232L118.423 230.5H112.125V229.408L114.231 227.828L119.223 215.797L122.596 214.802L128.134 228.238L130.123 229.232L129.48 230.5ZM120.178 217.883L117.76 223.733H122.557L120.178 217.883Z" fill="#FFB343"/>
<path d="M32.9877 243.184L31.9152 243.613L29.1657 239.655H27.3522V251.667L29.5362 252.232L28.8927 253.5H21.9897V252.408L23.8227 250.965V239.655H22.0872L19.3377 243.613L18.2652 243.184V237.822L19.6692 238.173H31.5837L32.9877 237.822V243.184ZM49.8888 253.5H45.6573L41.8938 246.753L41.0358 246.226L41.5233 245.271H42.4203C43.1223 245.271 43.6748 245.056 44.0778 244.627C44.4808 244.198 44.6823 243.594 44.6823 242.814C44.6823 241.904 44.4353 241.163 43.9413 240.591C43.4603 240.006 42.7518 239.713 41.8158 239.713C41.2308 239.713 40.6848 239.895 40.1778 240.259V251.628L42.3423 252.252L41.7183 253.52H34.8153V252.427L36.6483 250.887V240.064L34.4838 239.46L35.1273 238.192H38.3643C39.4953 238.192 40.6068 238.153 41.6988 238.075C42.4788 238.023 43.0638 237.997 43.4538 237.997C44.4548 237.997 45.3388 238.179 46.1058 238.543C46.8858 238.894 47.4838 239.375 47.8998 239.986C48.3288 240.597 48.5433 241.28 48.5433 242.034C48.5433 242.944 48.1403 243.789 47.3343 244.569C46.5283 245.349 45.5468 245.934 44.3898 246.324L45.9498 246.772L48.4848 251.296L50.5128 252.232L49.8888 253.5ZM67.7056 253.5H60.4516V252.408L62.5771 251.14L61.3876 248.235H55.3621L54.2896 250.848L57.2731 252.232L56.6491 253.5H50.3506V252.408L52.4566 250.828L57.4486 238.797L60.8221 237.802L66.3601 251.238L68.3491 252.232L67.7056 253.5ZM58.4041 240.883L55.9861 246.733H60.7831L58.4041 240.883ZM81.5123 240.864L76.5203 252.876L73.1663 253.871L67.6283 240.435L65.6393 239.44L66.2633 238.173H73.5368V239.265L71.4113 240.532L75.6038 250.789L79.7183 240.844L76.7348 239.44L77.3588 238.173H83.6573L83.6378 239.265L81.5123 240.864ZM96.9172 253.52H84.5932V252.427L86.4262 250.984V240.084L84.2617 239.44L84.9052 238.173H96.7222L98.1262 237.822V242.794L97.0537 243.223L94.6552 239.655H89.9557V244.92H92.2762L93.6997 242.736H94.7917V248.41L93.5242 249.054L92.2567 246.421H89.9557V252.018H94.4992L97.2487 248.04L98.3212 248.489V253.871L96.9172 253.52ZM113.03 253.5H100.589V252.408L102.422 250.965V240.006L100.258 239.44L100.901 238.173H107.804V239.265L105.952 240.708V252.018H110.339L113.362 247.65L114.434 248.098V253.851L113.03 253.5Z" fill="#FFB343"/>
</svg>
