<svg width="28" height="28" viewBox="0 0 28 28" fill="none" xmlns="http://www.w3.org/2000/svg">
<circle cx="14" cy="14" r="14" fill="white"/>
<mask id="mask0_10331_6720" style="mask-type:luminance" maskUnits="userSpaceOnUse" x="8" y="5" width="11" height="18">
<path d="M8.97656 5.70571H18.7543V22.002H8.97656V5.70571Z" fill="white"/>
</mask>
<g mask="url(#mask0_10331_6720)">
<path d="M12.893 21.1407L12.752 20.4379H12.4609L12.3204 21.1372L12.1964 20.4379H11.8647L12.0495 21.3106C12.0577 21.3495 12.0741 21.3792 12.0984 21.3996C12.1225 21.42 12.1538 21.4302 12.1922 21.4302H12.4971L12.6028 20.8163L12.6861 21.3106C12.6935 21.3485 12.7092 21.3779 12.733 21.3989C12.7568 21.4198 12.7875 21.4302 12.8248 21.4302H13.1311L13.3427 20.4379H13.0165L12.893 21.1407ZM11.0528 20.4729C11.0305 20.4962 11.0192 20.5288 11.0192 20.5707V21.4302H11.8255V21.1821H11.3524V21.0479H11.7736V20.8217H11.3524V20.686H11.8255V20.4379H11.1465C11.1065 20.4379 11.0753 20.4495 11.0528 20.4729ZM14.4622 20.467C14.4436 20.4865 14.4344 20.5133 14.4344 20.5473V21.4302H14.9816V21.1953H14.7099V21.0464H14.9381V20.8275H14.7099V20.6728H14.9816V20.4379H14.5392C14.5066 20.4379 14.481 20.4476 14.4622 20.467ZM15.4448 20.6918C15.4448 20.6782 15.4403 20.6675 15.4316 20.6597C15.4226 20.6519 15.4101 20.648 15.3945 20.648H15.3299V20.8669H15.3945C15.4101 20.8669 15.4226 20.8628 15.4316 20.8545C15.4403 20.8463 15.4448 20.8348 15.4448 20.8202V20.6918ZM15.7268 21.0128C15.7395 21.0401 15.7458 21.0746 15.7458 21.1165L15.7442 21.4302H15.5261C15.5054 21.4302 15.4896 21.4244 15.4784 21.4127C15.4671 21.401 15.4615 21.385 15.4615 21.3646V21.1296C15.4615 21.1179 15.4594 21.108 15.4554 21.0997C15.4512 21.0914 15.4451 21.0853 15.4372 21.0814C15.4292 21.0776 15.4197 21.0756 15.4083 21.0756H15.3299V21.4302H15.0514V20.4379H15.4239C15.4975 20.4379 15.5571 20.4459 15.6023 20.4619C15.6476 20.478 15.6804 20.5038 15.7008 20.5393C15.7215 20.5748 15.7318 20.6237 15.7318 20.686V20.7312C15.7318 20.8032 15.713 20.854 15.6757 20.8837C15.6383 20.9134 15.5899 20.9282 15.5301 20.9282H15.5666C15.6076 20.9282 15.6415 20.9355 15.668 20.9501C15.6947 20.9647 15.7143 20.9856 15.7268 21.0128ZM14.0873 21.1763C14.0873 21.1899 14.0849 21.2011 14.0802 21.2099C14.0754 21.2186 14.0691 21.2254 14.0606 21.2303C14.0521 21.2352 14.0415 21.2376 14.0283 21.2376C14.0106 21.2376 13.9968 21.2323 13.9865 21.2215C13.9761 21.2108 13.9711 21.1958 13.9711 21.1763V20.9808H13.6926V21.1369C13.6934 21.2459 13.7212 21.3249 13.7757 21.3741C13.8303 21.4232 13.9145 21.4478 14.0283 21.4478C14.144 21.4478 14.2292 21.4227 14.2837 21.3726C14.3385 21.3225 14.3658 21.242 14.3658 21.1311V20.4379H14.0873V21.1763ZM17.4993 20.9924H17.498L17.4197 20.4379H17.1481L17.26 21.0508C17.2667 21.0839 17.2804 21.1097 17.3013 21.1281C17.3169 21.1419 17.3359 21.1505 17.358 21.154V21.4302H17.6352V21.1559H17.7122L17.8438 20.4379H17.5764L17.4993 20.9924ZM10.5967 21.0173L10.3587 20.4379H10.0296C9.99601 20.4379 9.96979 20.4476 9.95074 20.467C9.93141 20.4865 9.92188 20.5143 9.92188 20.5502V21.4302H10.248V20.8068L10.4929 21.4302H10.917V20.4379H10.5967V21.0173ZM16.5826 20.467C16.5641 20.4865 16.5548 20.5133 16.5548 20.5473V21.4302H17.102V21.1953H16.8304V21.0464H17.0586V20.8275H16.8304V20.6728H17.102V20.4379H16.6596C16.6271 20.4379 16.6014 20.4476 16.5826 20.467ZM16.4029 20.8742C16.3716 20.8548 16.3261 20.8382 16.2663 20.8246L16.1699 20.8042H16.1683C16.1461 20.8003 16.1294 20.7959 16.1188 20.791C16.108 20.7862 16.1005 20.7799 16.0963 20.7721C16.0921 20.7643 16.09 20.7511 16.09 20.7327V20.6728C16.09 20.6621 16.0918 20.6534 16.0955 20.6466C16.0992 20.6398 16.1053 20.6344 16.1138 20.6305C16.1223 20.6266 16.1328 20.6247 16.1461 20.6247C16.1638 20.6247 16.1776 20.629 16.1874 20.6378C16.1972 20.6466 16.2019 20.6587 16.2019 20.6743V20.7618H16.4749V20.7152C16.4749 20.613 16.4479 20.5383 16.3936 20.4911C16.3396 20.444 16.2557 20.4204 16.1418 20.4204C16.0299 20.4204 15.9467 20.4442 15.8927 20.4919C15.8385 20.5396 15.8115 20.6125 15.8115 20.7108V20.7721C15.8115 20.8197 15.8178 20.8587 15.8303 20.8888C15.843 20.919 15.8642 20.9433 15.8941 20.9618C15.924 20.9803 15.965 20.9949 16.0172 21.0056L16.1307 21.0289C16.153 21.0338 16.1696 21.0391 16.1802 21.0449C16.1911 21.0508 16.1982 21.0588 16.2019 21.0691C16.2056 21.0793 16.2075 21.0936 16.2075 21.1121V21.1938C16.2075 21.2045 16.2056 21.2135 16.2019 21.2208C16.1982 21.2281 16.1919 21.2337 16.1831 21.2376C16.1741 21.2415 16.1628 21.2434 16.1487 21.2434C16.1347 21.2434 16.1233 21.2413 16.1146 21.2369C16.1056 21.2325 16.099 21.2262 16.0942 21.2179C16.0894 21.2097 16.0873 21.1997 16.0873 21.188V21.0654H15.8072V21.1457C15.8083 21.2167 15.8215 21.2746 15.8472 21.3193C15.8729 21.3641 15.9105 21.3969 15.9597 21.4178C16.0092 21.4387 16.0722 21.4492 16.1487 21.4492C16.2252 21.4492 16.2885 21.4387 16.3385 21.4178C16.3883 21.3969 16.4256 21.3646 16.4505 21.3208C16.4751 21.277 16.4876 21.2206 16.4876 21.1515V21.0698C16.4876 21.0192 16.4812 20.9788 16.4685 20.9486C16.4561 20.9185 16.4341 20.8937 16.4029 20.8742ZM16.117 19.5609H16.3024C16.3263 19.5609 16.3448 19.5561 16.3574 19.5463C16.3698 19.5366 16.3761 19.522 16.3761 19.5026V19.4091C16.3761 19.3907 16.3698 19.3768 16.3574 19.3675C16.3448 19.3583 16.3263 19.3537 16.3024 19.3537H16.117V19.5609ZM16.117 20.1069H15.7759V19.1143H16.3788C16.4615 19.1143 16.5281 19.123 16.5787 19.1405C16.6292 19.158 16.6664 19.1858 16.6901 19.2237C16.7138 19.2617 16.7256 19.3118 16.7256 19.3741V19.4062C16.7256 19.4821 16.7048 19.5378 16.6629 19.5733C16.6211 19.6089 16.565 19.6266 16.4944 19.6266H16.5376C16.5887 19.6266 16.6295 19.6339 16.66 19.6485C16.6909 19.6631 16.7132 19.6848 16.7277 19.7134C16.7419 19.7422 16.7493 19.7799 16.7493 19.8266L16.748 20.1069H16.468C16.4467 20.1069 16.4299 20.1005 16.4177 20.0879C16.4059 20.0752 16.3998 20.0577 16.3998 20.0354V19.8572C16.3998 19.8407 16.3975 19.8273 16.3927 19.8171C16.3882 19.8069 16.3806 19.7996 16.3706 19.7952C16.3603 19.7908 16.3469 19.7886 16.33 19.7886H16.117V20.1069ZM14.3458 19.1143L14.1726 19.6695L13.9979 19.1143H13.6578L13.8683 19.7244C13.8812 19.7604 13.9015 19.7886 13.9289 19.8091C13.9512 19.8257 13.9766 19.8352 14.0047 19.8383V20.1069H14.3458V19.8397H14.4322L14.6842 19.1143H14.3458ZM12.7529 19.1143H12.4619L12.3208 19.8138L12.1959 19.1143H11.8658L12.051 19.9872C12.0594 20.0261 12.0757 20.0558 12.1005 20.0762C12.125 20.0966 12.1564 20.1069 12.1945 20.1069H12.4995L12.6038 19.4979L12.6873 19.9872C12.6947 20.0251 12.7105 20.0546 12.7347 20.0755C12.7589 20.0964 12.789 20.1069 12.8253 20.1069H13.1316L13.3418 19.1143H13.0173L12.8944 19.816L12.7529 19.1143ZM10.2464 19.4804L10.4929 20.1069H10.9161V19.1143H10.5972V19.6907L10.3591 19.1143H10.0306C9.99615 19.1143 9.96955 19.124 9.95059 19.1434C9.93136 19.1629 9.92188 19.1906 9.92188 19.2266V20.1069H10.2464V19.4804ZM16.837 19.1143V20.1069H17.1781V19.624L17.4217 20.1069H17.8033V20.0981L17.5097 19.5556L17.781 19.1143H17.4149L17.1781 19.5026V19.1143H16.837ZM15.3471 19.4763C15.3471 19.4451 15.3416 19.4184 15.3303 19.396C15.3192 19.3736 15.3008 19.3568 15.2752 19.3456C15.2497 19.3344 15.217 19.3288 15.1772 19.3288C15.1364 19.3288 15.1032 19.3344 15.0782 19.3456C15.0532 19.3568 15.035 19.3736 15.0232 19.396C15.0116 19.4184 15.0058 19.4451 15.0058 19.4763V19.7449C15.0058 19.776 15.0116 19.8028 15.0232 19.8251C15.035 19.8475 15.0532 19.8643 15.0782 19.8755C15.1032 19.8867 15.1364 19.8923 15.1772 19.8923C15.217 19.8923 15.2497 19.8867 15.2752 19.8755C15.3008 19.8643 15.3192 19.8475 15.3303 19.8251C15.3416 19.8028 15.3471 19.776 15.3471 19.7449V19.4763ZM15.5636 19.1858C15.6503 19.249 15.6937 19.3527 15.6937 19.4967V19.7244C15.6937 19.8685 15.6503 19.9721 15.5636 20.0354C15.4767 20.0986 15.3479 20.1302 15.1772 20.1302C15.0063 20.1302 14.8773 20.0986 14.7901 20.0354C14.7029 19.9721 14.6592 19.8685 14.6592 19.7244V19.4967C14.6592 19.3527 14.7029 19.249 14.7901 19.1858C14.8773 19.1225 15.0063 19.0909 15.1772 19.0909C15.3479 19.0909 15.4767 19.1225 15.5636 19.1858ZM11.1474 19.1143H11.8282V19.3624H11.352V19.4982H11.7752V19.7259H11.352V19.8587H11.8282V20.1069H11.0191V19.2485C11.0191 19.2057 11.0304 19.1726 11.0525 19.1493C11.0749 19.1259 11.1065 19.1143 11.1474 19.1143ZM17.2041 18.2866H17.1361L17.2041 18.3179V18.3343L17.1361 18.3655H17.2041V18.3821H17.13C17.1277 18.3821 17.1259 18.3815 17.1246 18.3802C17.1233 18.3789 17.1226 18.3771 17.1226 18.3748V18.356L17.1871 18.326L17.1226 18.2961V18.2772C17.1226 18.2748 17.1233 18.2731 17.1246 18.2718C17.1259 18.2706 17.1277 18.27 17.13 18.27H17.2041V18.2866ZM17.136 18.4242H17.2041V18.4413H17.136V18.4752H17.1226V18.3903H17.136V18.4242ZM15.3918 17.317L15.3451 17.1618H14.9418L14.8972 17.317H14.5458L14.9636 16.1618H15.3346L15.7522 17.317H15.3918ZM14.2068 16.8998V17.317H13.8498V16.1618H14.7303L14.6393 16.4135H14.2068V16.6474H14.555L14.4636 16.8998H14.2068ZM13.6043 17.317H13.2474L13.2474 16.1618H13.6043V17.317ZM13.0472 16.4135H12.6146V16.6474H12.9629L12.8715 16.8998H12.6146V17.317H12.2577V16.1618H13.1382L13.0472 16.4135ZM15.8633 12.5337H14.6437C14.6372 12.5482 14.6294 12.5623 14.6198 12.5756C14.6102 12.589 14.6036 12.6044 14.5949 12.6184C14.5888 12.6283 14.5881 12.6376 14.5932 12.6482C14.6035 12.67 14.6048 12.6927 14.5977 12.7158C14.5951 12.7241 14.5918 12.7322 14.5842 12.7371C14.5776 12.7413 14.5737 12.7477 14.572 12.7545C14.5673 12.7731 14.5606 12.7919 14.5606 12.8106C14.5605 12.8285 14.5567 12.8443 14.5501 12.8602C14.5453 12.8718 14.5407 12.883 14.5447 12.8964C14.5469 12.9036 14.5458 12.9124 14.544 12.9199C14.5391 12.94 14.5378 12.9603 14.5383 12.9807C14.5386 12.9923 14.5362 13.0029 14.5283 13.012C14.5224 13.0187 14.5199 13.0267 14.5205 13.0358C14.5208 13.0396 14.5212 13.044 14.5198 13.0475C14.5139 13.062 14.5151 13.0739 14.5289 13.0839C14.5361 13.0891 14.5345 13.0979 14.5328 13.106C14.5287 13.1247 14.5252 13.1435 14.5208 13.1621C14.5187 13.1707 14.5186 13.179 14.5205 13.1875C14.5277 13.219 14.5349 13.2503 14.5469 13.2806C14.5536 13.2974 14.5585 13.3157 14.5585 13.3344C14.5585 13.3477 14.5607 13.3606 14.5629 13.3737C14.5651 13.3866 14.5672 13.3992 14.5766 13.4099C14.5828 13.4169 14.5835 13.4269 14.5837 13.4362C14.5839 13.4455 14.5833 13.4547 14.5829 13.4639C14.5824 13.4773 14.5834 13.49 14.5908 13.502C14.5983 13.5141 14.6003 13.528 14.5989 13.5422C14.597 13.5619 14.5959 13.5817 14.5913 13.6011C14.5892 13.6098 14.5898 13.6181 14.5927 13.6264C14.5968 13.6378 14.5978 13.6496 14.5973 13.6616C14.5952 13.7038 14.5955 13.7461 14.5867 13.7878C14.5852 13.795 14.585 13.8018 14.5889 13.8088C14.6182 13.8605 14.6345 13.9185 14.6659 13.9692C14.6771 13.9872 14.6872 14.0057 14.6983 14.0237C14.7014 14.0286 14.7058 14.0331 14.7105 14.0365C14.7333 14.0532 14.7493 14.0759 14.7658 14.0982C14.7842 14.1231 14.8019 14.1486 14.8264 14.1684C14.8345 14.175 14.841 14.1836 14.8479 14.1916C14.8509 14.1951 14.8537 14.1991 14.8551 14.2033C14.8699 14.2489 14.8878 14.2934 14.902 14.3392C14.916 14.3846 14.9305 14.4299 14.9448 14.4752C14.9467 14.4815 14.9489 14.4879 14.9498 14.4944C14.9507 14.5022 14.9534 14.5083 14.9606 14.5119C14.9688 14.516 14.973 14.5235 14.9777 14.5307C15.0159 14.5887 15.0488 14.6498 15.0775 14.7129C15.0872 14.7341 15.101 14.752 15.1134 14.771C15.1495 14.8265 15.1787 14.8857 15.2075 14.9451C15.2113 14.953 15.2146 14.9607 15.2095 14.9695C15.2062 14.9753 15.2094 14.9799 15.2145 14.9825C15.2249 14.9878 15.2293 14.9974 15.2334 15.0071C15.2728 15.0987 15.3108 15.1909 15.3427 15.2853C15.3497 15.306 15.3541 15.3264 15.3701 15.3441C15.3904 15.3667 15.393 15.397 15.3895 15.4266C15.388 15.4393 15.3815 15.451 15.3814 15.4646C15.3814 15.4745 15.3717 15.4797 15.3625 15.4826C15.3441 15.4884 15.325 15.49 15.3058 15.4908C15.2115 15.4945 15.1171 15.4948 15.0227 15.4954C14.8787 15.4963 14.7348 15.4988 14.5909 15.4999C14.4958 15.5006 14.4007 15.4997 14.3056 15.4999C14.2383 15.5001 14.1709 15.5017 14.1036 15.5009C14.027 15.5 13.9504 15.5 13.8738 15.498C13.7186 15.498 13.5634 15.4985 13.4083 15.4978C13.2993 15.4973 13.1904 15.4954 13.0815 15.4936C12.9442 15.4913 12.8069 15.4887 12.6696 15.4856C12.5904 15.4838 12.5113 15.4808 12.4321 15.4781C12.4255 15.4779 12.419 15.4766 12.4124 15.4758C12.3887 15.4729 12.3877 15.472 12.3836 15.4492C12.3828 15.4445 12.381 15.4404 12.3787 15.4363C12.3756 15.431 12.3745 15.4252 12.3753 15.4191C12.3797 15.3818 12.3878 15.346 12.4188 15.3205C12.4223 15.3176 12.4238 15.3148 12.423 15.3104C12.4206 15.2969 12.4242 15.284 12.4278 15.2714C12.4549 15.1767 12.4903 15.0849 12.5269 14.9936C12.5296 14.9869 12.5331 14.9805 12.5382 14.9752C12.5436 14.9695 12.5458 14.9634 12.5411 14.9556C12.5368 14.9487 12.5399 14.9415 12.5431 14.9349C12.5742 14.8698 12.6111 14.8081 12.6517 14.7485C12.6574 14.7403 12.6659 14.7351 12.672 14.7272C12.6859 14.7093 12.6926 14.6879 12.7029 14.6683C12.7289 14.6192 12.7592 14.5728 12.7893 14.5262C12.7914 14.5229 12.7938 14.5179 12.7968 14.5173C12.8145 14.5138 12.8133 14.4994 12.817 14.4866C12.8292 14.4441 12.8424 14.4019 12.8557 14.3597C12.8698 14.315 12.8844 14.2705 12.899 14.2259C12.9004 14.2215 12.9014 14.2172 12.9012 14.2125C12.901 14.2028 12.9046 14.1925 12.9113 14.1874C12.9319 14.172 12.9343 14.1444 12.9532 14.1282C12.9554 14.1264 12.9561 14.1223 12.9565 14.1191C12.9595 14.0946 12.9716 14.0743 12.9866 14.0556C12.9905 14.0506 12.9919 14.0454 12.9933 14.0395C13.0025 14.0004 13.0062 13.9599 13.0199 13.9218C13.033 13.8853 13.0399 13.8469 13.054 13.8105C13.0667 13.7776 13.0787 13.7438 13.0819 13.708C13.0832 13.6944 13.089 13.6829 13.0977 13.6724C13.1166 13.6496 13.1227 13.6236 13.1162 13.5946C13.1137 13.5834 13.1153 13.5725 13.1189 13.5615C13.1239 13.546 13.1292 13.5307 13.125 13.5133C13.1216 13.4994 13.1299 13.4872 13.1399 13.4783C13.159 13.4613 13.1671 13.4382 13.1773 13.4161C13.1796 13.4111 13.1801 13.4059 13.1788 13.4007C13.1727 13.3743 13.1748 13.3467 13.1669 13.3205C13.1655 13.3161 13.165 13.311 13.1672 13.3069C13.175 13.2927 13.1687 13.2804 13.16 13.2708C13.1304 13.238 13.1286 13.1979 13.1294 13.1575C13.1304 13.1058 13.1419 13.0554 13.1537 13.0053C13.1555 12.9975 13.1564 12.9899 13.1539 12.9819C13.1478 12.9632 13.1475 12.9441 13.1527 12.9253C13.1603 12.8978 13.1567 12.872 13.1435 12.8469C13.1349 12.8305 13.1342 12.8124 13.1358 12.7946C13.1384 12.7669 13.1328 12.7406 13.1242 12.7149C13.1165 12.6921 13.1121 12.669 13.1115 12.6451C13.1111 12.6259 13.109 12.6069 13.1056 12.588C13.1033 12.575 13.1011 12.5618 13.1011 12.5487C13.1011 12.5437 13.1011 12.5387 13.101 12.5337H11.9023C10.8086 12.5337 9.92188 13.4204 9.92188 14.5142V16.4947C9.92188 17.5885 10.8086 18.4752 11.9023 18.4752H15.8633C16.9571 18.4752 17.8438 17.5885 17.8438 16.4947V16.4947C17.8438 15.4009 16.9571 14.5142 15.8633 14.5142H17.8438C17.8438 13.4204 16.9571 12.5337 15.8633 12.5337ZM15.0056 16.9398H15.2861L15.1435 16.4586L15.0056 16.9398ZM17.8438 8.23345C17.8438 7.13966 16.9571 6.25298 15.8633 6.25298H11.9023C10.8086 6.25298 9.92188 7.13966 9.92188 8.23345H11.9023C10.8086 8.23345 9.92188 9.12014 9.92188 10.2139V12.1944H13.086C13.0845 12.1901 13.0829 12.1858 13.0811 12.1815C13.0707 12.1558 13.0733 12.1284 13.0828 12.1021C13.0846 12.097 13.0882 12.0925 13.0932 12.0906C13.1046 12.0864 13.1055 12.0777 13.1033 12.0681C13.0947 12.0302 13.0868 11.9923 13.0608 11.9609C13.05 11.9478 13.043 11.9316 13.0346 11.9167C13.0184 11.8878 13.0009 11.86 12.9788 11.8352C12.9632 11.8178 12.9533 11.7981 12.946 11.7753C12.9363 11.745 12.9232 11.715 12.8922 11.6977C12.8726 11.6868 12.8709 11.6803 12.8769 11.6585C12.8802 11.6466 12.8773 11.6357 12.8719 11.6262C12.8598 11.605 12.8505 11.5824 12.8358 11.5625C12.8259 11.5491 12.8286 11.5321 12.8314 11.5166C12.8358 11.492 12.8355 11.4691 12.822 11.4463C12.8074 11.4217 12.8001 11.3936 12.7965 11.3655C12.7928 11.3372 12.782 11.3108 12.777 11.2832C12.768 11.2329 12.7463 11.1864 12.7373 11.1363C12.7351 11.1238 12.7337 11.1114 12.7367 11.099C12.7376 11.0951 12.7381 11.0915 12.7371 11.0874C12.7289 11.0555 12.7221 11.0232 12.7171 10.9906C12.7161 10.9841 12.7141 10.9776 12.7114 10.9717C12.6993 10.9449 12.696 10.9158 12.6883 10.8878C12.6853 10.8769 12.6853 10.8652 12.6885 10.8545C12.6918 10.8437 12.6908 10.834 12.6879 10.8235C12.6847 10.8121 12.684 10.8002 12.6831 10.7883C12.6801 10.7516 12.6799 10.7146 12.6676 10.6792C12.6639 10.6684 12.6644 10.6578 12.6665 10.6463C12.6695 10.6302 12.6685 10.6134 12.6615 10.5978C12.6575 10.589 12.6557 10.5803 12.6606 10.5713C12.6626 10.5677 12.6631 10.564 12.6623 10.5598C12.6565 10.5287 12.6526 10.4971 12.6377 10.4684C12.6323 10.4582 12.63 10.4473 12.6314 10.4359C12.6336 10.4164 12.6312 10.397 12.6372 10.3772C12.642 10.3612 12.6397 10.3416 12.6289 10.3259C12.6124 10.3017 12.6023 10.2749 12.5917 10.2477C12.5746 10.2039 12.5625 10.1588 12.5473 10.1146C12.5396 10.0923 12.5334 10.0692 12.523 10.0477C12.5216 10.0448 12.5201 10.0415 12.5199 10.0384C12.5188 10.0154 12.5088 9.9953 12.5006 9.97456C12.5004 9.97395 12.5005 9.97318 12.5002 9.97263C12.4791 9.93594 12.4778 9.89176 12.4559 9.85549C12.4397 9.82858 12.4313 9.79875 12.4213 9.76945C12.4165 9.75563 12.414 9.74136 12.4103 9.72731C12.4049 9.70626 12.3997 9.6853 12.3891 9.6658C12.3801 9.64927 12.3776 9.63054 12.3808 9.61192C12.3826 9.60141 12.3816 9.59076 12.384 9.58044C12.3853 9.57466 12.3831 9.57008 12.3798 9.56579C12.3688 9.55137 12.369 9.53516 12.3722 9.51849C12.3728 9.51525 12.3733 9.51194 12.3745 9.50886C12.382 9.48809 12.3819 9.46697 12.3816 9.44495C12.3809 9.39089 12.3841 9.33679 12.3905 9.28303C12.3938 9.25606 12.4226 9.23719 12.4499 9.24287C12.4563 9.24422 12.4628 9.24579 12.4693 9.24607C12.4832 9.24665 12.487 9.24211 12.485 9.22826C12.4826 9.21129 12.48 9.19435 12.4776 9.17737C12.4701 9.12341 12.4739 9.06937 12.4764 9.01533C12.4769 9.0039 12.4807 8.9922 12.4655 8.98524C12.4578 8.98171 12.46 8.97109 12.4602 8.96333C12.4612 8.93289 12.4654 8.90275 12.4711 8.87291C12.5139 8.64685 12.5935 8.43474 12.713 8.2379C12.7446 8.18582 12.7803 8.13671 12.8236 8.09352C12.8268 8.09026 12.8296 8.08533 12.8336 8.08413C12.8525 8.07829 12.8587 8.06042 12.8698 8.04724C12.8754 8.04069 12.8811 8.03451 12.8876 8.02878C12.9103 8.00875 12.9298 7.98581 12.9472 7.96093C12.9539 7.95131 12.9631 7.94334 12.9717 7.93512C13.1497 7.76444 13.3622 7.65819 13.6001 7.60013C13.6618 7.58508 13.7252 7.57996 13.7883 7.57473C13.8338 7.57097 13.8793 7.5695 13.9249 7.5697C13.9971 7.57001 14.0684 7.57895 14.1395 7.59029C14.2328 7.60519 14.3251 7.62479 14.4139 7.65764C14.5681 7.71467 14.7101 7.79352 14.8356 7.90037C14.8851 7.94242 14.9296 7.9894 14.9686 8.0414C14.9831 8.06068 14.9991 8.07891 15.0104 8.10048C15.0125 8.10456 15.0172 8.1089 15.0167 8.11252C15.0139 8.13102 15.028 8.1347 15.0398 8.13853C15.0506 8.14202 15.0579 8.14856 15.0649 8.15648C15.096 8.19162 15.1223 8.23064 15.1518 8.26705C15.158 8.27462 15.1646 8.28307 15.1537 8.29274C15.1505 8.2955 15.1537 8.29899 15.156 8.30119C15.1901 8.3347 15.208 8.37887 15.2325 8.41858C15.2505 8.4477 15.2637 8.47961 15.276 8.51175C15.2883 8.54376 15.2987 8.57644 15.3129 8.60778C15.332 8.6501 15.3412 8.69554 15.351 8.74074C15.3594 8.77942 15.3686 8.81791 15.3785 8.85624C15.3851 8.88162 15.3957 8.88426 15.4147 8.8651C15.4253 8.85439 15.4358 8.84357 15.4466 8.833C15.456 8.82376 15.4663 8.8155 15.4756 8.80623C15.484 8.79792 15.4933 8.79803 15.5028 8.80317C15.5163 8.8105 15.5261 8.8209 15.5249 8.83759C15.5243 8.8471 15.5254 8.85594 15.5299 8.86442C15.5339 8.8722 15.5349 8.88082 15.5355 8.88938C15.5362 8.90125 15.5365 8.91314 15.5369 8.92502C15.5375 8.9412 15.5372 8.95613 15.5509 8.9699C15.5669 8.98599 15.5702 9.00844 15.5656 9.03113C15.564 9.03914 15.5636 9.04671 15.5684 9.05392C15.5699 9.05606 15.5713 9.05896 15.571 9.06131C15.5683 9.08423 15.5807 9.10428 15.5829 9.12624C15.5841 9.13727 15.5862 9.14776 15.5905 9.15851C15.5981 9.17756 15.5904 9.19644 15.5816 9.21356C15.5575 9.26089 15.542 9.31145 15.5287 9.36232C15.5198 9.39593 15.517 9.43131 15.5136 9.4661C15.5066 9.53994 15.4888 9.61162 15.4724 9.68363C15.4717 9.68684 15.4708 9.69012 15.4694 9.69305C15.4491 9.7339 15.4373 9.77819 15.4179 9.81936C15.4108 9.83441 15.4005 9.84745 15.3889 9.8593C15.3766 9.87189 15.3721 9.88641 15.3735 9.90414C15.3768 9.9449 15.3764 9.98585 15.3809 10.0266C15.3832 10.0467 15.3782 10.0672 15.3746 10.0875C15.3639 10.1482 15.343 10.2061 15.322 10.2635C15.3124 10.2897 15.3061 10.3176 15.2914 10.3422C15.2783 10.3642 15.2677 10.3877 15.2557 10.4103C15.2532 10.4151 15.2511 10.4197 15.2505 10.4251C15.2466 10.4561 15.2364 10.4857 15.2263 10.5147C15.2127 10.554 15.1998 10.5931 15.1915 10.6339C15.1886 10.6481 15.182 10.6615 15.1695 10.6706C15.1656 10.6734 15.1633 10.6773 15.1614 10.6816C15.1494 10.7088 15.1371 10.7358 15.1258 10.7632C15.1198 10.7777 15.1136 10.7924 15.1166 10.809C15.118 10.817 15.1148 10.825 15.1099 10.8313C15.0923 10.8547 15.0878 10.8832 15.0788 10.9099C15.0752 10.9205 15.0726 10.9314 15.0702 10.9424C15.0672 10.9558 15.0622 10.9687 15.0645 10.9832C15.066 10.9922 15.0627 11.0018 15.0584 11.0099C15.0451 11.0355 15.0431 11.0633 15.0438 11.0909C15.0448 11.1286 15.0369 11.1642 15.0247 11.1992C15.0117 11.2363 15.0047 11.2743 15.0053 11.3137C15.0053 11.3203 15.005 11.3269 15.0049 11.3335C15.0048 11.3514 14.9968 11.3649 14.9821 11.375C14.9691 11.3842 14.9664 11.3876 14.9732 11.4007C14.9909 11.4347 14.9775 11.4644 14.9642 11.4948C14.9571 11.5111 14.9504 11.5276 14.9502 11.546C14.95 11.5614 14.9426 11.5758 14.9362 11.5887C14.9155 11.6311 14.911 11.6774 14.899 11.7218C14.8981 11.725 14.8979 11.7284 14.8966 11.7314C14.8792 11.7704 14.8742 11.8126 14.8646 11.8536C14.8606 11.8707 14.8543 11.8863 14.8449 11.9008C14.8314 11.9215 14.8238 11.9445 14.8165 11.9679C14.8062 12.0007 14.7929 12.0324 14.7829 12.0652C14.7693 12.1096 14.7478 12.1506 14.7308 12.1935C14.7306 12.1938 14.7305 12.1941 14.7304 12.1944H17.8438V10.2139H15.8633C16.9571 10.2139 17.8438 9.32723 17.8438 8.23345Z" fill="#006064"/>
<path d="M15.3918 17.3165L15.3451 17.1613H14.9418L14.8972 17.3165H14.5458L14.9636 16.1613H15.3346L15.7522 17.3165H15.3918ZM14.2068 16.8992V17.3165H13.8498V16.1613H14.7303L14.6393 16.413H14.2068V16.6468H14.555L14.4636 16.8992H14.2068ZM13.6043 17.3165H13.2474L13.2474 16.1613H13.6043V17.3165ZM13.0472 16.413H12.6146V16.6468H12.9629L12.8715 16.8992H12.6146V17.3165H12.2577V16.1613H13.1382L13.0472 16.413ZM15.8633 12.5332H14.6437C14.6372 12.5477 14.6294 12.5617 14.6198 12.5751C14.6102 12.5884 14.6036 12.6038 14.5949 12.6179C14.5888 12.6278 14.5881 12.637 14.5932 12.6477C14.6035 12.6695 14.6048 12.6921 14.5977 12.7152C14.5951 12.7236 14.5918 12.7316 14.5842 12.7365C14.5776 12.7408 14.5737 12.7471 14.572 12.754C14.5673 12.7725 14.5606 12.7913 14.5606 12.81C14.5605 12.8279 14.5567 12.8438 14.5501 12.8597C14.5453 12.8712 14.5407 12.8824 14.5447 12.8959C14.5469 12.903 14.5458 12.9119 14.544 12.9194C14.5391 12.9394 14.5378 12.9597 14.5383 12.9802C14.5386 12.9918 14.5362 13.0024 14.5283 13.0114C14.5224 13.0181 14.5199 13.0261 14.5205 13.0352C14.5208 13.0391 14.5212 13.0435 14.5198 13.0469C14.5139 13.0615 14.5151 13.0733 14.5289 13.0833C14.5361 13.0886 14.5345 13.0974 14.5328 13.1054C14.5287 13.1241 14.5252 13.1429 14.5208 13.1615C14.5187 13.1702 14.5186 13.1784 14.5205 13.1869C14.5277 13.2184 14.5349 13.2497 14.5469 13.28C14.5536 13.2968 14.5585 13.3152 14.5585 13.3338C14.5585 13.3472 14.5607 13.3601 14.5629 13.3731C14.5651 13.3861 14.5672 13.3987 14.5766 13.4093C14.5828 13.4164 14.5835 13.4264 14.5837 13.4357C14.5839 13.4449 14.5833 13.4542 14.5829 13.4634C14.5824 13.4768 14.5834 13.4895 14.5908 13.5015C14.5983 13.5136 14.6003 13.5275 14.5989 13.5416C14.597 13.5613 14.5959 13.5812 14.5913 13.6005C14.5892 13.6092 14.5898 13.6176 14.5927 13.6259C14.5968 13.6373 14.5978 13.6491 14.5973 13.661C14.5952 13.7032 14.5955 13.7456 14.5867 13.7872C14.5852 13.7944 14.585 13.8012 14.5889 13.8082C14.6182 13.86 14.6345 13.918 14.6659 13.9687C14.6771 13.9866 14.6872 14.0052 14.6983 14.0231C14.7014 14.028 14.7058 14.0325 14.7105 14.036C14.7333 14.0527 14.7493 14.0754 14.7658 14.0976C14.7842 14.1226 14.8019 14.1481 14.8264 14.1679C14.8345 14.1745 14.841 14.1831 14.8479 14.1911C14.8509 14.1945 14.8537 14.1985 14.8551 14.2028C14.8699 14.2484 14.8878 14.2929 14.902 14.3387C14.916 14.3841 14.9305 14.4293 14.9448 14.4747C14.9467 14.481 14.9489 14.4873 14.9498 14.4938C14.9507 14.5016 14.9534 14.5078 14.9606 14.5114C14.9688 14.5154 14.973 14.5229 14.9777 14.5301C15.0159 14.5882 15.0488 14.6492 15.0775 14.7123C15.0872 14.7336 15.101 14.7514 15.1134 14.7704C15.1495 14.826 15.1787 14.8852 15.2075 14.9446C15.2113 14.9525 15.2146 14.9601 15.2095 14.9689C15.2062 14.9748 15.2094 14.9793 15.2145 14.982C15.2249 14.9872 15.2293 14.9969 15.2334 15.0065C15.2728 15.0981 15.3108 15.1903 15.3427 15.2848C15.3497 15.3055 15.3541 15.3259 15.3701 15.3436C15.3904 15.3662 15.393 15.3964 15.3895 15.4261C15.388 15.4388 15.3815 15.4504 15.3814 15.464C15.3814 15.4739 15.3717 15.4792 15.3625 15.4821C15.3441 15.4879 15.325 15.4895 15.3058 15.4902C15.2115 15.494 15.1171 15.4943 15.0227 15.4949C14.8787 15.4957 14.7348 15.4983 14.5909 15.4993C14.4958 15.5 14.4007 15.4992 14.3056 15.4994C14.2383 15.4995 14.1709 15.5012 14.1036 15.5003C14.027 15.4994 13.9504 15.4995 13.8738 15.4974C13.7186 15.4974 13.5634 15.498 13.4083 15.4972C13.2993 15.4967 13.1904 15.4949 13.0815 15.493C12.9442 15.4907 12.8069 15.4882 12.6696 15.4851C12.5904 15.4833 12.5112 15.4802 12.4321 15.4776C12.4255 15.4774 12.419 15.4761 12.4124 15.4753C12.3887 15.4724 12.3877 15.4715 12.3836 15.4486C12.3828 15.4439 12.381 15.4398 12.3787 15.4358C12.3756 15.4305 12.3745 15.4246 12.3753 15.4186C12.3797 15.3813 12.3878 15.3455 12.4188 15.3199C12.4223 15.3171 12.4238 15.3143 12.423 15.3098C12.4206 15.2964 12.4242 15.2835 12.4278 15.2708C12.4549 15.1762 12.4903 15.0844 12.5269 14.9931C12.5296 14.9864 12.5331 14.98 12.5382 14.9746C12.5436 14.969 12.5458 14.9629 12.5411 14.9551C12.5368 14.9481 12.5399 14.941 12.5431 14.9343C12.5742 14.8692 12.6111 14.8075 12.6517 14.748C12.6574 14.7397 12.6659 14.7346 12.672 14.7267C12.6859 14.7088 12.6926 14.6873 12.7029 14.6678C12.7289 14.6186 12.7592 14.5722 12.7893 14.5256C12.7914 14.5223 12.7938 14.5174 12.7968 14.5168C12.8145 14.5132 12.8133 14.4989 12.817 14.486C12.8292 14.4435 12.8424 14.4013 12.8557 14.3591C12.8698 14.3144 12.8844 14.2699 12.899 14.2254C12.9004 14.2209 12.9014 14.2167 12.9012 14.2119C12.901 14.2023 12.9046 14.1919 12.9113 14.1869C12.9319 14.1714 12.9343 14.1438 12.9532 14.1277C12.9554 14.1258 12.9561 14.1217 12.9565 14.1185C12.9595 14.094 12.9716 14.0737 12.9866 14.055C12.9905 14.0501 12.9919 14.0449 12.9933 14.039C13.0025 13.9998 13.0062 13.9594 13.0199 13.9213C13.033 13.8847 13.0399 13.8464 13.054 13.8099C13.0667 13.7771 13.0787 13.7433 13.0819 13.7075C13.0832 13.6938 13.089 13.6824 13.0977 13.6719C13.1166 13.6491 13.1227 13.6231 13.1162 13.5941C13.1137 13.5828 13.1153 13.572 13.1189 13.561C13.1239 13.5454 13.1292 13.5301 13.125 13.5127C13.1216 13.4989 13.1299 13.4866 13.1399 13.4778C13.159 13.4608 13.1671 13.4377 13.1773 13.4156C13.1796 13.4106 13.1801 13.4054 13.1788 13.4001C13.1727 13.3737 13.1748 13.3461 13.1669 13.32C13.1655 13.3155 13.165 13.3104 13.1672 13.3063C13.175 13.2921 13.1687 13.2798 13.16 13.2702C13.1304 13.2374 13.1286 13.1973 13.1294 13.1569C13.1304 13.1052 13.1419 13.0549 13.1537 13.0047C13.1555 12.997 13.1564 12.9894 13.1539 12.9814C13.1478 12.9627 13.1475 12.9436 13.1527 12.9247C13.1603 12.8972 13.1567 12.8714 13.1435 12.8464C13.1349 12.83 13.1342 12.8119 13.1358 12.7941C13.1384 12.7664 13.1328 12.74 13.1242 12.7143C13.1165 12.6915 13.1121 12.6684 13.1115 12.6445C13.1111 12.6253 13.109 12.6064 13.1056 12.5874C13.1033 12.5745 13.1011 12.5612 13.1011 12.5481C13.1011 12.5431 13.1011 12.5382 13.101 12.5332H11.9023C10.8086 12.5332 9.92188 13.4199 9.92188 14.5137V16.4941C9.92188 17.5879 10.8086 18.4746 11.9023 18.4746H15.8633C16.9571 18.4746 17.8438 17.5879 17.8438 16.4941V16.4941C17.8438 15.4003 16.9571 14.5137 15.8633 14.5137H17.8438V14.5137C17.8438 13.4199 16.9571 12.5332 15.8633 12.5332ZM15.0056 16.9393H15.2861L15.1434 16.4581L15.0056 16.9393ZM17.8438 8.2329V8.23289C17.8438 7.13911 16.9571 6.25243 15.8633 6.25243H11.9023C10.8086 6.25243 9.92188 7.13911 9.92188 8.23289H11.9023C10.8086 8.23289 9.92188 9.11959 9.92188 10.2134V12.1938H13.086C13.0845 12.1895 13.0829 12.1853 13.0811 12.181C13.0707 12.1552 13.0733 12.1278 13.0828 12.1016C13.0846 12.0965 13.0882 12.092 13.0932 12.0901C13.1046 12.0858 13.1055 12.0772 13.1033 12.0675C13.0947 12.0296 13.0868 11.9917 13.0608 11.9603C13.05 11.9473 13.043 11.9311 13.0346 11.9161C13.0184 11.8873 13.0009 11.8594 12.9787 11.8346C12.9632 11.8173 12.9533 11.7975 12.946 11.7747C12.9363 11.7444 12.9232 11.7144 12.8922 11.6972C12.8726 11.6863 12.8709 11.6797 12.8769 11.658C12.8802 11.646 12.8773 11.6352 12.8719 11.6256C12.8598 11.6045 12.8505 11.5818 12.8358 11.562C12.8259 11.5486 12.8286 11.5316 12.8314 11.516C12.8358 11.4915 12.8355 11.4686 12.822 11.4457C12.8074 11.4212 12.8001 11.3931 12.7965 11.365C12.7928 11.3366 12.782 11.3103 12.777 11.2826C12.768 11.2324 12.7463 11.1858 12.7373 11.1357C12.7351 11.1232 12.7337 11.1109 12.7367 11.0984C12.7376 11.0945 12.7381 11.091 12.7371 11.0869C12.7289 11.0549 12.7221 11.0227 12.7171 10.99C12.7161 10.9836 12.7141 10.9771 12.7114 10.9711C12.6993 10.9444 12.696 10.9152 12.6883 10.8873C12.6853 10.8764 12.6853 10.8647 12.6885 10.8539C12.6918 10.8432 12.6908 10.8334 12.6879 10.823C12.6847 10.8116 12.684 10.7996 12.6831 10.7878C12.6801 10.7511 12.6799 10.714 12.6676 10.6786C12.6639 10.6679 12.6644 10.6573 12.6665 10.6457C12.6695 10.6297 12.6685 10.6128 12.6615 10.5973C12.6575 10.5884 12.6557 10.5798 12.6606 10.5708C12.6626 10.5672 12.6631 10.5634 12.6623 10.5593C12.6565 10.5282 12.6526 10.4965 12.6377 10.4679C12.6323 10.4576 12.63 10.4467 12.6314 10.4353C12.6336 10.4159 12.6312 10.3965 12.6372 10.3766C12.642 10.3606 12.6397 10.3411 12.6289 10.3253C12.6124 10.3012 12.6023 10.2744 12.5917 10.2472C12.5746 10.2034 12.5625 10.1583 12.5473 10.114C12.5396 10.0917 12.5334 10.0686 12.523 10.0472C12.5216 10.0442 12.5201 10.041 12.5199 10.0378C12.5188 10.0149 12.5087 9.99475 12.5006 9.97401C12.5003 9.97341 12.5005 9.97262 12.5002 9.97209C12.4791 9.9354 12.4778 9.8912 12.4559 9.85494C12.4397 9.82802 12.4313 9.79821 12.4213 9.7689C12.4165 9.75508 12.414 9.74081 12.4103 9.72676C12.4049 9.70572 12.3997 9.68474 12.3891 9.66525C12.3801 9.64872 12.3776 9.62999 12.3808 9.61137C12.3826 9.60087 12.3816 9.59022 12.384 9.57989C12.3853 9.57411 12.3831 9.56954 12.3798 9.56523C12.3688 9.55082 12.369 9.53461 12.3722 9.51794C12.3728 9.5147 12.3733 9.51139 12.3745 9.50831C12.382 9.48753 12.3819 9.46642 12.3816 9.44439C12.3809 9.39034 12.3841 9.33624 12.3905 9.28249C12.3938 9.25551 12.4226 9.23664 12.4499 9.24232C12.4563 9.24367 12.4628 9.24524 12.4693 9.24552C12.4832 9.2461 12.487 9.24155 12.485 9.22771C12.4826 9.21074 12.48 9.1938 12.4776 9.17682C12.4701 9.12286 12.4739 9.06882 12.4764 9.01478C12.4769 9.00335 12.4807 8.99166 12.4655 8.98468C12.4578 8.98116 12.46 8.97054 12.4602 8.96277C12.4612 8.93234 12.4654 8.90219 12.4711 8.87236C12.5139 8.64631 12.5935 8.43419 12.713 8.23735C12.7446 8.18527 12.7803 8.13616 12.8236 8.09297C12.8268 8.08971 12.8296 8.08479 12.8336 8.08358C12.8525 8.07775 12.8587 8.05987 12.8698 8.04669C12.8754 8.04014 12.8811 8.03397 12.8876 8.02823C12.9103 8.0082 12.9298 7.98526 12.9472 7.96038C12.9539 7.95076 12.9631 7.94279 12.9717 7.93458C13.1497 7.7639 13.3622 7.65764 13.6001 7.59958C13.6618 7.58453 13.7252 7.57941 13.7883 7.57418C13.8338 7.57042 13.8793 7.56894 13.9249 7.56915C13.9971 7.56947 14.0684 7.5784 14.1395 7.58975C14.2328 7.60464 14.3251 7.62424 14.4139 7.65708C14.5681 7.71412 14.7101 7.79298 14.8356 7.89982C14.8851 7.94188 14.9296 7.98885 14.9686 8.04085C14.9831 8.06013 14.9991 8.07837 15.0103 8.09993C15.0125 8.10402 15.0172 8.10835 15.0167 8.11197C15.0139 8.13047 15.028 8.13415 15.0398 8.13797C15.0506 8.14147 15.0579 8.14801 15.0649 8.15594C15.096 8.19107 15.1223 8.23009 15.1518 8.26649C15.158 8.27407 15.1646 8.28253 15.1537 8.2922C15.1505 8.29495 15.1537 8.29845 15.156 8.30065C15.1901 8.33415 15.208 8.37832 15.2325 8.41804C15.2505 8.44716 15.2637 8.47906 15.276 8.5112C15.2883 8.54321 15.2987 8.57589 15.3129 8.60723C15.332 8.64956 15.3412 8.69499 15.351 8.74019C15.3593 8.77887 15.3686 8.81737 15.3785 8.85568C15.3851 8.88107 15.3957 8.88371 15.4147 8.86455C15.4253 8.85384 15.4358 8.84302 15.4466 8.83244C15.456 8.82321 15.4663 8.81495 15.4756 8.80568C15.484 8.79737 15.4933 8.79747 15.5028 8.80262C15.5163 8.80995 15.5261 8.82035 15.5249 8.83704C15.5243 8.84655 15.5254 8.85539 15.5299 8.86386C15.5339 8.87165 15.5349 8.88027 15.5355 8.88883C15.5362 8.90069 15.5365 8.91259 15.5369 8.92447C15.5375 8.94065 15.5372 8.95558 15.5509 8.96935C15.5669 8.98544 15.5702 9.0079 15.5656 9.03058C15.564 9.03859 15.5636 9.04616 15.5684 9.05337C15.5698 9.05551 15.5713 9.05841 15.571 9.06076C15.5683 9.08367 15.5807 9.10373 15.5829 9.12569C15.5841 9.13672 15.5862 9.14721 15.5905 9.15797C15.5981 9.177 15.5904 9.19589 15.5816 9.21301C15.5575 9.26034 15.542 9.31091 15.5286 9.36178C15.5198 9.39538 15.517 9.43076 15.5136 9.46555C15.5066 9.53939 15.4888 9.61107 15.4724 9.68308C15.4717 9.68629 15.4708 9.68957 15.4694 9.6925C15.4491 9.73335 15.4373 9.77763 15.4179 9.81881C15.4108 9.83386 15.4005 9.84689 15.3889 9.85875C15.3766 9.87133 15.3721 9.88586 15.3735 9.90359C15.3768 9.94435 15.3764 9.9853 15.3809 10.0261C15.3832 10.0462 15.3782 10.0667 15.3746 10.0869C15.3639 10.1477 15.343 10.2055 15.322 10.2629C15.3124 10.2892 15.3061 10.317 15.2914 10.3417C15.2783 10.3636 15.2677 10.3871 15.2557 10.4098C15.2532 10.4145 15.2511 10.4192 15.2505 10.4245C15.2466 10.4555 15.2364 10.4852 15.2263 10.5141C15.2127 10.5534 15.1998 10.5926 15.1915 10.6334C15.1886 10.6476 15.182 10.6609 15.1695 10.67C15.1656 10.6729 15.1633 10.6768 15.1614 10.681C15.1494 10.7082 15.1371 10.7353 15.1258 10.7627C15.1198 10.7772 15.1136 10.7918 15.1166 10.8085C15.118 10.8165 15.1147 10.8244 15.1099 10.8308C15.0923 10.8541 15.0878 10.8826 15.0788 10.9093C15.0752 10.9199 15.0726 10.9309 15.0702 10.9418C15.0672 10.9552 15.0622 10.9681 15.0645 10.9826C15.066 10.9916 15.0627 11.0012 15.0584 11.0094C15.0451 11.0349 15.0431 11.0627 15.0438 11.0904C15.0448 11.128 15.0369 11.1636 15.0247 11.1987C15.0117 11.2357 15.0047 11.2738 15.0052 11.3131C15.0053 11.3197 15.005 11.3263 15.0049 11.3329C15.0048 11.3509 14.9968 11.3643 14.9821 11.3745C14.9691 11.3836 14.9663 11.387 14.9732 11.4001C14.9909 11.4341 14.9775 11.4638 14.9642 11.4943C14.9571 11.5106 14.9504 11.527 14.9502 11.5454C14.95 11.5609 14.9426 11.5752 14.9362 11.5882C14.9155 11.6305 14.911 11.6769 14.899 11.7213C14.8981 11.7245 14.8979 11.7279 14.8966 11.7308C14.8792 11.7698 14.8742 11.8121 14.8646 11.8531C14.8606 11.8701 14.8543 11.8857 14.8449 11.9002C14.8314 11.9209 14.8238 11.944 14.8165 11.9674C14.8062 12.0001 14.7929 12.0318 14.7829 12.0646C14.7693 12.109 14.7478 12.15 14.7307 12.1929C14.7306 12.1932 14.7305 12.1935 14.7304 12.1938H17.8438V10.2134H15.8633C16.9571 10.2134 17.8438 9.32668 17.8438 8.2329Z" fill="#006064"/>
<path d="M12.7153 8.23929C12.7469 8.1872 12.7826 8.13809 12.8259 8.09491C12.8291 8.09165 12.8319 8.08672 12.8359 8.08551C12.8548 8.07968 12.861 8.06182 12.8721 8.04864C12.8777 8.04208 12.8834 8.0359 12.8899 8.03017C12.9126 8.01014 12.9321 7.9872 12.9495 7.96232C12.9533 7.95679 12.958 7.95182 12.9629 7.94702V6.66541L12.9629 6.25437H12.3989V6.66541H12.2109V8.42383H12.6169C12.6461 8.36092 12.6788 8.29939 12.7153 8.23929Z" fill="#006064"/>
<path d="M17.4688 11.043H17.84V10.215H17.4688V11.043Z" fill="#006064"/>
<path d="M14.6484 6.25389V6.66493H15.2124V8.39196C15.2176 8.40125 15.2228 8.41049 15.2284 8.4195C15.2463 8.44862 15.2595 8.48053 15.2719 8.51266C15.2841 8.54468 15.2945 8.57735 15.3087 8.6087C15.3279 8.65101 15.337 8.69645 15.3468 8.74165C15.3552 8.78033 15.3645 8.81883 15.3744 8.85715C15.3809 8.88253 15.3915 8.88518 15.4105 8.86601C15.4211 8.85531 15.4316 8.84448 15.4424 8.83391C15.4519 8.82467 15.4621 8.81642 15.4714 8.80714C15.4798 8.79883 15.4892 8.79894 15.4987 8.80408C15.5122 8.81141 15.5219 8.82181 15.5208 8.83851C15.5201 8.84802 15.5213 8.85686 15.5257 8.86533C15.5298 8.87311 15.5307 8.88173 15.5313 8.8903C15.5321 8.90216 15.5324 8.91406 15.5328 8.92594C15.5333 8.94212 15.533 8.95705 15.5467 8.97081C15.5627 8.9869 15.566 9.00936 15.5615 9.03205C15.5599 9.04005 15.5595 9.04763 15.5643 9.05484C15.5657 9.05697 15.5672 9.05988 15.5669 9.06222C15.5641 9.08514 15.5766 9.1052 15.5788 9.12715C15.5799 9.13819 15.582 9.14868 15.5863 9.15943C15.5939 9.17847 15.5862 9.19735 15.5775 9.21448C15.5533 9.2618 15.5379 9.31236 15.5245 9.36325C15.5157 9.39684 15.5128 9.43221 15.5095 9.46701C15.5024 9.54085 15.4846 9.61254 15.4683 9.68454C15.4675 9.68775 15.4667 9.69104 15.4652 9.69395C15.445 9.73482 15.4331 9.7791 15.4137 9.82027C15.4066 9.83532 15.3964 9.84836 15.3848 9.86022C15.3725 9.8728 15.368 9.88733 15.3694 9.90506C15.3727 9.94582 15.3722 9.98676 15.3768 10.0275C15.379 10.0477 15.3741 10.0682 15.3705 10.0884C15.3597 10.1491 15.3389 10.207 15.3178 10.2644C15.3082 10.2906 15.3019 10.3185 15.2872 10.3431C15.2741 10.3651 15.2635 10.3886 15.2516 10.4112C15.249 10.416 15.247 10.4207 15.2463 10.426C15.2425 10.457 15.2322 10.4867 15.2222 10.5156C15.2189 10.5252 15.2156 10.5347 15.2124 10.5443V11.061H15.6823V12.1953H17.2293V11.0347H16.3404V10.2148H15.8591C16.0251 10.2148 16.1863 10.1944 16.3404 10.156V8.42336H15.9644V6.66493H16.3404V6.31278C16.1863 6.27431 16.0251 6.25389 15.8591 6.25389H15.7764V6.66493H15.2124L15.2124 6.25389H14.6484Z" fill="#006064"/>
<path d="M10.6797 6.66495H10.6901V8.23438H11.4421V6.66495H11.8181V6.25511C11.6215 6.26191 11.4321 6.29738 11.2541 6.35746V6.66495H10.6901V6.65696C10.6866 6.65961 10.6832 6.66228 10.6797 6.66495Z" fill="#006064"/>
<path d="M12.5269 14.9958C12.5296 14.9891 12.5331 14.9827 12.5382 14.9773C12.5436 14.9717 12.5458 14.9656 12.5411 14.9578C12.5368 14.9508 12.5399 14.9437 12.5431 14.937C12.5742 14.8719 12.6111 14.8102 12.6517 14.7507C12.6574 14.7424 12.6659 14.7373 12.672 14.7294C12.6859 14.7115 12.6926 14.6901 12.7029 14.6705C12.7289 14.6213 12.7592 14.5749 12.7893 14.5283C12.7914 14.525 12.7938 14.5201 12.7968 14.5195C12.8145 14.5159 12.8133 14.5016 12.817 14.4887C12.8292 14.4462 12.8424 14.404 12.8557 14.3618C12.8698 14.3172 12.8844 14.2726 12.899 14.2281C12.9004 14.2236 12.9014 14.2194 12.9012 14.2146C12.901 14.205 12.9046 14.1946 12.9113 14.1896C12.9319 14.1741 12.9343 14.1465 12.9532 14.1304C12.9554 14.1285 12.9561 14.1244 12.9565 14.1212C12.9577 14.1114 12.9604 14.1023 12.9641 14.0937V12.5359H11.9023C11.682 12.5359 11.4701 12.5719 11.2721 12.6383V15.014H10.3376V13.3022C10.077 13.6375 9.92188 14.0588 9.92188 14.5164V16.4968C9.92188 17.3704 10.4874 18.1118 11.2723 18.375V15.0187H12.5178C12.5208 15.0111 12.5239 15.0034 12.5269 14.9958Z" fill="#006064"/>
<path d="M15.8643 14.5132H17.2345V13.0832C16.8788 12.7422 16.396 12.5327 15.8643 12.5327H15.6875V15.0155H16.3426V18.416C17.2053 18.2021 17.8448 17.4226 17.8448 16.4937V16.4937C17.8448 15.3999 16.9581 14.5132 15.8643 14.5132Z" fill="#006064"/>
<path d="M17.8155 8.42291H17.4531V9.38867C17.6522 9.11168 17.7816 8.78119 17.8155 8.42291Z" fill="#006064"/>
<path d="M11.8155 8.42336H11.4395V8.28471C11.162 8.34852 10.9068 8.47062 10.6875 8.63742V11.061H11.255V12.1953H12.9469V11.8165C12.9393 11.8042 12.9335 11.7908 12.9288 11.7762C12.9191 11.7459 12.9061 11.7159 12.8751 11.6987C12.8554 11.6877 12.8537 11.6812 12.8597 11.6594C12.863 11.6475 12.8602 11.6366 12.8547 11.6271C12.8426 11.6059 12.8333 11.5833 12.8186 11.5634C12.8087 11.55 12.8114 11.5331 12.8142 11.5175C12.8186 11.4929 12.8184 11.47 12.8048 11.4472C12.7902 11.4227 12.783 11.3945 12.7793 11.3664C12.7757 11.3381 12.7648 11.3117 12.7599 11.2841C12.7509 11.2339 12.7292 11.1873 12.7202 11.1372C12.7179 11.1247 12.7165 11.1123 12.7195 11.0999C12.7205 11.096 12.721 11.0924 12.7199 11.0883C12.7176 11.0792 12.7154 11.0701 12.7133 11.061H11.8155V8.42336Z" fill="#006064"/>
<path d="M9.95342 8.23438V7.88464C9.93269 7.99817 9.92188 8.11504 9.92188 8.23438H9.95342Z" fill="#006064"/>
<path d="M10.3377 11.0646H9.92188V12.1953H10.3377V11.0646Z" fill="#006064"/>
<path d="M13.5156 6.25318V6.66427H13.7036V7.58197C13.7288 7.57926 13.7541 7.57719 13.7794 7.5751C13.8248 7.57133 13.8703 7.56986 13.9159 7.57006C13.9881 7.57038 14.0595 7.5793 14.1306 7.59066C14.2239 7.60556 14.3162 7.62516 14.405 7.65801C14.4221 7.66431 14.439 7.67089 14.4557 7.67773V6.66427H14.0797V6.25318H13.5156Z" fill="#006064"/>
<path d="M16.8833 6.6654H16.6953V8.42383H17.4473V7.08018C17.2959 6.86953 17.1041 6.6898 16.8833 6.55234V6.6654Z" fill="#006064"/>
</g>
</svg>
