<svg width="28" height="28" viewBox="0 0 28 28" fill="none" xmlns="http://www.w3.org/2000/svg">
<path d="M14 28C21.732 28 28 21.732 28 14C28 6.26801 21.732 0 14 0C6.26801 0 0 6.26801 0 14C0 21.732 6.26801 28 14 28Z" fill="white"/>
<mask id="mask0_13_38" style="mask-type:luminance" maskUnits="userSpaceOnUse" x="8" y="5" width="11" height="18">
<path d="M8.97656 5.7057H18.7543V22.002H8.97656V5.7057Z" fill="white"/>
</mask>
<g mask="url(#mask0_13_38)">
<path d="M15.3918 17.3165L15.3451 17.1613H14.9418L14.8972 17.3165H14.5458L14.9636 16.1613H15.3346L15.7522 17.3165H15.3918ZM14.2068 16.8992V17.3165H13.8498V16.1613H14.7303L14.6393 16.413H14.2068V16.6468H14.555L14.4636 16.8992H14.2068ZM13.6043 17.3165H13.2474V16.1613H13.6043V17.3165ZM13.0472 16.413H12.6146V16.6468H12.9629L12.8715 16.8992H12.6146V17.3165H12.2577V16.1613H13.1382L13.0472 16.413ZM15.8633 12.5332H14.6437C14.6372 12.5477 14.6294 12.5617 14.6198 12.5751C14.6102 12.5884 14.6036 12.6038 14.5949 12.6179C14.5888 12.6278 14.5881 12.637 14.5932 12.6477C14.6035 12.6695 14.6048 12.6921 14.5977 12.7152C14.5951 12.7236 14.5918 12.7316 14.5842 12.7365C14.5776 12.7408 14.5737 12.7471 14.572 12.754C14.5673 12.7725 14.5606 12.7913 14.5606 12.81C14.5605 12.8279 14.5567 12.8438 14.5501 12.8597C14.5453 12.8712 14.5407 12.8824 14.5447 12.8959C14.5469 12.903 14.5458 12.9119 14.544 12.9194C14.5391 12.9394 14.5378 12.9597 14.5383 12.9802C14.5386 12.9918 14.5362 13.0024 14.5283 13.0114C14.5224 13.0181 14.5199 13.0261 14.5205 13.0352C14.5208 13.0391 14.5212 13.0435 14.5198 13.0469C14.5139 13.0615 14.5151 13.0733 14.5289 13.0833C14.5361 13.0886 14.5345 13.0974 14.5328 13.1054C14.5287 13.1241 14.5252 13.1429 14.5208 13.1615C14.5187 13.1702 14.5186 13.1784 14.5205 13.1869C14.5277 13.2184 14.5349 13.2497 14.5469 13.28C14.5536 13.2968 14.5585 13.3152 14.5585 13.3338C14.5585 13.3472 14.5607 13.3601 14.5629 13.3731C14.5651 13.3861 14.5672 13.3987 14.5766 13.4093C14.5828 13.4164 14.5835 13.4264 14.5837 13.4357C14.5839 13.4449 14.5833 13.4542 14.5829 13.4634C14.5824 13.4768 14.5834 13.4895 14.5908 13.5015C14.5983 13.5136 14.6003 13.5275 14.5989 13.5416C14.597 13.5613 14.5959 13.5812 14.5913 13.6005C14.5892 13.6092 14.5898 13.6176 14.5927 13.6259C14.5968 13.6373 14.5978 13.6491 14.5973 13.661C14.5952 13.7032 14.5955 13.7456 14.5867 13.7872C14.5852 13.7944 14.585 13.8012 14.5889 13.8082C14.6182 13.86 14.6345 13.918 14.6659 13.9687C14.6771 13.9866 14.6872 14.0052 14.6983 14.0231C14.7014 14.028 14.7058 14.0325 14.7105 14.036C14.7333 14.0527 14.7493 14.0754 14.7658 14.0976C14.7842 14.1226 14.8019 14.1481 14.8264 14.1679C14.8345 14.1745 14.841 14.1831 14.8479 14.1911C14.8509 14.1945 14.8537 14.1985 14.8551 14.2028C14.8699 14.2484 14.8878 14.2929 14.902 14.3387C14.916 14.3841 14.9305 14.4293 14.9448 14.4747C14.9467 14.481 14.9489 14.4873 14.9498 14.4938C14.9507 14.5016 14.9534 14.5078 14.9606 14.5114C14.9688 14.5154 14.973 14.5229 14.9777 14.5301C15.0159 14.5882 15.0488 14.6492 15.0775 14.7123C15.0872 14.7336 15.101 14.7514 15.1134 14.7704C15.1495 14.826 15.1787 14.8852 15.2075 14.9446C15.2113 14.9525 15.2146 14.9601 15.2095 14.9689C15.2062 14.9748 15.2094 14.9793 15.2145 14.982C15.2249 14.9872 15.2293 14.9969 15.2334 15.0065C15.2728 15.0981 15.3108 15.1903 15.3427 15.2848C15.3497 15.3055 15.3541 15.3259 15.3701 15.3436C15.3904 15.3662 15.393 15.3964 15.3895 15.4261C15.388 15.4388 15.3815 15.4504 15.3814 15.464C15.3814 15.4739 15.3717 15.4792 15.3625 15.4821C15.3441 15.4879 15.325 15.4895 15.3058 15.4902C15.2115 15.494 15.1171 15.4943 15.0227 15.4949C14.8787 15.4957 14.7348 15.4983 14.5909 15.4993C14.4958 15.5 14.4007 15.4992 14.3056 15.4994C14.2383 15.4995 14.1709 15.5012 14.1036 15.5003C14.027 15.4994 13.9504 15.4995 13.8738 15.4974C13.7186 15.4974 13.5634 15.498 13.4083 15.4972C13.2993 15.4967 13.1904 15.4949 13.0815 15.493C12.9442 15.4907 12.8069 15.4882 12.6696 15.4851C12.5904 15.4833 12.5112 15.4802 12.4321 15.4776C12.4255 15.4774 12.419 15.4761 12.4124 15.4753C12.3887 15.4724 12.3877 15.4715 12.3836 15.4486C12.3828 15.4439 12.381 15.4398 12.3787 15.4358C12.3756 15.4305 12.3745 15.4246 12.3753 15.4186C12.3797 15.3813 12.3878 15.3455 12.4188 15.3199C12.4223 15.3171 12.4238 15.3143 12.423 15.3098C12.4206 15.2964 12.4242 15.2835 12.4278 15.2708C12.4549 15.1762 12.4903 15.0844 12.5269 14.9931C12.5296 14.9864 12.5331 14.98 12.5382 14.9746C12.5436 14.969 12.5458 14.9629 12.5411 14.9551C12.5368 14.9481 12.5399 14.941 12.5431 14.9343C12.5742 14.8692 12.6111 14.8075 12.6517 14.748C12.6574 14.7397 12.6659 14.7346 12.672 14.7267C12.6859 14.7088 12.6926 14.6873 12.7029 14.6678C12.7289 14.6186 12.7592 14.5722 12.7893 14.5256C12.7914 14.5223 12.7938 14.5174 12.7968 14.5168C12.8145 14.5132 12.8133 14.4989 12.817 14.486C12.8292 14.4435 12.8424 14.4013 12.8557 14.3591C12.8698 14.3144 12.8844 14.2699 12.899 14.2254C12.9004 14.2209 12.9014 14.2167 12.9012 14.2119C12.901 14.2023 12.9046 14.1919 12.9113 14.1869C12.9319 14.1714 12.9343 14.1438 12.9532 14.1277C12.9554 14.1258 12.9561 14.1217 12.9565 14.1185C12.9595 14.094 12.9716 14.0737 12.9866 14.055C12.9905 14.0501 12.9919 14.0449 12.9933 14.039C13.0025 13.9998 13.0062 13.9594 13.0199 13.9213C13.033 13.8847 13.0399 13.8464 13.054 13.8099C13.0667 13.7771 13.0787 13.7433 13.0819 13.7075C13.0832 13.6938 13.089 13.6824 13.0977 13.6719C13.1166 13.6491 13.1227 13.6231 13.1162 13.5941C13.1137 13.5828 13.1153 13.572 13.1189 13.561C13.1239 13.5454 13.1292 13.5301 13.125 13.5127C13.1216 13.4989 13.1299 13.4866 13.1399 13.4778C13.159 13.4608 13.1671 13.4377 13.1773 13.4156C13.1796 13.4106 13.1801 13.4054 13.1788 13.4001C13.1727 13.3737 13.1748 13.3461 13.1669 13.32C13.1655 13.3155 13.165 13.3104 13.1672 13.3063C13.175 13.2921 13.1687 13.2798 13.16 13.2702C13.1304 13.2374 13.1286 13.1973 13.1294 13.1569C13.1304 13.1052 13.1419 13.0549 13.1537 13.0047C13.1555 12.997 13.1564 12.9894 13.1539 12.9814C13.1478 12.9627 13.1475 12.9436 13.1527 12.9247C13.1603 12.8972 13.1567 12.8714 13.1435 12.8464C13.1349 12.83 13.1342 12.8119 13.1358 12.7941C13.1384 12.7664 13.1328 12.74 13.1242 12.7143C13.1165 12.6915 13.1121 12.6684 13.1115 12.6445C13.1111 12.6253 13.109 12.6064 13.1056 12.5874C13.1033 12.5745 13.1011 12.5612 13.1011 12.5481C13.1011 12.5431 13.1011 12.5382 13.101 12.5332H11.9023C10.8086 12.5332 9.92188 13.4199 9.92188 14.5137V16.4941C9.92188 17.5879 10.8086 18.4746 11.9023 18.4746H15.8633C16.9571 18.4746 17.8438 17.5879 17.8438 16.4941C17.8438 15.4003 16.9571 14.5137 15.8633 14.5137H17.8438C17.8438 13.4199 16.9571 12.5332 15.8633 12.5332ZM15.0056 16.9393H15.2861L15.1434 16.4581L15.0056 16.9393ZM17.8438 8.2329C17.8438 7.13912 16.9571 6.25243 15.8633 6.25243H11.9023C10.8086 6.25243 9.92188 7.13911 9.92188 8.23289H11.9023C10.8086 8.23289 9.92188 9.11959 9.92188 10.2134V12.1938H13.086C13.0845 12.1895 13.0829 12.1853 13.0811 12.181C13.0707 12.1552 13.0733 12.1278 13.0828 12.1016C13.0846 12.0965 13.0882 12.092 13.0932 12.0901C13.1046 12.0858 13.1055 12.0772 13.1033 12.0675C13.0947 12.0296 13.0868 11.9917 13.0608 11.9603C13.05 11.9473 13.043 11.9311 13.0346 11.9161C13.0184 11.8873 13.0009 11.8594 12.9787 11.8346C12.9632 11.8173 12.9533 11.7975 12.946 11.7747C12.9363 11.7444 12.9232 11.7144 12.8922 11.6972C12.8726 11.6863 12.8709 11.6797 12.8769 11.658C12.8802 11.646 12.8773 11.6352 12.8719 11.6256C12.8598 11.6045 12.8505 11.5818 12.8358 11.562C12.8259 11.5486 12.8286 11.5316 12.8314 11.516C12.8358 11.4915 12.8355 11.4686 12.822 11.4457C12.8074 11.4212 12.8001 11.3931 12.7965 11.365C12.7928 11.3366 12.782 11.3103 12.777 11.2826C12.768 11.2324 12.7463 11.1858 12.7373 11.1357C12.7351 11.1232 12.7337 11.1109 12.7367 11.0984C12.7376 11.0945 12.7381 11.091 12.7371 11.0869C12.7289 11.0549 12.7221 11.0227 12.7171 10.99C12.7161 10.9836 12.7141 10.9771 12.7114 10.9711C12.6993 10.9444 12.696 10.9152 12.6883 10.8873C12.6853 10.8764 12.6853 10.8647 12.6885 10.8539C12.6918 10.8432 12.6908 10.8334 12.6879 10.823C12.6847 10.8116 12.684 10.7996 12.6831 10.7878C12.6801 10.7511 12.6799 10.714 12.6676 10.6786C12.6639 10.6679 12.6644 10.6573 12.6665 10.6457C12.6695 10.6297 12.6685 10.6128 12.6615 10.5973C12.6575 10.5884 12.6557 10.5798 12.6606 10.5708C12.6626 10.5672 12.6631 10.5634 12.6623 10.5593C12.6565 10.5282 12.6526 10.4965 12.6377 10.4679C12.6323 10.4576 12.63 10.4467 12.6314 10.4353C12.6336 10.4159 12.6312 10.3965 12.6372 10.3766C12.642 10.3606 12.6397 10.3411 12.6289 10.3253C12.6124 10.3012 12.6023 10.2744 12.5917 10.2472C12.5746 10.2034 12.5625 10.1583 12.5473 10.114C12.5396 10.0917 12.5334 10.0686 12.523 10.0472C12.5216 10.0442 12.5201 10.041 12.5199 10.0378C12.5188 10.0149 12.5087 9.99475 12.5006 9.97401C12.5003 9.97341 12.5005 9.97262 12.5002 9.97209C12.4791 9.9354 12.4778 9.8912 12.4559 9.85494C12.4397 9.82802 12.4313 9.79821 12.4213 9.7689C12.4165 9.75508 12.414 9.74081 12.4103 9.72676C12.4049 9.70572 12.3997 9.68474 12.3891 9.66525C12.3801 9.64872 12.3776 9.62999 12.3808 9.61137C12.3826 9.60087 12.3816 9.59022 12.384 9.57989C12.3853 9.57411 12.3831 9.56954 12.3798 9.56523C12.3688 9.55082 12.369 9.53461 12.3722 9.51794C12.3728 9.5147 12.3733 9.51139 12.3745 9.50831C12.382 9.48753 12.3819 9.46642 12.3816 9.44439C12.3809 9.39034 12.3841 9.33624 12.3905 9.28249C12.3938 9.25551 12.4226 9.23664 12.4499 9.24232C12.4563 9.24367 12.4628 9.24524 12.4693 9.24552C12.4832 9.2461 12.487 9.24155 12.485 9.22771C12.4826 9.21074 12.48 9.1938 12.4776 9.17682C12.4701 9.12286 12.4739 9.06882 12.4764 9.01478C12.4769 9.00335 12.4807 8.99166 12.4655 8.98468C12.4578 8.98116 12.46 8.97054 12.4602 8.96277C12.4612 8.93234 12.4654 8.90219 12.4711 8.87236C12.5139 8.64631 12.5935 8.43419 12.713 8.23735C12.7446 8.18527 12.7803 8.13616 12.8236 8.09297C12.8268 8.08971 12.8296 8.08479 12.8336 8.08358C12.8525 8.07775 12.8587 8.05987 12.8698 8.04669C12.8754 8.04014 12.8811 8.03397 12.8876 8.02823C12.9103 8.0082 12.9298 7.98526 12.9472 7.96038C12.9539 7.95076 12.9631 7.94279 12.9717 7.93458C13.1497 7.7639 13.3622 7.65764 13.6001 7.59958C13.6618 7.58453 13.7252 7.57941 13.7883 7.57418C13.8338 7.57042 13.8793 7.56894 13.9249 7.56915C13.9971 7.56947 14.0684 7.5784 14.1395 7.58975C14.2328 7.60464 14.3251 7.62424 14.4139 7.65708C14.5681 7.71412 14.7101 7.79298 14.8356 7.89982C14.8851 7.94188 14.9296 7.98885 14.9686 8.04085C14.9831 8.06013 14.9991 8.07837 15.0103 8.09993C15.0125 8.10402 15.0172 8.10835 15.0167 8.11197C15.0139 8.13047 15.028 8.13415 15.0398 8.13797C15.0506 8.14147 15.0579 8.14801 15.0649 8.15594C15.096 8.19107 15.1223 8.23009 15.1518 8.26649C15.158 8.27407 15.1646 8.28253 15.1537 8.2922C15.1505 8.29495 15.1537 8.29845 15.156 8.30065C15.1901 8.33415 15.208 8.37832 15.2325 8.41804C15.2505 8.44716 15.2637 8.47906 15.276 8.5112C15.2883 8.54321 15.2987 8.57589 15.3129 8.60723C15.332 8.64956 15.3412 8.69499 15.351 8.74019C15.3593 8.77887 15.3686 8.81737 15.3785 8.85568C15.3851 8.88107 15.3957 8.88371 15.4147 8.86455C15.4253 8.85384 15.4358 8.84302 15.4466 8.83244C15.456 8.82321 15.4663 8.81495 15.4756 8.80568C15.484 8.79737 15.4933 8.79747 15.5028 8.80262C15.5163 8.80995 15.5261 8.82035 15.5249 8.83704C15.5243 8.84655 15.5254 8.85539 15.5299 8.86386C15.5339 8.87165 15.5349 8.88027 15.5355 8.88883C15.5362 8.90069 15.5365 8.91259 15.5369 8.92447C15.5375 8.94065 15.5372 8.95558 15.5509 8.96935C15.5669 8.98544 15.5702 9.0079 15.5656 9.03058C15.564 9.03859 15.5636 9.04616 15.5684 9.05337C15.5698 9.05551 15.5713 9.05841 15.571 9.06076C15.5683 9.08367 15.5807 9.10373 15.5829 9.12569C15.5841 9.13672 15.5862 9.14721 15.5905 9.15797C15.5981 9.177 15.5904 9.19589 15.5816 9.21301C15.5575 9.26034 15.542 9.31091 15.5286 9.36178C15.5198 9.39538 15.517 9.43076 15.5136 9.46555C15.5066 9.53939 15.4888 9.61107 15.4724 9.68308C15.4717 9.68629 15.4708 9.68957 15.4694 9.6925C15.4491 9.73335 15.4373 9.77763 15.4179 9.81881C15.4108 9.83386 15.4005 9.84689 15.3889 9.85875C15.3766 9.87133 15.3721 9.88586 15.3735 9.90359C15.3768 9.94435 15.3764 9.9853 15.3809 10.0261C15.3832 10.0462 15.3782 10.0667 15.3746 10.0869C15.3639 10.1477 15.343 10.2055 15.322 10.2629C15.3124 10.2892 15.3061 10.317 15.2914 10.3417C15.2783 10.3636 15.2677 10.3871 15.2557 10.4098C15.2532 10.4145 15.2511 10.4192 15.2505 10.4245C15.2466 10.4555 15.2364 10.4852 15.2263 10.5141C15.2127 10.5534 15.1998 10.5926 15.1915 10.6334C15.1886 10.6476 15.182 10.6609 15.1695 10.67C15.1656 10.6729 15.1633 10.6768 15.1614 10.681C15.1494 10.7082 15.1371 10.7353 15.1258 10.7627C15.1198 10.7772 15.1136 10.7918 15.1166 10.8085C15.118 10.8165 15.1147 10.8244 15.1099 10.8308C15.0923 10.8541 15.0878 10.8826 15.0788 10.9093C15.0752 10.9199 15.0726 10.9309 15.0702 10.9418C15.0672 10.9552 15.0622 10.9681 15.0645 10.9826C15.066 10.9916 15.0627 11.0012 15.0584 11.0094C15.0451 11.0349 15.0431 11.0627 15.0438 11.0904C15.0448 11.128 15.0369 11.1636 15.0247 11.1987C15.0117 11.2357 15.0047 11.2738 15.0052 11.3131C15.0053 11.3197 15.005 11.3263 15.0049 11.3329C15.0048 11.3509 14.9968 11.3643 14.9821 11.3745C14.9691 11.3836 14.9663 11.387 14.9732 11.4001C14.9909 11.4341 14.9775 11.4638 14.9642 11.4943C14.9571 11.5106 14.9504 11.527 14.9502 11.5454C14.95 11.5609 14.9426 11.5752 14.9362 11.5882C14.9155 11.6305 14.911 11.6769 14.899 11.7213C14.8981 11.7245 14.8979 11.7279 14.8966 11.7308C14.8792 11.7698 14.8742 11.8121 14.8646 11.8531C14.8606 11.8701 14.8543 11.8857 14.8449 11.9002C14.8314 11.9209 14.8238 11.944 14.8165 11.9674C14.8062 12.0001 14.7929 12.0318 14.7829 12.0646C14.7693 12.109 14.7478 12.15 14.7307 12.1929C14.7308 12.1926 14.7306 12.1932 14.7307 12.1929L17.8438 12.1938V10.2134H15.8633C16.9571 10.2134 17.8438 9.32668 17.8438 8.2329Z" fill="#006064"/>
<path d="M12.7153 8.23928C12.7469 8.18719 12.7826 8.13808 12.8259 8.0949C12.8291 8.09164 12.8319 8.08671 12.8359 8.0855C12.8548 8.07967 12.861 8.06181 12.8721 8.04863C12.8777 8.04207 12.8834 8.03589 12.8899 8.03016C12.9126 8.01013 12.9321 7.98719 12.9495 7.96231C12.9533 7.95678 12.958 7.95181 12.9629 7.94701V6.6654V6.25436H12.3989V6.6654H12.2109V8.42382H12.6169C12.6461 8.36091 12.6788 8.29938 12.7153 8.23928Z" fill="#006064"/>
<path d="M17.4688 11.043H17.84V10.215H17.4688V11.043Z" fill="#006064"/>
<path d="M14.6484 6.25389V6.66493H15.2124V8.39196C15.2176 8.40125 15.2228 8.41049 15.2284 8.4195C15.2463 8.44862 15.2595 8.48053 15.2719 8.51266C15.2841 8.54468 15.2945 8.57735 15.3087 8.6087C15.3279 8.65101 15.337 8.69645 15.3468 8.74165C15.3552 8.78033 15.3645 8.81883 15.3744 8.85715C15.3809 8.88253 15.3915 8.88518 15.4105 8.86601C15.4211 8.85531 15.4316 8.84448 15.4424 8.83391C15.4519 8.82467 15.4621 8.81642 15.4714 8.80714C15.4798 8.79883 15.4892 8.79894 15.4987 8.80408C15.5122 8.81141 15.5219 8.82181 15.5208 8.83851C15.5201 8.84802 15.5213 8.85686 15.5257 8.86533C15.5298 8.87311 15.5307 8.88173 15.5313 8.8903C15.5321 8.90216 15.5324 8.91406 15.5328 8.92594C15.5333 8.94212 15.533 8.95705 15.5467 8.97081C15.5627 8.9869 15.566 9.00936 15.5615 9.03205C15.5599 9.04005 15.5595 9.04763 15.5643 9.05484C15.5657 9.05697 15.5672 9.05988 15.5669 9.06222C15.5641 9.08514 15.5766 9.1052 15.5788 9.12715C15.5799 9.13819 15.582 9.14868 15.5863 9.15943C15.5939 9.17847 15.5862 9.19735 15.5775 9.21448C15.5533 9.2618 15.5379 9.31236 15.5245 9.36325C15.5157 9.39684 15.5128 9.43221 15.5095 9.46701C15.5024 9.54085 15.4846 9.61254 15.4683 9.68454C15.4675 9.68775 15.4667 9.69104 15.4652 9.69395C15.445 9.73482 15.4331 9.7791 15.4137 9.82027C15.4066 9.83532 15.3964 9.84836 15.3848 9.86022C15.3725 9.8728 15.368 9.88733 15.3694 9.90506C15.3727 9.94582 15.3722 9.98676 15.3768 10.0275C15.379 10.0477 15.3741 10.0682 15.3705 10.0884C15.3597 10.1491 15.3389 10.207 15.3178 10.2644C15.3082 10.2906 15.3019 10.3185 15.2872 10.3431C15.2741 10.3651 15.2635 10.3886 15.2516 10.4112C15.249 10.416 15.247 10.4207 15.2463 10.426C15.2425 10.457 15.2322 10.4867 15.2222 10.5156C15.2189 10.5252 15.2156 10.5347 15.2124 10.5443V11.061H15.6823V12.1953H17.2293V11.0347H16.3404V10.2148H15.8591C16.0251 10.2148 16.1863 10.1944 16.3404 10.156V8.42336H15.9644V6.66493H16.3404V6.31278C16.1863 6.27431 16.0251 6.25389 15.8591 6.25389H15.7764V6.66493H15.2124V6.25389H14.6484Z" fill="#006064"/>
<path d="M10.6797 6.66495H10.6901V8.23438H11.4421V6.66495H11.8181V6.25511C11.6215 6.26191 11.4321 6.29738 11.2541 6.35746V6.66495H10.6901V6.65696C10.6866 6.65961 10.6832 6.66228 10.6797 6.66495Z" fill="#006064"/>
<path d="M12.5269 14.9958C12.5296 14.9891 12.5331 14.9827 12.5382 14.9773C12.5436 14.9717 12.5458 14.9656 12.5411 14.9578C12.5368 14.9508 12.5399 14.9437 12.5431 14.937C12.5742 14.8719 12.6111 14.8102 12.6517 14.7507C12.6574 14.7424 12.6659 14.7373 12.672 14.7294C12.6859 14.7115 12.6926 14.6901 12.7029 14.6705C12.7289 14.6213 12.7592 14.5749 12.7893 14.5283C12.7914 14.525 12.7938 14.5201 12.7968 14.5195C12.8145 14.5159 12.8133 14.5016 12.817 14.4887C12.8292 14.4462 12.8424 14.404 12.8557 14.3618C12.8698 14.3172 12.8844 14.2726 12.899 14.2281C12.9004 14.2236 12.9014 14.2194 12.9012 14.2146C12.901 14.205 12.9046 14.1946 12.9113 14.1896C12.9319 14.1741 12.9343 14.1465 12.9532 14.1304C12.9554 14.1285 12.9561 14.1244 12.9565 14.1212C12.9577 14.1114 12.9604 14.1023 12.9641 14.0937V12.5359H11.9023C11.682 12.5359 11.4701 12.5719 11.2721 12.6383V15.014H10.3376V13.3022C10.077 13.6375 9.92188 14.0588 9.92188 14.5164V16.4968C9.92188 17.3704 10.4874 18.1118 11.2723 18.375V15.0187H12.5178C12.5208 15.0111 12.5239 15.0034 12.5269 14.9958Z" fill="#006064"/>
<path d="M15.8643 14.5132H17.2345V13.0832C16.8788 12.7422 16.396 12.5327 15.8643 12.5327H15.6875V15.0155H16.3426V18.416C17.2053 18.2021 17.8448 17.4226 17.8448 16.4937C17.8448 15.3999 16.9581 14.5132 15.8643 14.5132Z" fill="#006064"/>
<path d="M17.8155 8.42291H17.4531V9.38867C17.6522 9.11168 17.7816 8.78119 17.8155 8.42291Z" fill="#006064"/>
<path d="M11.8155 8.42335H11.4395V8.2847C11.162 8.34851 10.9068 8.47061 10.6875 8.63741V11.061H11.255V12.1953H12.9469V11.8165C12.9393 11.8042 12.9335 11.7908 12.9288 11.7762C12.9191 11.7459 12.9061 11.7159 12.8751 11.6987C12.8554 11.6877 12.8537 11.6812 12.8597 11.6594C12.863 11.6475 12.8602 11.6366 12.8547 11.6271C12.8426 11.6059 12.8333 11.5833 12.8186 11.5634C12.8087 11.55 12.8114 11.5331 12.8142 11.5175C12.8186 11.4929 12.8184 11.47 12.8048 11.4472C12.7902 11.4227 12.783 11.3945 12.7793 11.3664C12.7757 11.3381 12.7648 11.3117 12.7599 11.2841C12.7509 11.2339 12.7292 11.1873 12.7202 11.1372C12.7179 11.1247 12.7165 11.1123 12.7195 11.0999C12.7205 11.096 12.721 11.0924 12.7199 11.0883C12.7176 11.0792 12.7154 11.0701 12.7133 11.061H11.8155V8.42335Z" fill="#006064"/>
<path d="M9.95342 8.23438V7.88464C9.93269 7.99817 9.92188 8.11504 9.92188 8.23438H9.95342Z" fill="#006064"/>
<path d="M10.3377 11.0646H9.92188V12.1953H10.3377V11.0646Z" fill="#006064"/>
<path d="M13.5156 6.25317V6.66426H13.7036V7.58196C13.7288 7.57925 13.7541 7.57718 13.7794 7.57509C13.8248 7.57132 13.8703 7.56985 13.9159 7.57005C13.9881 7.57037 14.0595 7.57929 14.1306 7.59065C14.2239 7.60555 14.3162 7.62515 14.405 7.658C14.4221 7.6643 14.439 7.67088 14.4557 7.67772V6.66426H14.0797V6.25317H13.5156Z" fill="#006064"/>
<path d="M16.8833 6.6654H16.6953V8.42383H17.4473V7.08018C17.2959 6.86953 17.1041 6.6898 16.8833 6.55234V6.6654Z" fill="#006064"/>
</g>
<path d="M10.676 19.0441C10.7284 19.0441 10.7895 19.0507 10.8594 19.0638C10.9292 19.0769 10.9803 19.0909 11.0126 19.1057V19.3913H10.8672C10.8017 19.269 10.7126 19.2079 10.6 19.2079C10.5546 19.2079 10.5131 19.2227 10.4755 19.2524C10.438 19.2813 10.4083 19.3214 10.3865 19.373C10.3646 19.4245 10.3537 19.4821 10.3537 19.5459C10.3537 19.6184 10.3646 19.6847 10.3865 19.745C10.4083 19.8044 10.4415 19.852 10.486 19.8878C10.5314 19.9227 10.5873 19.9402 10.6537 19.9402C10.7349 19.9402 10.8502 19.9 10.9995 19.8197L11.0559 19.9101L10.8148 20.0974C10.7746 20.1087 10.7362 20.1162 10.6995 20.1197C10.6629 20.124 10.6231 20.1262 10.5803 20.1262C10.4808 20.1262 10.3921 20.1039 10.3144 20.0594C10.2375 20.0149 10.1777 19.9537 10.1349 19.876C10.0921 19.7974 10.0707 19.7083 10.0707 19.6088C10.0707 19.5066 10.1026 19.4123 10.1664 19.3258C10.2301 19.2385 10.3096 19.1699 10.4048 19.1201C10.5 19.0695 10.5904 19.0441 10.676 19.0441ZM12.2831 20.1H11.7682V20.0162L11.9176 19.9323L11.8442 19.7529H11.4499L11.387 19.9074L11.5796 20.0044L11.5324 20.1H11.1014V20.0162L11.2495 19.9061L11.5744 19.1123L11.8285 19.0455L12.1953 19.9402L12.3302 20.0044L12.2831 20.1ZM11.6477 19.2682L11.4958 19.6415H11.7997L11.6477 19.2682ZM12.9128 19.5865C12.9565 19.5865 12.9905 19.5703 13.015 19.538C13.0403 19.5057 13.053 19.4612 13.053 19.4044C13.053 19.3389 13.0372 19.2856 13.0058 19.2446C12.9744 19.2035 12.9281 19.183 12.8669 19.183C12.8285 19.183 12.7927 19.1948 12.7595 19.2184V19.9572L12.994 20.0044L12.9469 20.1H12.377V20.0162L12.5001 19.9192V19.2092L12.3534 19.1647L12.4006 19.0703H12.6377C12.7137 19.0703 12.7883 19.0677 12.8617 19.0625C12.9141 19.059 12.9534 19.0572 12.9796 19.0572C13.0495 19.0572 13.1115 19.0708 13.1656 19.0979C13.2198 19.1241 13.2617 19.1607 13.2914 19.2079C13.3211 19.2542 13.3359 19.3061 13.3359 19.3638C13.3359 19.4267 13.311 19.4861 13.2613 19.5419C13.2123 19.597 13.1503 19.6406 13.0752 19.6729C13.001 19.7044 12.9285 19.7184 12.8578 19.7149L12.8028 19.6808L12.8499 19.5865H12.9128ZM14.2581 20.1H13.4184V20.0162L13.5415 19.9192V19.2066L13.3948 19.1647L13.4419 19.0703H14.245L14.3471 19.0468V19.39L14.2646 19.4254L14.1022 19.183H13.8009V19.5184H13.9424L14.038 19.3769H14.1218V19.7542L14.0262 19.8013L13.9397 19.6297H13.8009V19.9873H14.0904L14.2777 19.7188L14.3602 19.7529V20.1236L14.2581 20.1ZM15.3457 20.1013H14.4955V20.0175L14.6187 19.9205V19.2013L14.4719 19.1647L14.5191 19.0703H15.0025V19.1529L14.878 19.2498V19.9873H15.1597L15.3654 19.6926L15.4479 19.7267V20.1249L15.3457 20.1013ZM16.3935 20.1013H15.5433V20.0175L15.6664 19.9205V19.2013L15.5197 19.1647L15.5668 19.0703H16.0502V19.1529L15.9258 19.2498V19.9873H16.2074L16.4131 19.6926L16.4956 19.7267V20.1249L16.3935 20.1013ZM17.7137 20.1H17.1988V20.0162L17.3482 19.9323L17.2748 19.7529H16.8805L16.8176 19.9074L17.0102 20.0044L16.963 20.1H16.5321V20.0162L16.6801 19.9061L17.005 19.1123L17.2591 19.0455L17.6259 19.9402L17.7608 20.0044L17.7137 20.1ZM17.0783 19.2682L16.9264 19.6415H17.2303L17.0783 19.2682Z" fill="#006064"/>
<path d="M11.74 20.8123L11.6685 20.8409L11.4852 20.577H11.3643V21.3778L11.5099 21.4155L11.467 21.5H11.0068V21.4272L11.129 21.331V20.577H11.0133L10.83 20.8409L10.7585 20.8123V20.4548L10.8521 20.4782H11.6464L11.74 20.4548V20.8123ZM12.8667 21.5H12.5846L12.3337 21.0502L12.2765 21.0151L12.309 20.9514H12.3688C12.4156 20.9514 12.4525 20.9371 12.4793 20.9085C12.5062 20.8799 12.5196 20.8396 12.5196 20.7876C12.5196 20.7269 12.5032 20.6775 12.4702 20.6394C12.4382 20.6004 12.3909 20.5809 12.3285 20.5809C12.2895 20.5809 12.2531 20.593 12.2193 20.6173V21.3752L12.3636 21.4168L12.322 21.5013H11.8618V21.4285L11.984 21.3258V20.6043L11.8397 20.564L11.8826 20.4795H12.0984C12.1738 20.4795 12.2479 20.4769 12.3207 20.4717C12.3727 20.4682 12.4117 20.4665 12.4377 20.4665C12.5045 20.4665 12.5634 20.4786 12.6145 20.5029C12.6665 20.5263 12.7064 20.5584 12.7341 20.5991C12.7627 20.6398 12.777 20.6853 12.777 20.7356C12.777 20.7963 12.7502 20.8526 12.6964 20.9046C12.6427 20.9566 12.5773 20.9956 12.5001 21.0216L12.6041 21.0515L12.7731 21.3531L12.9083 21.4155L12.8667 21.5ZM14.0545 21.5H13.5709V21.4272L13.7126 21.3427L13.6333 21.149H13.2316L13.1601 21.3232L13.359 21.4155L13.3174 21.5H12.8975V21.4272L13.0379 21.3219L13.3707 20.5198L13.5956 20.4535L13.9648 21.3492L14.0974 21.4155L14.0545 21.5ZM13.4344 20.6589L13.2732 21.0489H13.593L13.4344 20.6589ZM14.975 20.6576L14.6422 21.4584L14.4186 21.5247L14.0494 20.629L13.9168 20.5627L13.9584 20.4782H14.4433V20.551L14.3016 20.6355L14.5811 21.3193L14.8554 20.6563L14.6565 20.5627L14.6981 20.4782H15.118L15.1167 20.551L14.975 20.6576ZM16.002 21.5013H15.1804V21.4285L15.3026 21.3323V20.6056L15.1583 20.5627L15.2012 20.4782H15.989L16.0826 20.4548V20.7863L16.0111 20.8149L15.8512 20.577H15.5379V20.928H15.6926L15.7875 20.7824H15.8603V21.1607L15.7758 21.2036L15.6913 21.0281H15.5379V21.4012H15.8408L16.0241 21.136L16.0956 21.1659V21.5247L16.002 21.5013ZM17.0762 21.5H16.2468V21.4272L16.369 21.331V20.6004L16.2247 20.5627L16.2676 20.4782H16.7278V20.551L16.6043 20.6472V21.4012H16.8968L17.0983 21.11L17.1698 21.1399V21.5234L17.0762 21.5Z" fill="#006064"/>
</svg>
