<svg xmlns="http://www.w3.org/2000/svg" viewBox="0.53125 0.205696 132.6 254.3">
	<path d="											M50.2574 249.374L47.8984 237.612H43.0249L40.6742 249.315L38.5987 237.612H33.0472L36.1398 252.218C36.2772 252.869 36.5518 253.366 36.9594 253.707C37.3627 254.049 37.8855 254.22 38.528 254.22H43.6319L45.4009 243.945L46.7953 252.218C46.9194 252.853 47.1809 253.345 47.5795 253.695C47.9784 254.046 48.4922 254.22 49.1169 254.22H54.2431L57.7832 237.612H52.3246L50.2574 249.374ZM19.4586 238.198C19.0865 238.589 18.896 239.134 18.896 239.834V254.22H32.3915V250.068H24.4741V247.821H31.5231V244.035H24.4741V241.764H32.3915V237.612H21.027C20.3581 237.612 19.8353 237.807 19.4586 238.198ZM76.52 238.1C76.2098 238.426 76.0547 238.874 76.0547 239.443V254.22H85.2128V250.288H80.667V247.797H84.4862V244.133H80.667V241.544H85.2128V237.612H77.8093C77.2644 237.612 76.8347 237.775 76.52 238.1ZM92.9663 241.862C92.9663 241.633 92.891 241.455 92.7448 241.324C92.5941 241.194 92.3859 241.128 92.1245 241.128H91.0435V244.792H92.1245C92.3859 244.792 92.5941 244.723 92.7448 244.585C92.891 244.447 92.9663 244.255 92.9663 244.011V241.862ZM97.6849 247.235C97.8975 247.691 98.0038 248.269 98.0038 248.969L97.9772 254.22H94.3265C93.9809 254.22 93.7151 254.123 93.529 253.927C93.3384 253.732 93.2454 253.463 93.2454 253.121V249.189C93.2454 248.994 93.21 248.827 93.1436 248.688C93.0727 248.55 92.9707 248.448 92.8378 248.383C92.705 248.318 92.5454 248.285 92.3549 248.285H91.0435V254.22H86.3824V237.612H92.6164C93.8479 237.612 94.8448 237.746 95.6025 238.014C96.3602 238.283 96.9095 238.715 97.2507 239.309C97.5962 239.904 97.769 240.722 97.769 241.764V242.521C97.769 243.726 97.4545 244.577 96.8297 245.073C96.2051 245.57 95.3942 245.818 94.3929 245.818H95.0044C95.6911 245.818 96.2582 245.94 96.7014 246.185C97.1488 246.429 97.4766 246.779 97.6849 247.235ZM70.2463 249.971C70.2463 250.199 70.2065 250.386 70.1268 250.532C70.0469 250.679 69.9407 250.793 69.7989 250.874C69.657 250.956 69.4797 250.996 69.2583 250.996C68.9615 250.996 68.7311 250.907 68.5583 250.728C68.3855 250.549 68.3014 250.296 68.3014 249.971V246.698H63.6403V249.311C63.6537 251.135 64.1189 252.458 65.0316 253.28C65.9442 254.102 67.3532 254.514 69.2583 254.514C71.1945 254.514 72.6212 254.094 73.5338 253.256C74.451 252.417 74.9073 251.069 74.9073 249.213V237.612H70.2463V249.971ZM127.352 246.893H127.33L126.018 237.612H121.473L123.347 247.87C123.458 248.424 123.688 248.855 124.038 249.164C124.299 249.395 124.616 249.539 124.986 249.598V254.22H129.625V249.629H130.914L133.116 237.612H128.641L127.352 246.893ZM11.8248 247.309L7.8417 237.612H2.33449C1.77195 237.612 1.33325 237.775 1.01428 238.1C0.690803 238.426 0.53125 238.89 0.53125 239.492V254.22H5.98978V243.787L10.088 254.22H17.1859V237.612H11.8248V247.309ZM112.009 238.1C111.699 238.426 111.544 238.874 111.544 239.443V254.22H120.702V250.288H116.156V247.797H119.975V244.133H116.156V241.544H120.702V237.612H113.298C112.753 237.612 112.324 237.775 112.009 238.1ZM109.001 244.914C108.478 244.589 107.716 244.312 106.714 244.084L105.102 243.742H105.075C104.703 243.677 104.424 243.604 104.247 243.522C104.065 243.441 103.941 243.335 103.87 243.205C103.799 243.075 103.764 242.855 103.764 242.545V241.544C103.764 241.365 103.795 241.219 103.857 241.105C103.919 240.99 104.021 240.901 104.162 240.836C104.304 240.771 104.481 240.738 104.703 240.738C105 240.738 105.23 240.811 105.394 240.958C105.558 241.105 105.638 241.308 105.638 241.568V243.034H110.206V242.253C110.206 240.543 109.754 239.293 108.845 238.503C107.942 237.714 106.537 237.319 104.632 237.319C102.758 237.319 101.367 237.718 100.463 238.515C99.5545 239.314 99.1026 240.534 99.1026 242.179V243.205C99.1026 244.003 99.209 244.654 99.4172 245.159C99.6299 245.664 99.9844 246.071 100.485 246.38C100.986 246.69 101.672 246.934 102.545 247.113L104.446 247.504C104.818 247.585 105.097 247.675 105.274 247.772C105.456 247.87 105.576 248.005 105.638 248.175C105.7 248.346 105.731 248.587 105.731 248.896V250.264C105.731 250.443 105.7 250.593 105.638 250.715C105.576 250.838 105.469 250.931 105.323 250.996C105.172 251.062 104.982 251.094 104.747 251.094C104.512 251.094 104.322 251.058 104.176 250.984C104.025 250.911 103.914 250.805 103.835 250.667C103.755 250.529 103.719 250.361 103.719 250.166V248.114H99.0318V249.457C99.0494 250.646 99.271 251.615 99.7008 252.364C100.131 253.113 100.76 253.663 101.584 254.013C102.412 254.362 103.467 254.538 104.747 254.538C106.028 254.538 107.086 254.362 107.924 254.013C108.757 253.663 109.382 253.121 109.798 252.389C110.21 251.656 110.418 250.712 110.418 249.555V248.187C110.418 247.341 110.312 246.665 110.099 246.16C109.891 245.656 109.523 245.24 109.001 244.914ZM104.216 222.934H107.319C107.72 222.934 108.028 222.854 108.24 222.69C108.447 222.528 108.553 222.283 108.553 221.958V220.394C108.553 220.085 108.447 219.852 108.24 219.698C108.028 219.543 107.72 219.466 107.319 219.466H104.216V222.934ZM104.216 232.072H98.5072V215.459H108.597C109.981 215.459 111.096 215.605 111.943 215.899C112.789 216.192 113.411 216.656 113.807 217.291C114.204 217.926 114.402 218.765 114.402 219.807V220.345C114.402 221.615 114.054 222.548 113.353 223.142C112.652 223.737 111.713 224.034 110.532 224.034H111.255C112.11 224.034 112.793 224.156 113.305 224.401C113.82 224.645 114.195 225.007 114.438 225.487C114.676 225.969 114.799 226.599 114.799 227.381L114.777 232.072H110.091C109.734 232.072 109.452 231.966 109.249 231.754C109.051 231.542 108.95 231.25 108.95 230.875V227.894C108.95 227.617 108.91 227.393 108.831 227.222C108.756 227.051 108.628 226.929 108.46 226.856C108.289 226.783 108.064 226.746 107.782 226.746H104.216V232.072ZM74.572 215.459L71.6734 224.751L68.7491 215.459H63.0583L66.5804 225.671C66.7964 226.273 67.1357 226.746 67.5941 227.088C67.9675 227.367 68.3931 227.526 68.8636 227.577V232.072H74.572V227.601H76.0177L80.2363 215.459H74.572ZM47.9125 215.459H43.0417L40.6802 227.167L38.5897 215.459H33.0666L36.1653 230.068C36.3063 230.72 36.5796 231.217 36.9941 231.559C37.4039 231.901 37.9286 232.072 38.5677 232.072H43.672L45.4172 221.88L46.815 230.068C46.9384 230.703 47.2028 231.197 47.6084 231.547C48.014 231.897 48.5163 232.072 49.1247 232.072H54.2512L57.7687 215.459H52.3381L50.2814 227.204L47.9125 215.459ZM5.96196 221.588L10.0877 232.072H17.1713V215.459H11.8333V225.106L7.84852 215.459H2.35167C1.77427 215.459 1.32916 215.622 1.01182 215.947C0.689984 216.274 0.53125 216.737 0.53125 217.34V232.072H5.96196V221.588ZM116.267 215.459V232.072H121.975V223.991L126.053 232.072H132.44V231.925L127.525 222.845L132.065 215.459H125.938L121.975 221.958V215.459H116.267ZM91.3309 221.518C91.3309 220.996 91.2385 220.549 91.0489 220.174C90.8637 219.8 90.5551 219.519 90.1276 219.331C89.7001 219.144 89.1535 219.05 88.488 219.05C87.8046 219.05 87.2492 219.144 86.8305 219.331C86.4117 219.519 86.1075 219.8 85.9092 220.174C85.7153 220.549 85.6183 220.996 85.6183 221.518V226.013C85.6183 226.535 85.7153 226.982 85.9092 227.357C86.1075 227.731 86.4117 228.012 86.8305 228.199C87.2492 228.387 87.8046 228.48 88.488 228.48C89.1535 228.48 89.7001 228.387 90.1276 228.199C90.5551 228.012 90.8637 227.731 91.0489 227.357C91.2385 226.982 91.3309 226.535 91.3309 226.013V221.518ZM94.9544 216.656C96.4046 217.715 97.1319 219.449 97.1319 221.86V225.671C97.1319 228.082 96.4046 229.816 94.9544 230.875C93.4998 231.933 91.3441 232.463 88.488 232.463C85.6271 232.463 83.4672 231.933 82.0082 230.875C80.5491 229.816 79.8174 228.082 79.8174 225.671V221.86C79.8174 219.449 80.5491 217.715 82.0082 216.656C83.4672 215.598 85.6271 215.068 88.488 215.068C91.3441 215.068 93.4998 215.598 94.9544 216.656ZM21.0415 215.459H32.4361V219.612H24.4666V221.884H31.5501V225.695H24.4666V227.918H32.4361V232.072H18.8949V217.706C18.8949 216.99 19.0844 216.436 19.4547 216.045C19.8293 215.654 20.3583 215.459 21.0415 215.459ZM122.41 201.607H121.272L122.41 202.131V202.406L121.272 202.927H122.41V203.206H121.171C121.132 203.206 121.102 203.195 121.08 203.173C121.058 203.151 121.047 203.121 121.047 203.084V202.769L122.126 202.266L121.047 201.766V201.449C121.047 201.41 121.058 201.38 121.08 201.359C121.102 201.339 121.132 201.328 121.171 201.328H122.41V201.607ZM121.271 203.91H122.41V204.197H121.271V204.763H121.047V203.342H121.271V203.91ZM92.0782 185.379L91.2976 182.782H84.5478L83.8013 185.379H77.9199L84.9117 166.045H91.122L98.1104 185.379H92.0782ZM72.2455 178.396V185.379H66.2719V166.045H81.0084L79.4846 170.258H72.2455V174.172H78.0739L76.5446 178.396H72.2455ZM62.1621 185.379H56.1891L56.1885 166.045H62.1621V185.379ZM52.8375 170.258H45.5984V174.172H51.4266L49.8978 178.396H45.5984V185.379H39.6248V166.045H54.3614L52.8375 170.258ZM99.97 105.324H79.5584C79.4493 105.567 79.3189 105.801 79.1582 106.025C78.9978 106.248 78.8869 106.506 78.7418 106.741C78.6394 106.907 78.6285 107.062 78.7125 107.24C78.8846 107.604 78.9065 107.984 78.7882 108.371C78.7456 108.51 78.6896 108.645 78.5622 108.727C78.452 108.799 78.3866 108.904 78.3575 109.019C78.2791 109.329 78.168 109.644 78.1669 109.957C78.1659 110.257 78.102 110.522 77.9912 110.788C77.9106 110.982 77.8339 111.169 77.9016 111.394C77.9378 111.514 77.9204 111.662 77.8896 111.788C77.8071 112.123 77.7865 112.462 77.7946 112.805C77.7992 112.999 77.7591 113.176 77.6266 113.328C77.5282 113.44 77.4854 113.574 77.4967 113.726C77.5017 113.791 77.5075 113.864 77.4842 113.922C77.3865 114.165 77.4067 114.364 77.6365 114.531C77.7579 114.619 77.7309 114.767 77.7018 114.901C77.6342 115.214 77.5757 115.529 77.5008 115.84C77.4661 115.985 77.4637 116.123 77.4962 116.266C77.6162 116.792 77.7369 117.316 77.938 117.823C78.0497 118.105 78.1329 118.412 78.1322 118.724C78.1318 118.947 78.1685 119.163 78.2059 119.381C78.243 119.598 78.2776 119.809 78.435 119.987C78.5392 120.105 78.5499 120.273 78.5538 120.428C78.5576 120.583 78.5478 120.738 78.5413 120.892C78.5321 121.116 78.549 121.328 78.6732 121.53C78.7981 121.732 78.8311 121.965 78.8082 122.202C78.7762 122.532 78.7587 122.864 78.6813 123.188C78.6465 123.333 78.6553 123.473 78.7048 123.611C78.7728 123.802 78.7908 124 78.7811 124.2C78.7469 124.906 78.7516 125.615 78.6044 126.312C78.579 126.432 78.5757 126.547 78.6417 126.664C79.1318 127.53 79.4044 128.5 79.9306 129.349C80.1167 129.649 80.2865 129.96 80.4726 130.26C80.5239 130.342 80.5981 130.417 80.6769 130.475C81.0579 130.755 81.3263 131.134 81.6019 131.507C81.9104 131.925 82.2061 132.351 82.616 132.683C82.7518 132.793 82.8612 132.937 82.9761 133.071C83.0256 133.129 83.0736 133.196 83.0967 133.267C83.3435 134.03 83.6438 134.775 83.8805 135.542C84.1154 136.301 84.3587 137.059 84.5968 137.818C84.6299 137.923 84.6669 138.029 84.6806 138.138C84.697 138.269 84.7416 138.371 84.8626 138.432C84.9989 138.5 85.0701 138.625 85.1489 138.746C85.7872 139.717 86.3382 140.739 86.8185 141.795C86.9801 142.151 87.2122 142.449 87.4195 142.768C88.0242 143.697 88.5117 144.688 88.9942 145.682C89.0584 145.814 89.1131 145.942 89.0282 146.09C88.9721 146.187 89.0253 146.264 89.112 146.308C89.2847 146.396 89.3589 146.558 89.4283 146.719C90.0871 148.252 90.7224 149.795 91.2569 151.376C91.3739 151.723 91.4486 152.064 91.7151 152.36C92.0552 152.738 92.0986 153.244 92.0405 153.741C92.0156 153.954 91.9059 154.148 91.9048 154.376C91.9041 154.542 91.7418 154.63 91.5881 154.678C91.2801 154.775 90.9607 154.802 90.6401 154.815C89.0609 154.877 87.4809 154.882 85.9008 154.892C83.4919 154.907 81.0833 154.949 78.6746 154.967C77.0831 154.978 75.4917 154.965 73.9002 154.968C72.7731 154.97 71.6457 154.998 70.5188 154.984C69.2367 154.968 67.955 154.969 66.6731 154.935C64.0758 154.935 61.4783 154.944 58.8811 154.932C57.0582 154.924 55.2355 154.892 53.4129 154.861C51.1149 154.823 48.817 154.78 46.5193 154.728C45.1937 154.698 43.8685 154.647 42.5431 154.603C42.4331 154.599 42.3237 154.578 42.2141 154.564C41.8177 154.516 41.8005 154.501 41.732 154.118C41.718 154.04 41.6877 153.971 41.6494 153.903C41.5986 153.814 41.5804 153.716 41.5925 153.615C41.6671 152.991 41.802 152.392 42.321 151.964C42.3791 151.916 42.4043 151.87 42.391 151.796C42.3506 151.57 42.4114 151.354 42.472 151.143C42.9258 149.558 43.5172 148.022 44.1306 146.494C44.1758 146.381 44.2335 146.275 44.3197 146.185C44.4099 146.09 44.447 145.988 44.3672 145.858C44.2957 145.742 44.3477 145.622 44.4009 145.511C44.9212 144.421 45.5388 143.388 46.2197 142.392C46.3148 142.253 46.4566 142.167 46.5594 142.035C46.7918 141.736 46.9033 141.377 47.0764 141.05C47.5116 140.227 48.0186 139.45 48.5217 138.67C48.5573 138.615 48.5972 138.532 48.6473 138.522C48.9435 138.463 48.9244 138.223 48.9859 138.007C49.1896 137.296 49.4111 136.59 49.6336 135.884C49.8696 135.136 50.1135 134.391 50.3572 133.645C50.3815 133.57 50.3976 133.5 50.3954 133.42C50.3913 133.258 50.4517 133.085 50.5637 133.001C50.9083 132.742 50.9488 132.28 51.2657 132.01C51.3017 131.979 51.3136 131.91 51.3203 131.857C51.3713 131.447 51.5731 131.107 51.8239 130.794C51.89 130.711 51.9134 130.624 51.9364 130.526C52.0905 129.87 52.1516 129.193 52.381 128.556C52.6011 127.944 52.7155 127.302 52.9521 126.692C53.1652 126.142 53.3649 125.576 53.4194 124.977C53.4402 124.749 53.5375 124.557 53.6833 124.382C54 124 54.1028 123.565 53.9934 123.079C53.951 122.891 53.9782 122.709 54.0376 122.525C54.1216 122.265 54.2104 122.009 54.1398 121.718C54.0837 121.486 54.2223 121.281 54.389 121.133C54.7091 120.848 54.8448 120.462 55.0153 120.092C55.0541 120.008 55.062 119.921 55.0417 119.833C54.9396 119.391 54.9741 118.929 54.8415 118.492C54.8187 118.417 54.8097 118.332 54.847 118.264C54.9773 118.025 54.8719 117.82 54.7266 117.659C54.231 117.11 54.1999 116.439 54.2137 115.763C54.2313 114.898 54.4229 114.055 54.6209 113.216C54.6517 113.086 54.6666 112.959 54.6233 112.825C54.5228 112.512 54.5176 112.192 54.6045 111.877C54.7313 111.416 54.6711 110.985 54.4505 110.565C54.3068 110.291 54.2937 109.988 54.3214 109.69C54.3645 109.227 54.2716 108.786 54.1267 108.356C53.9979 107.974 53.9246 107.587 53.9151 107.187C53.9076 106.866 53.8722 106.549 53.8155 106.232C53.7765 106.015 53.74 105.793 53.7405 105.574C53.7406 105.49 53.7398 105.407 53.7384 105.324H33.6775C15.3713 105.324 0.53125 120.164 0.53125 138.47V171.616C0.53125 189.923 15.3713 204.763 33.6775 204.763H99.97C118.276 204.763 133.116 189.923 133.116 171.616V171.616C133.116 153.31 118.276 138.47 99.97 138.47H133.116C133.116 120.164 118.276 105.324 99.97 105.324ZM85.6147 179.067H90.3099L87.9223 171.013L85.6147 179.067ZM133.116 33.352C133.116 15.0457 118.276 0.205696 99.97 0.205696H33.6775C15.3713 0.205696 0.53125 15.0457 0.53125 33.352H33.6775C15.3713 33.352 0.53125 48.192 0.53125 66.4981V99.6445H53.4876C53.4625 99.5723 53.4355 99.5006 53.4065 99.4287C53.2322 98.9978 53.2746 98.5396 53.4339 98.0999C53.4648 98.0146 53.5251 97.9393 53.6083 97.9081C53.799 97.8363 53.8134 97.6919 53.7767 97.5299C53.633 96.8956 53.5007 96.2614 53.0656 95.7358C52.8851 95.5177 52.7679 95.2465 52.6275 94.9963C52.3568 94.5135 52.064 94.047 51.6928 93.6325C51.4325 93.3421 51.2664 93.0115 51.1439 92.6294C50.9818 92.1231 50.7632 91.6207 50.2446 91.332C49.9161 91.1491 49.8873 91.0399 49.9881 90.6756C50.0434 90.4757 49.995 90.2939 49.9037 90.1341C49.7013 89.7802 49.5461 89.4012 49.2999 89.0687C49.134 88.8448 49.1791 88.5606 49.2262 88.3006C49.3003 87.889 49.296 87.5057 49.0688 87.1238C48.8245 86.7129 48.7036 86.2425 48.6424 85.7717C48.5807 85.2975 48.3997 84.8561 48.3167 84.3934C48.1657 83.5529 47.8027 82.7736 47.652 81.9352C47.6144 81.7261 47.5913 81.5192 47.6413 81.3109C47.6569 81.2453 47.6653 81.1859 47.6477 81.1175C47.5105 80.5826 47.3976 80.0429 47.3138 79.4968C47.2972 79.3888 47.2635 79.2802 47.2182 79.1805C47.0149 78.7329 46.9613 78.2447 46.8323 77.7772C46.7818 77.5946 46.781 77.3989 46.8353 77.2185C46.8896 77.039 46.874 76.8754 46.8248 76.7011C46.7707 76.5096 46.7599 76.3103 46.7439 76.1113C46.6948 75.4978 46.6902 74.8773 46.4854 74.2852C46.4229 74.1047 46.4319 73.9277 46.4675 73.7342C46.5167 73.4657 46.5006 73.1833 46.3835 72.9236C46.3164 72.7751 46.2853 72.6307 46.3686 72.4794C46.4018 72.4193 46.4098 72.3566 46.397 72.2877C46.2994 71.7669 46.2349 71.2373 45.9842 70.7579C45.8945 70.5862 45.8561 70.4037 45.8787 70.2127C45.9168 69.8872 45.8765 69.563 45.9759 69.2308C46.0561 68.9629 46.0187 68.6358 45.8376 68.3715C45.561 67.9678 45.3929 67.5192 45.2152 67.064C44.9291 66.331 44.7255 65.5758 44.4714 64.8356C44.3434 64.462 44.2388 64.0757 44.0657 63.7168C44.0419 63.6674 44.0165 63.6131 44.0139 63.5601C43.9954 63.1763 43.8267 62.8392 43.69 62.492C43.6861 62.4819 43.688 62.469 43.6828 62.4599C43.3307 61.8458 43.3078 61.1062 42.942 60.4992C42.6707 60.0488 42.5301 59.5497 42.3622 59.0593C42.2831 58.828 42.2403 58.5891 42.1794 58.354C42.0884 58.0017 42.0007 57.6508 41.8239 57.3245C41.6739 57.0478 41.6314 56.7343 41.6852 56.4227C41.7158 56.2469 41.6979 56.0687 41.7379 55.8959C41.7604 55.7991 41.7233 55.7226 41.6682 55.6507C41.4838 55.4093 41.4882 55.1381 41.5408 54.8591C41.5512 54.8048 41.56 54.7494 41.5789 54.6979C41.7053 54.3503 41.7039 53.9968 41.6991 53.6282C41.6876 52.7235 41.7399 51.818 41.8481 50.9183C41.9023 50.4668 42.3855 50.1511 42.8417 50.2462C42.949 50.2687 43.0575 50.295 43.1665 50.2996C43.3993 50.3094 43.4624 50.2333 43.4294 50.0016C43.3888 49.7176 43.3447 49.4341 43.3051 49.1499C43.179 48.2468 43.2429 47.3423 43.2846 46.4379C43.2935 46.2467 43.3563 46.0508 43.1025 45.9342C42.9742 45.8752 43.0102 45.6975 43.0143 45.5675C43.0307 45.0581 43.1017 44.5536 43.1962 44.0542C43.9127 40.2709 45.2453 36.7209 47.2447 33.4264C47.7737 32.5547 48.3706 31.7328 49.0954 31.0101C49.1502 30.9554 49.1971 30.873 49.263 30.8528C49.5803 30.7552 49.6837 30.4561 49.8697 30.2355C49.9623 30.1258 50.0583 30.0224 50.1671 29.9264C50.5475 29.5912 50.8731 29.2073 51.1643 28.7909C51.2768 28.63 51.431 28.4964 51.5745 28.359C54.5542 25.5024 58.1106 23.724 62.0926 22.7524C63.1253 22.5005 64.1851 22.4147 65.2423 22.3273C66.0026 22.2643 66.7642 22.2397 67.5275 22.243C68.7358 22.2483 69.9296 22.3978 71.1197 22.5878C72.6815 22.837 74.226 23.165 75.7125 23.7149C78.2934 24.6693 80.6689 25.9891 82.7708 27.7774C83.5984 28.4812 84.3438 29.2674 84.9962 30.1377C85.238 30.4603 85.5062 30.7655 85.6947 31.1265C85.7303 31.1948 85.8091 31.2674 85.8001 31.3281C85.754 31.6376 85.9906 31.6991 86.1877 31.7632C86.3681 31.8217 86.49 31.9312 86.6076 32.0638C87.1289 32.6518 87.5678 33.3049 88.0622 33.9142C88.1651 34.0409 88.2758 34.1824 88.0932 34.3443C88.0411 34.3904 88.0947 34.4489 88.1322 34.4857C88.7026 35.0465 89.0025 35.7858 89.4127 36.4504C89.7134 36.9378 89.9346 37.4719 90.1409 38.0097C90.3463 38.5454 90.5202 39.0924 90.7579 39.617C91.0785 40.3253 91.2316 41.0857 91.3954 41.8422C91.5358 42.4895 91.6912 43.1339 91.8566 43.7752C91.9663 44.2 92.1433 44.2443 92.4614 43.9236C92.6394 43.7443 92.8148 43.5632 92.9955 43.3863C93.1532 43.2316 93.3251 43.0935 93.4812 42.9383C93.6215 42.7992 93.7781 42.801 93.937 42.887C94.1634 43.0098 94.3262 43.1838 94.307 43.4632C94.296 43.6223 94.3153 43.7703 94.3895 43.9121C94.4578 44.0424 94.4739 44.1866 94.4831 44.33C94.496 44.5285 94.501 44.7276 94.508 44.9265C94.5172 45.1972 94.5119 45.4471 94.741 45.6776C95.0086 45.9468 95.0645 46.3226 94.9881 46.7023C94.9611 46.8363 94.9549 46.9632 95.0349 47.0837C95.0588 47.1196 95.0833 47.1681 95.0785 47.2074C95.0323 47.591 95.2406 47.9266 95.2778 48.2941C95.2965 48.4788 95.3322 48.6543 95.4041 48.8343C95.5313 49.153 95.4019 49.469 95.2557 49.7555C94.8518 50.5477 94.5929 51.394 94.3693 52.2454C94.2214 52.8078 94.1737 53.3999 94.1179 53.9822C93.9999 55.218 93.7016 56.4178 93.4279 57.6229C93.4156 57.6766 93.4013 57.7316 93.377 57.7806C93.0382 58.4643 92.8401 59.2055 92.5154 59.8946C92.3968 60.1464 92.225 60.3646 92.0308 60.5631C91.8249 60.7738 91.7495 61.0168 91.7733 61.3135C91.8279 61.9956 91.8206 62.681 91.897 63.3636C91.9346 63.7003 91.8514 64.0432 91.7916 64.3817C91.6117 65.3982 91.2626 66.3665 90.9104 67.3276C90.7493 67.7667 90.6439 68.2329 90.3981 68.6451C90.1789 69.013 90.0019 69.4058 89.8011 69.785C89.759 69.8645 89.7246 69.9428 89.7136 70.0323C89.6495 70.5509 89.4779 71.0474 89.3094 71.5322C89.0809 72.1897 88.8657 72.8451 88.7265 73.5273C88.678 73.7654 88.5672 73.9884 88.3588 74.1409C88.2934 74.1887 88.2541 74.2543 88.2229 74.3252C88.0223 74.78 87.8162 75.2326 87.6264 75.6919C87.5263 75.9341 87.4223 76.1791 87.4728 76.4582C87.4971 76.5921 87.442 76.7248 87.3612 76.8316C87.0655 77.2223 86.9915 77.6995 86.8397 78.1458C86.7793 78.3231 86.7363 78.5069 86.6957 78.6899C86.646 78.9141 86.5623 79.13 86.6014 79.3729C86.6256 79.523 86.5701 79.6842 86.4993 79.8202C86.2765 80.2484 86.2432 80.7137 86.2553 81.1757C86.2718 81.8064 86.1397 82.4018 85.9342 82.9884C85.7172 83.6086 85.6007 84.2454 85.6093 84.9038C85.6107 85.0143 85.605 85.1248 85.604 85.2355C85.601 85.5356 85.4672 85.7608 85.2226 85.9313C85.0036 86.084 84.9583 86.1414 85.0727 86.3605C85.3697 86.9292 85.1446 87.4264 84.922 87.9362C84.803 88.2086 84.6921 88.4841 84.688 88.792C84.6846 89.0509 84.5602 89.2912 84.454 89.5076C84.1065 90.216 84.0323 90.9917 83.8305 91.7352C83.8159 91.7884 83.8122 91.846 83.7901 91.8955C83.4993 92.548 83.4155 93.2551 83.255 93.9412C83.1882 94.2266 83.0828 94.4876 82.9251 94.7302C82.6997 95.077 82.5721 95.4621 82.4495 95.8544C82.2785 96.4018 82.0552 96.9331 81.8875 97.4815C81.6603 98.2246 81.3004 98.9111 81.0153 99.6288C81.0131 99.6341 81.0112 99.6393 81.0091 99.6445H133.116V66.4982H99.97C118.276 66.4982 133.116 51.658 133.116 33.352Z" fill="#FFB343"/>
</svg>