<svg width="1114" height="427" viewBox="0 0 1114 427" fill="none" xmlns="http://www.w3.org/2000/svg">
<g clip-path="url(#clip0_17_145)">
<path d="M80.9309 426.758C72.5769 426.758 64.2239 426.787 55.87 426.749C50.008 426.722 44.1456 426.62 38.2836 426.522C30.893 426.398 23.5027 426.261 16.113 426.094C11.8493 425.997 7.58727 425.832 3.32487 425.69C2.97127 425.678 2.61907 425.61 2.26677 425.566C0.991565 425.409 0.936065 425.362 0.716165 424.132C0.670865 423.88 0.573765 423.658 0.450063 423.441C0.286963 423.154 0.228663 422.839 0.267163 422.514C0.507263 420.505 0.941165 418.578 2.61037 417.204C2.79727 417.05 2.87837 416.9 2.83527 416.661C2.70567 415.937 2.90117 415.241 3.09587 414.562C4.55577 409.465 6.45816 404.525 8.43056 399.611C8.57576 399.249 8.76136 398.907 9.03856 398.616C9.32896 398.312 9.44806 397.983 9.19156 397.566C8.96156 397.192 9.12867 396.807 9.29957 396.449C10.9729 392.944 12.9596 389.623 15.1492 386.419C15.4548 385.972 15.911 385.695 16.2413 385.27C16.9889 384.307 17.3481 383.153 17.9046 382.101C19.3041 379.455 20.9348 376.957 22.5527 374.448C22.6673 374.271 22.796 374.004 22.9568 373.972C23.9091 373.782 23.8477 373.009 24.0461 372.317C24.7011 370.029 25.4129 367.757 26.1289 365.487C26.8879 363.081 27.6726 360.684 28.456 358.286C28.5343 358.047 28.5856 357.82 28.5792 357.563C28.5655 357.043 28.7601 356.486 29.1201 356.215C30.2282 355.383 30.3588 353.898 31.378 353.028C31.4934 352.929 31.5324 352.707 31.5534 352.536C31.7174 351.216 32.3666 350.126 33.1737 349.117C33.3858 348.851 33.4609 348.57 33.5351 348.254C34.0307 346.146 34.2268 343.969 34.9648 341.918C35.6725 339.95 36.0408 337.887 36.8017 335.924C37.4874 334.157 38.1292 332.336 38.3046 330.41C38.3715 329.676 38.6848 329.058 39.1534 328.494C40.1717 327.267 40.5029 325.867 40.1511 324.305C40.0146 323.7 40.1017 323.116 40.2927 322.524C40.563 321.686 40.8484 320.865 40.6216 319.927C40.4411 319.181 40.8868 318.522 41.4232 318.045C42.4525 317.129 42.8891 315.887 43.4374 314.698C43.562 314.428 43.5876 314.148 43.5221 313.865C43.1936 312.444 43.3045 310.958 42.878 309.552C42.8052 309.311 42.7763 309.037 42.8959 308.818C43.315 308.051 42.9761 307.392 42.5084 306.874C40.9147 305.107 40.8144 302.949 40.8588 300.777C40.9156 297.992 41.5318 295.283 42.169 292.583C42.2679 292.165 42.3156 291.757 42.1768 291.325C41.8534 290.32 41.8369 289.291 42.1158 288.278C42.524 286.796 42.3297 285.408 41.6211 284.058C41.1589 283.178 41.1163 282.202 41.2056 281.244C41.3439 279.754 41.0453 278.335 40.5794 276.953C40.1653 275.725 39.9289 274.481 39.8991 273.194C39.8749 272.16 39.7608 271.14 39.5781 270.122C39.453 269.423 39.3362 268.711 39.3371 268.005C39.3421 264.522 38.869 261.046 39.1053 257.566C39.2089 256.038 39.2382 254.521 39.2308 252.993C39.2235 251.331 38.8872 249.785 38.2633 248.242C37.7027 246.856 37.8392 245.382 38.3509 243.969C38.4508 243.693 38.6449 243.452 38.912 243.351C39.5253 243.121 39.5721 242.656 39.4539 242.135C38.9917 240.095 38.5658 238.055 37.1668 236.364C36.5864 235.664 36.2093 234.791 35.7577 233.987C34.8873 232.433 33.9455 230.934 32.7513 229.601C31.9149 228.666 31.3798 227.603 30.9863 226.374C30.465 224.746 29.7619 223.13 28.0941 222.202C27.0373 221.613 26.9447 221.262 27.269 220.09C27.4468 219.448 27.291 218.863 26.9974 218.349C26.3465 217.21 25.8476 215.992 25.0556 214.923C24.5215 214.202 24.6672 213.288 24.8184 212.452C25.0571 211.128 25.0433 209.895 24.3127 208.667C23.5266 207.346 23.1377 205.833 22.9407 204.319C22.7428 202.793 22.1606 201.374 21.8936 199.886C21.408 197.183 20.2408 194.676 19.7557 191.98C19.6348 191.308 19.5605 190.642 19.7213 189.972C19.7717 189.761 19.7983 189.57 19.742 189.35C19.3009 187.63 18.9371 185.894 18.6683 184.138C18.6147 183.791 18.506 183.441 18.3608 183.12C17.7067 181.681 17.5345 180.111 17.1194 178.607C16.9573 178.02 16.9541 177.39 17.1291 176.811C17.3036 176.233 17.2537 175.707 17.0952 175.147C16.9211 174.531 16.8868 173.889 16.8355 173.249C16.6775 171.276 16.6627 169.28 16.0036 167.376C15.8029 166.796 15.8318 166.226 15.9458 165.604C16.1048 164.74 16.0531 163.832 15.6761 162.997C15.4603 162.52 15.3605 162.055 15.628 161.569C15.7347 161.375 15.7608 161.173 15.7192 160.952C15.4054 159.277 15.1983 157.573 14.3921 156.032C14.1031 155.48 13.9802 154.893 14.0521 154.278C14.1754 153.232 14.0453 152.189 14.3651 151.121C14.623 150.259 14.503 149.207 13.9207 148.357C13.0307 147.059 12.4901 145.616 11.9184 144.152C10.9986 141.795 10.3436 139.366 9.52676 136.985C9.11456 135.784 8.77886 134.541 8.22176 133.387C8.14526 133.228 8.06327 133.053 8.05507 132.883C7.99547 131.649 7.45257 130.565 7.01327 129.448C7.00047 129.415 7.00686 129.374 6.98996 129.344C5.85756 127.369 5.78386 124.991 4.60796 123.039C3.73487 121.59 3.28277 119.985 2.74267 118.407C2.48847 117.664 2.35057 116.895 2.15547 116.139C1.86227 115.006 1.58007 113.878 1.01157 112.828C0.529163 111.938 0.392766 110.93 0.565865 109.928C0.663965 109.362 0.606665 108.789 0.734865 108.234C0.807265 107.922 0.687765 107.676 0.510965 107.445C-0.0817348 106.669 -0.0680358 105.797 0.101464 104.899C0.134464 104.725 0.163264 104.546 0.223664 104.381C0.629965 103.262 0.625465 102.126 0.610265 100.94C0.573165 98.0311 0.741865 95.1181 1.08947 92.2251C1.26407 90.7731 2.81776 89.7571 4.28456 90.0631C4.63036 90.1351 4.97946 90.2211 5.32936 90.2351C6.07836 90.2671 6.28137 90.0221 6.17507 89.2771C6.04457 88.3631 5.90297 87.4511 5.77517 86.5381C5.37027 83.6331 5.57546 80.7241 5.70966 77.8151C5.73806 77.2001 5.94007 76.5701 5.12417 76.1951C4.71147 76.0061 4.82696 75.4341 4.84026 75.0161C4.89296 73.3781 5.12097 71.7551 5.42517 70.1491C7.72977 57.9821 12.0156 46.5641 18.4456 35.9687C20.1469 33.1649 22.0667 30.5218 24.3979 28.197C24.5743 28.0211 24.7254 27.7564 24.9371 27.6913C25.9577 27.3775 26.2897 26.4151 26.8879 25.706C27.1857 25.3533 27.4949 25.0207 27.8449 24.712C29.068 23.6341 30.1156 22.3992 31.0514 21.0602C31.4133 20.5421 31.9093 20.1129 32.3706 19.6708C41.9541 10.4836 53.3923 4.7641 66.1989 1.6391C69.5199 0.828799 72.9279 0.552999 76.3289 0.271799C78.7739 0.0692987 81.2239 -0.0100023 83.6779 0.00099766C87.5649 0.0179977 91.4039 0.498498 95.2309 1.1096C100.255 1.9112 105.222 2.9662 110.002 4.7343C118.303 7.8044 125.943 12.0494 132.703 17.8001C135.365 20.0639 137.762 22.5924 139.86 25.3913C140.638 26.4293 141.501 27.4105 142.107 28.5713C142.222 28.7912 142.475 29.0248 142.446 29.2199C142.298 30.2153 143.059 30.4137 143.693 30.6194C144.273 30.8076 144.665 31.1594 145.043 31.5859C146.72 33.4773 148.131 35.5776 149.721 37.5372C150.052 37.9449 150.408 38.3998 149.821 38.9211C149.654 39.0681 149.826 39.2571 149.946 39.3751C151.781 41.1791 152.746 43.5571 154.065 45.6941C155.032 47.2621 155.743 48.9791 156.407 50.7091C157.067 52.4321 157.626 54.1911 158.391 55.8791C159.422 58.1561 159.915 60.6021 160.442 63.0351C160.893 65.1171 161.393 67.1891 161.925 69.2521C162.277 70.6181 162.847 70.7601 163.87 69.7291C164.442 69.1521 165.006 68.5701 165.587 68.0011C166.095 67.5041 166.647 67.0591 167.15 66.5601C167.601 66.1121 168.104 66.1181 168.616 66.3951C169.344 66.7901 169.867 67.3501 169.805 68.2481C169.77 68.7601 169.832 69.2361 170.071 69.6921C170.29 70.1111 170.342 70.5751 170.372 71.0361C170.413 71.6741 170.43 72.3141 170.452 72.9541C170.482 73.8251 170.464 74.6291 171.201 75.3701C172.062 76.2361 172.241 77.4451 171.996 78.6661C171.909 79.0971 171.889 79.5041 172.147 79.8931C172.223 80.0081 172.302 80.1641 172.287 80.2901C172.138 81.5241 172.808 82.6041 172.928 83.7851C172.988 84.3791 173.103 84.9441 173.334 85.5231C173.743 86.5471 173.327 87.5641 172.857 88.4851C171.557 91.0331 170.725 93.7551 170.006 96.4931C169.53 98.3011 169.377 100.206 169.197 102.079C168.817 106.053 167.858 109.912 166.978 113.788C166.939 113.961 166.892 114.137 166.815 114.295C165.725 116.494 165.088 118.877 164.044 121.094C163.662 121.904 163.11 122.606 162.485 123.244C161.822 123.921 161.58 124.703 161.657 125.657C161.832 127.852 161.809 130.056 162.055 132.251C162.176 133.333 161.908 134.437 161.716 135.525C161.137 138.795 160.014 141.909 158.881 145C158.363 146.412 158.024 147.911 157.234 149.237C156.529 150.42 155.959 151.683 155.314 152.903C155.178 153.159 155.068 153.411 155.032 153.698C154.826 155.366 154.274 156.963 153.732 158.523C152.998 160.637 152.305 162.745 151.858 164.939C151.701 165.705 151.345 166.422 150.676 166.912C150.465 167.066 150.338 167.277 150.238 167.505C149.593 168.968 148.93 170.423 148.32 171.901C147.998 172.68 147.663 173.467 147.826 174.366C147.904 174.796 147.726 175.223 147.467 175.566C146.516 176.823 146.278 178.357 145.789 179.793C145.595 180.363 145.457 180.954 145.327 181.543C145.167 182.264 144.897 182.958 145.023 183.739C145.101 184.222 144.922 184.741 144.695 185.178C143.978 186.555 143.871 188.052 143.91 189.538C143.963 191.566 143.538 193.481 142.877 195.368C142.179 197.362 141.805 199.41 141.832 201.527C141.837 201.883 141.819 202.238 141.815 202.594C141.806 203.56 141.375 204.284 140.589 204.832C139.884 205.323 139.739 205.508 140.106 206.213C141.062 208.042 140.338 209.641 139.622 211.28C139.239 212.157 138.882 213.042 138.87 214.032C138.859 214.865 138.458 215.638 138.117 216.334C136.999 218.612 136.761 221.107 136.111 223.498C136.065 223.669 136.052 223.854 135.981 224.014C135.046 226.112 134.777 228.387 134.26 230.593C134.046 231.511 133.707 232.35 133.199 233.13C132.475 234.246 132.064 235.485 131.67 236.746C131.12 238.507 130.402 240.216 129.862 241.98C129.132 244.369 127.974 246.577 127.057 248.886C126.871 249.353 126.737 249.82 126.664 250.317C126.272 252.951 126.037 255.61 125.44 258.214C125.208 259.225 124.989 260.227 124.353 261.078C124.112 261.399 124.027 261.775 123.936 262.161C123.329 264.725 122.663 267.262 121.085 269.456C120.568 270.173 120.212 271.003 119.746 271.759C119.416 272.293 119.381 272.791 119.651 273.363C120.205 274.536 120.275 275.758 119.895 277.001C119.758 277.449 119.578 277.882 119.168 278.147C118.814 278.376 118.603 278.717 118.509 279.087C118.257 280.084 117.9 281.095 117.896 282.102C117.892 283.067 117.688 283.919 117.332 284.775C117.072 285.398 116.825 285.999 117.043 286.724C117.159 287.109 117.104 287.585 117.005 287.989C116.739 289.069 116.673 290.16 116.699 291.261C116.714 291.887 116.585 292.456 116.159 292.942C115.842 293.304 115.705 293.735 115.741 294.224C115.757 294.433 115.776 294.668 115.701 294.854C115.387 295.636 115.452 296.275 116.191 296.813C116.581 297.098 116.494 297.571 116.401 298.002C116.183 299.009 115.995 300.023 115.754 301.023C115.642 301.488 115.635 301.933 115.739 302.391C116.126 304.086 116.513 305.771 117.16 307.401C117.519 308.306 117.787 309.294 117.785 310.298C117.785 311.016 117.901 311.711 118.021 312.412C118.141 313.11 118.253 313.789 118.759 314.361C119.093 314.74 119.129 315.28 119.141 315.78C119.153 316.276 119.121 316.774 119.101 317.271C119.071 317.991 119.125 318.675 119.525 319.322C119.927 319.973 120.032 320.723 119.959 321.483C119.856 322.544 119.8 323.613 119.551 324.654C119.439 325.121 119.468 325.571 119.626 326.017C119.845 326.63 119.903 327.265 119.872 327.909C119.761 330.18 119.777 332.462 119.303 334.702C119.222 335.09 119.211 335.458 119.424 335.834C120.999 338.619 121.876 341.74 123.569 344.471C124.167 345.436 124.714 346.434 125.312 347.399C125.477 347.665 125.715 347.906 125.969 348.092C127.195 348.992 128.058 350.212 128.944 351.411C129.936 352.754 130.887 354.126 132.205 355.193C132.642 355.546 132.994 356.009 133.363 356.44C133.523 356.626 133.677 356.842 133.751 357.071C134.545 359.525 135.511 361.921 136.272 364.386C137.028 366.83 137.81 369.266 138.576 371.707C138.682 372.045 138.801 372.387 138.845 372.736C138.898 373.156 139.042 373.488 139.431 373.681C139.869 373.899 140.098 374.304 140.352 374.691C142.404 377.816 144.177 381.102 145.721 384.499C146.241 385.643 146.988 386.602 147.654 387.626C149.599 390.615 151.167 393.801 152.719 397C152.925 397.425 153.101 397.837 152.828 398.311C152.648 398.624 152.819 398.87 153.097 399.012C153.653 399.294 153.892 399.816 154.115 400.335C156.233 405.266 158.277 410.227 159.996 415.313C160.372 416.427 160.613 417.524 161.47 418.476C162.563 419.692 162.703 421.321 162.516 422.917C162.436 423.602 162.083 424.227 162.08 424.961C162.075 425.493 161.555 425.777 161.061 425.932C160.07 426.244 159.043 426.331 158.012 426.372C152.933 426.573 147.852 426.59 142.77 426.621C135.023 426.668 127.276 426.803 119.529 426.86C114.411 426.897 109.292 426.853 104.174 426.864C100.549 426.87 96.9229 426.96 93.2989 426.915C89.1759 426.864 85.0529 426.87 80.9309 426.758ZM652.906 110.632C652.906 171.732 603.375 221.264 542.274 221.264H652.906V331.896H210.378V221.264C210.378 160.163 259.909 110.632 321.01 110.632H210.378C210.378 49.5311 259.909 9.66758e-05 321.01 9.66758e-05H542.274C603.375 9.66758e-05 652.906 49.5311 652.906 110.632ZM963.917 219.386L971.877 246.235H956.224L963.917 219.386ZM977.767 267.278L975.167 258.62H952.667L950.179 267.278H930.572L953.88 202.825H974.587L997.877 267.278H977.767ZM911.655 243.999V267.278H891.741V202.825H940.869L935.789 216.868H911.655V229.916H931.085L925.987 243.999H911.655ZM878.04 267.278H858.129L858.126 202.825H878.04V267.278ZM846.956 216.868H822.822V229.916H842.252L837.156 243.999H822.822V267.278H802.909V202.825H852.036L846.956 216.868ZM1114.1 110.632C1114.1 49.5311 1064.57 9.66758e-05 1003.47 9.66758e-05H782.203C721.103 9.66758e-05 671.571 49.5311 671.571 110.632V221.264C671.571 282.365 721.103 331.896 782.203 331.896H1003.47C1064.57 331.896 1114.1 282.365 1114.1 221.264C1114.1 160.164 1064.57 110.632 1003.47 110.632H1114.1Z" fill="#FFB343"/>
<path d="M241.962 359.356C244.823 359.356 248.153 359.726 251.952 360.466C255.8 361.206 258.612 361.995 260.388 362.834V378.596H253.358C249.559 371.443 244.33 367.866 237.67 367.866C234.957 367.866 232.465 368.729 230.196 370.456C227.927 372.183 226.126 374.551 224.794 377.56C223.511 380.569 222.87 383.949 222.87 387.698C222.87 391.941 223.511 395.838 224.794 399.39C226.126 402.893 228.124 405.705 230.788 407.826C233.452 409.898 236.757 410.934 240.704 410.934C245.193 410.934 251.582 408.467 259.87 403.534L262.83 408.27L249.214 418.852C247.043 419.493 244.947 419.913 242.924 420.11C240.951 420.357 238.829 420.48 236.56 420.48C231.035 420.48 226.126 419.222 221.834 416.706C217.542 414.19 214.212 410.737 211.844 406.346C209.476 401.906 208.292 396.874 208.292 391.25C208.292 385.478 210.068 380.15 213.62 375.266C217.172 370.333 221.587 366.46 226.866 363.648C232.145 360.787 237.177 359.356 241.962 359.356ZM331.718 419H304.19V414.856L312.256 410.046L307.742 399.02H284.876L280.806 408.936L292.128 414.19L289.76 419H265.858V414.856L273.85 408.862L292.794 363.204L305.596 359.43L326.612 410.416L334.16 414.19L331.718 419ZM296.42 371.122L287.244 393.322H305.448L296.42 371.122ZM367.017 390.066C369.631 390.066 371.703 389.153 373.233 387.328C374.762 385.503 375.527 382.987 375.527 379.78C375.527 375.883 374.589 372.725 372.715 370.308C370.84 367.841 368.077 366.608 364.427 366.608C362.009 366.608 359.74 367.348 357.619 368.828V411.378L370.495 414.19L368.053 419H337.269V414.856L344.225 409.38V368.162L336.011 365.646L338.453 360.836H350.737C355.127 360.836 359.444 360.688 363.687 360.392C366.844 360.195 369.163 360.096 370.643 360.096C374.491 360.096 377.895 360.861 380.855 362.39C383.815 363.87 386.109 365.917 387.737 368.532C389.365 371.147 390.179 374.057 390.179 377.264C390.179 380.816 388.822 384.146 386.109 387.254C383.395 390.362 379.967 392.804 375.823 394.58C371.679 396.356 367.633 397.145 363.687 396.948L360.431 394.95L362.873 390.14H367.017V390.066ZM425.624 390.066C428.239 390.066 430.311 389.153 431.84 387.328C433.37 385.503 434.134 382.987 434.134 379.78C434.134 375.883 433.197 372.725 431.322 370.308C429.448 367.841 426.685 366.608 423.034 366.608C420.617 366.608 418.348 367.348 416.226 368.828V411.378L429.102 414.19L426.66 419H395.876V414.856L402.832 409.38V368.162L394.618 365.646L397.06 360.836H409.344C413.735 360.836 418.052 360.688 422.294 360.392C425.452 360.195 427.77 360.096 429.25 360.096C433.098 360.096 436.502 360.861 439.462 362.39C442.422 363.87 444.716 365.917 446.344 368.532C447.972 371.147 448.786 374.057 448.786 377.264C448.786 380.816 447.43 384.146 444.716 387.254C442.003 390.362 438.574 392.804 434.43 394.58C430.286 396.356 426.241 397.145 422.294 396.948L419.038 394.95L421.48 390.14H425.624V390.066ZM501.252 419.074H454.484V414.93L461.44 409.454V368.088L453.226 365.646L455.668 360.836H500.512L505.84 359.504V378.374L501.77 380.002L492.668 366.46H474.834V386.44H483.64L489.042 378.152H493.186V399.686L488.376 402.128L483.566 392.138H474.834V413.376H492.076L502.51 398.28L506.58 399.982V420.406L501.252 419.074ZM562.399 419H515.187V414.856L522.143 409.38V367.792L513.929 365.646L516.371 360.836H542.567V364.98L535.537 370.456V413.376H552.187L563.657 396.8L567.727 398.502V420.332L562.399 419ZM621.368 419H574.156V414.856L581.112 409.38V367.792L572.898 365.646L575.34 360.836H601.536V364.98L594.506 370.456V413.376H611.156L622.626 396.8L626.696 398.502V420.332L621.368 419ZM695.358 419H667.83V414.856L675.896 410.046L671.382 399.02H648.516L644.446 408.936L655.768 414.19L653.4 419H629.498V414.856L637.49 408.862L656.434 363.204L669.236 359.43L690.252 410.416L697.8 414.19L695.358 419ZM660.06 371.122L650.884 393.322H669.088L660.06 371.122ZM777.225 379.854L773.155 381.482L762.721 366.46H755.839V412.044L764.127 414.19L761.685 419H735.489V414.856L742.445 409.38V366.46H735.859L725.425 381.482L721.355 379.854V359.504L726.683 360.836H771.897L777.225 359.504V379.854ZM841.363 419H825.305L811.023 393.396L807.767 391.398L809.617 387.772H813.021C815.685 387.772 817.782 386.958 819.311 385.33C820.84 383.702 821.605 381.408 821.605 378.448C821.605 374.995 820.668 372.183 818.793 370.012C816.968 367.792 814.279 366.682 810.727 366.682C808.507 366.682 806.435 367.373 804.511 368.754V411.896L812.725 414.264L810.357 419.074H784.161V414.93L791.117 409.084V368.014L782.903 365.72L785.345 360.91H797.629C801.921 360.91 806.139 360.762 810.283 360.466C813.243 360.269 815.463 360.17 816.943 360.17C820.742 360.17 824.096 360.861 827.007 362.242C829.967 363.574 832.236 365.399 833.815 367.718C835.443 370.037 836.257 372.627 836.257 375.488C836.257 378.941 834.728 382.148 831.669 385.108C828.61 388.068 824.886 390.288 820.495 391.768L826.415 393.47L836.035 410.638L843.731 414.19L841.363 419ZM908.975 419H881.447V414.856L889.513 410.046L884.999 399.02H862.133L858.063 408.936L869.385 414.19L867.017 419H843.115V414.856L851.107 408.862L870.051 363.204L882.853 359.43L903.869 410.416L911.417 414.19L908.975 419ZM873.677 371.122L864.501 393.322H882.705L873.677 371.122ZM961.37 371.048L942.426 416.632L929.698 420.406L908.682 369.42L901.134 365.646L903.502 360.836H931.104V364.98L923.038 369.79L938.948 408.714L954.562 370.974L943.24 365.646L945.608 360.836H969.51L969.436 364.98L961.37 371.048ZM1019.83 419.074H973.062V414.93L980.018 409.454V368.088L971.804 365.646L974.246 360.836H1019.09L1024.42 359.504V378.374L1020.35 380.002L1011.25 366.46H993.412V386.44H1002.22L1007.62 378.152H1011.76V399.686L1006.95 402.128L1002.14 392.138H993.412V413.376H1010.65L1021.09 398.28L1025.16 399.982V420.406L1019.83 419.074ZM1080.98 419H1033.76V414.856L1040.72 409.38V367.792L1032.51 365.646L1034.95 360.836H1061.14V364.98L1054.11 370.456V413.376H1070.76L1082.23 396.8L1086.3 398.502V420.332L1080.98 419Z" fill="#FFB343"/>
</g>
<defs>
<clipPath id="clip0_17_145">
<rect width="1114" height="426.9" fill="white"/>
</clipPath>
</defs>
</svg>
