<svg xmlns="http://www.w3.org/2000/svg" viewBox="0.453125 0.459961 1114 426.9">
	<path d="M81.384 427.218C73.03 427.218 64.677 427.247 56.3231 427.209C50.4611 427.182 44.5987 427.08 38.7367 426.982C31.3461 426.858 23.9558 426.721 16.5661 426.554C12.3024 426.457 8.04039 426.292 3.77799 426.15C3.42439 426.138 3.07219 426.07 2.71989 426.026C1.44469 425.869 1.38919 425.822 1.16929 424.592C1.12399 424.34 1.02689 424.118 0.903188 423.901C0.740088 423.614 0.681788 423.299 0.720288 422.974C0.960388 420.965 1.39429 419.038 3.06349 417.664C3.25039 417.51 3.33149 417.36 3.28839 417.121C3.15879 416.397 3.35429 415.701 3.54899 415.022C5.00889 409.925 6.91129 404.985 8.88369 400.071C9.02889 399.709 9.21449 399.367 9.49169 399.076C9.78209 398.772 9.90119 398.443 9.64469 398.026C9.41469 397.652 9.58179 397.267 9.75269 396.909C11.426 393.404 13.4127 390.083 15.6023 386.879C15.9079 386.432 16.3641 386.155 16.6944 385.73C17.442 384.767 17.8012 383.613 18.3577 382.561C19.7572 379.915 21.3879 377.417 23.0058 374.908C23.1204 374.731 23.2491 374.464 23.4099 374.432C24.3622 374.242 24.3008 373.469 24.4992 372.777C25.1542 370.489 25.866 368.217 26.582 365.947C27.341 363.541 28.1257 361.144 28.9091 358.746C28.9874 358.507 29.0387 358.28 29.0323 358.023C29.0186 357.503 29.2132 356.946 29.5732 356.675C30.6813 355.843 30.8119 354.358 31.8311 353.488C31.9465 353.389 31.9855 353.167 32.0065 352.996C32.1705 351.676 32.8197 350.586 33.6268 349.577C33.8389 349.311 33.914 349.03 33.9882 348.714C34.4838 346.606 34.6799 344.429 35.4179 342.378C36.1256 340.41 36.4939 338.347 37.2548 336.384C37.9405 334.617 38.5823 332.796 38.7577 330.87C38.8246 330.136 39.1379 329.518 39.6065 328.954C40.6248 327.727 40.956 326.327 40.6042 324.765C40.4677 324.16 40.5548 323.576 40.7458 322.984C41.0161 322.146 41.3015 321.325 41.0747 320.387C40.8942 319.641 41.3399 318.982 41.8763 318.505C42.9056 317.589 43.3422 316.347 43.8905 315.158C44.0151 314.888 44.0407 314.608 43.9752 314.325C43.6467 312.904 43.7576 311.418 43.3311 310.012C43.2583 309.771 43.2294 309.497 43.349 309.278C43.7681 308.511 43.4292 307.852 42.9615 307.334C41.3678 305.567 41.2675 303.409 41.3119 301.237C41.3687 298.452 41.9849 295.743 42.6221 293.043C42.721 292.625 42.7687 292.217 42.6299 291.785C42.3065 290.78 42.29 289.751 42.5689 288.738C42.9771 287.256 42.7828 285.868 42.0742 284.518C41.612 283.638 41.5694 282.662 41.6587 281.704C41.797 280.214 41.4984 278.795 41.0325 277.413C40.6184 276.185 40.382 274.941 40.3522 273.654C40.328 272.62 40.2139 271.6 40.0312 270.582C39.9061 269.883 39.7893 269.171 39.7902 268.465C39.7952 264.982 39.3221 261.506 39.5584 258.026C39.662 256.498 39.6913 254.981 39.6839 253.453C39.6766 251.791 39.3403 250.245 38.7164 248.702C38.1558 247.316 38.2923 245.842 38.804 244.429C38.9039 244.153 39.098 243.912 39.3651 243.811C39.9784 243.581 40.0252 243.116 39.907 242.595C39.4448 240.555 39.0189 238.515 37.6199 236.824C37.0395 236.124 36.6624 235.251 36.2108 234.447C35.3404 232.893 34.3986 231.394 33.2044 230.061C32.368 229.126 31.8329 228.063 31.4394 226.834C30.9181 225.206 30.215 223.59 28.5472 222.662C27.4904 222.073 27.3978 221.722 27.7221 220.55C27.8999 219.908 27.7441 219.323 27.4505 218.809C26.7996 217.67 26.3007 216.452 25.5087 215.383C24.9746 214.662 25.1203 213.748 25.2715 212.912C25.5102 211.588 25.4964 210.355 24.7658 209.127C23.9797 207.806 23.5908 206.293 23.3938 204.779C23.1959 203.253 22.6137 201.834 22.3467 200.346C21.8611 197.643 20.6939 195.136 20.2088 192.44C20.0879 191.768 20.0136 191.102 20.1744 190.432C20.2248 190.221 20.2514 190.03 20.1951 189.81C19.754 188.09 19.3902 186.354 19.1214 184.598C19.0678 184.251 18.9591 183.901 18.8139 183.58C18.1598 182.141 17.9876 180.571 17.5725 179.067C17.4104 178.48 17.4072 177.85 17.5822 177.271C17.7567 176.693 17.7068 176.167 17.5483 175.607C17.3742 174.991 17.3399 174.349 17.2886 173.709C17.1306 171.736 17.1158 169.74 16.4567 167.836C16.256 167.256 16.2849 166.686 16.3989 166.064C16.5579 165.2 16.5062 164.292 16.1292 163.457C15.9134 162.98 15.8136 162.515 16.0811 162.029C16.1878 161.835 16.2139 161.633 16.1723 161.412C15.8585 159.737 15.6514 158.033 14.8452 156.492C14.5562 155.94 14.4333 155.353 14.5052 154.738C14.6285 153.692 14.4984 152.649 14.8182 151.581C15.0761 150.719 14.9561 149.667 14.3738 148.817C13.4838 147.519 12.9432 146.076 12.3715 144.612C11.4517 142.255 10.7967 139.826 9.97989 137.445C9.56769 136.244 9.23199 135.001 8.67489 133.847C8.59839 133.688 8.51639 133.513 8.50819 133.343C8.44859 132.109 7.90569 131.025 7.46639 129.908C7.45359 129.875 7.45999 129.834 7.44309 129.804C6.31069 127.829 6.23699 125.451 5.06109 123.499C4.18799 122.05 3.73589 120.445 3.19579 118.867C2.94159 118.124 2.80369 117.355 2.60859 116.599C2.31539 115.466 2.03319 114.338 1.46469 113.288C0.982288 112.398 0.845891 111.39 1.01899 110.388C1.11709 109.822 1.05979 109.249 1.18799 108.694C1.26039 108.382 1.14089 108.136 0.96409 107.905C0.37139 107.129 0.385089 106.257 0.554589 105.359C0.587589 105.185 0.616389 105.006 0.676789 104.841C1.08309 103.722 1.07859 102.586 1.06339 101.4C1.02629 98.4911 1.19499 95.5781 1.54259 92.6851C1.71719 91.2331 3.27089 90.2171 4.73769 90.5231C5.08349 90.5951 5.43259 90.6811 5.78249 90.6951C6.53149 90.7271 6.73449 90.4821 6.62819 89.7371C6.49769 88.8231 6.35609 87.9111 6.22829 86.9981C5.82339 84.0931 6.02859 81.1841 6.16279 78.2751C6.19119 77.6601 6.39319 77.0301 5.57729 76.6551C5.16459 76.4661 5.28009 75.8941 5.29339 75.4761C5.34609 73.8381 5.57409 72.2151 5.87829 70.6091C8.18289 58.4421 12.4687 47.0241 18.8987 36.4287C20.6 33.6249 22.5198 30.9818 24.851 28.657C25.0274 28.4811 25.1785 28.2164 25.3902 28.1513C26.4108 27.8375 26.7428 26.8751 27.341 26.166C27.6388 25.8133 27.948 25.4807 28.298 25.172C29.5211 24.0941 30.5687 22.8592 31.5045 21.5202C31.8664 21.0021 32.3624 20.5729 32.8237 20.1308C42.4072 10.9436 53.8454 5.22406 66.652 2.09906C69.973 1.28876 73.381 1.01296 76.782 0.73176C79.227 0.52926 81.677 0.449959 84.131 0.460959C88.018 0.477959 91.857 0.958459 95.684 1.56956C100.708 2.37116 105.675 3.42616 110.455 5.19426C118.756 8.26436 126.396 12.5094 133.156 18.2601C135.818 20.5239 138.215 23.0524 140.313 25.8513C141.091 26.8893 141.954 27.8705 142.56 29.0313C142.675 29.2512 142.928 29.4848 142.899 29.6799C142.751 30.6753 143.512 30.8737 144.146 31.0794C144.726 31.2676 145.118 31.6194 145.496 32.0459C147.173 33.9373 148.584 36.0376 150.174 37.9972C150.505 38.4049 150.861 38.8598 150.274 39.3811C150.107 39.5281 150.279 39.7171 150.399 39.8351C152.234 41.6391 153.199 44.0171 154.518 46.1541C155.485 47.7221 156.196 49.4391 156.86 51.1691C157.52 52.8921 158.079 54.6511 158.844 56.3391C159.875 58.6161 160.368 61.0621 160.895 63.4951C161.346 65.5771 161.846 67.6491 162.378 69.7121C162.73 71.0781 163.3 71.2201 164.323 70.1891C164.895 69.6121 165.459 69.0301 166.04 68.4611C166.548 67.9641 167.1 67.5191 167.603 67.0201C168.054 66.5721 168.557 66.5781 169.069 66.8551C169.797 67.2501 170.32 67.8101 170.258 68.7081C170.223 69.2201 170.285 69.6961 170.524 70.1521C170.743 70.5711 170.795 71.0351 170.825 71.4961C170.866 72.1341 170.883 72.7741 170.905 73.4141C170.935 74.2851 170.917 75.0891 171.654 75.8301C172.515 76.6961 172.694 77.9051 172.449 79.1261C172.362 79.5571 172.342 79.9641 172.6 80.3531C172.676 80.4681 172.755 80.6241 172.74 80.7501C172.591 81.9841 173.261 83.0641 173.381 84.2451C173.441 84.8391 173.556 85.4041 173.787 85.9831C174.196 87.0071 173.78 88.0241 173.31 88.9451C172.01 91.4931 171.178 94.2151 170.459 96.9531C169.983 98.7611 169.83 100.666 169.65 102.539C169.27 106.513 168.311 110.372 167.431 114.248C167.392 114.421 167.345 114.597 167.268 114.755C166.178 116.954 165.541 119.337 164.497 121.554C164.115 122.364 163.563 123.066 162.938 123.704C162.275 124.381 162.033 125.163 162.11 126.117C162.285 128.312 162.262 130.516 162.508 132.711C162.629 133.793 162.361 134.897 162.169 135.985C161.59 139.255 160.467 142.369 159.334 145.46C158.816 146.872 158.477 148.371 157.687 149.697C156.982 150.88 156.412 152.143 155.767 153.363C155.631 153.619 155.521 153.871 155.485 154.158C155.279 155.826 154.727 157.423 154.185 158.983C153.451 161.097 152.758 163.205 152.311 165.399C152.154 166.165 151.798 166.882 151.129 167.372C150.918 167.526 150.791 167.737 150.691 167.965C150.046 169.428 149.383 170.883 148.773 172.361C148.451 173.14 148.116 173.927 148.279 174.826C148.357 175.256 148.179 175.683 147.92 176.026C146.969 177.283 146.731 178.817 146.242 180.253C146.048 180.823 145.91 181.414 145.78 182.003C145.62 182.724 145.35 183.418 145.476 184.199C145.554 184.682 145.375 185.201 145.148 185.638C144.431 187.015 144.324 188.512 144.363 189.998C144.416 192.026 143.991 193.941 143.33 195.828C142.632 197.822 142.258 199.87 142.285 201.987C142.29 202.343 142.272 202.698 142.268 203.054C142.259 204.02 141.828 204.744 141.042 205.292C140.337 205.783 140.192 205.968 140.559 206.673C141.515 208.502 140.791 210.101 140.075 211.74C139.692 212.617 139.335 213.502 139.323 214.492C139.312 215.325 138.911 216.098 138.57 216.794C137.452 219.072 137.214 221.567 136.564 223.958C136.518 224.129 136.505 224.314 136.434 224.474C135.499 226.572 135.23 228.847 134.713 231.053C134.499 231.971 134.16 232.81 133.652 233.59C132.928 234.706 132.517 235.945 132.123 237.206C131.573 238.967 130.855 240.676 130.315 242.44C129.585 244.829 128.427 247.037 127.51 249.346C127.324 249.813 127.19 250.28 127.117 250.777C126.725 253.411 126.49 256.07 125.893 258.674C125.661 259.685 125.442 260.687 124.806 261.538C124.565 261.859 124.48 262.235 124.389 262.621C123.782 265.185 123.116 267.722 121.538 269.916C121.021 270.633 120.665 271.463 120.199 272.219C119.869 272.753 119.834 273.251 120.104 273.823C120.658 274.996 120.728 276.218 120.348 277.461C120.211 277.909 120.031 278.342 119.621 278.607C119.267 278.836 119.056 279.177 118.962 279.547C118.71 280.544 118.353 281.555 118.349 282.562C118.345 283.527 118.141 284.379 117.785 285.235C117.525 285.858 117.278 286.459 117.496 287.184C117.612 287.569 117.557 288.045 117.458 288.449C117.192 289.529 117.126 290.62 117.152 291.721C117.167 292.347 117.038 292.916 116.612 293.402C116.295 293.764 116.158 294.195 116.194 294.684C116.21 294.893 116.229 295.128 116.154 295.314C115.84 296.096 115.905 296.735 116.644 297.273C117.034 297.558 116.947 298.031 116.854 298.462C116.636 299.469 116.448 300.483 116.207 301.483C116.095 301.948 116.088 302.393 116.192 302.851C116.579 304.546 116.966 306.231 117.613 307.861C117.972 308.766 118.24 309.754 118.238 310.758C118.238 311.476 118.354 312.171 118.474 312.872C118.594 313.57 118.706 314.249 119.212 314.821C119.546 315.2 119.582 315.74 119.594 316.24C119.606 316.736 119.574 317.234 119.554 317.731C119.524 318.451 119.578 319.135 119.978 319.782C120.38 320.433 120.485 321.183 120.412 321.943C120.309 323.004 120.253 324.073 120.004 325.114C119.892 325.581 119.921 326.031 120.079 326.477C120.298 327.09 120.356 327.725 120.325 328.369C120.214 330.64 120.23 332.922 119.756 335.162C119.675 335.55 119.664 335.918 119.877 336.294C121.452 339.079 122.329 342.2 124.022 344.931C124.62 345.896 125.167 346.894 125.765 347.859C125.93 348.125 126.168 348.366 126.422 348.552C127.648 349.452 128.511 350.672 129.397 351.871C130.389 353.214 131.34 354.586 132.658 355.653C133.095 356.006 133.447 356.469 133.816 356.9C133.976 357.086 134.13 357.302 134.204 357.531C134.998 359.985 135.964 362.381 136.725 364.846C137.481 367.29 138.263 369.726 139.029 372.167C139.135 372.505 139.254 372.847 139.298 373.196C139.351 373.616 139.495 373.948 139.884 374.141C140.322 374.359 140.551 374.764 140.805 375.151C142.857 378.276 144.63 381.562 146.174 384.959C146.694 386.103 147.441 387.062 148.107 388.086C150.052 391.075 151.62 394.261 153.172 397.46C153.378 397.885 153.554 398.297 153.281 398.771C153.101 399.084 153.272 399.33 153.55 399.472C154.106 399.754 154.345 400.276 154.568 400.795C156.686 405.726 158.73 410.687 160.449 415.773C160.825 416.887 161.066 417.984 161.923 418.936C163.016 420.152 163.156 421.781 162.969 423.377C162.889 424.062 162.536 424.687 162.533 425.421C162.528 425.953 162.008 426.237 161.514 426.392C160.523 426.704 159.496 426.791 158.465 426.832C153.386 427.033 148.305 427.05 143.223 427.081C135.476 427.128 127.729 427.263 119.982 427.32C114.864 427.357 109.745 427.313 104.627 427.324C101.002 427.33 97.376 427.42 93.752 427.375C89.629 427.324 85.506 427.33 81.384 427.218ZM653.359 111.092C653.359 172.192 603.828 221.724 542.727 221.724H653.359V332.356H210.831V221.724C210.831 160.623 260.362 111.092 321.463 111.092H210.831C210.831 49.9911 260.362 0.460058 321.463 0.460058H542.727C603.828 0.460058 653.359 49.9911 653.359 111.092ZM964.37 219.846L972.33 246.695H956.677L964.37 219.846ZM978.22 267.738L975.62 259.08H953.12L950.632 267.738H931.025L954.333 203.285H975.04L998.33 267.738H978.22ZM912.108 244.459V267.738H892.194V203.285H941.322L936.242 217.328H912.108V230.376H931.538L926.44 244.459H912.108ZM878.493 267.738H858.582L858.579 203.285H878.493V267.738ZM847.409 217.328H823.275V230.376H842.705L837.609 244.459H823.275V267.738H803.362V203.285H852.489L847.409 217.328ZM1114.55 111.092C1114.55 49.9911 1065.02 0.460058 1003.92 0.460058H782.656C721.556 0.460058 672.024 49.9911 672.024 111.092V221.724C672.024 282.825 721.556 332.356 782.656 332.356H1003.92C1065.02 332.356 1114.55 282.825 1114.55 221.724C1114.55 160.624 1065.02 111.092 1003.92 111.092H1114.55Z" fill="#FFB343"/>
</svg>
