<svg width="28" height="28" viewBox="0 0 28 28" fill="none" xmlns="http://www.w3.org/2000/svg">
<rect width="28" height="28" fill="#1E1E1E"/>
<g clip-path="url(#clip0_0_1)">
<path d="M14 28C21.732 28 28 21.732 28 14C28 6.26801 21.732 0 14 0C6.26801 0 0 6.26801 0 14C0 21.732 6.26801 28 14 28Z" fill="white"/>
<mask id="mask0_0_1" style="mask-type:luminance" maskUnits="userSpaceOnUse" x="8" y="5" width="11" height="18">
<path d="M8.97656 5.7057H18.7543V22.002H8.97656V5.7057Z" fill="white"/>
</mask>
<g mask="url(#mask0_0_1)">
<path d="M15.3918 17.3165L15.3451 17.1613H14.9418L14.8972 17.3165H14.5458L14.9636 16.1613H15.3346L15.7522 17.3165H15.3918ZM14.2068 16.8992V17.3165H13.8498V16.1613H14.7303L14.6393 16.413H14.2068V16.6468H14.555L14.4636 16.8992H14.2068ZM13.6043 17.3165H13.2474V16.1613H13.6043V17.3165ZM13.0472 16.413H12.6146V16.6468H12.9629L12.8715 16.8992H12.6146V17.3165H12.2577V16.1613H13.1382L13.0472 16.413ZM15.8633 12.5332H14.6437C14.6372 12.5477 14.6294 12.5617 14.6198 12.5751C14.6102 12.5884 14.6036 12.6038 14.5949 12.6179C14.5888 12.6278 14.5881 12.637 14.5932 12.6477C14.6035 12.6695 14.6048 12.6921 14.5977 12.7152C14.5951 12.7236 14.5918 12.7316 14.5842 12.7365C14.5776 12.7408 14.5737 12.7471 14.572 12.754C14.5673 12.7725 14.5606 12.7913 14.5606 12.81C14.5605 12.8279 14.5567 12.8438 14.5501 12.8597C14.5453 12.8712 14.5407 12.8824 14.5447 12.8959C14.5469 12.903 14.5458 12.9119 14.544 12.9194C14.5391 12.9394 14.5378 12.9597 14.5383 12.9802C14.5386 12.9918 14.5362 13.0024 14.5283 13.0114C14.5224 13.0181 14.5199 13.0261 14.5205 13.0352C14.5208 13.0391 14.5212 13.0435 14.5198 13.0469C14.5139 13.0615 14.5151 13.0733 14.5289 13.0833C14.5361 13.0886 14.5345 13.0974 14.5328 13.1054C14.5287 13.1241 14.5252 13.1429 14.5208 13.1615C14.5187 13.1702 14.5186 13.1784 14.5205 13.1869C14.5277 13.2184 14.5349 13.2497 14.5469 13.28C14.5536 13.2968 14.5585 13.3152 14.5585 13.3338C14.5585 13.3472 14.5607 13.3601 14.5629 13.3731C14.5651 13.3861 14.5672 13.3987 14.5766 13.4093C14.5828 13.4164 14.5835 13.4264 14.5837 13.4357C14.5839 13.4449 14.5833 13.4542 14.5829 13.4634C14.5824 13.4768 14.5834 13.4895 14.5908 13.5015C14.5983 13.5136 14.6003 13.5275 14.5989 13.5416C14.597 13.5613 14.5959 13.5812 14.5913 13.6005C14.5892 13.6092 14.5898 13.6176 14.5927 13.6259C14.5968 13.6373 14.5978 13.6491 14.5973 13.661C14.5952 13.7032 14.5955 13.7456 14.5867 13.7872C14.5852 13.7944 14.585 13.8012 14.5889 13.8082C14.6182 13.86 14.6345 13.918 14.6659 13.9687C14.6771 13.9866 14.6872 14.0052 14.6983 14.0231C14.7014 14.028 14.7058 14.0325 14.7105 14.036C14.7333 14.0527 14.7493 14.0754 14.7658 14.0976C14.7842 14.1226 14.8019 14.1481 14.8264 14.1679C14.8345 14.1745 14.841 14.1831 14.8479 14.1911C14.8509 14.1945 14.8537 14.1985 14.8551 14.2028C14.8699 14.2484 14.8878 14.2929 14.902 14.3387C14.916 14.3841 14.9305 14.4293 14.9448 14.4747C14.9467 14.481 14.9489 14.4873 14.9498 14.4938C14.9507 14.5016 14.9534 14.5078 14.9606 14.5114C14.9688 14.5154 14.973 14.5229 14.9777 14.5301C15.0159 14.5882 15.0488 14.6492 15.0775 14.7123C15.0872 14.7336 15.101 14.7514 15.1134 14.7704C15.1495 14.826 15.1787 14.8852 15.2075 14.9446C15.2113 14.9525 15.2146 14.9601 15.2095 14.9689C15.2062 14.9748 15.2094 14.9793 15.2145 14.982C15.2249 14.9872 15.2293 14.9969 15.2334 15.0065C15.2728 15.0981 15.3108 15.1903 15.3427 15.2848C15.3497 15.3055 15.3541 15.3259 15.3701 15.3436C15.3904 15.3662 15.393 15.3964 15.3895 15.4261C15.388 15.4388 15.3815 15.4504 15.3814 15.464C15.3814 15.4739 15.3717 15.4792 15.3625 15.4821C15.3441 15.4879 15.325 15.4895 15.3058 15.4902C15.2115 15.494 15.1171 15.4943 15.0227 15.4949C14.8787 15.4957 14.7348 15.4983 14.5909 15.4993C14.4958 15.5 14.4007 15.4992 14.3056 15.4994C14.2383 15.4995 14.1709 15.5012 14.1036 15.5003C14.027 15.4994 13.9504 15.4995 13.8738 15.4974C13.7186 15.4974 13.5634 15.498 13.4083 15.4972C13.2993 15.4967 13.1904 15.4949 13.0815 15.493C12.9442 15.4907 12.8069 15.4882 12.6696 15.4851C12.5904 15.4833 12.5112 15.4802 12.4321 15.4776C12.4255 15.4774 12.419 15.4761 12.4124 15.4753C12.3887 15.4724 12.3877 15.4715 12.3836 15.4486C12.3828 15.4439 12.381 15.4398 12.3787 15.4358C12.3756 15.4305 12.3745 15.4246 12.3753 15.4186C12.3797 15.3813 12.3878 15.3455 12.4188 15.3199C12.4223 15.3171 12.4238 15.3143 12.423 15.3098C12.4206 15.2964 12.4242 15.2835 12.4278 15.2708C12.4549 15.1762 12.4903 15.0844 12.5269 14.9931C12.5296 14.9864 12.5331 14.98 12.5382 14.9746C12.5436 14.969 12.5458 14.9629 12.5411 14.9551C12.5368 14.9481 12.5399 14.941 12.5431 14.9343C12.5742 14.8692 12.6111 14.8075 12.6517 14.748C12.6574 14.7397 12.6659 14.7346 12.672 14.7267C12.6859 14.7088 12.6926 14.6873 12.7029 14.6678C12.7289 14.6186 12.7592 14.5722 12.7893 14.5256C12.7914 14.5223 12.7938 14.5174 12.7968 14.5168C12.8145 14.5132 12.8133 14.4989 12.817 14.486C12.8292 14.4435 12.8424 14.4013 12.8557 14.3591C12.8698 14.3144 12.8844 14.2699 12.899 14.2254C12.9004 14.2209 12.9014 14.2167 12.9012 14.2119C12.901 14.2023 12.9046 14.1919 12.9113 14.1869C12.9319 14.1714 12.9343 14.1438 12.9532 14.1277C12.9554 14.1258 12.9561 14.1217 12.9565 14.1185C12.9595 14.094 12.9716 14.0737 12.9866 14.055C12.9905 14.0501 12.9919 14.0449 12.9933 14.039C13.0025 13.9998 13.0062 13.9594 13.0199 13.9213C13.033 13.8847 13.0399 13.8464 13.054 13.8099C13.0667 13.7771 13.0787 13.7433 13.0819 13.7075C13.0832 13.6938 13.089 13.6824 13.0977 13.6719C13.1166 13.6491 13.1227 13.6231 13.1162 13.5941C13.1137 13.5828 13.1153 13.572 13.1189 13.561C13.1239 13.5454 13.1292 13.5301 13.125 13.5127C13.1216 13.4989 13.1299 13.4866 13.1399 13.4778C13.159 13.4608 13.1671 13.4377 13.1773 13.4156C13.1796 13.4106 13.1801 13.4054 13.1788 13.4001C13.1727 13.3737 13.1748 13.3461 13.1669 13.32C13.1655 13.3155 13.165 13.3104 13.1672 13.3063C13.175 13.2921 13.1687 13.2798 13.16 13.2702C13.1304 13.2374 13.1286 13.1973 13.1294 13.1569C13.1304 13.1052 13.1419 13.0549 13.1537 13.0047C13.1555 12.997 13.1564 12.9894 13.1539 12.9814C13.1478 12.9627 13.1475 12.9436 13.1527 12.9247C13.1603 12.8972 13.1567 12.8714 13.1435 12.8464C13.1349 12.83 13.1342 12.8119 13.1358 12.7941C13.1384 12.7664 13.1328 12.74 13.1242 12.7143C13.1165 12.6915 13.1121 12.6684 13.1115 12.6445C13.1111 12.6253 13.109 12.6064 13.1056 12.5874C13.1033 12.5745 13.1011 12.5612 13.1011 12.5481C13.1011 12.5431 13.1011 12.5382 13.101 12.5332H11.9023C10.8086 12.5332 9.92188 13.4199 9.92188 14.5137V16.4941C9.92188 17.5879 10.8086 18.4746 11.9023 18.4746H15.8633C16.9571 18.4746 17.8438 17.5879 17.8438 16.4941C17.8438 15.4003 16.9571 14.5137 15.8633 14.5137H17.8438C17.8438 13.4199 16.9571 12.5332 15.8633 12.5332ZM15.0056 16.9393H15.2861L15.1434 16.4581L15.0056 16.9393ZM17.8438 8.2329C17.8438 7.13912 16.9571 6.25243 15.8633 6.25243H11.9023C10.8086 6.25243 9.92188 7.13911 9.92188 8.23289H11.9023C10.8086 8.23289 9.92188 9.11959 9.92188 10.2134V12.1938H13.086C13.0845 12.1895 13.0829 12.1853 13.0811 12.181C13.0707 12.1552 13.0733 12.1278 13.0828 12.1016C13.0846 12.0965 13.0882 12.092 13.0932 12.0901C13.1046 12.0858 13.1055 12.0772 13.1033 12.0675C13.0947 12.0296 13.0868 11.9917 13.0608 11.9603C13.05 11.9473 13.043 11.9311 13.0346 11.9161C13.0184 11.8873 13.0009 11.8594 12.9787 11.8346C12.9632 11.8173 12.9533 11.7975 12.946 11.7747C12.9363 11.7444 12.9232 11.7144 12.8922 11.6972C12.8726 11.6863 12.8709 11.6797 12.8769 11.658C12.8802 11.646 12.8773 11.6352 12.8719 11.6256C12.8598 11.6045 12.8505 11.5818 12.8358 11.562C12.8259 11.5486 12.8286 11.5316 12.8314 11.516C12.8358 11.4915 12.8355 11.4686 12.822 11.4457C12.8074 11.4212 12.8001 11.3931 12.7965 11.365C12.7928 11.3366 12.782 11.3103 12.777 11.2826C12.768 11.2324 12.7463 11.1858 12.7373 11.1357C12.7351 11.1232 12.7337 11.1109 12.7367 11.0984C12.7376 11.0945 12.7381 11.091 12.7371 11.0869C12.7289 11.0549 12.7221 11.0227 12.7171 10.99C12.7161 10.9836 12.7141 10.9771 12.7114 10.9711C12.6993 10.9444 12.696 10.9152 12.6883 10.8873C12.6853 10.8764 12.6853 10.8647 12.6885 10.8539C12.6918 10.8432 12.6908 10.8334 12.6879 10.823C12.6847 10.8116 12.684 10.7996 12.6831 10.7878C12.6801 10.7511 12.6799 10.714 12.6676 10.6786C12.6639 10.6679 12.6644 10.6573 12.6665 10.6457C12.6695 10.6297 12.6685 10.6128 12.6615 10.5973C12.6575 10.5884 12.6557 10.5798 12.6606 10.5708C12.6626 10.5672 12.6631 10.5634 12.6623 10.5593C12.6565 10.5282 12.6526 10.4965 12.6377 10.4679C12.6323 10.4576 12.63 10.4467 12.6314 10.4353C12.6336 10.4159 12.6312 10.3965 12.6372 10.3766C12.642 10.3606 12.6397 10.3411 12.6289 10.3253C12.6124 10.3012 12.6023 10.2744 12.5917 10.2472C12.5746 10.2034 12.5625 10.1583 12.5473 10.114C12.5396 10.0917 12.5334 10.0686 12.523 10.0472C12.5216 10.0442 12.5201 10.041 12.5199 10.0378C12.5188 10.0149 12.5087 9.99475 12.5006 9.97401C12.5003 9.97341 12.5005 9.97262 12.5002 9.97209C12.4791 9.9354 12.4778 9.8912 12.4559 9.85494C12.4397 9.82802 12.4313 9.79821 12.4213 9.7689C12.4165 9.75508 12.414 9.74081 12.4103 9.72676C12.4049 9.70572 12.3997 9.68474 12.3891 9.66525C12.3801 9.64872 12.3776 9.62999 12.3808 9.61137C12.3826 9.60087 12.3816 9.59022 12.384 9.57989C12.3853 9.57411 12.3831 9.56954 12.3798 9.56523C12.3688 9.55082 12.369 9.53461 12.3722 9.51794C12.3728 9.5147 12.3733 9.51139 12.3745 9.50831C12.382 9.48753 12.3819 9.46642 12.3816 9.44439C12.3809 9.39034 12.3841 9.33624 12.3905 9.28249C12.3938 9.25551 12.4226 9.23664 12.4499 9.24232C12.4563 9.24367 12.4628 9.24524 12.4693 9.24552C12.4832 9.2461 12.487 9.24155 12.485 9.22771C12.4826 9.21074 12.48 9.1938 12.4776 9.17682C12.4701 9.12286 12.4739 9.06882 12.4764 9.01478C12.4769 9.00335 12.4807 8.99166 12.4655 8.98468C12.4578 8.98116 12.46 8.97054 12.4602 8.96277C12.4612 8.93234 12.4654 8.90219 12.4711 8.87236C12.5139 8.64631 12.5935 8.43419 12.713 8.23735C12.7446 8.18527 12.7803 8.13616 12.8236 8.09297C12.8268 8.08971 12.8296 8.08479 12.8336 8.08358C12.8525 8.07775 12.8587 8.05987 12.8698 8.04669C12.8754 8.04014 12.8811 8.03397 12.8876 8.02823C12.9103 8.0082 12.9298 7.98526 12.9472 7.96038C12.9539 7.95076 12.9631 7.94279 12.9717 7.93458C13.1497 7.7639 13.3622 7.65764 13.6001 7.59958C13.6618 7.58453 13.7252 7.57941 13.7883 7.57418C13.8338 7.57042 13.8793 7.56894 13.9249 7.56915C13.9971 7.56947 14.0684 7.5784 14.1395 7.58975C14.2328 7.60464 14.3251 7.62424 14.4139 7.65708C14.5681 7.71412 14.7101 7.79298 14.8356 7.89982C14.8851 7.94188 14.9296 7.98885 14.9686 8.04085C14.9831 8.06013 14.9991 8.07837 15.0103 8.09993C15.0125 8.10402 15.0172 8.10835 15.0167 8.11197C15.0139 8.13047 15.028 8.13415 15.0398 8.13797C15.0506 8.14147 15.0579 8.14801 15.0649 8.15594C15.096 8.19107 15.1223 8.23009 15.1518 8.26649C15.158 8.27407 15.1646 8.28253 15.1537 8.2922C15.1505 8.29495 15.1537 8.29845 15.156 8.30065C15.1901 8.33415 15.208 8.37832 15.2325 8.41804C15.2505 8.44716 15.2637 8.47906 15.276 8.5112C15.2883 8.54321 15.2987 8.57589 15.3129 8.60723C15.332 8.64956 15.3412 8.69499 15.351 8.74019C15.3593 8.77887 15.3686 8.81737 15.3785 8.85568C15.3851 8.88107 15.3957 8.88371 15.4147 8.86455C15.4253 8.85384 15.4358 8.84302 15.4466 8.83244C15.456 8.82321 15.4663 8.81495 15.4756 8.80568C15.484 8.79737 15.4933 8.79747 15.5028 8.80262C15.5163 8.80995 15.5261 8.82035 15.5249 8.83704C15.5243 8.84655 15.5254 8.85539 15.5299 8.86386C15.5339 8.87165 15.5349 8.88027 15.5355 8.88883C15.5362 8.90069 15.5365 8.91259 15.5369 8.92447C15.5375 8.94065 15.5372 8.95558 15.5509 8.96935C15.5669 8.98544 15.5702 9.0079 15.5656 9.03058C15.564 9.03859 15.5636 9.04616 15.5684 9.05337C15.5698 9.05551 15.5713 9.05841 15.571 9.06076C15.5683 9.08367 15.5807 9.10373 15.5829 9.12569C15.5841 9.13672 15.5862 9.14721 15.5905 9.15797C15.5981 9.177 15.5904 9.19589 15.5816 9.21301C15.5575 9.26034 15.542 9.31091 15.5286 9.36178C15.5198 9.39538 15.517 9.43076 15.5136 9.46555C15.5066 9.53939 15.4888 9.61107 15.4724 9.68308C15.4717 9.68629 15.4708 9.68957 15.4694 9.6925C15.4491 9.73335 15.4373 9.77763 15.4179 9.81881C15.4108 9.83386 15.4005 9.84689 15.3889 9.85875C15.3766 9.87133 15.3721 9.88586 15.3735 9.90359C15.3768 9.94435 15.3764 9.9853 15.3809 10.0261C15.3832 10.0462 15.3782 10.0667 15.3746 10.0869C15.3639 10.1477 15.343 10.2055 15.322 10.2629C15.3124 10.2892 15.3061 10.317 15.2914 10.3417C15.2783 10.3636 15.2677 10.3871 15.2557 10.4098C15.2532 10.4145 15.2511 10.4192 15.2505 10.4245C15.2466 10.4555 15.2364 10.4852 15.2263 10.5141C15.2127 10.5534 15.1998 10.5926 15.1915 10.6334C15.1886 10.6476 15.182 10.6609 15.1695 10.67C15.1656 10.6729 15.1633 10.6768 15.1614 10.681C15.1494 10.7082 15.1371 10.7353 15.1258 10.7627C15.1198 10.7772 15.1136 10.7918 15.1166 10.8085C15.118 10.8165 15.1147 10.8244 15.1099 10.8308C15.0923 10.8541 15.0878 10.8826 15.0788 10.9093C15.0752 10.9199 15.0726 10.9309 15.0702 10.9418C15.0672 10.9552 15.0622 10.9681 15.0645 10.9826C15.066 10.9916 15.0627 11.0012 15.0584 11.0094C15.0451 11.0349 15.0431 11.0627 15.0438 11.0904C15.0448 11.128 15.0369 11.1636 15.0247 11.1987C15.0117 11.2357 15.0047 11.2738 15.0052 11.3131C15.0053 11.3197 15.005 11.3263 15.0049 11.3329C15.0048 11.3509 14.9968 11.3643 14.9821 11.3745C14.9691 11.3836 14.9663 11.387 14.9732 11.4001C14.9909 11.4341 14.9775 11.4638 14.9642 11.4943C14.9571 11.5106 14.9504 11.527 14.9502 11.5454C14.95 11.5609 14.9426 11.5752 14.9362 11.5882C14.9155 11.6305 14.911 11.6769 14.899 11.7213C14.8981 11.7245 14.8979 11.7279 14.8966 11.7308C14.8792 11.7698 14.8742 11.8121 14.8646 11.8531C14.8606 11.8701 14.8543 11.8857 14.8449 11.9002C14.8314 11.9209 14.8238 11.944 14.8165 11.9674C14.8062 12.0001 14.7929 12.0318 14.7829 12.0646C14.7693 12.109 14.7478 12.15 14.7307 12.1929C14.7308 12.1926 14.7306 12.1932 14.7307 12.1929L17.8438 12.1938V10.2134H15.8633C16.9571 10.2134 17.8438 9.32668 17.8438 8.2329Z" fill="#006064"/>
<path d="M12.7153 8.23928C12.7469 8.18719 12.7826 8.13808 12.8259 8.0949C12.8291 8.09164 12.8319 8.08671 12.8359 8.0855C12.8548 8.07967 12.861 8.06181 12.8721 8.04863C12.8777 8.04207 12.8834 8.03589 12.8899 8.03016C12.9126 8.01013 12.9321 7.98719 12.9495 7.96231C12.9533 7.95678 12.958 7.95181 12.9629 7.94701V6.6654V6.25436H12.3989V6.6654H12.2109V8.42382H12.6169C12.6461 8.36091 12.6788 8.29938 12.7153 8.23928Z" fill="#006064"/>
<path d="M17.4688 11.043H17.84V10.215H17.4688V11.043Z" fill="#006064"/>
<path d="M14.6484 6.25389V6.66493H15.2124V8.39196C15.2176 8.40125 15.2228 8.41049 15.2284 8.4195C15.2463 8.44862 15.2595 8.48053 15.2719 8.51266C15.2841 8.54468 15.2945 8.57735 15.3087 8.6087C15.3279 8.65101 15.337 8.69645 15.3468 8.74165C15.3552 8.78033 15.3645 8.81883 15.3744 8.85715C15.3809 8.88253 15.3915 8.88518 15.4105 8.86601C15.4211 8.85531 15.4316 8.84448 15.4424 8.83391C15.4519 8.82467 15.4621 8.81642 15.4714 8.80714C15.4798 8.79883 15.4892 8.79894 15.4987 8.80408C15.5122 8.81141 15.5219 8.82181 15.5208 8.83851C15.5201 8.84802 15.5213 8.85686 15.5257 8.86533C15.5298 8.87311 15.5307 8.88173 15.5313 8.8903C15.5321 8.90216 15.5324 8.91406 15.5328 8.92594C15.5333 8.94212 15.533 8.95705 15.5467 8.97081C15.5627 8.9869 15.566 9.00936 15.5615 9.03205C15.5599 9.04005 15.5595 9.04763 15.5643 9.05484C15.5657 9.05697 15.5672 9.05988 15.5669 9.06222C15.5641 9.08514 15.5766 9.1052 15.5788 9.12715C15.5799 9.13819 15.582 9.14868 15.5863 9.15943C15.5939 9.17847 15.5862 9.19735 15.5775 9.21448C15.5533 9.2618 15.5379 9.31236 15.5245 9.36325C15.5157 9.39684 15.5128 9.43221 15.5095 9.46701C15.5024 9.54085 15.4846 9.61254 15.4683 9.68454C15.4675 9.68775 15.4667 9.69104 15.4652 9.69395C15.445 9.73482 15.4331 9.7791 15.4137 9.82027C15.4066 9.83532 15.3964 9.84836 15.3848 9.86022C15.3725 9.8728 15.368 9.88733 15.3694 9.90506C15.3727 9.94582 15.3722 9.98676 15.3768 10.0275C15.379 10.0477 15.3741 10.0682 15.3705 10.0884C15.3597 10.1491 15.3389 10.207 15.3178 10.2644C15.3082 10.2906 15.3019 10.3185 15.2872 10.3431C15.2741 10.3651 15.2635 10.3886 15.2516 10.4112C15.249 10.416 15.247 10.4207 15.2463 10.426C15.2425 10.457 15.2322 10.4867 15.2222 10.5156C15.2189 10.5252 15.2156 10.5347 15.2124 10.5443V11.061H15.6823V12.1953H17.2293V11.0347H16.3404V10.2148H15.8591C16.0251 10.2148 16.1863 10.1944 16.3404 10.156V8.42336H15.9644V6.66493H16.3404V6.31278C16.1863 6.27431 16.0251 6.25389 15.8591 6.25389H15.7764V6.66493H15.2124V6.25389H14.6484Z" fill="#006064"/>
<path d="M10.6797 6.66495H10.6901V8.23438H11.4421V6.66495H11.8181V6.25511C11.6215 6.26191 11.4321 6.29738 11.2541 6.35746V6.66495H10.6901V6.65696C10.6866 6.65961 10.6832 6.66228 10.6797 6.66495Z" fill="#006064"/>
<path d="M12.5269 14.9958C12.5296 14.9891 12.5331 14.9827 12.5382 14.9773C12.5436 14.9717 12.5458 14.9656 12.5411 14.9578C12.5368 14.9508 12.5399 14.9437 12.5431 14.937C12.5742 14.8719 12.6111 14.8102 12.6517 14.7507C12.6574 14.7424 12.6659 14.7373 12.672 14.7294C12.6859 14.7115 12.6926 14.6901 12.7029 14.6705C12.7289 14.6213 12.7592 14.5749 12.7893 14.5283C12.7914 14.525 12.7938 14.5201 12.7968 14.5195C12.8145 14.5159 12.8133 14.5016 12.817 14.4887C12.8292 14.4462 12.8424 14.404 12.8557 14.3618C12.8698 14.3172 12.8844 14.2726 12.899 14.2281C12.9004 14.2236 12.9014 14.2194 12.9012 14.2146C12.901 14.205 12.9046 14.1946 12.9113 14.1896C12.9319 14.1741 12.9343 14.1465 12.9532 14.1304C12.9554 14.1285 12.9561 14.1244 12.9565 14.1212C12.9577 14.1114 12.9604 14.1023 12.9641 14.0937V12.5359H11.9023C11.682 12.5359 11.4701 12.5719 11.2721 12.6383V15.014H10.3376V13.3022C10.077 13.6375 9.92188 14.0588 9.92188 14.5164V16.4968C9.92188 17.3704 10.4874 18.1118 11.2723 18.375V15.0187H12.5178C12.5208 15.0111 12.5239 15.0034 12.5269 14.9958Z" fill="#006064"/>
<path d="M15.8643 14.5132H17.2345V13.0832C16.8788 12.7422 16.396 12.5327 15.8643 12.5327H15.6875V15.0155H16.3426V18.416C17.2053 18.2021 17.8448 17.4226 17.8448 16.4937C17.8448 15.3999 16.9581 14.5132 15.8643 14.5132Z" fill="#006064"/>
<path d="M17.8155 8.42291H17.4531V9.38867C17.6522 9.11168 17.7816 8.78119 17.8155 8.42291Z" fill="#006064"/>
<path d="M11.8155 8.42335H11.4395V8.2847C11.162 8.34851 10.9068 8.47061 10.6875 8.63741V11.061H11.255V12.1953H12.9469V11.8165C12.9393 11.8042 12.9335 11.7908 12.9288 11.7762C12.9191 11.7459 12.9061 11.7159 12.8751 11.6987C12.8554 11.6877 12.8537 11.6812 12.8597 11.6594C12.863 11.6475 12.8602 11.6366 12.8547 11.6271C12.8426 11.6059 12.8333 11.5833 12.8186 11.5634C12.8087 11.55 12.8114 11.5331 12.8142 11.5175C12.8186 11.4929 12.8184 11.47 12.8048 11.4472C12.7902 11.4227 12.783 11.3945 12.7793 11.3664C12.7757 11.3381 12.7648 11.3117 12.7599 11.2841C12.7509 11.2339 12.7292 11.1873 12.7202 11.1372C12.7179 11.1247 12.7165 11.1123 12.7195 11.0999C12.7205 11.096 12.721 11.0924 12.7199 11.0883C12.7176 11.0792 12.7154 11.0701 12.7133 11.061H11.8155V8.42335Z" fill="#006064"/>
<path d="M9.95342 8.23438V7.88464C9.93269 7.99817 9.92188 8.11504 9.92188 8.23438H9.95342Z" fill="#006064"/>
<path d="M10.3377 11.0646H9.92188V12.1953H10.3377V11.0646Z" fill="#006064"/>
<path d="M13.5156 6.25317V6.66426H13.7036V7.58196C13.7288 7.57925 13.7541 7.57718 13.7794 7.57509C13.8248 7.57132 13.8703 7.56985 13.9159 7.57005C13.9881 7.57037 14.0595 7.57929 14.1306 7.59065C14.2239 7.60555 14.3162 7.62515 14.405 7.658C14.4221 7.6643 14.439 7.67088 14.4557 7.67772V6.66426H14.0797V6.25317H13.5156Z" fill="#006064"/>
<path d="M16.8833 6.6654H16.6953V8.42383H17.4473V7.08018C17.2959 6.86953 17.1041 6.6898 16.8833 6.55234V6.6654Z" fill="#006064"/>
</g>
<path d="M11.2401 19.3133L11.0059 19.9654L10.8253 20.0189L10.6762 19.5968L10.5586 19.9654L10.377 20.0189L10.0987 19.2933L9.99475 19.2419L10.0283 19.1736H10.3685V19.2325L10.2951 19.2871L10.504 19.8425L10.6268 19.4592L10.568 19.2933L10.4725 19.243L10.5061 19.1747H10.8736V19.2335L10.7686 19.2986L10.9544 19.8436L11.1382 19.3207L10.9723 19.243L11.007 19.1747H11.345L11.3461 19.2325L11.2401 19.3133ZM11.8871 19.1537C11.9676 19.1537 12.0387 19.1715 12.1003 19.2072C12.1619 19.2429 12.2095 19.2923 12.2431 19.3553C12.2767 19.4183 12.2935 19.4897 12.2935 19.5695C12.2935 19.6514 12.2679 19.727 12.2168 19.7963C12.1657 19.8656 12.1024 19.9205 12.0268 19.9612C11.9519 20.0011 11.8805 20.021 11.8126 20.021C11.7321 20.021 11.661 20.0035 11.5994 19.9685C11.5385 19.9328 11.4909 19.8835 11.4566 19.8205C11.423 19.7575 11.4062 19.686 11.4062 19.6062C11.4062 19.5244 11.4314 19.4488 11.4818 19.3795C11.5329 19.3094 11.5963 19.2545 11.6719 19.2146C11.7475 19.174 11.8192 19.1537 11.8871 19.1537ZM11.8262 19.2744C11.787 19.2744 11.751 19.2867 11.7181 19.3112C11.6859 19.3357 11.6603 19.3693 11.6414 19.412C11.6225 19.4547 11.6131 19.5027 11.6131 19.5559C11.6131 19.6189 11.6225 19.6766 11.6414 19.7291C11.661 19.7809 11.6901 19.8225 11.7286 19.854C11.7678 19.8848 11.8161 19.9002 11.8735 19.9002C11.912 19.9002 11.9473 19.888 11.9795 19.8635C12.0124 19.839 12.0383 19.8054 12.0572 19.7627C12.0761 19.72 12.0856 19.6721 12.0856 19.6189C12.0856 19.5552 12.0761 19.4974 12.0572 19.4456C12.0383 19.3938 12.0093 19.3525 11.9701 19.3217C11.9316 19.2902 11.8836 19.2744 11.8262 19.2744ZM13.2164 20H12.9885L12.7859 19.6367L12.7397 19.6083L12.7659 19.5569H12.8142C12.852 19.5569 12.8818 19.5454 12.9035 19.5223C12.9252 19.4991 12.936 19.4666 12.936 19.4246C12.936 19.3756 12.9227 19.3357 12.8961 19.3049C12.8702 19.2734 12.8321 19.2577 12.7817 19.2577C12.7502 19.2577 12.7208 19.2675 12.6935 19.2871V19.8992L12.81 19.9328L12.7764 20.0011H12.4047V19.9422L12.5034 19.8593V19.2766L12.3869 19.244L12.4215 19.1758H12.5958C12.6567 19.1758 12.7166 19.1737 12.7754 19.1695C12.8174 19.1667 12.8489 19.1653 12.8699 19.1653C12.9238 19.1653 12.9714 19.1751 13.0127 19.1947C13.0547 19.2136 13.0869 19.2395 13.1093 19.2724C13.1324 19.3053 13.1439 19.342 13.1439 19.3826C13.1439 19.4316 13.1222 19.4771 13.0788 19.5191C13.0354 19.5611 12.9826 19.5926 12.9203 19.6136L13.0043 19.6377L13.1408 19.8813L13.25 19.9317L13.2164 20ZM13.9626 20H13.2927V19.9412L13.3914 19.8635V19.2734L13.2748 19.243L13.3095 19.1747H13.6812V19.2335L13.5814 19.3112V19.9202H13.8177L13.9804 19.685L14.0382 19.7092V20.0189L13.9626 20ZM14.5862 19.1642C14.6646 19.1642 14.7339 19.1817 14.7941 19.2167C14.855 19.251 14.9019 19.299 14.9348 19.3606C14.9684 19.4221 14.9852 19.4918 14.9852 19.5695C14.9852 19.6493 14.96 19.7232 14.9096 19.791C14.8599 19.8582 14.7979 19.9118 14.7237 19.9517C14.6495 19.9909 14.5788 20.0105 14.5116 20.0105C14.4794 20.0105 14.4476 20.0088 14.4161 20.0053C14.3636 20.0018 14.3233 20 14.2953 20H14.1294V19.9412L14.2281 19.8635V19.2786L14.1116 19.243L14.1462 19.1747H14.2943C14.3587 19.1747 14.4217 19.1726 14.4833 19.1684C14.5309 19.1656 14.5652 19.1642 14.5862 19.1642ZM14.5421 19.9128C14.5862 19.9128 14.6261 19.9003 14.6618 19.8751C14.6982 19.8499 14.7265 19.8149 14.7468 19.77C14.7678 19.7252 14.7783 19.6748 14.7783 19.6189C14.7783 19.5517 14.7682 19.4911 14.7479 19.4372C14.7283 19.3826 14.6978 19.3392 14.6565 19.307C14.6159 19.2741 14.5655 19.2577 14.5053 19.2577C14.4738 19.2577 14.4448 19.2661 14.4182 19.2829V19.8929C14.4539 19.9062 14.4948 19.9128 14.541 19.9128H14.5421ZM15.5836 19.1537C15.6242 19.1537 15.6714 19.1589 15.7253 19.1695C15.7799 19.18 15.8198 19.1911 15.845 19.203V19.4267H15.7453C15.6914 19.3252 15.6172 19.2744 15.5227 19.2744C15.4842 19.2744 15.4488 19.2867 15.4166 19.3112C15.3844 19.3357 15.3589 19.3693 15.34 19.412C15.3218 19.4547 15.3127 19.5027 15.3127 19.5559C15.3127 19.6161 15.3218 19.6714 15.34 19.7217C15.3589 19.7715 15.3872 19.8114 15.425 19.8414C15.4628 19.8708 15.5097 19.8856 15.5657 19.8856C15.6294 19.8856 15.7201 19.8506 15.8377 19.7806L15.8797 19.8477L15.6865 19.9979C15.6557 20.007 15.6259 20.013 15.5972 20.0157C15.5692 20.0193 15.5391 20.021 15.5069 20.021C15.4285 20.021 15.3589 20.0032 15.298 19.9675C15.2371 19.9318 15.1898 19.8828 15.1562 19.8205C15.1226 19.7575 15.1058 19.686 15.1058 19.6062C15.1058 19.5244 15.131 19.4488 15.1814 19.3795C15.2318 19.3094 15.2945 19.2545 15.3694 19.2146C15.4443 19.174 15.5157 19.1537 15.5836 19.1537ZM16.749 19.3112V19.6745C16.749 19.748 16.7304 19.811 16.6933 19.8635C16.6569 19.916 16.6114 19.9555 16.5568 19.9821C16.5029 20.0081 16.4504 20.021 16.3993 20.021C16.3321 20.021 16.2716 20.0074 16.2177 19.98C16.1645 19.952 16.1228 19.9139 16.0927 19.8656C16.0633 19.8166 16.0486 19.7616 16.0486 19.7007V19.2734L15.9331 19.243L15.9667 19.1747H16.3384V19.2335L16.2387 19.3112V19.663C16.2387 19.7378 16.2579 19.7963 16.2964 19.8383C16.3349 19.8796 16.393 19.9002 16.4707 19.9002C16.5001 19.9002 16.5292 19.8915 16.5579 19.874C16.5866 19.8558 16.6104 19.8295 16.6293 19.7953C16.6482 19.7609 16.6576 19.7203 16.6576 19.6734V19.2902L16.5358 19.243L16.5694 19.1747H16.8487V19.2335L16.749 19.3112ZM17.3395 19.5894C17.3766 19.5894 17.406 19.5765 17.4277 19.5506C17.4494 19.5247 17.4603 19.489 17.4603 19.4435C17.4603 19.3882 17.447 19.3434 17.4204 19.3091C17.3938 19.2741 17.3546 19.2566 17.3028 19.2566C17.2685 19.2566 17.2363 19.2671 17.2062 19.2881V19.8918L17.3889 19.9317L17.3542 20H16.9174V19.9412L17.0161 19.8635V19.2786L16.8996 19.243L16.9342 19.1747H17.1085C17.1708 19.1747 17.2321 19.1726 17.2923 19.1684C17.3371 19.1656 17.37 19.1642 17.391 19.1642C17.4456 19.1642 17.4939 19.175 17.5359 19.1967C17.5779 19.2178 17.6104 19.2468 17.6335 19.2839C17.6566 19.321 17.6682 19.3623 17.6682 19.4078C17.6682 19.4582 17.6489 19.5055 17.6104 19.5495C17.5719 19.5936 17.5233 19.6283 17.4645 19.6535C17.4057 19.6787 17.3483 19.6899 17.2923 19.6871L17.2461 19.6587L17.2807 19.5905H17.3395V19.5894Z" fill="#006064"/>
<path d="M15.3 21.0901C15.3 21.1395 15.2884 21.184 15.2653 21.2237C15.2422 21.2626 15.2093 21.2933 15.1665 21.316C15.1245 21.3387 15.0736 21.35 15.0137 21.35C14.9187 21.35 14.8447 21.3196 14.7916 21.2589C14.7385 21.1982 14.712 21.1148 14.712 21.0088V20.8376C14.712 20.7242 14.7403 20.6396 14.7967 20.5838C14.8532 20.5279 14.9328 20.5 15.0355 20.5C15.0715 20.5 15.1087 20.504 15.1472 20.5121C15.1866 20.5202 15.2298 20.5348 15.2769 20.5559L15.2217 20.6809C15.1832 20.6639 15.1494 20.6522 15.1203 20.6457C15.0912 20.6384 15.0642 20.6348 15.0394 20.6348C14.9855 20.6348 14.9418 20.6502 14.9084 20.6809C14.8759 20.7109 14.8597 20.7631 14.8597 20.8376V20.8813C14.8896 20.8562 14.9204 20.8376 14.9521 20.8254C14.9846 20.8133 15.0167 20.8072 15.0484 20.8072C15.0997 20.8072 15.1442 20.8181 15.1819 20.84C15.2195 20.8619 15.2486 20.8922 15.2692 20.9311C15.2897 20.9699 15.3 21.0149 15.3 21.0659V21.0901ZM14.8597 21.0088C14.8597 21.0784 14.8733 21.1302 14.9007 21.1642C14.9281 21.1982 14.9666 21.2152 15.0163 21.2152C15.0591 21.2152 15.092 21.2039 15.1151 21.1812C15.1382 21.1577 15.1498 21.1274 15.1498 21.0901V21.0659C15.1498 21.0278 15.1391 20.997 15.1177 20.9736C15.0963 20.9501 15.0655 20.9384 15.0253 20.9384C14.9645 20.9384 14.9093 20.9602 14.8597 21.0039V21.0088Z" fill="#006064"/>
<path d="M14.5607 21.3379H14.0317V21.2225C14.0317 21.1642 14.0399 21.1156 14.0561 21.0768C14.0724 21.0371 14.0942 21.0047 14.1216 20.9796C14.149 20.9537 14.179 20.9331 14.2115 20.9177L14.2988 20.8764C14.3322 20.8602 14.3591 20.8432 14.3797 20.8254C14.4011 20.8068 14.4118 20.7829 14.4118 20.7538V20.7319C14.4118 20.702 14.4006 20.6785 14.3784 20.6615C14.357 20.6437 14.3223 20.6348 14.2744 20.6348C14.2453 20.6348 14.2158 20.6388 14.1858 20.6469C14.1567 20.655 14.1212 20.6664 14.0793 20.6809L14.0317 20.5559C14.0797 20.5356 14.1233 20.5215 14.1627 20.5134C14.2029 20.5045 14.2419 20.5 14.2795 20.5C14.3489 20.5 14.4041 20.5105 14.4451 20.5316C14.4871 20.5526 14.517 20.581 14.535 20.6166C14.5538 20.6514 14.5632 20.6898 14.5632 20.7319V20.7538C14.5632 20.7975 14.5538 20.8347 14.535 20.8655C14.517 20.8963 14.4931 20.9222 14.4631 20.9432C14.4332 20.9643 14.4006 20.9829 14.3655 20.9991L14.2782 21.0404C14.2466 21.0549 14.223 21.0752 14.2076 21.1011C14.1931 21.127 14.185 21.1602 14.1832 21.2006H14.5607V21.3379Z" fill="#006064"/>
<path d="M13.8965 20.8376V21.0112C13.8965 21.1165 13.8704 21.1994 13.8182 21.2601C13.766 21.32 13.6894 21.35 13.5884 21.35C13.4874 21.35 13.4108 21.32 13.3586 21.2601C13.3064 21.1994 13.2803 21.1165 13.2803 21.0112V20.8376C13.2803 20.7323 13.3064 20.6498 13.3586 20.5899C13.4108 20.53 13.4874 20.5 13.5884 20.5C13.6894 20.5 13.766 20.53 13.8182 20.5899C13.8704 20.6498 13.8965 20.7323 13.8965 20.8376ZM13.7411 20.8376C13.7411 20.7024 13.6902 20.6348 13.5884 20.6348C13.5362 20.6348 13.4977 20.6518 13.4728 20.6858C13.448 20.7198 13.4356 20.7704 13.4356 20.8376V21.0112C13.4356 21.0784 13.448 21.1294 13.4728 21.1642C13.4977 21.1982 13.5362 21.2152 13.5884 21.2152C13.6902 21.2152 13.7411 21.1472 13.7411 21.0112V20.8376Z" fill="#006064"/>
<path d="M13.1289 21.3379H12.6V21.2225C12.6 21.1642 12.6081 21.1156 12.6244 21.0768C12.6407 21.0371 12.6625 21.0047 12.6899 20.9796C12.7173 20.9537 12.7472 20.9331 12.7797 20.9177L12.867 20.8764C12.9004 20.8602 12.9274 20.8432 12.9479 20.8254C12.9693 20.8068 12.98 20.7829 12.98 20.7538V20.7319C12.98 20.702 12.9689 20.6785 12.9466 20.6615C12.9252 20.6437 12.8906 20.6348 12.8426 20.6348C12.8135 20.6348 12.784 20.6388 12.7541 20.6469C12.725 20.655 12.6894 20.6664 12.6475 20.6809L12.6 20.5559C12.6479 20.5356 12.6916 20.5215 12.7309 20.5134C12.7712 20.5045 12.8101 20.5 12.8478 20.5C12.9171 20.5 12.9723 20.5105 13.0134 20.5316C13.0553 20.5526 13.0853 20.581 13.1033 20.6166C13.1221 20.6514 13.1315 20.6898 13.1315 20.7319V20.7538C13.1315 20.7975 13.1221 20.8347 13.1033 20.8655C13.0853 20.8963 13.0613 20.9222 13.0314 20.9432C13.0014 20.9643 12.9689 20.9829 12.9338 20.9991L12.8465 21.0404C12.8148 21.0549 12.7913 21.0752 12.7759 21.1011C12.7613 21.127 12.7532 21.1602 12.7515 21.2006H13.1289V21.3379Z" fill="#006064"/>
</g>
<defs>
<clipPath id="clip0_0_1">
<rect width="28" height="28" fill="white"/>
</clipPath>
</defs>
</svg>
