<svg width="383" height="205" viewBox="0 0 383 205" fill="none" xmlns="http://www.w3.org/2000/svg">
<path d="M267.785 0.782227H155.688V75.5112C155.688 96.1494 172.418 112.879 193.056 112.879H267.785V75.5112H230.417C251.055 75.5112 267.785 58.7816 267.785 38.15H230.417C251.055 38.15 267.785 21.4204 267.785 0.782227ZM112.097 38.15C112.097 17.5118 95.3672 0.782227 74.729 0.782227C54.0908 0.782227 37.3612 17.5118 37.3612 38.15V0.782227H0V75.5112C0 96.1494 16.7296 112.879 37.3612 112.879C57.9994 112.879 74.729 96.1494 74.729 75.5112C74.729 96.1494 91.4586 112.879 112.097 112.879C132.728 112.879 149.458 96.1494 149.458 75.5112V0.782227C128.826 0.782227 112.097 17.5118 112.097 38.15ZM57.383 118.007H28.6915C12.8472 118.007 0 130.855 0 146.699H28.6915C12.8472 146.699 0 159.546 0 175.39C0 191.235 12.8472 204.082 28.6915 204.082H57.383V175.39C57.383 191.235 70.2236 204.082 86.0744 204.082V146.699C86.0744 130.855 73.2272 118.007 57.383 118.007ZM148.238 118.007H90.8553V204.082H119.547V175.39C119.547 191.235 132.394 204.082 148.238 204.082H176.93V175.39H148.238C164.082 175.39 176.93 162.543 176.93 146.699C176.93 130.855 164.082 118.007 148.238 118.007ZM239.093 146.699H267.785C267.785 162.543 254.938 175.39 239.093 175.39H267.785V204.082H210.402C194.558 204.082 181.711 191.235 181.711 175.39V118.007H267.785C267.785 133.852 254.938 146.699 239.093 146.699Z" fill="white"/>
<path d="M316.773 199.938L314.887 190.536H310.992L309.113 199.891L307.454 190.536H303.017L305.489 202.211C305.599 202.731 305.818 203.128 306.144 203.401C306.466 203.675 306.884 203.811 307.398 203.811H311.477L312.891 195.598L314.005 202.211C314.105 202.718 314.314 203.112 314.632 203.392C314.951 203.672 315.362 203.811 315.861 203.811H319.958L322.788 190.536H318.425L316.773 199.938ZM292.156 191.005C291.858 191.317 291.706 191.753 291.706 192.313V203.811H302.493V200.492H296.165V198.697H301.799V195.67H296.165V193.855H302.493V190.536H293.409C292.875 190.536 292.457 190.692 292.156 191.005ZM337.764 190.926C337.516 191.187 337.392 191.545 337.392 192V203.811H344.712V200.668H341.078V198.677H344.131V195.749H341.078V193.679H344.712V190.536H338.794C338.359 190.536 338.015 190.667 337.764 190.926ZM350.909 193.933C350.909 193.751 350.849 193.608 350.732 193.503C350.612 193.4 350.445 193.347 350.236 193.347H349.372V196.276H350.236C350.445 196.276 350.612 196.221 350.732 196.11C350.849 196 350.909 195.846 350.909 195.651V193.933ZM354.68 198.228C354.85 198.592 354.935 199.055 354.935 199.614L354.914 203.811H351.996C351.72 203.811 351.508 203.733 351.359 203.577C351.206 203.421 351.132 203.206 351.132 202.933V199.79C351.132 199.634 351.104 199.5 351.051 199.39C350.994 199.279 350.912 199.198 350.806 199.145C350.7 199.094 350.573 199.068 350.42 199.068H349.372V203.811H345.647V190.536H350.629C351.614 190.536 352.41 190.644 353.016 190.858C353.622 191.073 354.061 191.418 354.333 191.893C354.61 192.368 354.748 193.022 354.748 193.855V194.46C354.748 195.423 354.496 196.103 353.997 196.5C353.498 196.897 352.85 197.096 352.049 197.096H352.538C353.087 197.096 353.54 197.193 353.894 197.389C354.252 197.584 354.514 197.864 354.68 198.228ZM332.749 200.415C332.749 200.597 332.718 200.746 332.654 200.864C332.59 200.981 332.505 201.072 332.392 201.137C332.278 201.202 332.137 201.234 331.96 201.234C331.722 201.234 331.538 201.163 331.4 201.02C331.262 200.876 331.195 200.675 331.195 200.415V197.798H327.469V199.887C327.48 201.345 327.852 202.403 328.581 203.06C329.311 203.717 330.437 204.046 331.96 204.046C333.507 204.046 334.648 203.711 335.377 203.04C336.11 202.37 336.475 201.293 336.475 199.809V190.536H332.749V200.415ZM378.393 197.955H378.375L377.327 190.536H373.694L375.192 198.736C375.28 199.178 375.464 199.523 375.744 199.77C375.952 199.954 376.206 200.07 376.502 200.117V203.811H380.209V200.141H381.24L383 190.536H379.423L378.393 197.955ZM286.054 198.287L282.871 190.536H278.469C278.019 190.536 277.669 190.667 277.414 190.926C277.155 191.187 277.027 191.558 277.027 192.039V203.811H281.39V195.472L284.666 203.811H290.339V190.536H286.054V198.287ZM366.129 190.926C365.882 191.187 365.757 191.545 365.757 192V203.811H373.077V200.668H369.444V198.677H372.497V195.749H369.444V193.679H373.077V190.536H367.16C366.724 190.536 366.381 190.667 366.129 190.926ZM363.725 196.373C363.307 196.113 362.698 195.892 361.898 195.71L360.609 195.436H360.587C360.29 195.384 360.067 195.326 359.925 195.261C359.78 195.196 359.681 195.111 359.624 195.007C359.567 194.903 359.539 194.727 359.539 194.48V193.679C359.539 193.536 359.564 193.419 359.613 193.328C359.663 193.237 359.745 193.165 359.858 193.113C359.971 193.061 360.113 193.035 360.29 193.035C360.527 193.035 360.711 193.094 360.842 193.211C360.973 193.328 361.037 193.491 361.037 193.699V194.87H364.688V194.246C364.688 192.879 364.327 191.88 363.601 191.249C362.878 190.618 361.756 190.302 360.233 190.302C358.735 190.302 357.623 190.621 356.901 191.258C356.175 191.897 355.814 192.872 355.814 194.187V195.007C355.814 195.645 355.899 196.165 356.065 196.568C356.235 196.972 356.518 197.298 356.919 197.545C357.319 197.792 357.868 197.987 358.565 198.13L360.084 198.443C360.382 198.508 360.605 198.579 360.747 198.657C360.892 198.736 360.988 198.843 361.037 198.98C361.087 199.116 361.111 199.308 361.111 199.555V200.649C361.111 200.792 361.087 200.912 361.037 201.01C360.988 201.108 360.902 201.183 360.786 201.234C360.665 201.287 360.513 201.312 360.325 201.312C360.138 201.312 359.985 201.283 359.868 201.225C359.748 201.166 359.66 201.081 359.596 200.971C359.532 200.861 359.504 200.727 359.504 200.571V198.931H355.757V200.004C355.771 200.955 355.948 201.729 356.292 202.328C356.635 202.926 357.138 203.365 357.797 203.645C358.459 203.925 359.302 204.065 360.325 204.065C361.349 204.065 362.195 203.925 362.864 203.645C363.53 203.365 364.029 202.933 364.362 202.347C364.692 201.762 364.858 201.007 364.858 200.083V198.989C364.858 198.313 364.773 197.773 364.603 197.369C364.437 196.966 364.143 196.634 363.725 196.373ZM359.9 178.805H362.381C362.701 178.805 362.948 178.74 363.117 178.61C363.283 178.48 363.367 178.285 363.367 178.024V176.775C363.367 176.527 363.283 176.342 363.117 176.218C362.948 176.094 362.701 176.032 362.381 176.032H359.9V178.805ZM359.9 186.108H355.338V172.83H363.402C364.509 172.83 365.4 172.947 366.077 173.182C366.753 173.416 367.25 173.787 367.567 174.294C367.884 174.802 368.042 175.473 368.042 176.306V176.735C368.042 177.751 367.764 178.496 367.204 178.971C366.644 179.447 365.893 179.684 364.949 179.684H365.527C366.21 179.684 366.756 179.782 367.165 179.977C367.577 180.172 367.877 180.462 368.071 180.846C368.261 181.23 368.359 181.734 368.359 182.359L368.342 186.108H364.597C364.311 186.108 364.086 186.024 363.924 185.855C363.765 185.685 363.684 185.451 363.684 185.152V182.769C363.684 182.548 363.652 182.369 363.589 182.232C363.529 182.096 363.427 181.998 363.293 181.939C363.156 181.881 362.976 181.851 362.751 181.851H359.9V186.108ZM336.207 172.83L333.89 180.257L331.553 172.83H327.004L329.819 180.992C329.992 181.474 330.263 181.851 330.63 182.125C330.928 182.348 331.268 182.475 331.644 182.516V186.108H336.207V182.535H337.362L340.734 172.83H336.207ZM314.898 172.83H311.005L309.118 182.188L307.447 172.83H303.032L305.509 184.507C305.622 185.028 305.84 185.425 306.172 185.698C306.499 185.972 306.918 186.108 307.429 186.108H311.509L312.904 177.962L314.021 184.507C314.12 185.015 314.331 185.409 314.655 185.689C314.979 185.969 315.381 186.108 315.867 186.108H319.965L322.776 172.83H318.436L316.792 182.218L314.898 172.83ZM281.368 177.729L284.666 186.108H290.328V172.83H286.061V180.541L282.876 172.83H278.483C278.021 172.83 277.665 172.96 277.412 173.22C277.154 173.481 277.027 173.852 277.027 174.334V186.108H281.368V177.729ZM369.533 172.83V186.108H374.095V179.65L377.354 186.108H382.459V185.991L378.531 178.734L382.16 172.83H377.263L374.095 178.025V172.83H369.533ZM349.602 177.673C349.602 177.256 349.528 176.898 349.376 176.599C349.228 176.3 348.982 176.075 348.64 175.925C348.298 175.775 347.862 175.7 347.33 175.7C346.783 175.7 346.339 175.775 346.005 175.925C345.67 176.075 345.427 176.3 345.268 176.599C345.113 176.898 345.036 177.256 345.036 177.673V181.266C345.036 181.683 345.113 182.04 345.268 182.34C345.427 182.639 345.67 182.864 346.005 183.013C346.339 183.163 346.783 183.238 347.33 183.238C347.862 183.238 348.298 183.163 348.64 183.013C348.982 182.864 349.228 182.639 349.376 182.34C349.528 182.04 349.602 181.683 349.602 181.266V177.673ZM352.498 173.787C353.657 174.633 354.238 176.02 354.238 177.946V180.992C354.238 182.919 353.657 184.306 352.498 185.152C351.335 185.998 349.612 186.421 347.33 186.421C345.043 186.421 343.317 185.998 342.15 185.152C340.984 184.306 340.399 182.919 340.399 180.992V177.946C340.399 176.02 340.984 174.633 342.15 173.787C343.317 172.941 345.043 172.518 347.33 172.518C349.612 172.518 351.335 172.941 352.498 173.787ZM293.421 172.83H302.528V176.15H296.159V177.966H301.82V181.012H296.159V182.789H302.528V186.108H291.705V174.626C291.705 174.054 291.857 173.611 292.153 173.299C292.452 172.986 292.875 172.83 293.421 172.83ZM374.443 161.759H373.533L374.443 162.177V162.397L373.533 162.814H374.443V163.036H373.452C373.422 163.036 373.397 163.028 373.38 163.01C373.362 162.992 373.353 162.969 373.353 162.939V162.687L374.216 162.285L373.353 161.885V161.632C373.353 161.601 373.362 161.577 373.38 161.561C373.397 161.544 373.422 161.536 373.452 161.536H374.443V161.759ZM373.533 163.599H374.443V163.828H373.533V164.281H373.353V163.145H373.533V163.599ZM350.199 148.788L349.575 146.712H344.18L343.584 148.788H338.883L344.471 133.335H349.435L355.021 148.788H350.199ZM334.347 143.206V148.788H329.573V133.335H341.351L340.133 136.702H334.347V139.83H339.006L337.783 143.206H334.347ZM326.288 148.788H321.514L321.513 133.335H326.288V148.788ZM318.835 136.702H313.049V139.83H317.707L316.485 143.206H313.049V148.788H308.274V133.335H320.053L318.835 136.702ZM356.507 84.8012H340.192C340.105 84.9953 340.001 85.183 339.872 85.3617C339.744 85.5399 339.656 85.7461 339.54 85.9339C339.458 86.0667 339.449 86.1903 339.516 86.3326C339.654 86.6241 339.671 86.9277 339.577 87.2367C339.543 87.3481 339.498 87.4555 339.396 87.5214C339.308 87.5785 339.256 87.6632 339.232 87.7551C339.17 88.0027 339.081 88.2541 339.08 88.5042C339.079 88.7442 339.028 88.9558 338.94 89.1686C338.875 89.3235 338.814 89.473 338.868 89.6531C338.897 89.7489 338.883 89.8669 338.859 89.9675C338.793 90.2359 338.776 90.5069 338.783 90.7807C338.786 90.9361 338.754 91.0774 338.648 91.1985C338.57 91.2884 338.535 91.3953 338.544 91.5168C338.548 91.5688 338.553 91.6271 338.534 91.6735C338.456 91.8679 338.473 92.0267 338.656 92.1605C338.753 92.231 338.732 92.3487 338.708 92.456C338.654 92.7061 338.608 92.9579 338.548 93.2066C338.52 93.3223 338.518 93.4328 338.544 93.5467C338.64 93.9678 338.736 94.3867 338.897 94.7917C338.987 95.0167 339.053 95.262 339.052 95.5115C339.052 95.6902 339.081 95.863 339.111 96.0369C339.141 96.2104 339.169 96.3792 339.294 96.5213C339.378 96.6155 339.386 96.7497 339.389 96.8739C339.392 96.9974 339.385 97.1211 339.379 97.2446C339.372 97.4235 339.386 97.5934 339.485 97.7544C339.585 97.9161 339.611 98.1023 339.593 98.2915C339.567 98.5551 339.553 98.8206 339.491 99.0794C339.463 99.1955 339.471 99.3073 339.51 99.4182C339.564 99.5705 339.579 99.7284 339.571 99.8884C339.544 100.453 339.548 101.02 339.43 101.577C339.41 101.673 339.407 101.764 339.46 101.858C339.851 102.55 340.069 103.325 340.49 104.004C340.639 104.244 340.774 104.492 340.923 104.732C340.964 104.798 341.023 104.858 341.086 104.904C341.391 105.128 341.605 105.431 341.826 105.729C342.072 106.063 342.309 106.404 342.636 106.669C342.745 106.757 342.832 106.872 342.924 106.979C342.964 107.025 343.002 107.079 343.02 107.136C343.218 107.746 343.458 108.341 343.647 108.954C343.835 109.561 344.029 110.166 344.219 110.773C344.246 110.857 344.275 110.942 344.286 111.029C344.3 111.133 344.335 111.216 344.432 111.264C344.541 111.318 344.598 111.419 344.661 111.515C345.171 112.291 345.611 113.108 345.995 113.952C346.124 114.236 346.31 114.475 346.476 114.729C346.959 115.472 347.349 116.264 347.734 117.059C347.786 117.164 347.829 117.267 347.761 117.385C347.717 117.463 347.759 117.524 347.828 117.559C347.966 117.629 348.026 117.759 348.081 117.888C348.608 119.113 349.116 120.346 349.543 121.61C349.636 121.887 349.696 122.159 349.909 122.396C350.181 122.698 350.215 123.103 350.169 123.5C350.149 123.67 350.061 123.826 350.061 124.008C350.06 124.14 349.93 124.211 349.807 124.249C349.561 124.327 349.306 124.348 349.05 124.358C347.788 124.408 346.525 124.412 345.262 124.42C343.336 124.432 341.411 124.466 339.486 124.48C338.214 124.489 336.942 124.478 335.67 124.48C334.769 124.482 333.868 124.504 332.967 124.493C331.942 124.481 330.918 124.482 329.893 124.454C327.817 124.454 325.741 124.462 323.665 124.452C322.208 124.445 320.752 124.42 319.295 124.396C317.458 124.365 315.621 124.331 313.785 124.289C312.725 124.265 311.666 124.224 310.607 124.189C310.519 124.186 310.431 124.169 310.344 124.158C310.027 124.119 310.013 124.108 309.958 123.802C309.947 123.739 309.923 123.684 309.892 123.63C309.852 123.558 309.837 123.48 309.847 123.4C309.907 122.9 310.014 122.422 310.429 122.08C310.476 122.042 310.496 122.005 310.485 121.945C310.453 121.765 310.501 121.592 310.55 121.423C310.913 120.157 311.385 118.929 311.876 117.708C311.912 117.618 311.958 117.533 312.027 117.461C312.099 117.385 312.129 117.303 312.065 117.2C312.008 117.107 312.049 117.011 312.092 116.922C312.508 116.051 313.001 115.225 313.545 114.429C313.621 114.318 313.735 114.249 313.817 114.144C314.003 113.904 314.092 113.618 314.23 113.356C314.578 112.699 314.983 112.078 315.385 111.454C315.414 111.41 315.446 111.344 315.486 111.336C315.722 111.289 315.707 111.097 315.756 110.925C315.919 110.356 316.096 109.791 316.274 109.227C316.463 108.629 316.658 108.034 316.852 107.438C316.872 107.378 316.885 107.322 316.883 107.258C316.88 107.129 316.928 106.99 317.017 106.923C317.293 106.716 317.325 106.347 317.579 106.131C317.607 106.106 317.617 106.051 317.622 106.009C317.663 105.681 317.824 105.41 318.025 105.159C318.078 105.093 318.096 105.023 318.115 104.945C318.238 104.421 318.287 103.88 318.47 103.37C318.646 102.881 318.737 102.368 318.926 101.88C319.097 101.441 319.256 100.989 319.3 100.51C319.317 100.327 319.394 100.174 319.511 100.034C319.764 99.7288 319.846 99.3808 319.759 98.9926C319.725 98.8423 319.747 98.697 319.794 98.55C319.861 98.3418 319.932 98.1376 319.876 97.9046C319.831 97.7192 319.942 97.5556 320.075 97.437C320.331 97.2094 320.439 96.9006 320.576 96.605C320.607 96.5379 320.613 96.4686 320.597 96.3981C320.515 96.045 320.543 95.6758 320.437 95.3262C320.418 95.2665 320.411 95.1982 320.441 95.1439C320.545 94.9534 320.461 94.7894 320.345 94.6606C319.949 94.2216 319.924 93.6853 319.935 93.1454C319.949 92.4534 320.102 91.7801 320.26 91.1092C320.285 91.0052 320.297 90.9037 320.262 90.7965C320.182 90.5467 320.178 90.2909 320.247 90.0391C320.349 89.6709 320.3 89.3259 320.124 88.9905C320.009 88.7717 319.999 88.5293 320.021 88.2911C320.055 87.921 319.981 87.5681 319.865 87.2247C319.762 86.9195 319.704 86.6103 319.696 86.2905C319.69 86.0335 319.662 85.7801 319.617 85.527C319.585 85.3535 319.556 85.1764 319.557 85.0009C319.557 84.9343 319.556 84.8678 319.555 84.8012H303.521C288.889 84.8012 277.027 96.6626 277.027 111.294V137.788C277.027 152.419 288.889 164.281 303.521 164.281H356.507C371.139 164.281 383 152.419 383 137.788C383 123.156 371.139 111.294 356.507 111.294H383C383 96.6627 371.139 84.8012 356.507 84.8012ZM345.033 143.743H348.786L346.877 137.305L345.033 143.743ZM383 27.2755C383 12.6437 371.139 0.782373 356.507 0.782373H303.521C288.889 0.782373 277.027 12.6437 277.027 27.2755H303.521C288.889 27.2755 277.027 39.1369 277.027 53.7686V80.2618H319.354C319.334 80.2042 319.313 80.1468 319.29 80.0894C319.15 79.745 319.184 79.3787 319.312 79.0273C319.336 78.9591 319.384 78.8989 319.451 78.8739C319.603 78.8166 319.615 78.7012 319.586 78.5717C319.471 78.0647 319.365 77.5578 319.017 77.1377C318.873 76.9634 318.779 76.7466 318.667 76.5466C318.451 76.1607 318.217 75.7879 317.92 75.4566C317.712 75.2244 317.579 74.9602 317.481 74.6548C317.352 74.2501 317.177 73.8485 316.762 73.6178C316.5 73.4716 316.477 73.3843 316.557 73.0932C316.602 72.9334 316.563 72.7881 316.49 72.6604C316.328 72.3775 316.204 72.0746 316.007 71.8089C315.875 71.6299 315.911 71.4027 315.948 71.1949C316.008 70.8659 316.004 70.5595 315.823 70.2543C315.627 69.9259 315.531 69.5499 315.482 69.1736C315.432 68.7946 315.288 68.4418 315.221 68.0719C315.101 67.4002 314.811 66.7773 314.69 66.1071C314.66 65.94 314.642 65.7747 314.682 65.6081C314.694 65.5557 314.701 65.5083 314.687 65.4536C314.577 65.0261 314.487 64.5947 314.42 64.1582C314.407 64.0719 314.38 63.985 314.343 63.9053C314.181 63.5476 314.138 63.1574 314.035 62.7837C313.995 62.6378 313.994 62.4814 314.037 62.3372C314.081 62.1937 314.068 62.0629 314.029 61.9236C313.986 61.7706 313.977 61.6113 313.964 61.4522C313.925 60.9618 313.921 60.4659 313.758 59.9926C313.708 59.8484 313.715 59.7069 313.743 59.5523C313.783 59.3376 313.77 59.1119 313.676 58.9044C313.623 58.7857 313.598 58.6702 313.664 58.5494C313.691 58.5013 313.697 58.4512 313.687 58.3961C313.609 57.9798 313.557 57.5565 313.357 57.1734C313.285 57.0361 313.255 56.8903 313.273 56.7376C313.303 56.4774 313.271 56.2183 313.35 55.9528C313.415 55.7386 313.385 55.4772 313.24 55.266C313.019 54.9433 312.885 54.5848 312.743 54.2209C312.514 53.635 312.351 53.0314 312.148 52.4398C312.046 52.1412 311.962 51.8324 311.824 51.5455C311.805 51.5061 311.784 51.4627 311.782 51.4203C311.767 51.1136 311.633 50.8441 311.523 50.5666C311.52 50.5586 311.522 50.5482 311.518 50.5409C311.236 50.0501 311.218 49.459 310.926 48.9738C310.709 48.6138 310.596 48.2149 310.462 47.8229C310.399 47.638 310.365 47.4471 310.316 47.2592C310.243 46.9776 310.173 46.6972 310.032 46.4363C309.912 46.2152 309.878 45.9646 309.921 45.7155C309.945 45.575 309.931 45.4326 309.963 45.2945C309.981 45.2171 309.951 45.1559 309.907 45.0985C309.76 44.9055 309.764 44.6887 309.806 44.4657C309.814 44.4223 309.821 44.3781 309.836 44.3369C309.937 44.0591 309.936 43.7765 309.932 43.4819C309.923 42.7588 309.965 42.0351 310.051 41.316C310.095 40.9551 310.481 40.7028 310.845 40.7787C310.931 40.7967 311.018 40.8178 311.105 40.8215C311.291 40.8293 311.342 40.7685 311.315 40.5833C311.283 40.3563 311.247 40.1296 311.216 39.9025C311.115 39.1807 311.166 38.4577 311.199 37.7348C311.206 37.582 311.257 37.4255 311.054 37.3323C310.951 37.2851 310.98 37.1431 310.983 37.0392C310.996 36.632 311.053 36.2288 311.129 35.8296C311.701 32.8057 312.767 29.9682 314.365 27.335C314.787 26.6383 315.265 25.9814 315.844 25.4037C315.888 25.36 315.925 25.2941 315.978 25.278C316.231 25.2 316.314 24.9609 316.463 24.7846C316.537 24.6969 316.613 24.6143 316.7 24.5376C317.004 24.2697 317.265 23.9628 317.497 23.6299C317.587 23.5013 317.711 23.3946 317.825 23.2847C320.207 21.0015 323.05 19.5801 326.232 18.8035C327.058 18.6022 327.905 18.5336 328.75 18.4637C329.357 18.4134 329.966 18.3937 330.576 18.3964C331.542 18.4006 332.496 18.5201 333.447 18.6719C334.696 18.8712 335.93 19.1333 337.118 19.5728C339.181 20.3357 341.08 21.3906 342.76 22.8199C343.421 23.3824 344.017 24.0108 344.539 24.7064C344.732 24.9643 344.946 25.2083 345.097 25.4968C345.125 25.5514 345.188 25.6094 345.181 25.6579C345.144 25.9053 345.333 25.9545 345.491 26.0057C345.635 26.0524 345.733 26.14 345.827 26.2459C346.243 26.7159 346.594 27.2379 346.989 27.7249C347.071 27.8262 347.16 27.9393 347.014 28.0687C346.972 28.1055 347.015 28.1523 347.045 28.1817C347.501 28.6299 347.741 29.2208 348.069 29.7521C348.309 30.1416 348.486 30.5685 348.651 30.9984C348.815 31.4265 348.954 31.8637 349.144 32.283C349.4 32.8492 349.523 33.457 349.653 34.0616C349.766 34.579 349.89 35.094 350.022 35.6066C350.11 35.9462 350.251 35.9816 350.505 35.7252C350.648 35.5819 350.788 35.4371 350.932 35.2958C351.058 35.1722 351.196 35.0617 351.321 34.9377C351.433 34.8265 351.558 34.8279 351.685 34.8967C351.866 34.9948 351.996 35.1339 351.981 35.3572C351.972 35.4844 351.987 35.6027 352.047 35.7161C352.101 35.8202 352.114 35.9355 352.121 36.05C352.132 36.2087 352.136 36.3679 352.141 36.5268C352.149 36.7432 352.144 36.943 352.328 37.1272C352.541 37.3423 352.586 37.6427 352.525 37.9462C352.503 38.0533 352.498 38.1547 352.562 38.2511C352.581 38.2797 352.601 38.3185 352.597 38.3499C352.56 38.6565 352.727 38.9248 352.757 39.2185C352.771 39.3661 352.8 39.5064 352.857 39.6503C352.959 39.905 352.856 40.1576 352.739 40.3866C352.416 41.0197 352.209 41.6962 352.03 42.3767C351.912 42.8262 351.874 43.2994 351.829 43.7649C351.735 44.7526 351.497 45.7116 351.278 46.6748C351.268 46.7178 351.257 46.7617 351.237 46.8008C350.966 47.3473 350.808 47.9397 350.549 48.4905C350.454 48.6918 350.316 48.8662 350.161 49.0248C349.997 49.1932 349.936 49.3875 349.955 49.6247C349.999 50.1699 349.993 50.7177 350.054 51.2632C350.084 51.5323 350.018 51.8065 349.97 52.077C349.826 52.8895 349.547 53.6634 349.266 54.4316C349.137 54.7826 349.053 55.1551 348.856 55.4846C348.681 55.7787 348.54 56.0926 348.379 56.3958C348.345 56.4593 348.318 56.5219 348.309 56.5934C348.258 57.0079 348.121 57.4048 347.986 57.7923C347.803 58.3177 347.632 58.8416 347.52 59.3869C347.481 59.5772 347.393 59.7554 347.226 59.8773C347.174 59.9156 347.143 59.968 347.118 60.0247C346.957 60.3882 346.793 60.7499 346.641 61.1171C346.561 61.3106 346.478 61.5064 346.518 61.7295C346.538 61.8366 346.494 61.9426 346.429 62.028C346.193 62.3402 346.133 62.7216 346.012 63.0784C345.964 63.2201 345.93 63.367 345.897 63.5133C345.857 63.6925 345.79 63.865 345.822 64.0592C345.841 64.1792 345.797 64.308 345.74 64.4167C345.562 64.7589 345.535 65.1308 345.545 65.5001C345.558 66.0042 345.453 66.4801 345.288 66.9489C345.115 67.4446 345.022 67.9537 345.029 68.4799C345.03 68.5682 345.025 68.6565 345.024 68.745C345.022 68.9849 344.915 69.1649 344.72 69.3011C344.545 69.4232 344.508 69.4691 344.6 69.6443C344.837 70.0988 344.657 70.4962 344.479 70.9036C344.384 71.1214 344.296 71.3416 344.292 71.5877C344.29 71.7946 344.19 71.9866 344.105 72.1596C343.828 72.7259 343.768 73.3459 343.607 73.9401C343.595 73.9826 343.592 74.0286 343.575 74.0682C343.342 74.5898 343.275 75.1549 343.147 75.7033C343.094 75.9314 343.009 76.14 342.883 76.334C342.703 76.6111 342.601 76.919 342.503 77.2325C342.366 77.6701 342.188 78.0947 342.054 78.533C341.872 79.1269 341.585 79.6756 341.357 80.2493C341.355 80.2536 341.354 80.2577 341.352 80.2618H383V53.7687H356.507C371.139 53.7687 383 41.9072 383 27.2755Z" fill="white"/>
</svg>
