<svg width="1195" height="1176" viewBox="0 0 1195 1176" fill="none" xmlns="http://www.w3.org/2000/svg">
<mask id="mask0_1_2" style="mask-type:luminance" maskUnits="userSpaceOnUse" x="10" y="-10" width="1176" height="1195">
<path d="M1185 -9.00195L10.556 -9.00185L10.5561 1185L1185 1185L1185 -9.00195Z" fill="white"/>
</mask>
<g mask="url(#mask0_1_2)">
<path d="M17.5347 626.516C18.1078 637.468 18.9219 648.254 19.9683 658.874C21.0148 669.495 22.2956 679.949 23.8014 690.237C25.3072 700.525 27.0388 710.648 28.9886 720.605C30.9391 730.561 33.1073 740.352 35.4872 749.976C37.867 759.601 40.4578 769.059 43.2529 778.352C46.0481 787.644 49.0469 796.771 52.2426 805.732C55.4384 814.693 58.8311 823.488 62.4128 832.116C65.9939 840.745 69.7652 849.208 73.7187 857.506C77.6717 865.802 81.8069 873.934 86.117 881.898C90.4271 889.864 94.9122 897.663 99.5649 905.296C104.217 912.93 109.037 920.397 114.018 927.698C118.997 935 124.138 942.135 129.432 949.105C134.725 956.074 140.172 962.878 145.764 969.516C151.356 976.153 157.094 982.625 162.97 988.931C168.846 995.236 174.86 1001.38 181.006 1007.35C187.152 1013.32 193.429 1019.13 199.829 1024.77C206.23 1030.42 212.754 1035.89 219.396 1041.2C226.037 1046.51 232.794 1051.66 239.661 1056.63C246.528 1061.61 253.505 1066.43 260.582 1071.07C267.661 1075.72 274.84 1080.2 282.115 1084.51C289.39 1088.83 296.759 1092.98 304.216 1096.96C311.673 1100.94 319.217 1104.76 326.842 1108.41C334.466 1112.06 342.171 1115.54 349.948 1118.86C357.725 1122.18 365.575 1125.33 373.491 1128.32C381.407 1131.31 389.388 1134.13 397.428 1136.78C405.467 1139.44 413.565 1141.93 421.714 1144.25C429.863 1146.57 438.063 1148.73 446.306 1150.72C454.55 1152.71 462.837 1154.54 471.161 1156.2C479.484 1157.86 487.844 1159.35 496.233 1160.68C504.623 1162.01 513.041 1163.17 521.481 1164.16C529.922 1165.16 538.384 1165.99 546.86 1166.65C555.337 1167.32 563.828 1167.81 572.326 1168.15C580.825 1168.48 589.331 1168.64 597.837 1168.64C606.343 1168.64 614.848 1168.48 623.347 1168.15C631.845 1167.81 640.336 1167.32 648.813 1166.65C657.29 1165.99 665.752 1165.16 674.192 1164.16C682.632 1163.17 691.051 1162.01 699.44 1160.68C707.829 1159.35 716.189 1157.86 724.513 1156.2C732.836 1154.54 741.123 1152.71 749.367 1150.72C757.61 1148.73 765.81 1146.57 773.959 1144.25C782.108 1141.93 790.206 1139.44 798.245 1136.78C806.285 1134.13 814.266 1131.31 822.182 1128.32C830.098 1125.33 837.948 1122.18 845.725 1118.86C853.503 1115.54 861.208 1112.06 868.832 1108.41C876.456 1104.76 884 1100.94 891.457 1096.96C898.914 1092.98 906.284 1088.83 913.558 1084.51C920.833 1080.2 928.013 1075.72 935.091 1071.07C942.169 1066.42 949.145 1061.61 956.012 1056.63C962.879 1051.66 969.637 1046.51 976.278 1041.2C982.919 1035.89 989.443 1030.42 995.844 1024.77C1002.24 1019.13 1008.52 1013.32 1014.67 1007.35C1020.81 1001.38 1026.83 995.236 1032.7 988.931C1038.58 982.625 1044.32 976.153 1049.91 969.516C1055.5 962.878 1060.95 956.075 1066.24 949.105C1071.53 942.135 1076.68 935 1081.66 927.698C1086.64 920.397 1091.46 912.93 1096.11 905.296C1100.76 897.664 1105.25 889.864 1109.56 881.899C1113.87 873.934 1118 865.803 1121.95 857.506C1125.91 849.208 1129.68 840.745 1133.26 832.116C1136.84 823.487 1140.23 814.693 1143.43 805.732C1146.63 796.771 1149.62 787.644 1152.42 778.352C1155.22 769.059 1157.81 759.601 1160.19 749.976C1162.57 740.351 1164.73 730.561 1166.68 720.604C1168.63 710.648 1170.37 700.525 1171.87 690.237C1173.38 679.949 1174.66 669.495 1175.7 658.874C1176.75 648.254 1177.57 637.468 1178.14 626.516C1178.79 614.112 1179.12 601.491 1179.14 588.661L1179.14 588.661L1179.15 588.661C1179.15 575.371 1178.81 562.309 1178.14 549.474C1177.57 538.522 1176.75 527.735 1175.7 517.115C1174.66 506.495 1173.38 496.041 1171.87 485.753C1170.37 475.465 1168.63 465.342 1166.68 455.385C1164.73 445.429 1162.57 435.638 1160.19 426.014C1157.81 416.389 1155.22 406.931 1152.42 397.638C1149.62 388.346 1146.63 379.219 1143.43 370.258C1140.23 361.297 1136.84 352.503 1133.26 343.873C1129.68 335.244 1125.91 326.782 1121.95 318.484C1118 310.188 1113.87 302.056 1109.56 294.091C1105.25 286.126 1100.76 278.327 1096.11 270.693C1091.46 263.06 1086.64 255.593 1081.66 248.292C1076.68 240.99 1071.53 233.855 1066.24 226.885C1060.95 219.916 1055.5 213.112 1049.91 206.474C1044.32 199.837 1038.58 193.365 1032.7 187.059C1026.83 180.753 1020.81 174.614 1014.67 168.64C1008.52 162.666 1002.24 156.858 995.844 151.216C989.443 145.574 982.919 140.098 976.278 134.788C969.637 129.478 962.879 124.333 956.012 119.355C949.145 114.377 942.169 109.565 935.091 104.919C928.013 100.272 920.833 95.7918 913.558 91.4774C906.283 87.163 898.914 83.0143 891.457 79.032C884 75.0491 876.456 71.2326 868.831 67.5818C861.207 63.9316 853.503 60.4465 845.725 57.1279C837.948 53.8092 830.098 50.6562 822.182 47.669C814.266 44.6825 806.285 41.8617 798.245 39.206C790.205 36.5509 782.108 34.0622 773.959 31.7386C765.81 29.4156 757.61 27.2584 749.367 25.267C741.123 23.2755 732.836 21.4504 724.513 19.7911C716.189 18.1318 707.829 16.6382 699.44 15.3103C691.05 13.9831 682.632 12.8216 674.192 11.8259C665.751 10.8302 657.289 10.0008 648.813 9.33719C640.336 8.67297 631.845 8.17511 623.346 7.843C614.848 7.5115 606.342 7.34575 597.837 7.34575C589.331 7.34576 580.825 7.5115 572.326 7.843C563.828 8.17512 555.337 8.67359 546.86 9.3372C538.384 10.0008 529.922 10.8302 521.481 11.8259C513.041 12.8217 504.622 13.9831 496.233 15.311C487.844 16.6382 479.484 18.1318 471.16 19.7911C462.837 21.4505 454.55 23.2756 446.306 25.267C438.063 27.2585 429.863 29.4157 421.714 31.7393C413.565 34.0622 405.467 36.5515 397.428 39.2066C389.388 41.8617 381.407 44.6819 373.491 47.6691C365.575 50.6557 357.725 53.8086 349.948 57.1279C342.17 60.4466 334.465 63.9316 326.842 67.5824C319.217 71.2332 311.673 75.0492 304.216 79.0321C296.759 83.0144 289.39 87.163 282.115 91.4774C274.84 95.7919 267.66 100.273 260.582 104.919C253.504 109.565 246.528 114.377 239.661 119.355C232.794 124.334 226.036 129.478 219.396 134.788C212.754 140.098 206.23 145.575 199.829 151.216C193.429 156.859 187.152 162.666 181.006 168.64C174.86 174.614 168.846 180.754 162.97 187.059C157.094 193.365 151.355 199.837 145.763 206.475C140.171 213.112 134.725 219.915 129.432 226.885C124.138 233.855 118.997 240.99 114.018 248.292C109.037 255.593 104.217 263.061 99.5641 270.694C94.9121 278.327 90.4271 286.126 86.1169 294.091C81.8068 302.056 77.6716 310.188 73.7187 318.485C69.7651 326.782 65.9938 335.245 62.4122 343.874C58.8305 352.503 55.4383 361.297 52.2426 370.258C49.0469 379.219 46.048 388.346 43.2529 397.639C40.4578 406.931 37.867 416.39 35.4872 426.015C33.1073 435.639 30.9385 445.429 28.9886 455.386C27.0388 465.342 25.3072 475.465 23.8014 485.753C22.2956 496.042 21.0154 506.495 19.9689 517.115C18.9224 527.735 18.1084 538.522 17.5347 549.474C16.8625 562.309 16.5212 575.371 16.5212 588.661L16.5212 588.661C16.5432 601.491 16.8851 614.112 17.5347 626.516Z" fill="#304FFE"/>
<path d="M652.922 32.5331C659.025 33.0714 665.119 33.6977 671.202 34.4151C671.799 29.8976 672.398 25.3796 672.996 20.8621C664.689 19.8816 656.358 19.0786 648.015 18.426L648.015 18.4119C648.281 15.3868 648.547 12.3623 648.813 9.33721C640.336 8.67359 631.845 8.17573 623.346 7.84362C623.214 10.8761 623.08 13.9091 622.947 16.9416C627.13 17.1049 631.31 17.3092 635.488 17.5544C635.189 22.0982 634.89 26.6426 634.59 31.1863L634.578 31.1992C622.346 30.4818 610.092 30.1099 597.837 30.1105C597.837 36.9393 597.837 43.7693 597.837 50.5982C615.551 50.5982 633.265 51.3755 650.902 52.9309C651.575 46.1314 652.249 39.3326 652.922 32.5331ZM597.837 7.34575C589.331 7.34576 580.825 7.51212 572.326 7.84362C572.46 10.8761 572.593 13.9091 572.726 16.9416L572.723 16.9495C568.542 17.1116 564.362 17.3092 560.184 17.5544C560.484 22.0982 560.784 26.6426 561.083 31.1864C573.318 30.4689 585.578 30.1105 597.837 30.1105C597.837 25.5576 597.837 21.0046 597.837 16.4517C597.837 13.4168 597.837 10.3813 597.837 7.34575ZM1124.87 347.718L1124.87 347.708C1127.67 346.43 1130.47 345.152 1133.26 343.874C1129.68 335.245 1125.91 326.782 1121.95 318.485C1119.22 319.896 1116.48 321.306 1113.75 322.717C1115.69 326.8 1117.59 330.925 1119.45 335.09C1115.3 337.108 1111.15 339.125 1107 341.143C1112.43 353.34 1117.46 365.896 1122.06 378.811C1126.34 377.1 1130.61 375.39 1134.88 373.679C1131.74 364.86 1128.39 356.211 1124.87 347.718ZM709.752 92.4652C722.004 94.9399 734.164 97.8267 746.202 101.126C749.198 91.2817 752.194 81.437 755.189 71.5928C757.186 65.0295 759.184 58.4673 761.181 51.904C755.295 50.2911 749.381 48.7761 743.445 47.3425L743.433 47.3302C744.62 42.9179 745.806 38.5051 746.993 34.0928C747.784 31.1509 748.576 28.2096 749.367 25.2676C741.123 23.2762 732.836 21.4511 724.513 19.7911C723.851 22.7618 723.19 25.7319 722.528 28.7025L722.519 28.7166C718.424 27.9001 714.324 27.1092 710.212 26.3747C709.318 30.8487 708.424 35.3228 707.53 39.7962C706.189 46.507 704.847 53.2184 703.506 59.9291L703.501 59.9389C694.798 58.3835 686.06 57.0129 677.291 55.8471C675.792 65.9004 674.292 75.9544 672.793 86.0077C647.97 82.7067 622.904 81.0462 597.837 81.0462C597.837 70.8968 597.837 60.7475 597.837 50.5982C580.124 50.5982 562.412 51.3823 544.776 52.937L544.771 52.9309C544.098 46.1315 543.425 39.3314 542.751 32.5319C536.65 33.0696 530.56 33.7056 524.48 34.4231L524.471 34.4157C523.873 29.8977 523.276 25.3796 522.678 20.8621C514.378 21.8413 506.102 22.9967 497.852 24.3025L497.825 24.2921C497.294 21.2988 496.764 18.3049 496.233 15.311C487.844 16.6382 479.484 18.1318 471.16 19.7911C471.822 22.7618 472.483 25.7319 473.145 28.7025C477.242 27.8854 481.347 27.1099 485.461 26.3747C486.355 30.8487 487.249 35.3228 488.143 39.7962C489.485 46.507 490.825 53.2184 492.167 59.9291C500.87 58.3744 509.612 57.0135 518.383 55.8471C519.895 65.991 521.408 76.1354 522.921 86.2792C547.73 82.9795 572.783 81.3306 597.837 81.3306L597.837 127.144C632.023 127.144 666.209 130.521 699.646 137.274C703.014 122.337 706.383 107.401 709.752 92.4652ZM976.278 134.789C969.637 129.478 962.879 124.334 956.012 119.356C954.142 121.806 952.272 124.256 950.402 126.707C957.161 131.607 963.813 136.671 970.35 141.898C972.326 139.528 974.301 137.158 976.278 134.789ZM795.1 47.8269L795.106 47.8134C796.152 44.9443 797.199 42.0751 798.245 39.2066C790.206 36.5515 782.108 34.0622 773.959 31.7392C773.04 34.6469 772.12 37.5552 771.2 40.4629C775.211 41.606 779.209 42.7907 783.193 44.0158C781.719 48.3492 780.244 52.6826 778.769 57.0159C790.437 60.6037 801.988 64.55 813.397 68.8552C815.154 64.6178 816.91 60.3811 818.668 56.1438C810.876 53.2031 803.015 50.4397 795.1 47.8269ZM845.725 57.1279C837.948 53.8092 830.098 50.6562 822.182 47.6697C821.011 50.4942 819.839 53.3193 818.668 56.1438C826.46 59.0838 834.187 62.1872 841.843 65.4539C843.137 62.6784 844.431 59.9034 845.725 57.1279ZM1179.15 588.661C1179.15 575.371 1178.81 562.309 1178.14 549.474C1175.11 549.679 1172.08 549.884 1169.05 550.089C1169.71 562.722 1170.05 575.579 1170.05 588.661L1179.15 588.661ZM956.651 148.765C951.823 144.998 946.928 141.329 941.978 137.741L941.986 137.734C944.791 134.058 947.597 130.383 950.402 126.707C943.65 121.812 936.782 117.094 929.822 112.525L929.808 112.497C931.569 109.971 933.33 107.445 935.091 104.919C928.013 100.272 920.833 95.7924 913.558 91.478C911.91 94.0738 910.261 96.6695 908.613 99.2659C912.193 101.389 915.75 103.553 919.283 105.758C916.725 109.601 914.168 113.443 911.61 117.286C907.774 123.049 903.937 128.812 900.101 134.576C915.05 143.907 929.538 154.015 943.49 164.901C947.877 159.523 952.264 154.144 956.651 148.765ZM1139.84 439.351C1141.48 446.346 1143 453.43 1144.41 460.605C1148.86 459.561 1153.32 458.518 1157.77 457.474C1160.74 456.778 1163.71 456.081 1166.69 455.386C1164.73 445.429 1162.57 435.639 1160.19 426.015C1157.25 426.863 1154.31 427.713 1151.38 428.562L1151.37 428.556C1150.2 423.823 1148.98 419.126 1147.71 414.474C1143.33 415.86 1138.96 417.246 1134.58 418.632L1134.57 418.63C1130.84 404.999 1126.67 391.723 1122.06 378.811C1115.66 381.377 1109.25 383.943 1102.84 386.508C1109.49 405.17 1115.23 424.61 1119.96 444.826C1126.59 443.001 1133.21 441.176 1139.84 439.351ZM1152.42 397.639C1149.63 388.346 1146.63 379.219 1143.43 370.258C1140.58 371.399 1137.73 372.539 1134.88 373.679C1138.03 382.5 1140.98 391.484 1143.73 400.631C1146.63 399.633 1149.52 398.636 1152.42 397.639ZM1105.45 588.661C1115.6 588.661 1125.75 588.661 1135.9 588.661L1156.38 588.661C1156.36 600.97 1156.04 613.081 1155.41 624.982C1159.96 625.289 1164.5 625.596 1169.05 625.903C1169.69 613.692 1170.02 601.266 1170.04 588.635L1156.39 588.635C1156.39 575.874 1156.05 563.334 1155.41 551.01L1155.41 551.009C1159.96 550.702 1164.5 550.395 1169.05 550.089C1168.49 539.316 1167.67 528.715 1166.64 518.27L1166.65 518.236C1169.67 517.863 1172.69 517.489 1175.7 517.116C1174.66 506.495 1173.38 496.042 1171.87 485.753C1168.87 486.29 1165.88 486.828 1162.88 487.365C1163.62 492.429 1164.31 497.533 1164.94 502.678C1160.42 503.363 1155.91 504.047 1151.4 504.731C1144.63 505.757 1137.86 506.784 1131.09 507.81L1131.08 507.812C1129.75 496.927 1128.16 486.23 1126.3 475.735C1116.34 477.865 1106.37 479.995 1096.4 482.125C1081.31 485.35 1066.22 488.575 1051.12 491.8C1056.51 522.188 1059.35 554.475 1059.35 588.661L1105.45 588.661ZM397.427 39.2066C389.388 41.8617 381.406 44.6825 373.491 47.6697C374.663 50.4942 375.834 53.3187 377.005 56.1438C384.797 53.2037 392.653 50.4263 400.567 47.8134C399.52 44.9443 398.474 42.0758 397.427 39.2066ZM546.86 9.33722C538.384 10.0008 529.922 10.8308 521.481 11.8265C521.88 14.8382 522.279 17.8498 522.678 20.8621C530.985 19.8817 539.314 19.0651 547.659 18.4119C547.392 15.3868 547.126 12.3623 546.86 9.33722ZM998.344 185.088C1001.61 181.799 1004.87 178.509 1008.14 175.22C1010.31 173.026 1012.49 170.834 1014.67 168.64C1008.52 162.666 1002.24 156.858 995.844 151.216C993.765 153.501 991.688 155.784 989.609 158.068L989.598 158.084C986.447 155.307 983.278 152.556 980.068 149.861C977.027 153.352 973.985 156.843 970.944 160.335C980.345 168.227 989.486 176.478 998.344 185.088ZM983.643 199.901C977.245 193.68 970.7 187.645 964.003 181.813C957.032 189.559 950.06 197.305 943.089 205.051C962.033 221.547 979.755 239.693 996.01 259.488C1004.05 252.841 1012.09 246.194 1020.13 239.547C1025.49 235.117 1030.85 230.685 1036.21 226.254C1040.19 231.098 1044.08 236.03 1047.9 241.053C1055.53 251.097 1062.83 261.502 1069.77 272.264C1064 276.132 1058.23 280.001 1052.46 283.869C1057.48 291.645 1062.3 299.615 1066.93 307.78C1058.07 313.08 1049.22 318.381 1040.37 323.681C1027.28 300.574 1012.5 279.109 996.233 259.303C984.174 269.273 972.114 279.243 960.054 289.213C971.144 302.719 981.485 317.069 990.981 332.263C971.347 345.068 951.712 357.873 932.078 370.678C902.626 389.886 873.175 409.093 843.723 428.301C870.45 471.064 886.486 524.517 886.486 588.661C921.057 588.661 955.629 588.661 990.2 588.661C990.127 617.232 987.714 644.239 983.21 669.679C1005.85 674.516 1028.49 679.353 1051.12 684.191C1056.44 654.199 1059.27 622.353 1059.35 588.661L990.207 588.661C990.207 559.597 987.774 532.156 983.198 506.321L983.21 506.313C1005.85 501.475 1028.49 496.637 1051.12 491.8C1043.95 451.292 1032.27 414.17 1016.84 380.412L1016.84 380.377C1030.71 373.486 1044.57 366.593 1058.44 359.701C1064.09 372.073 1069.29 384.858 1073.99 398.055C1083.61 394.206 1093.22 390.357 1102.84 386.508C1096.18 367.847 1088.6 349.97 1080.18 332.863L1080.18 332.856C1086.3 329.609 1092.43 326.363 1098.55 323.116C1095.63 317.193 1092.61 311.367 1089.5 305.624L1089.52 305.627C1093.53 303.32 1097.53 301.013 1101.54 298.706C1104.21 297.168 1106.88 295.629 1109.56 294.092C1105.25 286.126 1100.76 278.327 1096.11 270.694C1093.51 272.354 1090.91 274.014 1088.3 275.674L1088.29 275.671C1086 271.917 1083.68 268.199 1081.31 264.527C1078.94 260.857 1076.53 257.235 1074.08 253.648L1074.08 253.623C1076.6 251.847 1079.13 250.069 1081.66 248.292C1076.68 240.991 1071.53 233.855 1066.24 226.885C1063.8 228.774 1061.35 230.663 1058.9 232.552C1053.69 225.692 1048.32 219.009 1042.82 212.476L1042.83 212.461C1045.19 210.466 1047.55 208.47 1049.91 206.475C1044.32 199.837 1038.58 193.365 1032.7 187.06C1030.43 189.157 1028.16 191.253 1025.89 193.351C1028.78 196.454 1031.64 199.598 1034.46 202.783C1030.99 205.853 1027.52 208.924 1024.04 211.994L1024 211.975C1015.74 202.659 1007.19 193.688 998.344 185.088C993.447 190.023 988.55 194.957 983.653 199.892L983.643 199.901ZM699.439 15.311C691.05 13.9837 682.632 12.8216 674.192 11.8265C673.793 14.8382 673.395 17.8498 672.996 20.8621C681.304 21.8419 689.59 22.9857 697.848 24.2921C698.378 21.2982 698.909 18.3043 699.439 15.311ZM62.4119 343.874C58.8303 352.503 55.4382 361.298 52.2425 370.259C55.0914 371.399 57.9403 372.539 60.7887 373.68C63.9342 364.859 67.2738 356.202 70.7992 347.709C68.0034 346.43 65.2077 345.152 62.4119 343.874ZM114.362 264.527C118.209 267.105 122.055 269.685 125.902 272.264C131.673 276.132 137.443 280.001 143.213 283.87L143.224 283.879C138.206 291.655 133.371 299.615 128.747 307.78C137.678 313.127 146.609 318.475 155.54 323.823C168.619 300.728 183.408 279.284 199.663 259.488C191.623 252.842 183.583 246.195 175.543 239.548C170.183 235.117 164.823 230.686 159.463 226.255C155.488 231.096 151.6 236.035 147.787 241.055L147.774 241.053C144.106 238.22 140.437 235.386 136.769 232.552C131.569 239.398 126.533 246.419 121.642 253.59L121.596 253.623C119.069 251.847 116.543 250.069 114.017 248.292C109.037 255.593 104.217 263.061 99.5646 270.694C102.166 272.354 104.768 274.014 107.37 275.675C109.659 271.918 111.99 268.202 114.362 264.527ZM97.1285 323.118C100.041 317.198 103.05 311.366 106.156 305.627C102.148 303.32 98.1401 301.013 94.1328 298.706C91.4606 297.168 88.789 295.63 86.1168 294.092C81.8067 302.057 77.6715 310.188 73.7185 318.485C76.4549 319.896 79.1913 321.307 81.9284 322.717L81.932 322.727C79.9871 326.809 78.0812 330.927 76.2268 335.09C80.3767 337.108 84.5272 339.126 88.6777 341.143L88.6832 341.151C83.2501 353.347 78.2139 365.897 73.6084 378.811C80.0182 381.377 86.4275 383.943 92.8374 386.509C99.4925 367.847 107.069 349.963 115.491 332.857C109.37 329.61 103.249 326.364 97.1285 323.118ZM796.248 372.187C796.248 372.187 796.248 372.187 796.248 372.188C796.263 372.201 796.278 372.213 796.293 372.227C796.278 372.213 796.264 372.2 796.248 372.187ZM205.467 588.661C205.467 559.597 207.889 532.147 212.464 506.313C189.825 501.475 167.187 496.637 144.549 491.8C139.168 522.188 136.319 554.475 136.319 588.662C159.368 588.662 182.417 588.662 205.467 588.661ZM29.0202 518.236C26.0031 517.863 22.9859 517.49 19.9687 517.116C18.9216 527.736 18.1082 538.522 17.5344 549.475C20.5644 549.679 23.5945 549.884 26.6245 550.089C27.189 539.308 27.9902 528.69 29.0202 518.236ZM32.8019 487.36C32.06 492.427 31.3664 497.53 30.7371 502.678C35.2496 503.363 39.7616 504.047 44.2741 504.731C51.0424 505.757 57.8107 506.784 64.5789 507.81C65.9098 496.924 67.5099 486.232 69.3686 475.735C79.4299 477.885 89.4912 480.035 99.5524 482.185C114.551 485.39 129.55 488.595 144.549 491.8C151.724 451.283 163.401 414.142 178.83 380.378C164.879 373.443 150.928 366.508 136.977 359.573C131.322 371.951 126.136 384.751 121.427 397.953C111.897 394.138 102.367 390.324 92.8374 386.509C86.1823 405.17 80.4568 424.616 75.7215 444.834L75.713 444.826C69.0861 443.001 62.4591 441.176 55.8321 439.35C54.1948 446.34 52.6823 453.426 51.2786 460.595L51.2651 460.605C46.8094 459.561 42.3543 458.518 37.8992 457.474C34.9292 456.778 31.9585 456.082 28.9884 455.386C27.0385 465.343 25.307 475.465 23.8012 485.753C26.7982 486.29 29.7957 486.828 32.7927 487.365L32.8019 487.36ZM90.5126 588.661L59.7801 588.662L59.7784 588.667L59.7784 588.662L39.2901 588.662C39.3127 600.972 39.6429 613.075 40.2656 624.978L40.2595 624.982C35.7145 625.289 31.1695 625.595 26.6245 625.902C27.1884 636.676 28.0007 647.277 29.0307 657.725L29.0202 657.754C26.0031 658.128 22.9859 658.501 19.9687 658.875C21.0152 669.495 22.2954 679.949 23.8012 690.237C26.7982 689.7 29.7958 689.163 32.7927 688.625C32.052 683.562 31.3664 678.457 30.7377 673.312C35.2496 672.628 39.7622 671.944 44.2742 671.26C51.0424 670.234 57.8107 669.207 64.5789 668.181L64.5875 668.174C65.9178 679.061 67.5099 689.758 69.3686 700.256C79.4299 698.106 89.4912 695.956 99.5525 693.806C114.551 690.601 129.55 687.396 144.549 684.191C139.238 654.199 136.399 622.354 136.327 588.662L136.319 588.662L90.5126 588.661ZM51.9525 400.632L51.9403 400.631C49.0442 399.634 46.1488 398.636 43.2528 397.639C40.4576 406.931 37.8668 416.39 35.4869 426.015C38.4234 426.864 41.3592 427.713 44.2956 428.563C45.4669 423.826 46.6901 419.13 47.9647 414.475C52.3397 415.86 56.7153 417.246 61.0903 418.632C64.8218 405 69.0022 391.726 73.6084 378.811C69.335 377.1 65.0621 375.39 60.7887 373.68C57.6443 382.497 54.703 391.488 51.9525 400.632ZM342.407 70.4864C344.437 74.6064 346.469 78.7263 348.499 82.8462C359.601 77.8235 370.867 73.1599 382.276 68.8552C380.52 64.6179 378.762 60.3805 377.005 56.1438C369.213 59.0839 361.491 62.2007 353.836 65.4687L353.831 65.454C352.536 62.6784 351.242 59.9035 349.947 57.1279C342.17 60.4472 334.466 63.9316 326.841 67.5824C328.256 70.303 329.671 73.0241 331.086 75.7446C334.839 73.9476 338.615 72.1996 342.407 70.4864ZM390.183 87.9331C381.942 91.0426 373.773 94.3374 365.696 97.8359C370.115 107.18 392.132 153.731 398.72 167.662C414.313 160.909 430.281 155 446.53 149.936C454.087 171.846 461.643 193.757 469.199 215.668C510.643 202.75 554.24 196.291 597.837 196.291C597.837 173.243 597.837 150.193 597.837 127.144C563.648 127.144 529.462 130.532 496.024 137.286L496.027 137.274C492.638 122.245 489.248 107.216 485.858 92.1869C473.599 94.6628 461.435 97.5613 449.391 100.862C446.422 91.1056 443.453 81.3489 440.484 71.5929C438.487 65.0301 436.49 58.468 434.493 51.9052C440.383 50.2911 446.299 48.7651 452.24 47.3303C451.054 42.918 449.866 38.5051 448.68 34.0928C447.888 31.1509 447.098 28.2096 446.306 25.2677C438.063 27.2591 429.863 29.4157 421.714 31.7393C422.634 34.6469 423.553 37.5552 424.473 40.4629L424.464 40.4819C420.458 41.6244 416.459 42.792 412.479 44.0158C413.954 48.3492 415.429 52.6832 416.904 57.0166L416.885 57.0368C405.224 60.6215 393.678 64.5531 382.276 68.8552C384.912 75.2106 387.548 81.5667 390.183 87.9221L390.183 87.9331ZM597.853 300.025C597.836 300.025 597.82 300.024 597.802 300.024C597.802 341.13 597.802 472.91 597.802 510.231C556.279 510.291 522.635 543.97 522.635 585.508C522.635 627.083 556.338 660.786 597.914 660.786C639.489 660.786 673.192 627.083 673.192 585.508C673.192 564.211 664.346 544.983 650.131 531.289C673.717 505.576 767.43 403.625 796.248 372.188C778.211 356.154 758.17 342.792 736.793 332.102L736.816 332.085C753.461 301.355 770.106 270.625 786.751 239.896C806.128 249.584 824.701 260.879 842.193 273.797C856.547 255.3 870.902 236.804 885.257 218.308C894.826 205.977 904.396 193.647 913.965 181.316C903.907 173.888 893.568 166.883 882.99 160.281C888.693 151.712 894.397 143.144 900.101 134.576C885.153 125.246 869.741 116.7 853.948 108.925L853.947 108.916C857.198 102.827 860.448 96.738 863.699 90.6487C869.164 93.3398 874.585 96.1197 879.959 98.9894C882.258 94.9979 884.558 91.0065 886.858 87.015C888.391 84.3538 889.924 81.6932 891.457 79.032C884 75.0497 876.456 71.2326 868.831 67.5824C867.417 70.3029 866.001 73.024 864.587 75.7446L864.576 75.7488C860.826 73.9519 857.059 72.191 853.271 70.4766C851.238 74.6002 849.206 78.7232 847.174 82.8462L847.152 82.8517C836.055 77.8314 824.8 73.158 813.397 68.8552C810.761 75.2106 808.126 81.566 805.489 87.922C813.732 91.0322 821.898 94.338 829.977 97.8371C825.598 107.095 821.22 116.352 816.841 125.61C810.212 139.627 803.582 153.644 796.953 167.662L796.943 167.666C781.352 160.914 765.39 154.999 749.143 149.935C741.587 171.846 734.03 193.757 726.473 215.668L726.473 215.668C685.03 202.751 641.433 196.291 597.837 196.291C597.837 230.865 597.837 265.439 597.837 300.013L597.853 300.025ZM260.582 104.919C253.504 109.566 246.528 114.378 239.661 119.356C241.531 121.806 243.401 124.257 245.272 126.707C252.031 121.807 258.898 117.07 265.865 112.497C264.104 109.971 262.343 107.445 260.582 104.919ZM145.763 206.475C140.171 213.113 134.725 219.916 129.432 226.886C131.877 228.775 134.323 230.664 136.769 232.552C141.979 225.692 147.34 218.995 152.845 212.462C150.484 210.466 148.124 208.47 145.763 206.475ZM171.631 211.995C179.897 202.667 188.472 193.699 197.329 185.089C194.065 181.799 190.8 178.509 187.535 175.22C185.359 173.026 183.183 170.834 181.006 168.64C174.861 174.614 168.846 180.754 162.969 187.06C165.24 189.157 167.511 191.254 169.781 193.351L169.787 193.359C166.894 196.461 164.031 199.599 161.208 202.784C164.682 205.854 168.157 208.924 171.631 211.995ZM331.974 90.6487C326.51 93.3387 321.095 96.1265 315.723 98.9962L315.714 98.9895C313.414 94.998 311.115 91.0071 308.815 87.015C307.282 84.3545 305.749 81.6933 304.216 79.0321C296.759 83.015 289.39 87.1637 282.115 91.4781C283.763 94.0738 285.412 96.6702 287.061 99.2659L287.07 99.2806C283.489 101.404 279.923 103.553 276.39 105.759C278.947 109.601 281.505 113.443 284.063 117.286C287.899 123.049 291.736 128.812 295.573 134.576C310.521 125.245 325.932 116.692 341.726 108.916C338.475 102.827 335.224 96.7381 331.974 90.6487ZM231.671 181.814C238.579 189.491 245.489 197.168 252.398 204.845C233.444 221.35 215.705 239.497 199.44 259.304C211.5 269.274 223.559 279.244 235.619 289.214L235.623 289.224C224.533 302.728 214.188 317.07 204.692 332.263C224.327 345.068 243.961 357.873 263.596 370.678C293.04 389.882 322.486 409.085 351.932 428.289C351.927 428.297 351.921 428.305 351.916 428.313C326.178 469.495 310.368 520.6 309.234 581.611L309.234 581.619L525.403 565.11C529.058 552.102 536.122 540.523 545.569 531.392C545.569 531.392 545.568 531.392 545.568 531.392C526.384 510.486 433.669 409.62 399.366 372.197C417.412 356.152 437.466 342.78 458.857 332.085C442.211 301.352 425.564 270.62 408.917 239.888C389.543 249.576 370.981 260.886 353.489 273.802L353.48 273.797C339.125 255.3 324.771 236.804 310.417 218.308C300.907 206.054 291.396 193.799 281.886 181.544C291.938 174.121 302.265 167.11 312.836 160.512C307.082 151.866 301.327 143.221 295.573 134.576C280.625 143.906 266.143 154.019 252.194 164.904L252.184 164.901C247.797 159.523 243.409 154.144 239.022 148.765C243.85 144.999 248.739 141.322 253.687 137.734C250.882 134.058 248.077 130.383 245.272 126.707C238.509 131.61 231.864 136.689 225.324 141.92L225.324 141.898C223.347 139.528 221.371 137.158 219.396 134.789C212.755 140.099 206.23 145.575 199.829 151.217C201.907 153.501 203.986 155.785 206.063 158.069C209.214 155.292 212.401 152.563 215.612 149.869C218.651 153.358 221.69 156.846 224.728 160.335L224.737 160.35C215.336 168.241 206.186 176.48 197.329 185.089C202.226 190.023 207.123 194.957 212.02 199.892C218.42 193.671 224.973 187.645 231.671 181.814ZM853.267 1105.5C851.236 1101.38 849.205 1097.26 847.174 1093.14C836.072 1098.17 824.805 1102.83 813.397 1107.14C815.154 1111.37 816.911 1115.61 818.668 1119.85C826.457 1116.91 834.177 1113.79 841.83 1110.53L841.843 1110.54C843.137 1113.31 844.431 1116.09 845.725 1118.86C853.503 1115.54 861.207 1112.06 868.832 1108.41C867.417 1105.69 866.002 1102.97 864.587 1100.25C860.834 1102.04 857.059 1103.79 853.267 1105.5ZM496.233 1160.68C504.623 1162.01 513.041 1163.17 521.481 1164.16C521.88 1161.15 522.279 1158.14 522.678 1155.13C514.369 1154.15 506.083 1153.01 497.825 1151.7C497.295 1154.69 496.764 1157.69 496.233 1160.68ZM597.837 1168.65C606.343 1168.65 614.848 1168.48 623.346 1168.15C623.214 1165.11 623.08 1162.08 622.947 1159.05L622.95 1159.04C627.131 1158.88 631.312 1158.68 635.489 1158.44C635.189 1153.89 634.89 1149.35 634.59 1144.8C622.354 1145.52 610.096 1145.88 597.837 1145.88C597.837 1150.43 597.837 1154.99 597.837 1159.54C597.837 1162.57 597.837 1165.61 597.837 1168.65ZM798.245 1136.78C806.285 1134.13 814.266 1131.31 822.182 1128.32C821.011 1125.5 819.84 1122.67 818.668 1119.85C810.876 1122.79 803.02 1125.56 795.107 1128.18C796.153 1131.05 797.2 1133.92 798.245 1136.78ZM648.813 1166.65C657.29 1165.99 665.752 1165.16 674.192 1164.16C673.793 1161.15 673.395 1158.14 672.996 1155.13C664.688 1156.11 656.358 1156.93 648.015 1157.58C648.281 1160.6 648.547 1163.63 648.813 1166.65ZM400.571 1128.16L400.567 1128.18C399.52 1131.05 398.475 1133.92 397.428 1136.78C405.467 1139.44 413.565 1141.93 421.714 1144.25C422.633 1141.34 423.553 1138.44 424.473 1135.53C420.462 1134.38 416.464 1133.2 412.48 1131.97C413.955 1127.64 415.43 1123.31 416.904 1118.97C405.236 1115.39 393.686 1111.44 382.277 1107.14C380.52 1111.37 378.762 1115.61 377.005 1119.85C384.797 1122.79 392.657 1125.55 400.571 1128.16ZM485.921 1083.53C473.67 1081.05 461.509 1078.16 449.471 1074.86C446.476 1084.71 443.48 1094.55 440.484 1104.4C438.487 1110.96 436.49 1117.52 434.493 1124.09C440.385 1125.7 446.306 1127.22 452.249 1128.65L452.24 1128.66C451.054 1133.07 449.866 1137.49 448.68 1141.9C447.888 1144.84 447.098 1147.78 446.306 1150.72C454.55 1152.71 462.837 1154.54 471.161 1156.2C471.822 1153.23 472.484 1150.26 473.145 1147.29L473.154 1147.27C477.249 1148.09 481.349 1148.88 485.461 1149.62C486.355 1145.14 487.249 1140.67 488.143 1136.19C489.485 1129.48 490.826 1122.77 492.167 1116.06L492.171 1116.05C500.874 1117.61 509.613 1118.98 518.383 1120.14C519.882 1110.09 521.381 1100.04 522.88 1089.98C547.703 1093.28 572.769 1094.94 597.837 1094.94C597.837 1105.09 597.837 1115.24 597.837 1125.39C615.55 1125.39 633.263 1124.61 650.899 1123.05L650.902 1123.06C651.576 1129.86 652.249 1136.66 652.922 1143.46C659.023 1142.92 665.113 1142.29 671.193 1141.57L671.202 1141.58C671.8 1146.09 672.398 1150.61 672.996 1155.13C681.296 1154.15 689.572 1152.99 697.821 1151.69L697.848 1151.7C698.378 1154.69 698.909 1157.69 699.44 1160.68C707.829 1159.35 716.189 1157.86 724.513 1156.2C723.851 1153.23 723.19 1150.26 722.528 1147.29C718.432 1148.11 714.326 1148.88 710.213 1149.62C709.319 1145.14 708.424 1140.67 707.53 1136.19C706.189 1129.48 704.848 1122.77 703.506 1116.06C694.803 1117.62 686.061 1118.98 677.291 1120.14C675.778 1110 674.265 1099.86 672.752 1089.71C647.944 1093.01 622.89 1094.66 597.837 1094.66L597.837 1048.85C563.65 1048.85 529.464 1045.47 496.028 1038.72C492.659 1053.65 489.29 1068.59 485.921 1083.53ZM542.751 1143.46C536.648 1142.92 530.554 1142.29 524.472 1141.58C523.873 1146.09 523.275 1150.61 522.678 1155.13C530.987 1156.11 539.318 1156.91 547.663 1157.57L547.659 1157.58C547.393 1160.6 547.127 1163.63 546.86 1166.65C555.337 1167.32 563.828 1167.82 572.326 1168.15C572.46 1165.11 572.593 1162.08 572.726 1159.05C568.544 1158.89 564.362 1158.68 560.184 1158.44C560.484 1153.89 560.784 1149.35 561.084 1144.8L561.085 1144.79C573.32 1145.51 585.578 1145.88 597.837 1145.88C597.837 1139.05 597.837 1132.22 597.837 1125.39C580.123 1125.39 562.409 1124.61 544.771 1123.06C544.098 1129.86 543.425 1136.66 542.751 1143.46ZM70.8084 828.272L70.7992 828.283C68.0041 829.561 65.2083 830.839 62.4126 832.117C65.9943 840.746 69.7656 849.209 73.7186 857.506C76.455 856.095 79.192 854.684 81.9284 853.274C79.9828 849.19 78.0819 845.066 76.2268 840.901C80.3773 838.883 84.5272 836.865 88.6777 834.848C83.2447 822.65 78.214 810.094 73.6084 797.18C69.335 798.89 65.0621 800.601 60.7887 802.311C63.9343 811.131 67.283 819.779 70.8084 828.272ZM43.2528 778.352C46.0479 787.644 49.0467 796.772 52.2425 805.732C55.0914 804.592 57.9403 803.451 60.7887 802.311C57.6431 793.491 54.6914 784.507 51.9403 775.36C49.0443 776.358 46.1489 777.354 43.2528 778.352ZM349.947 1118.86C357.725 1122.18 365.575 1125.33 373.491 1128.32C374.663 1125.5 375.834 1122.67 377.005 1119.85C369.213 1116.91 361.487 1113.8 353.831 1110.54C352.537 1113.31 351.242 1116.09 349.947 1118.86ZM25.6355 588.662L39.2851 588.662C39.2851 575.892 39.6136 563.341 40.2595 551.009C35.7145 550.702 31.1695 550.396 26.6245 550.089C25.9743 562.511 25.6416 575.151 25.6306 588.006L25.6306 588.001C25.6306 588.222 25.6245 588.44 25.6245 588.662L16.5186 588.662C16.5406 601.491 16.8825 614.112 17.5321 626.517C20.5621 626.312 23.592 626.108 26.622 625.903C25.9829 613.7 25.655 601.283 25.633 588.662M114.015 927.698C118.995 935 124.136 942.136 129.429 949.105C131.875 947.216 134.32 945.327 136.766 943.439C131.556 936.578 126.496 929.554 121.594 922.367C119.067 924.144 116.541 925.922 114.015 927.698ZM212.023 976.085C218.423 982.307 224.97 988.345 231.667 994.177C238.639 986.432 245.61 978.685 252.581 970.94C233.638 954.444 215.916 936.298 199.661 916.503C191.621 923.15 183.581 929.796 175.541 936.443C170.181 940.874 164.821 945.305 159.461 949.737C155.484 944.893 151.587 939.96 147.772 934.938C144.103 937.771 140.435 940.605 136.766 943.439C141.978 950.3 147.352 956.985 152.857 963.518L152.843 963.529C150.482 965.525 148.122 967.521 145.761 969.516C151.354 976.153 157.091 982.625 162.967 988.931C165.238 986.834 167.508 984.737 169.779 982.64C166.887 979.537 164.029 976.392 161.206 973.207C164.68 970.137 168.154 967.067 171.628 963.997L171.648 963.99C179.912 973.315 188.473 982.293 197.327 990.9C202.224 985.966 207.121 981.032 212.018 976.097L212.023 976.084L212.023 976.085ZM55.834 736.64C54.1942 729.645 52.6675 722.561 51.2626 715.386C46.8069 716.429 42.3518 717.473 37.8967 718.517C34.9267 719.213 31.9567 719.909 28.986 720.605C30.9365 730.561 33.1047 740.352 35.4846 749.976C38.421 749.127 41.3573 748.278 44.2931 747.429L44.3024 747.429C45.4724 752.163 46.6883 756.862 47.9623 761.515C52.3373 760.129 56.7122 758.743 61.0878 757.357L61.0964 757.357C64.8268 770.988 69.001 784.265 73.606 797.178C80.0152 794.612 86.425 792.046 92.8349 789.48C86.1798 770.819 80.4458 751.379 75.7106 731.163C69.0855 732.988 62.4598 734.813 55.834 736.638M125.9 903.725C131.67 899.857 137.44 895.988 143.211 892.119C138.194 884.344 133.369 876.374 128.745 868.209C137.597 862.909 146.449 857.608 155.301 852.308C168.387 875.414 183.173 896.88 199.437 916.685C211.497 906.716 223.557 896.746 235.617 886.776C224.526 873.27 214.186 858.92 204.69 843.726C224.324 830.921 243.959 818.116 263.593 805.311C293.034 786.109 322.476 766.908 351.918 747.708C376.389 786.858 409.825 817.041 448.117 838.269L543.428 639.638L344.55 735.065C322.466 694.864 309.398 646.063 309.198 588.661L205.477 588.661C205.55 617.232 207.971 644.234 212.475 669.674L212.464 669.681C189.825 674.518 167.187 679.356 144.549 684.193C151.725 724.714 163.415 761.845 178.845 795.611L178.83 795.618C164.965 802.509 151.1 809.401 137.236 816.293C131.583 803.921 126.388 791.137 121.681 777.94C112.066 781.789 102.452 785.638 92.8374 789.486C99.4931 808.149 107.077 826.027 115.499 843.134L115.491 843.14C109.369 846.387 103.247 849.633 97.1243 852.881C100.037 858.797 103.056 864.618 106.161 870.355L106.156 870.369C102.148 872.676 98.1402 874.984 94.1328 877.291C91.4606 878.828 88.789 880.366 86.1169 881.905C90.427 889.87 94.912 897.669 99.5647 905.302C102.167 903.642 104.768 901.982 107.37 900.322L107.373 900.313C109.663 904.071 111.99 907.793 114.362 911.47C118.209 908.891 122.055 906.312 125.903 903.732M197.33 990.908C194.065 994.198 190.8 997.487 187.535 1000.78C185.359 1002.97 183.183 1005.16 181.006 1007.36C187.152 1013.33 193.429 1019.14 199.83 1024.78C201.908 1022.5 203.986 1020.21 206.064 1017.93L206.074 1017.91C209.224 1020.69 212.394 1023.44 215.605 1026.14C218.647 1022.64 221.688 1019.15 224.729 1015.66C215.328 1007.77 206.187 999.517 197.33 990.908ZM1081.3 911.457C1077.46 908.88 1073.61 906.304 1069.77 903.727C1064 899.858 1058.23 895.99 1052.46 892.121L1052.45 892.104C1057.47 884.331 1062.3 876.373 1066.93 868.212C1058 862.863 1049.06 857.516 1040.13 852.169C1027.05 875.263 1012.27 896.707 996.011 916.503C1004.05 923.149 1012.09 929.796 1020.13 936.443C1025.49 940.874 1030.85 945.305 1036.21 949.736C1040.19 944.895 1044.07 939.955 1047.89 934.934L1047.9 934.941C1051.57 937.774 1055.24 940.607 1058.9 943.441C1064.11 936.591 1069.15 929.565 1074.04 922.389L1074.08 922.37C1076.6 924.147 1079.13 925.924 1081.66 927.701C1086.64 920.4 1091.46 912.932 1096.11 905.299C1093.51 903.639 1090.91 901.979 1088.3 900.319C1086.01 904.076 1083.67 907.786 1081.3 911.46M1049.91 969.518C1055.5 962.881 1060.95 956.077 1066.24 949.108C1063.8 947.218 1061.35 945.33 1058.9 943.441C1053.69 950.301 1048.33 956.998 1042.83 963.532C1045.19 965.527 1047.55 967.523 1049.91 969.518ZM964.003 994.179C957.093 986.503 950.184 978.825 943.275 971.148C962.23 954.643 979.969 936.497 996.234 916.69C984.174 906.72 972.114 896.75 960.054 886.78L960.048 886.773C971.138 873.267 981.485 858.924 990.981 843.731C971.347 830.925 951.712 818.12 932.078 805.315C902.626 786.107 873.175 766.9 843.723 747.692C816.996 790.455 779.579 822.527 736.816 843.909C753.463 874.641 770.109 905.373 786.756 936.105C806.131 926.418 824.694 915.107 842.185 902.19L842.193 902.197C856.547 920.693 870.902 939.189 885.256 957.685C894.767 969.94 904.277 982.194 913.788 994.449C903.736 1001.87 893.408 1008.88 882.836 1015.48C888.591 1024.13 894.346 1032.77 900.101 1041.42C915.051 1032.09 929.536 1021.97 943.488 1011.08L943.49 1011.09C947.877 1016.47 952.264 1021.85 956.651 1027.23C951.824 1030.99 946.934 1034.67 941.986 1038.26C944.791 1041.93 947.596 1045.61 950.402 1049.29C957.161 1044.39 963.802 1039.31 970.338 1034.08L970.35 1034.1C972.326 1036.47 974.302 1038.84 976.278 1041.2C982.919 1035.89 989.443 1030.42 995.844 1024.78C993.766 1022.49 991.688 1020.21 989.609 1017.92C986.459 1020.7 983.273 1023.43 980.061 1026.12C977.022 1022.64 973.983 1019.15 970.944 1015.66L970.936 1015.64C980.337 1007.75 989.486 999.514 998.344 990.904C993.447 985.97 988.55 981.036 983.653 976.101C977.253 982.322 970.7 988.348 964.003 994.179ZM1166.65 657.756C1169.67 658.13 1172.69 658.504 1175.7 658.877C1176.75 648.257 1177.57 637.471 1178.14 626.519C1175.11 626.314 1172.08 626.109 1169.05 625.905C1168.48 636.686 1167.68 647.302 1166.65 657.756ZM1024.04 963.999C1015.78 973.326 1007.2 982.295 998.344 990.904C1001.61 994.194 1004.87 997.484 1008.14 1000.77C1010.31 1002.97 1012.49 1005.16 1014.67 1007.35C1020.81 1001.38 1026.83 995.239 1032.7 988.933C1030.43 986.836 1028.16 984.74 1025.89 982.643L1025.89 982.631C1028.78 979.53 1031.64 976.394 1034.46 973.209C1030.99 970.139 1027.52 967.069 1024.04 963.999ZM1143.72 775.362L1143.73 775.362C1146.63 776.36 1149.52 777.357 1152.42 778.354C1155.22 769.062 1157.81 759.603 1160.19 749.979C1157.25 749.13 1154.31 748.28 1151.38 747.431C1150.21 752.168 1148.98 756.864 1147.71 761.519C1143.33 760.133 1138.96 758.747 1134.58 757.362C1130.85 770.993 1126.67 784.268 1122.07 797.182C1126.34 798.893 1130.61 800.604 1134.88 802.314C1138.03 793.496 1140.97 784.507 1143.72 775.362ZM1162.87 688.625C1163.61 683.561 1164.31 678.461 1164.94 673.315C1160.42 672.63 1155.91 671.947 1151.4 671.262C1144.63 670.236 1137.86 669.21 1131.09 668.184C1129.76 679.07 1128.16 689.761 1126.3 700.259C1116.24 698.109 1106.18 695.959 1096.12 693.809C1081.12 690.604 1066.12 687.398 1051.12 684.193C1043.95 724.71 1032.27 761.852 1016.84 795.616C1030.79 802.55 1044.75 809.486 1058.7 816.42C1064.35 804.043 1069.54 791.243 1074.25 778.04C1083.78 781.855 1093.31 785.67 1102.84 789.485C1109.49 770.823 1115.22 751.379 1119.95 731.162L1119.96 731.168C1126.59 732.994 1133.21 734.819 1139.84 736.645C1141.48 729.655 1142.99 722.568 1144.39 715.398L1144.41 715.389C1148.86 716.433 1153.32 717.477 1157.77 718.521C1160.74 719.217 1163.71 719.913 1166.69 720.608C1168.63 710.652 1170.37 700.53 1171.87 690.241C1168.88 689.704 1165.88 689.167 1162.88 688.629C1162.88 688.629 1162.87 688.623 1162.87 688.623M1133.26 832.118C1136.84 823.489 1140.24 814.694 1143.43 805.733C1140.58 804.593 1137.73 803.453 1134.88 802.312C1131.74 811.133 1128.4 819.79 1124.87 828.283C1127.67 829.562 1130.47 830.839 1133.26 832.118ZM1098.54 852.874C1095.63 858.794 1092.62 864.625 1089.52 870.364C1093.53 872.671 1097.53 874.979 1101.54 877.286C1104.21 878.824 1106.88 880.362 1109.56 881.9C1113.87 873.935 1118 865.804 1121.95 857.506C1119.22 856.096 1116.48 854.685 1113.75 853.274L1113.74 853.264C1115.69 849.183 1117.59 845.065 1119.45 840.901C1115.3 838.884 1111.15 836.866 1107 834.848L1106.99 834.842C1112.42 822.645 1117.46 810.094 1122.07 797.178C1115.66 794.613 1109.25 792.047 1102.84 789.481C1096.18 808.143 1088.6 826.027 1080.18 843.134C1086.3 846.379 1092.42 849.625 1098.54 852.872M601.284 875.966C648.229 875.463 695.051 864.784 736.782 843.918C738.543 843.038 740.291 842.132 742.034 841.216L617.811 659.569L601.284 875.966ZM458.857 843.906C442.213 874.636 425.567 905.365 408.922 936.095C389.545 926.407 370.973 915.112 353.48 902.194C339.125 920.69 324.771 939.187 310.417 957.683C300.847 970.014 291.278 982.344 281.708 994.675C291.767 1002.1 302.105 1009.11 312.683 1015.71C306.979 1024.28 301.276 1032.85 295.573 1041.42C310.523 1050.75 325.936 1059.29 341.732 1067.07L341.726 1067.08C338.475 1073.16 335.225 1079.25 331.974 1085.34C326.509 1082.65 321.088 1079.87 315.714 1077C313.415 1080.99 311.115 1084.98 308.816 1088.98C307.282 1091.64 305.749 1094.3 304.216 1096.96C311.673 1100.94 319.218 1104.76 326.841 1108.41C328.257 1105.69 329.671 1102.97 331.087 1100.25L331.096 1100.24C334.846 1102.04 338.613 1103.8 342.402 1105.51C344.435 1101.39 346.467 1097.27 348.5 1093.14L348.502 1093.13C359.605 1098.15 370.867 1102.83 382.277 1107.14C384.912 1100.78 387.548 1094.42 390.183 1088.07C381.941 1084.96 373.775 1081.65 365.696 1078.15C370.115 1068.81 374.535 1059.47 378.954 1050.12C385.543 1036.19 392.131 1022.26 398.72 1008.33L398.725 1008.32C414.318 1015.08 430.282 1020.99 446.53 1026.06C454.087 1004.14 461.643 982.234 469.199 960.323L469.202 960.316C510.646 973.234 554.24 979.7 597.837 979.7C597.837 945.125 597.837 910.552 597.837 875.979C549.729 875.979 501.62 865.287 458.857 843.906ZM805.483 1088.06C813.726 1084.95 821.897 1081.65 829.978 1078.15C825.558 1068.81 821.139 1059.47 816.719 1050.12C810.13 1036.19 803.541 1022.26 796.953 1008.33C781.36 1015.08 765.392 1020.99 749.143 1026.06C741.587 1004.14 734.03 982.233 726.474 960.323C685.03 973.241 641.433 979.7 597.837 979.7C597.837 1002.75 597.837 1025.8 597.837 1048.85C632.02 1048.85 666.2 1045.46 699.633 1038.71L699.646 1038.72C703.036 1053.75 706.426 1068.77 709.815 1083.8C722.073 1081.33 734.237 1078.43 746.282 1075.13C749.251 1084.89 752.221 1094.64 755.189 1104.4C757.186 1110.96 759.183 1117.52 761.181 1124.09C755.29 1125.7 749.373 1127.23 743.433 1128.66C744.62 1133.07 745.806 1137.49 746.994 1141.9C747.784 1144.84 748.576 1147.78 749.367 1150.72C757.611 1148.73 765.81 1146.58 773.96 1144.25C773.04 1141.34 772.12 1138.44 771.201 1135.53L771.209 1135.51C775.215 1134.37 779.213 1133.2 783.194 1131.98C781.719 1127.64 780.244 1123.31 778.769 1118.97L778.787 1118.95C790.448 1115.37 801.995 1111.44 813.397 1107.14C810.761 1100.78 808.126 1094.42 805.49 1088.07L805.483 1088.06ZM239.022 1027.23C243.849 1030.99 248.743 1034.66 253.692 1038.25L253.687 1038.26C250.882 1041.93 248.077 1045.61 245.272 1049.28C252.029 1054.18 258.902 1058.9 265.868 1063.48L265.865 1063.49C264.104 1066.02 262.343 1068.55 260.582 1071.07C267.661 1075.72 274.84 1080.2 282.115 1084.51C283.763 1081.92 285.412 1079.32 287.061 1076.72C283.48 1074.6 279.923 1072.44 276.39 1070.23C278.948 1066.39 281.506 1062.55 284.063 1058.71C287.9 1052.94 291.736 1047.18 295.573 1041.42C280.623 1032.08 266.135 1021.98 252.184 1011.09C247.797 1016.47 243.41 1021.85 239.022 1027.23ZM863.699 1085.34C869.165 1082.65 874.581 1079.86 879.955 1076.99L879.959 1077C882.258 1080.99 884.558 1084.98 886.858 1088.98C888.391 1091.64 889.924 1094.3 891.457 1096.96C898.914 1092.98 906.284 1088.83 913.558 1084.51C911.91 1081.92 910.261 1079.32 908.613 1076.72L908.604 1076.71C912.184 1074.59 915.751 1072.44 919.283 1070.23C916.725 1066.39 914.168 1062.55 911.61 1058.71C907.774 1052.94 903.938 1047.18 900.101 1041.42C885.151 1050.75 869.742 1059.3 853.947 1067.07C857.198 1073.16 860.448 1079.25 863.699 1085.34ZM935.091 1071.07C942.169 1066.43 949.145 1061.61 956.012 1056.63C954.142 1054.18 952.272 1051.73 950.402 1049.28C943.643 1054.18 936.776 1058.92 929.809 1063.49C931.57 1066.02 933.331 1068.55 935.091 1071.07ZM219.396 1041.2C226.037 1046.51 232.794 1051.66 239.661 1056.63C241.531 1054.18 243.402 1051.73 245.272 1049.28C238.512 1044.38 231.861 1039.32 225.324 1034.09C223.348 1036.46 221.371 1038.83 219.396 1041.2ZM886.439 588.76L672.264 605.117L854.08 729.457C874.335 690.376 886.236 643.477 886.439 588.76Z" fill="white"/>
<path d="M309.194 588.735L439.451 598.683L465.296 600.656L523.528 605.103L473.639 639.221L451.614 654.284L341.592 729.527C342.56 731.391 343.548 733.237 344.553 735.066L463.928 677.787L487.835 666.315L543.461 639.624L536.09 654.986L516.713 695.37L505.225 719.312L448.151 838.26C449.995 839.282 451.85 840.284 453.716 841.264L528.453 731.979L543.49 709.993L577.982 659.557L582.568 719.611L584.57 745.816L594.509 875.96C595.617 875.971 596.726 875.977 597.836 875.977C598.996 875.977 600.156 875.97 601.317 875.958L611.257 745.805L613.259 719.597L617.844 659.555L652.304 709.944L667.337 731.926L742.069 841.204C743.937 840.221 745.796 839.218 747.643 838.192L690.564 719.233L679.074 695.288L659.908 655.343L652.366 639.625L707.875 666.26L731.779 677.73L851.151 735.007C852.158 733.171 853.15 731.32 854.119 729.448L744.092 654.203L722.063 639.137L672.298 605.103L730.374 600.669L756.22 598.694L886.476 588.746C886.478 588.296 886.484 587.849 886.484 587.398L886.476 587.398C886.476 587.374 886.476 587.352 886.476 587.328C886.468 585.406 886.442 583.496 886.407 581.593L755.826 571.621L670.389 565.096C672.213 571.587 673.191 578.432 673.191 585.506C673.191 597.765 670.259 609.338 665.061 619.565C652.63 644.025 627.23 660.785 597.913 660.785C556.338 660.785 522.634 627.082 522.634 585.506C522.634 578.432 523.612 571.587 525.436 565.096L439.843 571.633L309.264 581.605C309.228 583.504 309.202 585.41 309.194 587.328C309.194 587.352 309.194 587.374 309.194 587.398L309.187 587.398C309.187 587.845 309.193 588.289 309.194 588.735Z" fill="#03BFA5"/>
</g>
</svg>
