<svg width="6324" height="479" viewBox="0 0 6324 479" fill="none" xmlns="http://www.w3.org/2000/svg">
<path d="M2235.51 133.38C2245.95 133.38 2258.1 134.73 2271.96 137.43C2286 140.13 2296.26 143.01 2302.74 146.07V203.58H2277.09C2263.23 177.48 2244.15 164.43 2219.85 164.43C2209.95 164.43 2200.86 167.58 2192.58 173.88C2184.3 180.18 2177.73 188.82 2172.87 199.8C2168.19 210.78 2165.85 223.11 2165.85 236.79C2165.85 252.27 2168.19 266.49 2172.87 279.45C2177.73 292.23 2185.02 302.49 2194.74 310.23C2204.46 317.79 2216.52 321.57 2230.92 321.57C2247.3 321.57 2270.61 312.57 2300.85 294.57L2311.65 311.85L2261.97 350.46C2254.05 352.8 2246.4 354.33 2239.02 355.05C2231.82 355.95 2224.08 356.4 2215.8 356.4C2195.64 356.4 2177.73 351.81 2162.07 342.63C2146.41 333.45 2134.26 320.85 2125.62 304.83C2116.98 288.63 2112.66 270.27 2112.66 249.75C2112.66 228.69 2119.14 209.25 2132.1 191.43C2145.06 173.43 2161.17 159.3 2180.43 149.04C2199.69 138.6 2218.05 133.38 2235.51 133.38ZM2563 351H2462.56V335.88L2491.99 318.33L2475.52 278.1H2392.09L2377.24 314.28L2418.55 333.45L2409.91 351H2322.7V335.88L2351.86 314.01L2420.98 147.42L2467.69 133.65L2544.37 319.68L2571.91 333.45L2563 351ZM2434.21 176.31L2400.73 257.31H2467.15L2434.21 176.31ZM2691.79 245.43C2701.33 245.43 2708.89 242.1 2714.47 235.44C2720.05 228.78 2722.84 219.6 2722.84 207.9C2722.84 193.68 2719.42 182.16 2712.58 173.34C2705.74 164.34 2695.66 159.84 2682.34 159.84C2673.52 159.84 2665.24 162.54 2657.5 167.94V323.19L2704.48 333.45L2695.57 351H2583.25V335.88L2608.63 315.9V165.51L2578.66 156.33L2587.57 138.78H2632.39C2648.41 138.78 2664.16 138.24 2679.64 137.16C2691.16 136.44 2699.62 136.08 2705.02 136.08C2719.06 136.08 2731.48 138.87 2742.28 144.45C2753.08 149.85 2761.45 157.32 2767.39 166.86C2773.33 176.4 2776.3 187.02 2776.3 198.72C2776.3 211.68 2771.35 223.83 2761.45 235.17C2751.55 246.51 2739.04 255.42 2723.92 261.9C2708.8 268.38 2694.04 271.26 2679.64 270.54L2667.76 263.25L2676.67 245.7H2691.79V245.43ZM2905.63 245.43C2915.17 245.43 2922.73 242.1 2928.31 235.44C2933.89 228.78 2936.68 219.6 2936.68 207.9C2936.68 193.68 2933.26 182.16 2926.42 173.34C2919.58 164.34 2909.5 159.84 2896.18 159.84C2887.36 159.84 2879.08 162.54 2871.34 167.94V323.19L2918.32 333.45L2909.41 351H2797.09V335.88L2822.47 315.9V165.51L2792.5 156.33L2801.41 138.78H2846.23C2862.25 138.78 2878 138.24 2893.48 137.16C2905 136.44 2913.46 136.08 2918.86 136.08C2932.9 136.08 2945.32 138.87 2956.12 144.45C2966.92 149.85 2975.29 157.32 2981.23 166.86C2987.17 176.4 2990.14 187.02 2990.14 198.72C2990.14 211.68 2985.19 223.83 2975.29 235.17C2965.39 246.51 2952.88 255.42 2937.76 261.9C2922.64 268.38 2907.88 271.26 2893.48 270.54L2881.6 263.25L2890.51 245.7H2905.63V245.43ZM3181.57 351.27H3010.93V336.15L3036.31 316.17V165.24L3006.34 156.33L3015.25 138.78H3178.87L3198.31 133.92V202.77L3183.46 208.71L3150.25 159.3H3085.18V232.2H3117.31L3137.02 201.96H3152.14V280.53L3134.59 289.44L3117.04 252.99H3085.18V330.48H3148.09L3186.16 275.4L3201.01 281.61V356.13L3181.57 351.27ZM3404.67 351H3232.41V335.88L3257.79 315.9V164.16L3227.82 156.33L3236.73 138.78H3332.31V153.9L3306.66 173.88V330.48H3367.41L3409.26 270L3424.11 276.21V355.86L3404.67 351ZM3619.83 351H3447.57V335.88L3472.95 315.9V164.16L3442.98 156.33L3451.89 138.78H3547.47V153.9L3521.82 173.88V330.48H3582.57L3624.42 270L3639.27 276.21V355.86L3619.83 351ZM3889.79 351H3789.35V335.88L3818.78 318.33L3802.31 278.1H3718.88L3704.03 314.28L3745.34 333.45L3736.7 351H3649.49V335.88L3678.65 314.01L3747.77 147.42L3794.48 133.65L3871.16 319.68L3898.7 333.45L3889.79 351ZM3761 176.31L3727.52 257.31H3793.94L3761 176.31ZM4188.5 208.17L4173.65 214.11L4135.58 159.3H4110.47V325.62L4140.71 333.45L4131.8 351H4036.22V335.88L4061.6 315.9V159.3H4037.57L3999.5 214.11L3984.65 208.17V133.92L4004.09 138.78H4169.06L4188.5 133.92V208.17ZM4422.51 351H4363.92L4311.81 257.58L4299.93 250.29L4306.68 237.06H4319.1C4328.82 237.06 4336.47 234.09 4342.05 228.15C4347.63 222.21 4350.42 213.84 4350.42 203.04C4350.42 190.44 4347 180.18 4340.16 172.26C4333.5 164.16 4323.69 160.11 4310.73 160.11C4302.63 160.11 4295.07 162.63 4288.05 167.67V325.08L4318.02 333.72L4309.38 351.27H4213.8V336.15L4239.18 314.82V164.97L4209.21 156.6L4218.12 139.05H4262.94C4278.6 139.05 4293.99 138.51 4309.11 137.43C4319.91 136.71 4328.01 136.35 4333.41 136.35C4347.27 136.35 4359.51 138.87 4370.13 143.91C4380.93 148.77 4389.21 155.43 4394.97 163.89C4400.91 172.35 4403.88 181.8 4403.88 192.24C4403.88 204.84 4398.3 216.54 4387.14 227.34C4375.98 238.14 4362.39 246.24 4346.37 251.64L4367.97 257.85L4403.07 320.49L4431.15 333.45L4422.51 351ZM4669.21 351H4568.77V335.88L4598.2 318.33L4581.73 278.1H4498.3L4483.45 314.28L4524.76 333.45L4516.12 351H4428.91V335.88L4458.07 314.01L4527.19 147.42L4573.9 133.65L4650.58 319.68L4678.12 333.45L4669.21 351ZM4540.42 176.31L4506.94 257.31H4573.36L4540.42 176.31ZM4860.38 176.04L4791.26 342.36L4744.82 356.13L4668.14 170.1L4640.6 156.33L4649.24 138.78H4749.95V153.9L4720.52 171.45L4778.57 313.47L4835.54 175.77L4794.23 156.33L4802.87 138.78H4890.08L4889.81 153.9L4860.38 176.04ZM5073.68 351.27H4903.04V336.15L4928.42 316.17V165.24L4898.45 156.33L4907.36 138.78H5070.98L5090.42 133.92V202.77L5075.57 208.71L5042.36 159.3H4977.29V232.2H5009.42L5029.13 201.96H5044.25V280.53L5026.7 289.44L5009.15 252.99H4977.29V330.48H5040.2L5078.27 275.4L5093.12 281.61V356.13L5073.68 351.27ZM5296.78 351H5124.52V335.88L5149.9 315.9V164.16L5119.93 156.33L5128.84 138.78H5224.42V153.9L5198.77 173.88V330.48H5259.52L5301.37 270L5316.22 276.21V355.86L5296.78 351Z" fill="white"/>
<path d="M1983.36 70H1643.36V296.666C1643.36 359.249 1694.11 410 1756.69 410H1983.36V296.666H1870.02C1932.63 296.666 1983.36 245.916 1983.36 183.333H1870.02C1932.63 183.333 1983.36 132.583 1983.36 70Z" fill="white"/>
<path d="M1511.09 70H1284.43V410H1397.76V296.666C1397.76 359.249 1448.51 410 1511.09 410H1624.43V296.666H1511.09C1573.7 296.666 1624.43 245.916 1624.43 183.333C1624.43 120.751 1573.7 70 1511.09 70Z" fill="white"/>
<path d="M1152.24 70H1038.9C976.324 70 925.573 120.751 925.573 183.333H1038.9C976.324 183.333 925.573 234.084 925.573 296.666C925.573 359.249 976.324 410 1038.9 410H1152.24V296.666C1152.24 359.249 1202.99 410 1265.57 410V183.333C1265.57 120.751 1214.82 70 1152.24 70Z" fill="white"/>
<path d="M453.334 70V296.666C453.334 359.249 402.583 410 340 410C277.418 410 226.667 359.249 226.667 296.666C226.667 359.249 175.916 410 113.334 410C50.7506 410 0 359.249 0 296.666V70H113.334V183.333C113.334 120.751 164.084 70 226.667 70C289.25 70 340 120.751 340 183.333C340 120.751 390.751 70 453.334 70Z" fill="white"/>
<path d="M812.214 70H472.214V296.666C472.214 359.249 522.965 410 585.548 410H812.214V296.666H698.881C761.464 296.666 812.214 245.916 812.214 183.333H698.881C761.464 183.333 812.214 132.583 812.214 70Z" fill="white"/>
</svg>
