<svg width="2560" height="238" viewBox="0 0 2560 238" fill="none" xmlns="http://www.w3.org/2000/svg">
<g clip-path="url(#clip0_8_306)">
<path d="M2556.51 -1422.96L2556.51 -1376.97L2567.48 -1376.97L2567.48 -1306.97L2597.13 -1306.97L2597.13 -1376.97L2576.32 -1376.97L2576.32 -1422.96L2556.51 -1422.96ZM2516.89 -1422.96L2516.89 -1376.97L2508.17 -1376.97L2508.17 -1306.97L2506.19 -1306.97L2506.19 -1201.97L2460.72 -1201.97L2460.72 -1306.97L2478.52 -1306.97L2478.52 -1376.97L2496.08 -1376.97L2496.08 -1422.96L2476.27 -1422.96L2476.27 -1376.97L2456.46 -1376.97L2456.46 -1422.96L2436.65 -1422.96L2436.65 -1376.97L2448.86 -1376.97L2448.86 -1306.97L2419.21 -1306.97L2419.21 -1376.97L2415.84 -1376.97L2415.84 -1422.96L2396.03 -1422.96L2396.03 -1376.97L2389.55 -1376.97L2389.55 -1306.97L2415.25 -1306.97L2415.25 -1201.97L2445.57 -1201.97L2445.57 -1045.92L2420.3 -1045.92L2420.3 -809.66L2521.35 -809.66L2521.35 -1045.92L2521.35 -1201.97L2551.67 -1201.97L2551.67 -1306.97L2537.82 -1306.97L2537.82 -1376.97L2536.7 -1376.97L2536.7 -1422.96L2516.89 -1422.96ZM2356.41 -1422.97L2356.41 -1376.97L2335.59 -1376.97L2335.59 -1422.97L2315.78 -1422.97L2315.78 -1376.97L2330.24 -1376.97L2330.24 -1306.97L2324.31 -1306.97L2324.31 -1201.97L2294 -1201.97L2294 -1045.92L2218.21 -1045.92L2218.21 -809.66L2218.21 -455.274L2142.42 -455.274L2142.42 76.3074L2154.3 76.3074L2154.3 162.944L2006.69 162.944L2006.69 249.586L2006.67 249.586L2006.67 379.542L1785.27 379.542L1785.27 509.503L1951.3 509.503L1951.3 704.441L2117.36 704.441L2117.36 879.001L2449.49 879.001L2449.49 704.441L2283.43 704.441L2283.43 509.503L2449.49 509.503L2449.49 379.542L2228.09 379.542L2228.09 509.503L2006.67 509.503L2006.67 379.542L2228.09 379.542L2228.09 249.586L2154.3 249.586L2154.3 162.944L2301.91 162.944L2301.91 76.3074L2369.78 76.3074L2369.78 -455.274L2369.78 -809.66L2319.26 -809.66L2319.26 -1045.92L2369.78 -1045.92L2369.78 -1201.97L2369.78 -1306.97L2359.89 -1306.97L2359.89 -1376.97L2376.22 -1376.97L2376.22 -1422.96L2356.41 -1422.97ZM2276.16 -1422.97L2276.16 -1376.97L2270.93 -1376.97L2270.93 -1306.97L2241.28 -1306.97L2241.28 -1376.97L2255.35 -1376.97L2255.35 -1422.97L2235.54 -1422.97L2235.54 -1376.97L2215.73 -1376.97L2215.73 -1422.97L2195.92 -1422.97L2195.92 -1376.97L2211.62 -1376.97L2211.62 -1306.97L2233.37 -1306.97L2233.37 -1201.97L2278.84 -1201.97L2278.84 -1306.97L2300.58 -1306.97L2300.58 -1376.97L2295.97 -1376.97L2295.97 -1422.97L2276.16 -1422.97ZM2155.3 -1422.97L2155.3 -1376.97L2152.31 -1376.97L2152.31 -1306.97L2142.42 -1306.97L2142.42 -1201.97L2142.42 -1045.92L2218.21 -1045.92L2218.21 -1201.97L2187.9 -1201.97L2187.9 -1306.97L2181.97 -1306.97L2181.97 -1376.97L2175.11 -1376.97L2175.11 -1422.97L2155.3 -1422.97ZM2115.68 -1422.97L2115.68 -1376.97L2094.87 -1376.97L2094.87 -1422.97L2075.06 -1422.97L2075.06 -1376.97L2093 -1376.97L2093 -1306.97L2063.34 -1306.97L2063.34 -1376.97L2055.25 -1376.97L2055.25 -1422.97L2035.43 -1422.97L2035.43 -1376.97L2033.69 -1376.97L2033.69 -1306.97L2051.48 -1306.97L2051.48 -1201.97L2006.01 -1201.97L2006.01 -1306.97L2004.04 -1306.97L2004.04 -1376.97L2014.62 -1376.97L2014.62 -1422.97L1994.81 -1422.97L1994.81 -1376.97L1975 -1376.97L1975 -1422.97L1955.19 -1422.97L1955.19 -1376.97L1974.38 -1376.97L1974.38 -1306.97L1960.54 -1306.97L1960.54 -1201.97L1990.86 -1201.97L1990.86 -1045.92L2016.12 -1045.92L2016.12 -809.66L1915.07 -809.66L1915.07 -455.274L2066.64 -455.274L2066.64 -809.66L2117.16 -809.66L2117.16 -1045.92L2066.64 -1045.92L2066.64 -1201.97L2096.95 -1201.97L2096.95 -1306.97L2122.66 -1306.97L2122.66 -1376.97L2135.49 -1376.97L2135.49 -1422.97L2115.68 -1422.97ZM1914.57 -1422.97L1914.57 -1376.97L1915.07 -1376.97L1915.07 -1306.97L1885.42 -1306.97L1885.42 -1376.97L1894.76 -1376.97L1894.76 -1422.97L1874.95 -1422.97L1874.95 -1376.97L1855.76 -1376.97L1855.76 -1306.97L1869.6 -1306.97L1869.6 -1201.97L1839.29 -1201.97L1839.29 -1045.92L1814.02 -1045.92L1814.02 -809.66L1915.07 -809.66L1915.07 -1045.92L1915.07 -1201.97L1915.07 -1306.97L1944.73 -1306.97L1944.73 -1376.97L1934.38 -1376.97L1934.38 -1422.97L1914.57 -1422.97ZM1834.33 -1376.97L1854.14 -1376.97L1854.14 -1422.97L1834.33 -1422.97L1834.33 -1376.97ZM1794.71 -1422.97L1794.71 -1376.97L1796.45 -1376.97L1796.45 -1306.97L1778.66 -1306.97L1778.66 -1201.97L1824.13 -1201.97L1824.13 -1306.97L1826.11 -1306.97L1826.11 -1376.97L1814.52 -1376.97L1814.52 -1422.97L1794.71 -1422.97ZM1754.09 -1422.97L1754.09 -1376.97L1737.14 -1376.97L1737.14 -1306.97L1766.8 -1306.97L1766.8 -1376.97L1773.89 -1376.97L1773.89 -1422.97L1754.09 -1422.97ZM1714.46 -1376.97L1734.27 -1376.97L1734.27 -1422.97L1714.46 -1422.97L1714.46 -1376.97ZM1673.84 -1422.97L1673.84 -1376.97L1677.83 -1376.97L1677.83 -1306.97L1687.72 -1306.97L1687.72 -1201.97L1687.72 -1045.92L1611.93 -1045.92L1611.93 -809.66L1611.93 -455.274L1687.72 -455.274L1687.72 76.3073L1563.86 76.3073L1563.86 162.944L1416.25 162.944L1416.25 249.586L1563.86 249.586L1563.86 379.542L1785.27 379.542L1785.27 249.586L1859.08 249.586L1859.08 162.944L2006.69 162.944L2006.69 76.3074L1915.07 76.3074L1915.07 -455.274L1763.5 -455.274L1763.5 -809.66L1712.98 -809.66L1712.98 -1045.92L1763.5 -1045.92L1763.5 -1201.97L1733.19 -1201.97L1733.19 -1306.97L1707.49 -1306.97L1707.49 -1376.97L1693.65 -1376.97L1693.65 -1422.97L1673.84 -1422.97ZM1711.47 76.3073L1859.08 76.3073L1859.08 162.944L1711.47 162.946L1711.47 76.3073ZM1711.47 162.946L1711.47 249.586L1563.86 249.586L1563.86 162.944L1711.47 162.946ZM1634.22 -1422.97L1634.22 -1376.97L1618.52 -1376.97L1618.52 -1306.97L1596.77 -1306.97L1596.77 -1201.97L1551.3 -1201.97L1551.3 -1306.97L1529.55 -1306.97L1529.55 -1376.97L1533.17 -1376.97L1533.17 -1422.97L1513.36 -1422.97L1513.36 -1376.97L1499.9 -1376.97L1499.9 -1306.97L1505.83 -1306.97L1505.83 -1201.97L1536.15 -1201.97L1536.15 -1045.92L1611.93 -1045.92L1611.93 -1201.97L1642.25 -1201.97L1642.25 -1306.97L1648.18 -1306.97L1648.18 -1376.97L1654.03 -1376.97L1654.03 -1422.97L1634.22 -1422.97ZM1593.6 -1376.97L1613.41 -1376.97L1613.41 -1422.97L1593.6 -1422.97L1593.6 -1376.97ZM1553.98 -1422.97L1553.98 -1376.97L1559.21 -1376.97L1559.21 -1306.97L1588.87 -1306.97L1588.87 -1376.97L1573.79 -1376.97L1573.79 -1422.97L1553.98 -1422.97ZM1473.73 -1376.97L1493.55 -1376.97L1493.55 -1422.97L1473.73 -1422.97L1473.73 -1376.97ZM1433.11 -1422.97L1433.11 -1376.97L1440.59 -1376.97L1440.59 -1306.97L1414.89 -1306.97L1414.89 -1201.97L1384.58 -1201.97L1384.58 -1045.92L1409.84 -1045.92L1409.84 -809.66L1308.79 -809.66L1308.79 -455.274L1233.01 -455.274L1233.01 76.3072L1089.36 76.3072L1089.36 162.944L941.753 162.944L941.753 249.585L1089.33 249.585L1089.33 379.542L867.922 379.542L867.922 509.503L646.443 509.503L646.443 379.542L867.922 379.542L867.922 249.585L794.142 249.585L794.142 162.944L941.753 162.944L941.753 76.3072L1005.65 76.3072L1005.65 -455.274L1005.65 -809.66L955.128 -809.66L955.128 -1045.92L1005.65 -1045.92L1005.65 -1201.97L1005.65 -1306.97L995.769 -1306.97L995.769 -1376.97L1012.09 -1376.97L1012.09 -1422.97L992.278 -1422.97L992.278 -1376.97L971.466 -1376.97L971.466 -1422.97L951.656 -1422.97L951.656 -1376.97L966.112 -1376.97L966.112 -1306.97L960.182 -1306.97L960.182 -1201.97L929.869 -1201.97L929.869 -1045.92L854.083 -1045.92L854.083 -809.66L854.083 -455.274L778.297 -455.274L778.297 76.3072L794.142 76.3072L794.142 162.944L646.533 162.944L646.533 249.585L535.81 249.585L535.81 379.542L425.105 379.542L425.105 509.503L425.039 509.503L425.039 704.441L258.978 704.441L258.978 509.503L203.961 509.503L203.961 379.542L425.105 379.542L425.105 249.585L498.924 249.585L498.924 162.944L351.312 162.944L351.312 249.585L203.961 249.585L203.961 379.542L-17.7122 379.542L-17.7122 249.585L-270.954 249.585L-270.954 379.542L-492.362 379.542L-492.363 509.503L-713.771 509.503L-713.771 379.542L-492.362 379.542L-492.362 249.585L-566.172 249.585L-566.172 162.944L-713.786 162.944L-713.786 249.585L-713.765 249.585L-713.765 379.542L-935.173 379.542L-935.173 509.503L-769.095 509.503L-769.095 704.441L-603.034 704.441L-603.034 879L-122.077 879L-122.077 704.441L92.9228 704.441L92.9227 879L425.045 879L425.045 704.441L757.17 704.441L757.17 879L1089.29 879L1089.29 704.441L923.231 704.441L923.231 509.503L1089.29 509.503L1089.29 704.441L1453.12 704.441L1453.12 879.001L1785.25 879.001L1785.25 704.441L1619.06 704.441L1619.06 509.503L1563.86 509.503L1563.86 379.542L1342.46 379.542L1342.46 509.503L1089.34 509.503L1089.34 379.542L1342.46 379.542L1342.46 249.586L1342.46 162.944L1416.26 162.944L1416.26 76.3073L1460.37 76.3073L1460.37 -455.274L1460.37 -809.66L1510.89 -809.66L1510.89 -1045.92L1460.37 -1045.92L1460.37 -1201.97L1460.37 -1306.97L1470.25 -1306.97L1470.25 -1376.97L1452.93 -1376.97L1452.93 -1422.97L1433.12 -1422.97L1433.11 -1422.97ZM1236.97 249.585L1089.36 249.585L1089.36 162.946L1236.97 162.946L1236.97 249.585ZM-121.735 379.542L-121.735 509.503L-122.083 509.503L-122.083 704.441L-436.981 704.441L-436.981 509.503L-270.954 509.503L-270.954 379.542L-121.735 379.542ZM1393.49 -1422.97L1393.49 -1376.97L1381.28 -1376.97L1381.28 -1306.97L1410.94 -1306.97L1410.94 -1376.97L1413.3 -1376.97L1413.3 -1422.97L1393.49 -1422.97ZM1352.87 -1376.97L1372.68 -1376.97L1372.68 -1422.97L1352.87 -1422.97L1352.87 -1376.97ZM1313.25 -1422.97L1313.25 -1376.97L1321.97 -1376.97L1321.97 -1306.97L1323.95 -1306.97L1323.95 -1201.97L1369.42 -1201.97L1369.42 -1306.97L1351.63 -1306.97L1351.63 -1376.97L1333.06 -1376.97L1333.06 -1422.97L1313.25 -1422.97ZM1272.63 -1422.97L1272.63 -1376.97L1262.66 -1376.97L1262.66 -1306.97L1233.01 -1306.97L1233.01 -1201.97L1233.01 -1045.92L1233.01 -809.66L1308.79 -809.66L1308.79 -1045.92L1308.79 -1201.97L1278.48 -1201.97L1278.48 -1306.97L1292.32 -1306.97L1292.32 -1376.97L1292.44 -1376.97L1292.44 -1422.97L1272.63 -1422.97ZM1233.01 -1422.97L1233.01 -1376.97L1212.19 -1376.97L1212.19 -1422.97L1192.38 -1422.97L1192.38 -1376.97L1203.35 -1376.97L1203.35 -1306.97L1233.01 -1306.97L1233.01 -1376.97L1252.82 -1376.97L1252.82 -1422.97L1233.01 -1422.97ZM1152.76 -1422.97L1152.76 -1376.97L1144.04 -1376.97L1144.04 -1306.97L1142.07 -1306.97L1142.07 -1201.97L1096.59 -1201.97L1096.59 -1306.97L1114.39 -1306.97L1114.39 -1376.97L1131.95 -1376.97L1131.95 -1422.97L1112.14 -1422.97L1112.14 -1376.97L1092.33 -1376.97L1092.33 -1422.97L1072.52 -1422.97L1072.52 -1376.97L1084.73 -1376.97L1084.73 -1306.97L1055.08 -1306.97L1055.08 -1376.97L1051.71 -1376.97L1051.71 -1422.97L1031.9 -1422.97L1031.9 -1376.97L1025.42 -1376.97L1025.42 -1306.97L1051.12 -1306.97L1051.12 -1201.97L1081.44 -1201.97L1081.44 -1045.92L1056.18 -1045.92L1056.18 -809.66L1157.22 -809.66L1157.22 -1045.92L1157.22 -1201.97L1187.54 -1201.97L1187.54 -1306.97L1173.7 -1306.97L1173.7 -1376.97L1172.57 -1376.97L1172.57 -1422.97L1152.76 -1422.97ZM912.035 -1422.97L912.035 -1376.97L906.802 -1376.97L906.802 -1306.97L877.147 -1306.97L877.147 -1376.97L891.223 -1376.97L891.223 -1422.97L871.414 -1422.97L871.414 -1376.97L851.604 -1376.97L851.604 -1422.97L831.792 -1422.97L831.792 -1376.97L847.493 -1376.97L847.493 -1306.97L869.237 -1306.97L869.237 -1201.97L914.71 -1201.97L914.71 -1306.97L936.457 -1306.97L936.457 -1376.97L931.847 -1376.97L931.847 -1422.97L912.035 -1422.97ZM791.171 -1422.97L791.171 -1376.97L788.183 -1376.97L788.183 -1306.97L778.297 -1306.97L778.297 -1201.97L778.297 -1045.92L854.083 -1045.92L854.083 -1201.97L823.769 -1201.97L823.769 -1306.97L817.838 -1306.97L817.838 -1376.97L810.981 -1376.97L810.981 -1422.97L791.171 -1422.97ZM751.55 -1422.97L751.55 -1376.97L730.738 -1376.97L730.738 -1422.97L710.928 -1422.97L710.928 -1376.97L728.873 -1376.97L728.873 -1306.97L699.218 -1306.97L699.218 -1376.97L691.119 -1376.97L691.119 -1422.97L671.307 -1422.97L671.307 -1376.97L669.561 -1376.97L669.561 -1306.97L687.357 -1306.97L687.357 -1201.97L641.884 -1201.97L641.884 -1306.97L639.906 -1306.97L639.906 -1376.97L650.495 -1376.97L650.495 -1422.97L630.686 -1422.97L630.686 -1376.97L610.876 -1376.97L610.876 -1422.97L591.064 -1422.97L591.064 -1376.97L610.254 -1376.97L610.254 -1306.97L596.414 -1306.97L596.414 -1201.97L626.728 -1201.97L626.728 -1045.92L651.989 -1045.92L651.989 -809.66L550.944 -809.66L550.944 -455.274L702.513 -455.274L702.513 -809.66L753.035 -809.66L753.035 -1045.92L702.513 -1045.92L702.513 -1201.97L732.825 -1201.97L732.825 -1306.97L758.528 -1306.97L758.528 -1376.97L771.362 -1376.97L771.362 -1422.97L751.55 -1422.97ZM550.443 -1422.97L550.443 -1376.97L550.944 -1376.97L550.944 -1306.97L521.289 -1306.97L521.289 -1376.97L530.633 -1376.97L530.633 -1422.97L510.821 -1422.97L510.821 -1376.97L491.634 -1376.97L491.634 -1306.97L505.472 -1306.97L505.471 -1201.97L475.158 -1201.97L475.158 -1045.92L449.896 -1045.92L449.896 -809.66L550.944 -809.66L550.944 -1045.92L550.944 -1201.97L550.944 -1306.97L580.599 -1306.97L580.599 -1376.97L570.253 -1376.97L570.253 -1422.97L550.443 -1422.97ZM470.2 -1376.97L490.01 -1376.97L490.01 -1422.97L470.2 -1422.97L470.2 -1376.97ZM430.579 -1422.97L430.579 -1376.97L432.322 -1376.97L432.322 -1306.97L414.531 -1306.97L414.531 -1201.97L460.001 -1201.97L460.001 -1306.97L461.979 -1306.97L461.979 -1376.97L450.391 -1376.97L450.391 -1422.97L430.579 -1422.97ZM389.958 -1422.97L389.958 -1376.97L373.013 -1376.97L373.013 -1306.97L402.667 -1306.97L402.667 -1376.97L409.767 -1376.97L409.767 -1422.97L389.958 -1422.97ZM350.334 -1376.97L370.146 -1376.97L370.146 -1422.97L350.334 -1422.97L350.334 -1376.97ZM309.715 -1422.97L309.715 -1376.97L313.703 -1376.97L313.703 -1306.97L323.589 -1306.97L323.588 -1201.97L323.588 -1045.92L247.803 -1045.92L247.803 -809.66L247.803 -455.274L323.588 -455.274L323.588 76.3071L203.701 76.3071L203.701 162.944L56.0914 162.944L56.0913 249.585L203.701 249.585L203.701 162.944L351.312 162.944L351.312 76.3071L498.924 76.3071L498.924 162.944L646.533 162.944L646.533 76.3071L550.944 76.3071L550.944 -455.274L399.372 -455.274L399.372 -809.66L348.85 -809.66L348.851 -1045.92L399.372 -1045.92L399.372 -1201.97L369.059 -1201.97L369.059 -1306.97L343.358 -1306.97L343.358 -1376.97L329.525 -1376.97L329.525 -1422.97L309.715 -1422.97ZM270.091 -1422.97L270.091 -1376.97L254.393 -1376.97L254.393 -1306.97L232.648 -1306.97L232.648 -1201.97L187.176 -1201.97L187.176 -1306.97L165.429 -1306.97L165.429 -1376.97L169.039 -1376.97L169.039 -1422.97L149.228 -1422.97L149.228 -1376.97L135.774 -1376.97L135.774 -1306.97L141.703 -1306.97L141.703 -1201.97L172.019 -1201.97L172.019 -1045.92L247.803 -1045.92L247.803 -1201.97L278.116 -1201.97L278.116 -1306.97L284.048 -1306.97L284.048 -1376.97L289.905 -1376.97L289.905 -1422.97L270.091 -1422.97ZM229.472 -1376.97L249.282 -1376.97L249.282 -1422.97L229.472 -1422.97L229.472 -1376.97ZM189.849 -1422.97L189.849 -1376.97L195.084 -1376.97L195.084 -1306.97L224.738 -1306.97L224.738 -1376.97L209.661 -1376.97L209.661 -1422.97L189.849 -1422.97ZM109.608 -1376.97L129.418 -1376.97L129.418 -1422.97L109.608 -1422.97L109.608 -1376.97ZM68.9849 -1422.97L68.9849 -1376.97L76.464 -1376.97L76.464 -1306.97L50.763 -1306.97L50.763 -1201.97L20.4473 -1201.97L20.4473 -1045.92L45.7093 -1045.92L45.7093 -809.66L-55.3363 -809.66L-55.3364 -455.275L-131.12 -455.275L-131.12 76.307L-270.954 76.307L-270.954 162.944L56.0914 162.944L56.0914 76.307L96.2351 76.307L96.2351 -455.274L96.2352 -809.66L146.757 -809.66L146.757 -1045.92L96.2352 -1045.92L96.2353 -1201.97L96.2353 -1306.97L106.119 -1306.97L106.119 -1376.97L88.7966 -1376.97L88.7966 -1422.97L68.9849 -1422.97ZM29.3655 -1422.97L29.3655 -1376.97L17.1544 -1376.97L17.1544 -1306.97L46.8092 -1306.97L46.8092 -1376.97L49.1751 -1376.97L49.1751 -1422.97L29.3655 -1422.97ZM-11.258 -1376.97L8.55395 -1376.97L8.55396 -1422.97L-11.258 -1422.97L-11.258 -1376.97ZM-50.8771 -1422.97L-50.8771 -1376.97L-42.1554 -1376.97L-42.1554 -1306.97L-40.1775 -1306.97L-40.1775 -1201.97L5.29066 -1201.97L5.29067 -1306.97L-12.5004 -1306.97L-12.5004 -1376.97L-31.0675 -1376.97L-31.0675 -1422.97L-50.8771 -1422.97ZM-91.5006 -1422.97L-91.5006 -1376.97L-101.465 -1376.97L-101.465 -1306.97L-131.12 -1306.97L-131.12 -1201.97L-131.12 -1045.92L-131.12 -809.66L-206.906 -809.66L-206.906 -455.275L-131.12 -455.275L-131.12 -809.66L-55.3363 -809.66L-55.3363 -1045.92L-55.3362 -1201.97L-85.6498 -1201.97L-85.6498 -1306.97L-71.8102 -1306.97L-71.8102 -1376.97L-71.6908 -1376.97L-71.6907 -1422.97L-91.5006 -1422.97ZM-131.12 -1422.97L-131.12 -1376.97L-151.934 -1376.97L-151.934 -1422.97L-171.743 -1422.97L-171.743 -1376.97L-160.777 -1376.97L-160.777 -1306.97L-131.12 -1306.97L-131.12 -1376.97L-111.31 -1376.97L-111.31 -1422.97L-131.12 -1422.97ZM-211.365 -1422.97L-211.365 -1376.97L-220.087 -1376.97L-220.087 -1306.97L-222.063 -1306.97L-222.063 -1201.97L-267.533 -1201.97L-267.533 -1306.97L-249.741 -1306.97L-249.741 -1376.97L-232.176 -1376.97L-232.176 -1422.97L-251.986 -1422.97L-251.986 -1376.97L-271.796 -1376.97L-271.796 -1422.97L-291.605 -1422.97L-291.605 -1376.97L-279.396 -1376.97L-279.396 -1306.97L-309.051 -1306.97L-309.051 -1376.97L-312.419 -1376.97L-312.419 -1422.97L-332.228 -1422.97L-332.228 -1376.97L-338.704 -1376.97L-338.704 -1306.97L-313.005 -1306.97L-313.005 -1201.97L-282.689 -1201.97L-282.689 -1045.92L-307.952 -1045.92L-307.952 -809.66L-206.906 -809.66L-206.906 -1045.92L-206.906 -1201.97L-176.592 -1201.97L-176.592 -1306.97L-190.432 -1306.97L-190.432 -1376.97L-191.553 -1376.97L-191.553 -1422.97L-211.365 -1422.97ZM-371.85 -1422.97L-371.85 -1376.97L-392.661 -1376.97L-392.661 -1422.97L-412.471 -1422.97L-412.471 -1376.97L-398.014 -1376.97L-398.014 -1306.97L-403.946 -1306.97L-403.946 -1201.97L-434.261 -1201.97L-434.261 -1045.92L-510.045 -1045.92L-510.045 -809.66L-510.045 -455.275L-585.831 -455.275L-585.831 76.3069L-566.172 76.3069L-566.172 162.944L-418.563 162.944L-418.563 76.307L-358.476 76.307L-358.475 -455.275L-358.475 -809.66L-408.999 -809.66L-408.999 -1045.92L-358.475 -1045.92L-358.475 -1201.97L-358.475 -1306.97L-368.359 -1306.97L-368.359 -1376.97L-352.038 -1376.97L-352.038 -1422.97L-371.85 -1422.97ZM-452.093 -1422.97L-452.093 -1376.97L-457.325 -1376.97L-457.325 -1306.97L-486.98 -1306.97L-486.98 -1376.97L-472.904 -1376.97L-472.904 -1422.97L-492.714 -1422.97L-492.714 -1376.97L-512.524 -1376.97L-512.524 -1422.97L-532.335 -1422.97L-532.335 -1376.97L-516.635 -1376.97L-516.635 -1306.97L-494.89 -1306.97L-494.89 -1201.97L-449.418 -1201.97L-449.418 -1306.97L-427.671 -1306.97L-427.671 -1376.97L-432.281 -1376.97L-432.281 -1422.97L-452.093 -1422.97ZM-572.957 -1422.97L-572.957 -1376.97L-575.945 -1376.97L-575.945 -1306.97L-585.831 -1306.97L-585.831 -1201.97L-585.831 -1045.92L-510.045 -1045.92L-510.045 -1201.97L-540.358 -1201.97L-540.358 -1306.97L-546.29 -1306.97L-546.29 -1376.97L-553.147 -1376.97L-553.147 -1422.97L-572.957 -1422.97ZM-612.576 -1422.97L-612.576 -1376.97L-633.39 -1376.97L-633.39 -1422.97L-653.199 -1422.97L-653.199 -1376.97L-635.255 -1376.97L-635.255 -1306.97L-664.909 -1306.97L-664.909 -1376.97L-673.009 -1376.97L-673.009 -1422.97L-692.819 -1422.97L-692.819 -1376.97L-694.567 -1376.97L-694.567 -1306.97L-676.771 -1306.97L-676.771 -1201.97L-722.243 -1201.97L-722.243 -1306.97L-724.221 -1306.97L-724.221 -1376.97L-713.632 -1376.97L-713.632 -1422.97L-733.442 -1422.97L-733.442 -1376.97L-753.252 -1376.97L-753.252 -1422.97L-773.061 -1422.97L-773.061 -1376.97L-753.876 -1376.97L-753.876 -1306.97L-767.714 -1306.97L-767.714 -1201.97L-737.4 -1201.97L-737.4 -1045.92L-712.138 -1045.92L-712.138 -809.66L-813.184 -809.66L-813.184 -455.275L-661.614 -455.275L-661.614 -809.66L-611.092 -809.66L-611.092 -1045.92L-661.614 -1045.92L-661.614 -1201.97L-631.301 -1201.97L-631.301 -1306.97L-605.6 -1306.97L-605.6 -1376.97L-592.766 -1376.97L-592.766 -1422.97L-612.576 -1422.97ZM-813.685 -1422.97L-813.685 -1376.97L-813.184 -1376.97L-813.184 -1306.97L-842.839 -1306.97L-842.839 -1376.97L-833.494 -1376.97L-833.494 -1422.97L-853.306 -1422.97L-853.306 -1376.97L-872.493 -1376.97L-872.493 -1306.97L-858.656 -1306.97L-858.656 -1201.97L-888.969 -1201.97L-888.97 -1045.92L-914.232 -1045.92L-914.232 -809.66L-813.184 -809.66L-813.184 -1045.92L-813.184 -1201.97L-813.184 -1306.97L-783.531 -1306.97L-783.531 -1376.97L-793.875 -1376.97L-793.875 -1422.97L-813.685 -1422.97ZM-893.927 -1376.97L-874.118 -1376.97L-874.118 -1422.97L-893.927 -1422.97L-893.927 -1376.97ZM-933.549 -1422.97L-933.549 -1376.97L-931.803 -1376.97L-931.803 -1306.97L-949.599 -1306.97L-949.599 -1201.97L-904.126 -1201.97L-904.126 -1306.97L-902.148 -1306.97L-902.148 -1376.97L-913.737 -1376.97L-913.737 -1422.97L-933.549 -1422.97ZM-974.17 -1422.97L-974.17 -1376.97L-991.115 -1376.97L-991.115 -1306.97L-961.458 -1306.97L-961.458 -1376.97L-954.36 -1376.97L-954.36 -1422.97L-974.17 -1422.97ZM-1013.79 -1376.97L-993.98 -1376.97L-993.98 -1422.97L-1013.79 -1422.97L-1013.79 -1376.97ZM-1054.41 -1422.97L-1054.41 -1376.97L-1050.42 -1376.97L-1050.42 -1306.97L-1040.54 -1306.97L-1040.54 -1201.97L-1040.54 -1045.92L-1116.32 -1045.92L-1116.32 -809.66L-1116.32 -455.275L-1040.54 -455.275L-1040.54 76.3068L-1156.62 76.3068L-1156.62 162.944L-1304.23 162.944L-1304.23 249.585L-1156.62 249.585L-1156.62 162.944L-1009 162.944L-1009 76.3068L-861.395 76.3069L-861.395 162.944L-1009 162.944L-1009 249.585L-1156.62 249.585L-1156.62 379.542L-935.18 379.542L-935.18 249.585L-861.395 249.585L-861.395 162.944L-713.786 162.944L-713.786 76.3069L-813.184 76.3069L-813.184 -455.275L-964.755 -455.275L-964.755 -809.66L-1015.28 -809.66L-1015.28 -1045.92L-964.755 -1045.92L-964.755 -1201.97L-995.069 -1201.97L-995.069 -1306.97L-1020.77 -1306.97L-1020.77 -1376.97L-1034.6 -1376.97L-1034.6 -1422.97L-1054.41 -1422.97ZM-1094.03 -1422.97L-1094.03 -1376.97L-1109.73 -1376.97L-1109.73 -1306.97L-1131.48 -1306.97L-1131.48 -1201.97L-1176.95 -1201.97L-1176.95 -1306.97L-1198.7 -1306.97L-1198.7 -1376.97L-1195.09 -1376.97L-1195.09 -1422.97L-1214.9 -1422.97L-1214.9 -1376.97L-1228.35 -1376.97L-1228.35 -1306.97L-1222.42 -1306.97L-1222.42 -1201.97L-1192.11 -1201.97L-1192.11 -1045.92L-1116.32 -1045.92L-1116.32 -1201.97L-1086.01 -1201.97L-1086.01 -1306.97L-1080.08 -1306.97L-1080.08 -1376.97L-1074.22 -1376.97L-1074.22 -1422.97L-1094.03 -1422.97ZM-1134.66 -1376.97L-1114.85 -1376.97L-1114.85 -1422.97L-1134.66 -1422.97L-1134.66 -1376.97ZM-1174.28 -1422.97L-1174.28 -1376.97L-1169.04 -1376.97L-1169.04 -1306.97L-1139.39 -1306.97L-1139.39 -1376.97L-1154.47 -1376.97L-1154.47 -1422.97L-1174.28 -1422.97ZM-1254.52 -1376.97L-1234.71 -1376.97L-1234.71 -1422.97L-1254.52 -1422.97L-1254.52 -1376.97ZM-1295.14 -1422.97L-1295.14 -1376.97L-1287.66 -1376.97L-1287.66 -1306.97L-1313.36 -1306.97L-1313.36 -1201.97L-1343.68 -1201.97L-1343.68 -1045.92L-1318.42 -1045.92L-1318.42 -809.66L-1419.46 -809.66L-1419.46 -455.275L-1495.25 -455.275L-1495.25 76.3068L-1451.83 76.3068L-1451.83 162.944L-1495.25 162.944L-1495.25 249.585L-1495.25 379.542L-1378 379.542L-1378 249.585L-1451.83 249.585L-1451.83 162.944L-1304.23 162.944L-1304.23 76.3068L-1267.89 76.3068L-1267.89 -455.275L-1267.89 -809.66L-1217.37 -809.66L-1217.37 -1045.92L-1267.89 -1045.92L-1267.89 -1201.97L-1267.89 -1306.97L-1258.01 -1306.97L-1258.01 -1376.97L-1275.33 -1376.97L-1275.33 -1422.97L-1295.14 -1422.97ZM-1334.76 -1422.97L-1334.76 -1376.97L-1346.97 -1376.97L-1346.97 -1306.97L-1317.32 -1306.97L-1317.32 -1376.97L-1314.95 -1376.97L-1314.95 -1422.97L-1334.76 -1422.97ZM-1375.39 -1376.97L-1355.58 -1376.97L-1355.58 -1422.97L-1375.39 -1422.97L-1375.39 -1376.97ZM-1415 -1422.97L-1415 -1376.97L-1406.28 -1376.97L-1406.28 -1306.97L-1404.31 -1306.97L-1404.31 -1201.97L-1358.84 -1201.97L-1358.84 -1306.97L-1376.63 -1306.97L-1376.63 -1376.97L-1395.2 -1376.97L-1395.2 -1422.97L-1415 -1422.97ZM-1455.63 -1422.97L-1455.63 -1376.97L-1465.59 -1376.97L-1465.59 -1306.97L-1495.25 -1306.97L-1495.25 -1201.97L-1495.25 -1045.92L-1495.25 -809.66L-1419.46 -809.66L-1419.46 -1045.92L-1419.46 -1201.97L-1449.78 -1201.97L-1449.78 -1306.97L-1435.94 -1306.97L-1435.94 -1376.97L-1435.82 -1376.97L-1435.82 -1422.97L-1455.63 -1422.97ZM-1495.25 -1376.97L-1475.44 -1376.97L-1475.44 -1422.97L-1495.25 -1422.97L-1495.25 -1376.97ZM2521.35 -455.274L2597.13 -455.274L2597.13 -809.66L2521.35 -809.66L2521.35 -455.274ZM1157.22 -455.274L1233.01 -455.274L1233.01 -809.66L1157.22 -809.66L1157.22 -455.274ZM2449.52 76.3075L2449.52 162.944L2301.91 162.944L2301.91 249.586L2449.49 249.586L2449.49 379.542L2597.13 379.542L2597.13 249.586L2449.52 249.586L2449.52 162.944L2597.13 162.944L2597.13 76.3075L2449.52 76.3075ZM-418.563 249.585L-270.954 249.585L-270.954 162.944L-418.563 162.944L-418.563 249.585ZM-1378 379.542L-1378 509.503L-1495.25 509.503L-1495.25 704.441L-1495.25 879L-1433.35 879L-1433.35 704.441L-1267.29 704.441L-1267.29 879L-935.163 879L-935.163 704.441L-1101.23 704.441L-1101.23 509.503L-1156.62 509.503L-1156.62 379.542L-1378 379.542Z" fill="white"/>
</g>
<defs>
<clipPath id="clip0_8_306">
<rect width="2560" height="238" fill="white" transform="translate(2560 238) rotate(-180)"/>
</clipPath>
</defs>
</svg>
