<svg xmlns="http://www.w3.org/2000/svg" viewBox="0 0.782227 267.8 203.3">
	<path d="M267.785 0.782227H155.688V75.5112C155.688 96.1494 172.418 112.879 193.056 112.879H267.785V75.5112H230.417C251.055 75.5112 267.785 58.7816 267.785 38.15H230.417C251.055 38.15 267.785 21.4204 267.785 0.782227ZM112.097 38.15C112.097 17.5118 95.3672 0.782227 74.729 0.782227C54.0908 0.782227 37.3612 17.5118 37.3612 38.15V0.782227H0V75.5112C0 96.1494 16.7296 112.879 37.3612 112.879C57.9994 112.879 74.729 96.1494 74.729 75.5112C74.729 96.1494 91.4586 112.879 112.097 112.879C132.728 112.879 149.458 96.1494 149.458 75.5112V0.782227C128.826 0.782227 112.097 17.5118 112.097 38.15ZM57.383 118.007H28.6915C12.8472 118.007 0 130.855 0 146.699H28.6915C12.8472 146.699 0 159.546 0 175.39C0 191.235 12.8472 204.082 28.6915 204.082H57.383V175.39C57.383 191.235 70.2236 204.082 86.0744 204.082V146.699C86.0744 130.855 73.2272 118.007 57.383 118.007ZM148.238 118.007H90.8553V204.082H119.547V175.39C119.547 191.235 132.394 204.082 148.238 204.082H176.93V175.39H148.238C164.082 175.39 176.93 162.543 176.93 146.699C176.93 130.855 164.082 118.007 148.238 118.007ZM239.093 146.699H267.785C267.785 162.543 254.938 175.39 239.093 175.39H267.785V204.082H210.402C194.558 204.082 181.711 191.235 181.711 175.39V118.007H267.785C267.785 133.852 254.938 146.699 239.093 146.699Z" fill="white"/>
</svg>