<svg width="101" height="213" viewBox="0 0 101 213" fill="none" xmlns="http://www.w3.org/2000/svg">
<path d="M69.7295 141.165L69.1342 139.185H63.993L63.4245 141.165H58.9449L64.2709 126.426H69.0004L74.3239 141.165H69.7295ZM54.6234 135.841V141.165H50.0724V126.426H61.2969L60.1368 129.638H54.6234V132.621H59.0622L57.897 135.841H54.6234ZM46.9428 141.165H42.3931V126.426H46.9428V141.165ZM39.841 129.638H34.3263V132.621H38.7664L37.6012 135.841H34.3263V141.165H29.7766V126.426H41.0011L39.841 129.638ZM75.7401 80.1356H60.1929C60.11 80.3206 60.0106 80.4992 59.8882 80.6702C59.7658 80.8399 59.6817 81.0364 59.5708 81.2163C59.493 81.3426 59.4841 81.46 59.5491 81.5965C59.6804 81.8747 59.697 82.163 59.6065 82.4577C59.5734 82.5649 59.5313 82.667 59.4344 82.7295C59.3503 82.7844 59.3005 82.8647 59.2789 82.9528C59.219 83.1888 59.1336 83.4287 59.1336 83.6673C59.1323 83.8957 59.0838 84.0985 58.9997 84.3014C58.9385 84.4481 58.8799 84.591 58.9309 84.7633C58.9589 84.8538 58.9449 84.9674 58.9219 85.0631C58.8595 85.3183 58.8429 85.5773 58.8493 85.8388C58.8531 85.9868 58.8225 86.1221 58.7218 86.2369C58.6466 86.3224 58.6147 86.4245 58.6224 86.5406C58.6262 86.5903 58.6313 86.6465 58.6134 86.6898C58.5382 86.8761 58.5535 87.0267 58.7294 87.1543C58.8212 87.2219 58.8008 87.3342 58.7792 87.4362C58.7269 87.6748 58.6823 87.9147 58.6262 88.152C58.5994 88.263 58.5981 88.3676 58.6224 88.4761C58.7142 88.878 58.8059 89.2773 58.9589 89.6639C59.0443 89.8783 59.1068 90.1131 59.1068 90.3504C59.1068 90.5213 59.1348 90.6859 59.1629 90.8518C59.1909 91.0177 59.2177 91.1784 59.3375 91.3137C59.4166 91.4043 59.4255 91.5319 59.428 91.6505C59.4306 91.7679 59.4229 91.8865 59.4178 92.0039C59.4115 92.1749 59.4242 92.3369 59.5185 92.49C59.6141 92.6444 59.6396 92.8218 59.6218 93.0017C59.5976 93.253 59.5836 93.5069 59.5249 93.7532C59.4981 93.8642 59.5058 93.9713 59.5428 94.0772C59.595 94.2227 59.6078 94.3733 59.6014 94.5251C59.5746 95.0635 59.5785 95.6045 59.4663 96.1353C59.4472 96.2271 59.4446 96.3139 59.4943 96.4032C59.8678 97.0641 60.0756 97.8041 60.4759 98.451C60.6187 98.6794 60.7474 98.9167 60.8889 99.1451C60.9284 99.2076 60.9845 99.265 61.0444 99.3097C61.3351 99.5227 61.5391 99.8124 61.7494 100.096C61.984 100.415 62.2096 100.74 62.5219 100.993C62.6252 101.077 62.708 101.186 62.796 101.289C62.8342 101.332 62.8699 101.383 62.8878 101.438C63.0764 102.02 63.3046 102.587 63.4857 103.172C63.6641 103.751 63.849 104.328 64.0313 104.907C64.0555 104.987 64.0835 105.068 64.095 105.151C64.1065 105.25 64.1409 105.329 64.2327 105.375C64.3372 105.426 64.3908 105.522 64.4507 105.614C64.9376 106.355 65.357 107.133 65.7229 107.938C65.8466 108.21 66.0225 108.437 66.1806 108.68C66.6407 109.389 67.013 110.145 67.3801 110.902C67.4286 111.003 67.4706 111.1 67.4056 111.212C67.3635 111.288 67.4043 111.345 67.4694 111.38C67.6019 111.446 67.658 111.57 67.7103 111.692C68.2126 112.861 68.697 114.037 69.1036 115.243C69.1929 115.507 69.2489 115.767 69.4529 115.993C69.7117 116.282 69.7448 116.667 69.7002 117.046C69.6811 117.208 69.5982 117.356 69.597 117.529C69.597 117.656 69.4733 117.723 69.356 117.76C69.1215 117.834 68.878 117.855 68.6332 117.864C67.4311 117.912 66.2277 117.916 65.0243 117.924C63.1886 117.934 61.3542 117.967 59.5198 117.98C58.3075 117.989 57.0952 117.978 55.8829 117.981C55.0249 117.982 54.1657 118.004 53.3078 117.993C52.3313 117.981 51.3548 117.982 50.3784 117.955C48.3999 117.955 46.4214 117.963 44.4442 117.953C43.0547 117.947 41.6665 117.924 40.2783 117.899C38.528 117.87 36.7777 117.838 35.0274 117.799C34.0178 117.776 33.0082 117.736 31.9998 117.703C31.9157 117.7 31.8328 117.684 31.7487 117.674C31.4466 117.637 31.4338 117.625 31.3816 117.333C31.3714 117.273 31.3484 117.221 31.3191 117.17C31.2796 117.102 31.2656 117.027 31.2758 116.95C31.3318 116.474 31.4351 116.017 31.8303 115.691C31.8749 115.655 31.894 115.619 31.8838 115.562C31.8532 115.391 31.8991 115.226 31.945 115.064C32.2905 113.857 32.7418 112.686 33.2083 111.521C33.2427 111.436 33.2874 111.354 33.3524 111.285C33.4212 111.214 33.4492 111.136 33.3893 111.036C33.3345 110.947 33.374 110.856 33.4148 110.771C33.8113 109.94 34.2817 109.153 34.7992 108.394C34.8719 108.288 34.9803 108.223 35.058 108.122C35.2352 107.894 35.3206 107.62 35.4519 107.371C35.7834 106.743 36.1696 106.151 36.5533 105.556C36.5801 105.514 36.6107 105.452 36.649 105.444C36.8746 105.398 36.8593 105.216 36.9065 105.051C37.062 104.509 37.2302 103.97 37.3998 103.432C37.5795 102.862 37.7657 102.294 37.9518 101.726C37.9696 101.669 37.9824 101.615 37.9798 101.554C37.9773 101.431 38.0232 101.299 38.1086 101.235C38.3712 101.037 38.4018 100.685 38.6427 100.48C38.6708 100.455 38.6797 100.403 38.6848 100.362C38.723 100.05 38.8773 99.7907 39.0685 99.5521C39.1182 99.4896 39.1361 99.4232 39.1539 99.3479C39.2712 98.8478 39.3184 98.3323 39.493 97.8462C39.66 97.3792 39.7479 96.8906 39.9277 96.4249C40.0896 96.0064 40.2426 95.5751 40.2834 95.1184C40.2999 94.9436 40.3739 94.7981 40.4848 94.6642C40.7257 94.3732 40.8035 94.0415 40.7206 93.6715C40.6887 93.5273 40.7091 93.3895 40.755 93.2492C40.8188 93.0502 40.8863 92.8549 40.8328 92.6329C40.7894 92.4569 40.8953 92.2999 41.0227 92.1877C41.2662 91.9708 41.3695 91.676 41.4995 91.394C41.5288 91.3303 41.5352 91.2639 41.5186 91.1963C41.4409 90.8595 41.4676 90.5073 41.3669 90.1743C41.3491 90.1169 41.3427 90.0518 41.3707 89.9995C41.4702 89.8183 41.3899 89.6614 41.279 89.5389C40.9016 89.1204 40.8787 88.6088 40.8889 88.0933C40.9016 87.4337 41.0482 86.7919 41.1986 86.1514C41.2216 86.0532 41.2331 85.9562 41.2012 85.8541C41.1234 85.6155 41.1196 85.3719 41.1859 85.1307C41.2828 84.7798 41.2369 84.4507 41.0686 84.1317C40.959 83.9225 40.9501 83.6915 40.9705 83.4644C41.0036 83.111 40.9322 82.7742 40.8226 82.4462C40.7244 82.1553 40.6683 81.8606 40.6607 81.5557C40.6556 81.3107 40.6288 81.0696 40.5855 80.8272C40.5562 80.6626 40.5281 80.4929 40.5281 80.3257C40.5281 80.2619 40.5281 80.1994 40.5268 80.1356H25.246C11.3037 80.1356 0 91.4489 0 105.405V130.672C0 144.628 11.3037 155.941 25.246 155.941H75.7401C89.6837 155.941 100.987 144.628 100.987 130.672C100.987 116.717 89.6837 105.405 75.7401 105.405H100.987C100.987 91.4489 89.6837 80.1356 75.7401 80.1356ZM64.8063 136.353H68.3821L66.563 130.213L64.8063 136.353ZM100.987 25.2686C100.987 11.3132 89.6837 0 75.7401 0H25.246C11.3037 0 0 11.313 0 25.2685H25.246C11.3037 25.2685 0 36.5818 0 50.5376V75.8052H40.3356C40.3165 75.7504 40.2961 75.6968 40.2732 75.6419C40.1406 75.3128 40.1737 74.9632 40.2948 74.6289C40.3178 74.5638 40.3637 74.5064 40.4274 74.4822C40.5727 74.4273 40.5842 74.3176 40.5562 74.1938C40.4465 73.7102 40.3458 73.2267 40.0144 72.8261C39.8767 72.6602 39.7875 72.4535 39.6804 72.2621C39.4739 71.8946 39.2508 71.5387 38.9678 71.2223C38.7702 71.0015 38.644 70.7489 38.5509 70.458C38.4273 70.0714 38.2603 69.6886 37.8651 69.4692C37.6152 69.3301 37.5936 69.2459 37.6701 68.969C37.7121 68.8159 37.6751 68.6781 37.6063 68.5556C37.4521 68.2864 37.3335 67.9968 37.1461 67.7442C37.0199 67.5732 37.0543 67.3563 37.09 67.1573C37.1461 66.8447 37.1423 66.5525 36.9702 66.2603C36.7841 65.9477 36.691 65.5892 36.6451 65.2307C36.598 64.8683 36.4603 64.5328 36.3966 64.1794C36.2818 63.5389 36.0052 62.9443 35.8905 62.3051C35.8624 62.1456 35.8446 61.9887 35.8828 61.8292C35.8943 61.7794 35.9007 61.7347 35.8879 61.6824C35.7834 61.2742 35.6967 60.8633 35.633 60.4461C35.6202 60.3644 35.5947 60.2815 35.5603 60.205C35.406 59.8643 35.364 59.4917 35.2658 59.1358C35.2276 58.9967 35.2276 58.8474 35.2684 58.7096C35.3104 58.5731 35.2977 58.4481 35.2607 58.3154C35.2199 58.1699 35.211 58.0168 35.1995 57.8663C35.1613 57.398 35.1587 56.9247 35.0019 56.473C34.9548 56.3365 34.9611 56.2012 34.9879 56.0532C35.0262 55.8491 35.0134 55.6334 34.9242 55.4357C34.8732 55.3221 34.8502 55.2124 34.9127 55.0976C34.9382 55.0516 34.9446 55.0032 34.9344 54.9509C34.8604 54.5541 34.8107 54.1496 34.6208 53.7847C34.5519 53.6533 34.5226 53.5142 34.5405 53.3687C34.5685 53.1212 34.5379 52.8737 34.6144 52.6198C34.6756 52.4157 34.6463 52.1669 34.5086 51.9653C34.2983 51.6578 34.1695 51.3158 34.0344 50.9688C33.8164 50.41 33.6621 49.8345 33.4684 49.2693C33.3702 48.9848 33.2912 48.6901 33.1586 48.417C33.1408 48.3788 33.1216 48.3379 33.1191 48.2971C33.1051 48.0049 32.9763 47.7478 32.873 47.4832C32.8692 47.4756 32.8718 47.4655 32.868 47.4587C32.599 46.9906 32.5824 46.4266 32.3032 45.964C32.0967 45.6205 31.9896 45.2402 31.8621 44.8662C31.801 44.6899 31.7691 44.5078 31.7219 44.3286C31.6531 44.0601 31.5868 43.7924 31.4517 43.5438C31.3369 43.3329 31.3051 43.0939 31.3459 42.8563C31.3688 42.7224 31.3561 42.5865 31.3867 42.4547C31.4032 42.3809 31.3752 42.3226 31.3331 42.2676C31.1929 42.0838 31.1954 41.8769 31.2362 41.6643C31.2439 41.6229 31.2503 41.5807 31.2656 41.5414C31.3612 41.2763 31.3599 41.0069 31.3561 40.7258C31.3471 40.0362 31.3879 39.346 31.4695 38.6602C31.5116 38.3159 31.8787 38.0752 32.2267 38.1477C32.3083 38.1649 32.3912 38.1849 32.474 38.1885C32.6512 38.1959 32.6997 38.1378 32.6742 37.9612C32.6436 37.7447 32.6104 37.5286 32.5799 37.3119C32.4842 36.6235 32.5327 35.934 32.5646 35.2445C32.5709 35.0987 32.6194 34.9495 32.4256 34.8605C32.3274 34.8156 32.3555 34.6801 32.358 34.5809C32.3708 34.1927 32.4243 33.808 32.497 33.4274C33.0426 30.5432 34.0573 27.8368 35.5807 25.3254C35.9835 24.6609 36.4386 24.0343 36.9906 23.4832C37.0314 23.4416 37.0671 23.3789 37.1181 23.3634C37.359 23.289 37.438 23.0609 37.5795 22.8928C37.6509 22.8092 37.7236 22.7305 37.8065 22.6572C38.0958 22.4017 38.3444 22.109 38.5662 21.7915C38.6516 21.6688 38.7689 21.5671 38.8785 21.4624C41.1477 19.2847 43.8566 17.9289 46.8893 17.1881C47.6758 16.9961 48.484 16.9308 49.2884 16.8641C49.8684 16.8161 50.4485 16.7972 51.0298 16.7999C51.9502 16.804 52.8591 16.9179 53.7654 17.0627C54.9548 17.2527 56.1314 17.5028 57.2635 17.9218C59.2292 18.6495 61.0393 19.6557 62.6392 21.0189C63.2702 21.5555 63.8375 22.1548 64.3347 22.8182C64.5195 23.0642 64.7235 23.297 64.8662 23.572C64.8943 23.6242 64.9542 23.6795 64.9478 23.7257C64.9121 23.9617 65.0919 24.0086 65.2423 24.0574C65.38 24.102 65.473 24.1855 65.5623 24.2867C65.9587 24.7349 66.294 25.2327 66.6701 25.6972C66.7491 25.7939 66.8332 25.9018 66.6943 26.0252C66.6535 26.0603 66.6943 26.1049 66.7236 26.133C67.1583 26.5604 67.3865 27.124 67.6988 27.6308C67.9283 28.0023 68.0965 28.4093 68.2533 28.8194C68.4101 29.2278 68.5427 29.6448 68.7237 30.0446C68.9672 30.5847 69.0845 31.1643 69.2094 31.741C69.3152 32.2345 69.4338 32.7258 69.56 33.2146C69.6441 33.5385 69.7792 33.5722 70.0215 33.3277C70.1566 33.1911 70.2904 33.053 70.4281 32.9181C70.5479 32.8003 70.6793 32.6949 70.7978 32.5766C70.9049 32.4706 71.0234 32.4719 71.1445 32.5376C71.3166 32.6311 71.4416 32.7638 71.4263 32.9767C71.4186 33.0981 71.4326 33.2109 71.49 33.3189C71.541 33.4183 71.5537 33.5283 71.5614 33.6375C71.5703 33.7888 71.5741 33.9407 71.5792 34.0922C71.5869 34.2987 71.5831 34.4892 71.7577 34.6649C71.9617 34.8702 72.0038 35.1567 71.9451 35.4461C71.9247 35.5483 71.9196 35.6449 71.9808 35.7369C71.9987 35.7642 72.0178 35.8012 72.0139 35.8311C71.9795 36.1235 72.1376 36.3794 72.1656 36.6596C72.1809 36.8003 72.2077 36.9342 72.2625 37.0715C72.3594 37.3143 72.2613 37.5553 72.1491 37.7737C71.8419 38.3776 71.6443 39.0228 71.4734 39.6718C71.3613 40.1005 71.3256 40.5519 71.2822 40.9958C71.193 41.9379 70.9661 42.8525 70.757 43.7713C70.7481 43.8122 70.7366 43.8541 70.7188 43.8915C70.46 44.4127 70.3096 44.9776 70.0623 45.503C69.9717 45.6951 69.8404 45.8613 69.6926 46.0126C69.5358 46.1731 69.4784 46.3585 69.4963 46.5847C69.5383 47.1048 69.5332 47.6273 69.5906 48.1478C69.6199 48.4043 69.5562 48.6658 69.5103 48.9236C69.3739 49.6993 69.1074 50.4368 68.8397 51.1691C68.7174 51.5047 68.637 51.8594 68.4497 52.1745C68.2827 52.4539 68.1475 52.7538 67.9946 53.0434C67.9627 53.1034 67.9359 53.1633 67.9283 53.231C67.8786 53.6265 67.7485 54.0054 67.6198 54.3742C67.4464 54.8756 67.282 55.3757 67.1761 55.8963C67.1392 56.0775 67.055 56.2472 66.8957 56.3633C66.846 56.4003 66.8167 56.45 66.7924 56.5036C66.6395 56.8506 66.4827 57.1964 66.3386 57.546C66.2621 57.731 66.1831 57.9173 66.2213 58.1304C66.2392 58.2324 66.1971 58.3332 66.1359 58.4149C65.9116 58.7122 65.8542 59.0758 65.7395 59.4165C65.6936 59.5517 65.6604 59.6921 65.6298 59.8311C65.5916 60.0021 65.5279 60.1667 65.5572 60.3517C65.5763 60.4665 65.5342 60.589 65.4794 60.6936C65.3099 61.019 65.2844 61.3737 65.2933 61.7271C65.306 62.2068 65.2053 62.661 65.0498 63.1089C64.8841 63.581 64.7949 64.0671 64.8012 64.5685C64.8025 64.6527 64.7987 64.7369 64.7974 64.8211C64.7961 65.0508 64.6941 65.2218 64.5068 65.3519C64.341 65.468 64.3053 65.5114 64.3933 65.6785C64.6189 66.1123 64.4481 66.4913 64.2786 66.8804C64.1881 67.0884 64.1027 67.2976 64.1001 67.5324C64.0976 67.7301 64.0032 67.9126 63.9216 68.0785C63.6578 68.6182 63.6004 69.2102 63.4474 69.7767C63.4359 69.8175 63.4334 69.8609 63.4168 69.8979C63.195 70.3955 63.1313 70.9352 63.0089 71.4583C62.9579 71.6752 62.8776 71.8742 62.7578 72.0592C62.5857 72.3233 62.4888 72.6181 62.3957 72.9166C62.2644 73.3338 62.0949 73.7383 61.9674 74.1568C61.794 74.7233 61.5199 75.2464 61.302 75.7938C61.3032 75.7899 61.3007 75.7976 61.302 75.7938L100.987 75.8052V50.5376H75.7401C89.6837 50.5376 100.987 39.224 100.987 25.2686Z" fill="#FFB343"/>
<path d="M35.6102 25.3498C36.013 24.6852 36.4681 24.0586 37.0201 23.5076C37.0609 23.466 37.0966 23.4032 37.1476 23.3877C37.3885 23.3133 37.4675 23.0855 37.609 22.9173C37.6804 22.8336 37.7531 22.7548 37.8359 22.6816C38.1253 22.4261 38.3739 22.1334 38.5957 21.8159C38.6442 21.7454 38.7041 21.682 38.7665 21.6207V5.26882V0.0244141H31.5768V5.26882H29.1802V27.7043H34.3558C34.728 26.9016 35.1449 26.1166 35.6102 25.3498Z" fill="#FFB343"/>
<path d="M96.2065 61.1222H100.939V50.5579H96.2065V61.1222Z" fill="#FFB343"/>
<path d="M60.253 0.0185547V5.26296H67.4428V27.2979C67.509 27.4165 67.5753 27.5344 67.6467 27.6493C67.8749 28.0209 68.0432 28.428 68.2013 28.8379C68.3568 29.2465 68.4893 29.6633 68.6704 30.0633C68.9151 30.6031 69.0311 31.1829 69.1561 31.7596C69.2631 32.2531 69.3817 32.7443 69.5079 33.2332C69.5908 33.5571 69.7259 33.5909 69.9681 33.3463C70.1032 33.2098 70.2371 33.0716 70.3748 32.9367C70.4959 32.8188 70.6259 32.7136 70.7444 32.5952C70.8515 32.4891 70.9714 32.4905 71.0925 32.5561C71.2646 32.6497 71.3882 32.7823 71.3742 32.9954C71.3653 33.1167 71.3805 33.2295 71.4366 33.3376C71.4889 33.4369 71.5004 33.5469 71.508 33.6562C71.5182 33.8075 71.5221 33.9593 71.5272 34.1109C71.5335 34.3174 71.5297 34.5079 71.7043 34.6834C71.9083 34.8887 71.9504 35.1753 71.893 35.4648C71.8726 35.5668 71.8675 35.6636 71.9287 35.7555C71.9466 35.7827 71.9657 35.8198 71.9619 35.8497C71.9262 36.1421 72.0855 36.3981 72.1136 36.6781C72.1276 36.819 72.1543 36.9528 72.2092 37.09C72.306 37.3329 72.2079 37.5738 72.097 37.7924C71.7885 38.3961 71.5922 39.0412 71.4213 39.6905C71.3092 40.1191 71.2722 40.5704 71.2301 41.0144C71.1396 41.9565 70.9127 42.8712 70.7049 43.7898C70.6947 43.8308 70.6845 43.8727 70.6654 43.9099C70.4079 44.4313 70.2562 44.9963 70.0089 45.5216C69.9184 45.7136 69.7884 45.88 69.6405 46.0313C69.4837 46.1918 69.4263 46.3772 69.4442 46.6034C69.4862 47.1235 69.4799 47.6458 69.5385 48.1656C69.5665 48.4233 69.5041 48.6849 69.4582 48.9426C69.3205 49.7171 69.0553 50.4558 68.7864 51.1882C68.664 51.5225 68.5837 51.8784 68.3963 52.1923C68.2293 52.473 68.0942 52.7728 67.9425 53.0612C67.9093 53.1224 67.8838 53.1824 67.8749 53.25C67.8265 53.6455 67.6952 54.0245 67.5677 54.3932C67.5256 54.5157 67.4836 54.6369 67.4428 54.7594V61.3519H73.4329V75.8243H93.1538V61.0164H81.8223V50.5553H75.6868C77.8029 50.5553 79.8579 50.2951 81.8223 49.8051V27.6986H77.0291V5.26296H81.8223V0.769924C79.8579 0.279089 77.8029 0.0185547 75.6868 0.0185547H74.6325V5.26296H67.4428V0.0185547H60.253Z" fill="#FFB343"/>
<path d="M9.66046 5.26279H9.79304V25.287H19.3794V5.26279H24.1726V0.0336914C21.6664 0.120452 19.2519 0.573012 16.9828 1.33957V5.26279H9.79304V5.16085C9.74842 5.19466 9.70508 5.22873 9.66046 5.26279Z" fill="#FFB343"/>
<path d="M33.2083 111.556C33.2427 111.47 33.2874 111.389 33.3524 111.32C33.4212 111.248 33.4492 111.17 33.3893 111.071C33.3345 110.982 33.374 110.891 33.4148 110.806C33.8113 109.975 34.2817 109.188 34.7992 108.429C34.8719 108.323 34.9803 108.258 35.058 108.157C35.2352 107.928 35.3206 107.655 35.4519 107.405C35.7834 106.778 36.1696 106.186 36.5533 105.591C36.5801 105.549 36.6107 105.486 36.649 105.479C36.8746 105.433 36.8593 105.25 36.9065 105.086C37.062 104.543 37.2302 104.005 37.3998 103.467C37.5795 102.898 37.7657 102.329 37.9518 101.761C37.9696 101.703 37.9824 101.65 37.9798 101.588C37.9773 101.466 38.0232 101.333 38.1086 101.27C38.3712 101.072 38.4018 100.72 38.6427 100.514C38.6708 100.49 38.6797 100.438 38.6848 100.397C38.7001 100.272 38.7345 100.156 38.7817 100.046V80.1702H25.246C22.4377 80.1702 19.7364 80.6295 17.2124 81.4767V111.788H5.29952V89.9473C1.97744 94.2254 0 99.6007 0 105.439V130.707C0 141.853 7.20914 151.312 17.2149 154.671V111.848H33.0923C33.1306 111.751 33.1701 111.653 33.2083 111.556Z" fill="#FFB343"/>
<path d="M75.7529 105.398H93.22V87.1529C88.6856 82.8021 82.5309 80.1292 75.7529 80.1292H73.4991V111.807H81.8502V155.193C92.8477 152.464 101 142.519 101 130.667C101 116.711 89.6965 105.398 75.7529 105.398Z" fill="#FFB343"/>
<path d="M100.626 27.6929H96.0066V40.0149C98.5447 36.4808 100.194 32.2641 100.626 27.6929Z" fill="#FFB343"/>
<path d="M24.1396 27.6987H19.3464V25.9297C15.8089 26.7438 12.5557 28.3017 9.76007 30.4299V61.352H16.9945V75.8245H38.5625V70.9914C38.4656 70.8345 38.3917 70.6635 38.3317 70.4772C38.2081 70.0906 38.0424 69.7078 37.6472 69.4884C37.3961 69.348 37.3744 69.2651 37.4509 68.987C37.4929 68.8351 37.4573 68.6961 37.3871 68.5749C37.2329 68.3044 37.1143 68.016 36.9269 67.7621C36.8007 67.5911 36.8352 67.3755 36.8709 67.1765C36.9269 66.8626 36.9244 66.5704 36.751 66.2795C36.5649 65.9669 36.4731 65.6071 36.426 65.2486C36.3801 64.8875 36.2411 64.5507 36.1786 64.1986C36.0639 63.5581 35.7873 62.9635 35.6726 62.3243C35.6432 62.1648 35.6254 62.0066 35.6636 61.8484C35.6764 61.7986 35.6828 61.7527 35.6687 61.7004C35.6394 61.5843 35.6114 61.4682 35.5846 61.352H24.1396V27.6987Z" fill="#FFB343"/>
<path d="M0.402065 25.2875V20.8252C0.137803 22.2737 0 23.7648 0 25.2875H0.402065Z" fill="#FFB343"/>
<path d="M5.3008 61.3979H0V75.8244H5.3008V61.3979Z" fill="#FFB343"/>
<path d="M45.8121 0.00952148V5.25457H48.2087V16.9634C48.53 16.9288 48.8525 16.9024 49.175 16.8757C49.7538 16.8276 50.3338 16.8089 50.9151 16.8114C51.8355 16.8155 52.7457 16.9293 53.652 17.0743C54.8414 17.2644 56.018 17.5145 57.15 17.9336C57.368 18.014 57.5835 18.0979 57.7964 18.1852V5.25457H53.0032V0.00952148H45.8121Z" fill="#FFB343"/>
<path d="M88.7428 5.26894H86.3462V27.7045H95.9326V10.5611C94.0025 7.87341 91.5575 5.58025 88.7428 3.82642V5.26894Z" fill="#FFB343"/>
<path d="M7.695 169.366C8.275 169.366 8.95 169.441 9.72 169.591C10.5 169.741 11.07 169.901 11.43 170.071V173.266H10.005C9.235 171.816 8.175 171.091 6.825 171.091C6.275 171.091 5.77 171.266 5.31 171.616C4.85 171.966 4.485 172.446 4.215 173.056C3.955 173.666 3.825 174.351 3.825 175.111C3.825 175.971 3.955 176.761 4.215 177.481C4.485 178.191 4.89 178.761 5.43 179.191C5.97 179.611 6.64 179.821 7.44 179.821C8.35 179.821 9.645 179.321 11.325 178.321L11.925 179.281L9.165 181.426C8.725 181.556 8.3 181.641 7.89 181.681C7.49 181.731 7.06 181.756 6.6 181.756C5.48 181.756 4.485 181.501 3.615 180.991C2.745 180.481 2.07 179.781 1.59 178.891C1.11 177.991 0.87 176.971 0.87 175.831C0.87 174.661 1.23 173.581 1.95 172.591C2.67 171.591 3.565 170.806 4.635 170.236C5.705 169.656 6.725 169.366 7.695 169.366ZM25.8887 181.456H20.3087V180.616L21.9437 179.641L21.0287 177.406H16.3937L15.5687 179.416L17.8637 180.481L17.3837 181.456H12.5387V180.616L14.1587 179.401L17.9987 170.146L20.5937 169.381L24.8537 179.716L26.3837 180.481L25.8887 181.456ZM18.7337 171.751L16.8737 176.251H20.5637L18.7337 171.751ZM33.0439 175.591C33.5739 175.591 33.9939 175.406 34.3039 175.036C34.6139 174.666 34.7689 174.156 34.7689 173.506C34.7689 172.716 34.5789 172.076 34.1989 171.586C33.8189 171.086 33.2589 170.836 32.5189 170.836C32.0289 170.836 31.5689 170.986 31.1389 171.286V179.911L33.7489 180.481L33.2539 181.456H27.0139V180.616L28.4239 179.506V171.151L26.7589 170.641L27.2539 169.666H29.7439C30.6339 169.666 31.5089 169.636 32.3689 169.576C33.0089 169.536 33.4789 169.516 33.7789 169.516C34.5589 169.516 35.2489 169.671 35.8489 169.981C36.4489 170.281 36.9139 170.696 37.2439 171.226C37.5739 171.756 37.7389 172.346 37.7389 172.996C37.7389 173.716 37.4639 174.391 36.9139 175.021C36.3639 175.651 35.6689 176.146 34.8289 176.506C33.9889 176.866 33.1689 177.026 32.3689 176.986L31.7089 176.581L32.2039 175.606H33.0439V175.591ZM44.9238 175.591C45.4538 175.591 45.8738 175.406 46.1838 175.036C46.4938 174.666 46.6488 174.156 46.6488 173.506C46.6488 172.716 46.4588 172.076 46.0788 171.586C45.6988 171.086 45.1388 170.836 44.3988 170.836C43.9088 170.836 43.4488 170.986 43.0188 171.286V179.911L45.6288 180.481L45.1338 181.456H38.8938V180.616L40.3038 179.506V171.151L38.6388 170.641L39.1338 169.666H41.6238C42.5138 169.666 43.3888 169.636 44.2488 169.576C44.8888 169.536 45.3588 169.516 45.6588 169.516C46.4388 169.516 47.1288 169.671 47.7288 169.981C48.3288 170.281 48.7938 170.696 49.1238 171.226C49.4538 171.756 49.6188 172.346 49.6188 172.996C49.6188 173.716 49.3438 174.391 48.7938 175.021C48.2438 175.651 47.5488 176.146 46.7088 176.506C45.8688 176.866 45.0488 177.026 44.2488 176.986L43.5888 176.581L44.0838 175.606H44.9238V175.591ZM60.2537 181.471H50.7737V180.631L52.1837 179.521V171.136L50.5187 170.641L51.0137 169.666H60.1037L61.1837 169.396V173.221L60.3587 173.551L58.5137 170.806H54.8987V174.856H56.6837L57.7787 173.176H58.6187V177.541L57.6437 178.036L56.6687 176.011H54.8987V180.316H58.3937L60.5087 177.256L61.3337 177.601V181.741L60.2537 181.471ZM72.6484 181.456H63.0784V180.616L64.4884 179.506V171.076L62.8234 170.641L63.3184 169.666H68.6284V170.506L67.2034 171.616V180.316H70.5784L72.9034 176.956L73.7284 177.301V181.726L72.6484 181.456ZM84.6015 181.456H75.0315V180.616L76.4415 179.506V171.076L74.7765 170.641L75.2715 169.666H80.5815V170.506L79.1565 171.616V180.316H82.5315L84.8565 176.956L85.6815 177.301V181.726L84.6015 181.456ZM99.5996 181.456H94.0196V180.616L95.6546 179.641L94.7396 177.406H90.1046L89.2796 179.416L91.5746 180.481L91.0946 181.456H86.2496V180.616L87.8696 179.401L91.7096 170.146L94.3046 169.381L98.5646 179.716L100.095 180.481L99.5996 181.456ZM92.4446 171.751L90.5846 176.251H94.2746L92.4446 171.751Z" fill="#FFB343"/>
<path d="M23.175 192.514L22.295 192.866L20.039 189.618H18.551V199.474L20.343 199.938L19.815 200.978H14.151V200.082L15.655 198.898V189.618H14.231L11.975 192.866L11.095 192.514V188.114L12.247 188.402H22.023L23.175 188.114V192.514ZM37.0426 200.978H33.5706L30.4826 195.442L29.7786 195.01L30.1786 194.226H30.9146C31.4906 194.226 31.9439 194.05 32.2746 193.698C32.6053 193.346 32.7706 192.85 32.7706 192.21C32.7706 191.463 32.5679 190.855 32.1626 190.386C31.7679 189.906 31.1866 189.666 30.4186 189.666C29.9386 189.666 29.4906 189.815 29.0746 190.114V199.442L30.8506 199.954L30.3386 200.994H24.6746V200.098L26.1786 198.834V189.954L24.4026 189.458L24.9306 188.418H27.5866C28.5146 188.418 29.4266 188.386 30.3226 188.322C30.9626 188.279 31.4426 188.258 31.7626 188.258C32.5839 188.258 33.3093 188.407 33.9386 188.706C34.5786 188.994 35.0693 189.388 35.4106 189.89C35.7626 190.391 35.9386 190.951 35.9386 191.57C35.9386 192.316 35.6079 193.01 34.9466 193.65C34.2853 194.29 33.4799 194.77 32.5306 195.09L33.8106 195.458L35.8906 199.17L37.5546 199.938L37.0426 200.978ZM51.6615 200.978H45.7095V200.082L47.4535 199.042L46.4775 196.658H41.5335L40.6535 198.802L43.1015 199.938L42.5895 200.978H37.4215V200.082L39.1495 198.786L43.2455 188.914L46.0135 188.098L50.5575 199.122L52.1895 199.938L51.6615 200.978ZM44.0295 190.626L42.0455 195.426H45.9815L44.0295 190.626ZM62.9901 190.61L58.8941 200.466L56.1421 201.282L51.5981 190.258L49.9661 189.442L50.4781 188.402H56.4461V189.298L54.7021 190.338L58.1421 198.754L61.5181 190.594L59.0701 189.442L59.5821 188.402H64.7501L64.7341 189.298L62.9901 190.61ZM75.63 200.994H65.518V200.098L67.022 198.914V189.97L65.246 189.442L65.774 188.402H75.47L76.622 188.114V192.194L75.742 192.546L73.774 189.618H69.918V193.938H71.822L72.99 192.146H73.886V196.802L72.846 197.33L71.806 195.17H69.918V199.762H73.646L75.902 196.498L76.782 196.866V201.282L75.63 200.994ZM88.851 200.978H78.643V200.082L80.147 198.898V189.906L78.371 189.442L78.899 188.402H84.563V189.298L83.043 190.482V199.762H86.643L89.123 196.178L90.003 196.546V201.266L88.851 200.978Z" fill="#FFB343"/>
</svg>
