<svg width="383" height="205" viewBox="0 0 383 205" fill="none" xmlns="http://www.w3.org/2000/svg">
<path d="M351.483 136.154L350.883 134.245H345.701L345.128 136.154H340.613L345.981 121.939H350.748L356.113 136.154H351.483ZM336.257 131.019V136.154H331.67V121.939H342.983L341.814 125.036H336.257V127.913H340.731L339.557 131.019H336.257ZM328.516 136.154H323.93V121.939H328.516V136.154ZM321.358 125.036H315.8V127.913H320.275L319.101 131.019H315.8V136.154H311.214V121.939H322.527L321.358 125.036ZM357.541 77.2912H341.871C341.787 77.4696 341.687 77.6419 341.564 77.8068C341.44 77.9704 341.356 78.16 341.244 78.3335C341.165 78.4553 341.156 78.5685 341.222 78.7002C341.354 78.9685 341.371 79.2466 341.28 79.5309C341.246 79.6342 341.204 79.7327 341.106 79.793C341.021 79.8459 340.971 79.9234 340.949 80.0083C340.889 80.236 340.803 80.4673 340.803 80.6975C340.802 80.9177 340.753 81.1134 340.668 81.3091C340.606 81.4506 340.547 81.5884 340.599 81.7545C340.627 81.8419 340.613 81.9514 340.59 82.0437C340.527 82.2899 340.51 82.5397 340.517 82.7919C340.52 82.9347 340.49 83.0651 340.388 83.1759C340.312 83.2583 340.28 83.3568 340.288 83.4688C340.292 83.5168 340.297 83.5709 340.279 83.6127C340.203 83.7924 340.218 83.9376 340.396 84.0607C340.488 84.1259 340.468 84.2342 340.446 84.3326C340.393 84.5628 340.348 84.7941 340.292 85.023C340.265 85.1301 340.263 85.231 340.288 85.3356C340.38 85.7232 340.473 86.1084 340.627 86.4813C340.713 86.688 340.776 86.9145 340.776 87.1433C340.776 87.3082 340.804 87.467 340.833 87.627C340.861 87.7869 340.888 87.942 341.009 88.0724C341.088 88.1598 341.097 88.2829 341.1 88.3973C341.102 88.5105 341.095 88.625 341.09 88.7382C341.083 88.9031 341.096 89.0594 341.191 89.2071C341.287 89.356 341.313 89.527 341.295 89.7005C341.271 89.943 341.257 90.1878 341.197 90.4253C341.17 90.5324 341.178 90.6358 341.215 90.7379C341.268 90.8782 341.281 91.0234 341.275 91.1699C341.248 91.6892 341.251 92.2109 341.138 92.7229C341.119 92.8115 341.117 92.8952 341.167 92.9813C341.543 93.6188 341.753 94.3325 342.156 94.9564C342.3 95.1767 342.43 95.4056 342.572 95.6259C342.612 95.6862 342.669 95.7415 342.729 95.7846C343.022 95.9901 343.228 96.2695 343.44 96.5427C343.676 96.8503 343.903 97.1641 344.218 97.4078C344.322 97.489 344.406 97.5948 344.494 97.6933C344.533 97.7351 344.569 97.7843 344.587 97.8372C344.777 98.3984 345.007 98.946 345.189 99.5096C345.369 100.068 345.556 100.625 345.739 101.183C345.764 101.261 345.792 101.338 345.804 101.418C345.815 101.514 345.85 101.591 345.942 101.635C346.048 101.684 346.102 101.776 346.162 101.865C346.653 102.58 347.076 103.331 347.444 104.107C347.569 104.369 347.746 104.588 347.906 104.822C348.369 105.506 348.745 106.235 349.115 106.966C349.164 107.063 349.206 107.157 349.14 107.265C349.098 107.337 349.139 107.393 349.205 107.426C349.338 107.49 349.395 107.609 349.447 107.728C349.954 108.855 350.442 109.989 350.852 111.152C350.942 111.407 350.998 111.658 351.204 111.876C351.465 112.154 351.498 112.526 351.453 112.891C351.434 113.047 351.35 113.19 351.349 113.358C351.349 113.479 351.224 113.545 351.106 113.58C350.87 113.652 350.624 113.671 350.378 113.68C349.166 113.727 347.953 113.73 346.74 113.738C344.89 113.748 343.041 113.78 341.192 113.792C339.97 113.801 338.749 113.791 337.527 113.793C336.662 113.794 335.796 113.815 334.931 113.804C333.947 113.793 332.963 113.794 331.979 113.769C329.985 113.769 327.991 113.776 325.998 113.766C324.597 113.76 323.198 113.738 321.799 113.714C320.035 113.686 318.271 113.655 316.507 113.617C315.489 113.595 314.471 113.557 313.455 113.525C313.37 113.522 313.287 113.506 313.202 113.497C312.897 113.461 312.885 113.45 312.832 113.168C312.822 113.11 312.799 113.06 312.769 113.011C312.729 112.945 312.715 112.873 312.725 112.799C312.782 112.34 312.886 111.899 313.284 111.584C313.329 111.55 313.348 111.515 313.338 111.46C313.307 111.295 313.354 111.136 313.4 110.98C313.748 109.816 314.203 108.686 314.673 107.563C314.708 107.48 314.753 107.401 314.818 107.335C314.888 107.266 314.916 107.191 314.856 107.095C314.8 107.009 314.84 106.922 314.881 106.839C315.281 106.038 315.755 105.279 316.277 104.546C316.35 104.444 316.459 104.382 316.537 104.284C316.716 104.064 316.802 103.8 316.934 103.56C317.269 102.954 317.658 102.383 318.045 101.81C318.072 101.769 318.102 101.709 318.141 101.701C318.368 101.657 318.353 101.481 318.4 101.322C318.557 100.799 318.727 100.28 318.898 99.7607C319.079 99.2106 319.266 98.663 319.454 98.1154C319.472 98.06 319.485 98.0083 319.482 97.9492C319.48 97.8311 319.526 97.7031 319.612 97.6416C319.877 97.4508 319.908 97.1112 320.15 96.9131C320.179 96.8897 320.188 96.8392 320.193 96.7999C320.231 96.4984 320.387 96.2486 320.58 96.0184C320.63 95.9581 320.648 95.8941 320.666 95.8215C320.784 95.3391 320.831 94.842 321.007 94.3731C321.176 93.9227 321.264 93.4514 321.446 93.0022C321.609 92.5986 321.763 92.1827 321.804 91.7421C321.821 91.5735 321.895 91.4332 322.007 91.304C322.25 91.0234 322.328 90.7035 322.245 90.3466C322.213 90.2075 322.233 90.0746 322.279 89.9393C322.344 89.7473 322.412 89.559 322.358 89.3449C322.314 89.1751 322.421 89.0237 322.549 88.9154C322.795 88.7062 322.899 88.4219 323.03 88.15C323.059 88.0884 323.066 88.0244 323.049 87.9592C322.971 87.6343 322.998 87.2947 322.896 86.9735C322.878 86.9181 322.872 86.8554 322.9 86.8049C323 86.6302 322.919 86.4788 322.807 86.3607C322.427 85.957 322.404 85.4636 322.414 84.9664C322.427 84.3302 322.575 83.7112 322.727 83.0934C322.75 82.9987 322.761 82.9051 322.729 82.8067C322.651 82.5766 322.647 82.3415 322.714 82.109C322.811 81.7705 322.765 81.453 322.595 81.1454C322.485 80.9436 322.476 80.7208 322.497 80.5018C322.53 80.1609 322.458 79.836 322.348 79.5198C322.249 79.2392 322.192 78.9549 322.184 78.6608C322.179 78.4245 322.152 78.192 322.109 77.9581C322.079 77.7994 322.051 77.6357 322.051 77.4745C322.051 77.413 322.051 77.3527 322.049 77.2912H306.648C292.596 77.2912 281.203 88.2029 281.203 101.663V126.034C281.203 139.494 292.596 150.406 306.648 150.406H357.541C371.594 150.406 382.987 139.494 382.987 126.034C382.987 112.574 371.594 101.663 357.541 101.663H382.987C382.987 88.2029 371.594 77.2912 357.541 77.2912ZM346.521 131.513H350.125L348.291 125.591L346.521 131.513ZM382.987 24.3717C382.987 10.9116 371.594 0 357.541 0H306.648C292.596 0 281.203 10.9115 281.203 24.3715H306.648C292.596 24.3715 281.203 35.2833 281.203 48.7437V73.1145H321.857C321.837 73.0616 321.817 73.0099 321.794 72.957C321.66 72.6395 321.694 72.3023 321.816 71.9799C321.839 71.9171 321.885 71.8618 321.949 71.8384C322.096 71.7855 322.107 71.6796 322.079 71.5603C321.968 71.0939 321.867 70.6275 321.533 70.2411C321.394 70.0811 321.304 69.8817 321.196 69.6971C320.988 69.3427 320.763 68.9994 320.478 68.6942C320.279 68.4813 320.152 68.2376 320.058 67.9571C319.933 67.5842 319.765 67.215 319.367 67.0033C319.115 66.8692 319.093 66.788 319.17 66.5209C319.212 66.3733 319.175 66.2404 319.106 66.1222C318.95 65.8626 318.831 65.5832 318.642 65.3396C318.515 65.1747 318.55 64.9655 318.585 64.7735C318.642 64.472 318.638 64.1902 318.465 63.9084C318.277 63.6069 318.183 63.2611 318.137 62.9153C318.09 62.5658 317.951 62.2422 317.887 61.9013C317.771 61.2835 317.492 60.7101 317.376 60.0935C317.348 59.9397 317.33 59.7883 317.369 59.6345C317.38 59.5865 317.387 59.5434 317.374 59.493C317.269 59.0992 317.181 58.7029 317.117 58.3005C317.104 58.2218 317.078 58.1418 317.044 58.068C316.888 57.7394 316.846 57.38 316.747 57.0367C316.708 56.9026 316.708 56.7586 316.749 56.6257C316.792 56.494 316.779 56.3734 316.742 56.2454C316.701 56.1051 316.692 55.9575 316.68 55.8123C316.642 55.3606 316.639 54.9041 316.481 54.4685C316.433 54.3368 316.44 54.2063 316.467 54.0636C316.505 53.8667 316.492 53.6587 316.403 53.468C316.351 53.3584 316.328 53.2526 316.391 53.1419C316.417 53.0976 316.423 53.0508 316.413 53.0003C316.338 52.6176 316.288 52.2275 316.097 51.8756C316.027 51.7488 315.998 51.6147 316.016 51.4744C316.044 51.2357 316.013 50.9969 316.09 50.752C316.152 50.5551 316.122 50.3152 315.984 50.1207C315.772 49.8242 315.642 49.4944 315.506 49.1596C315.286 48.6206 315.131 48.0656 314.935 47.5205C314.836 47.2461 314.757 46.9618 314.623 46.6984C314.605 46.6615 314.586 46.6221 314.583 46.5828C314.569 46.301 314.439 46.053 314.335 45.7978C314.331 45.7904 314.334 45.7807 314.33 45.7741C314.059 45.3226 314.042 44.7787 313.761 44.3325C313.553 44.0012 313.445 43.6344 313.316 43.2737C313.255 43.1036 313.223 42.928 313.175 42.7551C313.106 42.4962 313.039 42.238 312.903 41.9982C312.787 41.7947 312.755 41.5643 312.796 41.3351C312.819 41.2059 312.806 41.0748 312.837 40.9477C312.854 40.8766 312.826 40.8204 312.783 40.7673C312.642 40.59 312.644 40.3905 312.685 40.1854C312.693 40.1455 312.7 40.1048 312.715 40.0669C312.811 39.8111 312.81 39.5514 312.806 39.2803C312.797 38.6151 312.838 37.9494 312.921 37.2879C312.963 36.9559 313.333 36.7237 313.684 36.7936C313.766 36.8102 313.85 36.8295 313.933 36.833C314.112 36.8401 314.16 36.7841 314.135 36.6138C314.104 36.405 314.071 36.1965 314.04 35.9875C313.943 35.3235 313.992 34.6585 314.024 33.9935C314.031 33.8528 314.08 33.709 313.884 33.6231C313.785 33.5798 313.814 33.4491 313.816 33.3534C313.829 32.979 313.883 32.6079 313.956 32.2409C314.506 29.4591 315.529 26.8487 317.064 24.4264C317.47 23.7855 317.929 23.1812 318.485 22.6497C318.526 22.6096 318.562 22.549 318.614 22.5341C318.857 22.4624 318.936 22.2424 319.079 22.0802C319.151 21.9996 319.224 21.9236 319.308 21.853C319.599 21.6065 319.85 21.3242 320.073 21.018C320.159 20.8996 320.278 20.8016 320.388 20.7005C322.675 18.6001 325.405 17.2925 328.462 16.578C329.255 16.3928 330.069 16.3298 330.88 16.2655C331.465 16.2192 332.049 16.201 332.635 16.2036C333.563 16.2075 334.479 16.3174 335.393 16.4571C336.591 16.6403 337.777 16.8815 338.918 17.2856C340.899 17.9876 342.724 18.958 344.336 20.2728C344.972 20.7904 345.544 21.3684 346.045 22.0083C346.232 22.2456 346.437 22.47 346.581 22.7353C346.609 22.7857 346.67 22.839 346.663 22.8835C346.627 23.1112 346.808 23.1564 346.96 23.2035C347.099 23.2465 347.193 23.327 347.283 23.4246C347.682 23.8569 348.02 24.3371 348.399 24.785C348.479 24.8783 348.563 24.9824 348.423 25.1014C348.382 25.1353 348.423 25.1783 348.453 25.2054C348.891 25.6176 349.121 26.1612 349.436 26.65C349.667 27.0084 349.837 27.4009 349.995 27.7964C350.153 28.1903 350.286 28.5925 350.469 28.9782C350.714 29.4991 350.833 30.0581 350.958 30.6144C351.065 31.0904 351.185 31.5642 351.312 32.0356C351.397 32.348 351.533 32.3805 351.777 32.1447C351.913 32.0129 352.048 31.8798 352.187 31.7496C352.308 31.636 352.44 31.5344 352.559 31.4203C352.667 31.318 352.787 31.3193 352.909 31.3826C353.082 31.4728 353.208 31.6008 353.193 31.8062C353.185 31.9232 353.199 32.032 353.257 32.1363C353.308 32.2321 353.321 32.3382 353.329 32.4435C353.338 32.5895 353.342 32.7359 353.347 32.8821C353.355 33.0812 353.351 33.265 353.527 33.4344C353.732 33.6324 353.775 33.9088 353.716 34.1879C353.695 34.2865 353.69 34.3796 353.752 34.4684C353.77 34.4947 353.789 34.5304 353.785 34.5593C353.75 34.8412 353.91 35.0881 353.938 35.3583C353.953 35.4941 353.98 35.6232 354.036 35.7556C354.133 35.9898 354.034 36.2222 353.921 36.4329C353.612 37.0153 353.413 37.6377 353.24 38.2637C353.127 38.6771 353.091 39.1125 353.048 39.5407C352.958 40.4493 352.729 41.3314 352.518 42.2176C352.509 42.2571 352.498 42.2974 352.48 42.3335C352.219 42.8362 352.067 43.3811 351.818 43.8879C351.727 44.0731 351.594 44.2334 351.445 44.3794C351.287 44.5342 351.23 44.713 351.248 44.9312C351.29 45.4328 351.285 45.9367 351.343 46.4388C351.372 46.6861 351.308 46.9384 351.262 47.187C351.124 47.9352 350.856 48.6465 350.586 49.3528C350.462 49.6765 350.382 50.0186 350.193 50.3226C350.024 50.5921 349.888 50.8812 349.734 51.1606C349.702 51.2184 349.675 51.2763 349.667 51.3415C349.617 51.723 349.486 52.0885 349.356 52.4441C349.182 52.9277 349.016 53.4101 348.909 53.9122C348.872 54.087 348.787 54.2506 348.626 54.3626C348.576 54.3983 348.547 54.4463 348.522 54.498C348.368 54.8327 348.21 55.1662 348.065 55.5034C347.988 55.6818 347.908 55.8615 347.947 56.067C347.965 56.1654 347.922 56.2627 347.861 56.3414C347.635 56.6282 347.577 56.9789 347.461 57.3074C347.415 57.4379 347.381 57.5733 347.351 57.7074C347.312 57.8723 347.248 58.031 347.277 58.2095C347.297 58.3202 347.254 58.4384 347.199 58.5393C347.028 58.8531 347.002 59.1952 347.011 59.5361C347.024 59.9988 346.923 60.4369 346.766 60.8688C346.599 61.3241 346.509 61.793 346.515 62.2766C346.517 62.3578 346.513 62.439 346.512 62.5203C346.51 62.7418 346.408 62.9067 346.219 63.0322C346.052 63.1442 346.016 63.186 346.104 63.3472C346.332 63.7656 346.16 64.1311 345.989 64.5065C345.897 64.707 345.811 64.9089 345.809 65.1353C345.806 65.326 345.711 65.502 345.629 65.662C345.363 66.1825 345.305 66.7535 345.151 67.2999C345.139 67.3393 345.137 67.3811 345.12 67.4168C344.897 67.8968 344.832 68.4173 344.709 68.9218C344.658 69.131 344.577 69.323 344.456 69.5015C344.282 69.7562 344.185 70.0405 344.091 70.3284C343.959 70.7308 343.788 71.1209 343.659 71.5246C343.485 72.0709 343.208 72.5755 342.989 73.1034C342.99 73.0997 342.987 73.1071 342.989 73.1034L382.987 73.1145V48.7437H357.541C371.594 48.7437 382.987 37.8317 382.987 24.3717Z" fill="white"/>
<path d="M317.094 24.4501C317.5 23.8091 317.959 23.2047 318.515 22.6734C318.556 22.6332 318.592 22.5726 318.643 22.5577C318.886 22.4859 318.966 22.2662 319.109 22.104C319.181 22.0232 319.254 21.9472 319.337 21.8767C319.629 21.6302 319.879 21.3479 320.103 21.0417C320.152 20.9737 320.212 20.9125 320.275 20.8534V5.08194V0.0236816H313.029V5.08194H310.613V26.7211H315.83C316.205 25.9469 316.625 25.1897 317.094 24.4501Z" fill="white"/>
<path d="M378.169 58.9528H382.938V48.7634H378.169V58.9528Z" fill="white"/>
<path d="M341.931 0.0180664V5.07632H349.178V26.3292C349.245 26.4435 349.311 26.5572 349.383 26.6681C349.613 27.0264 349.783 27.4191 349.942 27.8145C350.099 28.2085 350.233 28.6106 350.415 28.9964C350.662 29.517 350.779 30.0762 350.905 30.6324C351.013 31.1084 351.132 31.5822 351.259 32.0538C351.343 32.3661 351.479 32.3987 351.723 32.1628C351.859 32.0311 351.994 31.8979 352.133 31.7678C352.255 31.6541 352.386 31.5526 352.506 31.4384C352.614 31.3361 352.734 31.3375 352.856 31.4007C353.03 31.4909 353.154 31.6189 353.14 31.8244C353.131 31.9414 353.147 32.0502 353.203 32.1544C353.256 32.2502 353.267 32.3563 353.275 32.4617C353.285 32.6077 353.289 32.7541 353.294 32.9003C353.301 33.0994 353.297 33.2832 353.473 33.4525C353.679 33.6505 353.721 33.9269 353.663 34.2061C353.643 34.3046 353.638 34.3978 353.699 34.4866C353.717 34.5128 353.736 34.5486 353.733 34.5774C353.697 34.8594 353.857 35.1063 353.886 35.3764C353.9 35.5123 353.927 35.6413 353.982 35.7736C354.08 36.0079 353.981 36.2403 353.869 36.4511C353.558 37.0334 353.36 37.6556 353.188 38.2818C353.075 38.6952 353.038 39.1305 352.995 39.5587C352.904 40.4674 352.675 41.3496 352.466 42.2356C352.455 42.2751 352.445 42.3156 352.426 42.3514C352.166 42.8544 352.013 43.3993 351.764 43.9059C351.673 44.0911 351.542 44.2516 351.393 44.3976C351.235 44.5524 351.177 44.7312 351.195 44.9494C351.237 45.451 351.231 45.9548 351.29 46.4561C351.318 46.7047 351.255 46.957 351.209 47.2055C351.07 47.9525 350.803 48.665 350.532 49.3714C350.409 49.6938 350.328 50.0372 350.139 50.3399C349.971 50.6106 349.834 50.8998 349.681 51.1779C349.648 51.237 349.622 51.2948 349.613 51.36C349.565 51.7415 349.432 52.107 349.304 52.4627C349.261 52.5808 349.219 52.6977 349.178 52.8159V59.1744H355.215V73.1331H375.092V58.8507H363.671V48.761H357.487C359.62 48.761 361.691 48.51 363.671 48.0374V26.7156H358.84V5.07632H363.671V0.742765C361.691 0.269353 359.62 0.0180664 357.487 0.0180664H356.424V5.07632H349.178V0.0180664H341.931Z" fill="white"/>
<path d="M290.939 5.07596H291.073V24.3894H300.735V5.07596H305.566V0.0324707C303.04 0.116152 300.607 0.552648 298.32 1.29199V5.07596H291.073V4.97764C291.028 5.01025 290.984 5.04311 290.939 5.07596Z" fill="white"/>
<path d="M314.673 107.596C314.708 107.514 314.753 107.435 314.818 107.368C314.888 107.299 314.916 107.224 314.856 107.128C314.8 107.042 314.84 106.955 314.881 106.872C315.281 106.071 315.755 105.312 316.277 104.58C316.35 104.478 316.459 104.415 316.537 104.318C316.716 104.097 316.802 103.834 316.934 103.593C317.269 102.987 317.658 102.416 318.045 101.843C318.072 101.802 318.102 101.742 318.141 101.735C318.368 101.69 318.353 101.514 318.4 101.356C318.557 100.833 318.727 100.313 318.898 99.794C319.079 99.2451 319.266 98.6963 319.454 98.1487C319.472 98.0933 319.485 98.0416 319.482 97.9825C319.48 97.8644 319.526 97.7364 319.612 97.6749C319.877 97.4842 319.908 97.1445 320.15 96.9464C320.179 96.923 320.188 96.8725 320.193 96.8332C320.208 96.7126 320.243 96.6006 320.29 96.4948V77.3245H306.648C303.817 77.3245 301.095 77.7675 298.551 78.5846V107.82H286.544V86.7546C283.196 90.8808 281.203 96.0653 281.203 101.697V126.067C281.203 136.818 288.469 145.941 298.553 149.18V107.878H314.556C314.595 107.784 314.635 107.69 314.673 107.596Z" fill="white"/>
<path d="M357.554 101.657H375.159V84.0594C370.588 79.863 364.385 77.2849 357.554 77.2849H355.282V107.838H363.699V149.685C374.783 147.053 383 137.46 383 126.029C383 112.569 371.607 101.657 357.554 101.657Z" fill="white"/>
<path d="M382.623 26.71H377.967V38.5946C380.525 35.186 382.188 31.119 382.623 26.71Z" fill="white"/>
<path d="M305.533 26.7155H300.702V25.0093C297.136 25.7945 293.857 27.2971 291.04 29.3497V59.1743H298.331V73.133H320.07V68.4715C319.972 68.3201 319.897 68.1552 319.837 67.9756C319.712 67.6027 319.545 67.2335 319.147 67.0218C318.894 66.8865 318.872 66.8065 318.949 66.5382C318.992 66.3918 318.956 66.2576 318.885 66.1407C318.729 65.8798 318.61 65.6017 318.421 65.3568C318.294 65.1919 318.329 64.984 318.365 64.792C318.421 64.4893 318.418 64.2075 318.244 63.9269C318.056 63.6254 317.964 63.2784 317.916 62.9326C317.87 62.5843 317.73 62.2594 317.667 61.9198C317.551 61.302 317.272 60.7286 317.157 60.112C317.127 59.9582 317.109 59.8056 317.148 59.653C317.161 59.605 317.167 59.5607 317.153 59.5103C317.123 59.3983 317.095 59.2863 317.068 59.1743H305.533V26.7155Z" fill="white"/>
<path d="M281.608 24.3898V20.0859C281.342 21.483 281.203 22.9212 281.203 24.3898H281.608Z" fill="white"/>
<path d="M286.545 59.2185H281.203V73.1329H286.545V59.2185Z" fill="white"/>
<path d="M327.376 0.00927734V5.06815H329.792V16.3614C330.116 16.328 330.441 16.3025 330.766 16.2768C331.349 16.2304 331.934 16.2123 332.52 16.2148C333.447 16.2187 334.365 16.3285 335.278 16.4683C336.477 16.6517 337.663 16.8929 338.804 17.2971C339.024 17.3746 339.241 17.4556 339.455 17.5398V5.06815H334.624V0.00927734H327.376Z" fill="white"/>
<path d="M370.646 5.08199H368.23V26.7212H377.893V10.1863C375.947 7.59402 373.483 5.38226 370.646 3.69067V5.08199Z" fill="white"/>
<path d="M288.898 163.848C289.478 163.848 290.153 163.923 290.923 164.073C291.703 164.223 292.273 164.383 292.633 164.553V167.748H291.208C290.438 166.298 289.378 165.573 288.028 165.573C287.478 165.573 286.973 165.748 286.513 166.098C286.053 166.448 285.688 166.928 285.418 167.538C285.158 168.148 285.028 168.833 285.028 169.593C285.028 170.453 285.158 171.243 285.418 171.963C285.688 172.673 286.093 173.243 286.633 173.673C287.173 174.093 287.843 174.303 288.643 174.303C289.553 174.303 290.848 173.803 292.528 172.803L293.128 173.763L290.368 175.908C289.928 176.038 289.503 176.123 289.093 176.163C288.693 176.213 288.263 176.238 287.803 176.238C286.683 176.238 285.688 175.983 284.818 175.473C283.948 174.963 283.273 174.263 282.793 173.373C282.313 172.473 282.073 171.453 282.073 170.313C282.073 169.143 282.433 168.063 283.153 167.073C283.873 166.073 284.768 165.288 285.838 164.718C286.908 164.138 287.928 163.848 288.898 163.848ZM307.091 175.938H301.511V175.098L303.146 174.123L302.231 171.888H297.596L296.771 173.898L299.066 174.963L298.586 175.938H293.741V175.098L295.361 173.883L299.201 164.628L301.796 163.863L306.056 174.198L307.586 174.963L307.091 175.938ZM299.936 166.233L298.076 170.733H301.766L299.936 166.233ZM314.247 170.073C314.777 170.073 315.197 169.888 315.507 169.518C315.817 169.148 315.972 168.638 315.972 167.988C315.972 167.198 315.782 166.558 315.402 166.068C315.022 165.568 314.462 165.318 313.722 165.318C313.232 165.318 312.772 165.468 312.342 165.768V174.393L314.952 174.963L314.457 175.938H308.217V175.098L309.627 173.988V165.633L307.962 165.123L308.457 164.148H310.947C311.837 164.148 312.712 164.118 313.572 164.058C314.212 164.018 314.682 163.998 314.982 163.998C315.762 163.998 316.452 164.153 317.052 164.463C317.652 164.763 318.117 165.178 318.447 165.708C318.777 166.238 318.942 166.828 318.942 167.478C318.942 168.198 318.667 168.873 318.117 169.503C317.567 170.133 316.872 170.628 316.032 170.988C315.192 171.348 314.372 171.508 313.572 171.468L312.912 171.063L313.407 170.088H314.247V170.073ZM326.126 170.073C326.656 170.073 327.076 169.888 327.386 169.518C327.696 169.148 327.851 168.638 327.851 167.988C327.851 167.198 327.661 166.558 327.281 166.068C326.901 165.568 326.341 165.318 325.601 165.318C325.111 165.318 324.651 165.468 324.221 165.768V174.393L326.831 174.963L326.336 175.938H320.096V175.098L321.506 173.988V165.633L319.841 165.123L320.336 164.148H322.826C323.716 164.148 324.591 164.118 325.451 164.058C326.091 164.018 326.561 163.998 326.861 163.998C327.641 163.998 328.331 164.153 328.931 164.463C329.531 164.763 329.996 165.178 330.326 165.708C330.656 166.238 330.821 166.828 330.821 167.478C330.821 168.198 330.546 168.873 329.996 169.503C329.446 170.133 328.751 170.628 327.911 170.988C327.071 171.348 326.251 171.508 325.451 171.468L324.791 171.063L325.286 170.088H326.126V170.073ZM341.456 175.953H331.976V175.113L333.386 174.003V165.618L331.721 165.123L332.216 164.148H341.306L342.386 163.878V167.703L341.561 168.033L339.716 165.288H336.101V169.338H337.886L338.981 167.658H339.821V172.023L338.846 172.518L337.871 170.493H336.101V174.798H339.596L341.711 171.738L342.536 172.083V176.223L341.456 175.953ZM353.851 175.938H344.281V175.098L345.691 173.988V165.558L344.026 165.123L344.521 164.148H349.831V164.988L348.406 166.098V174.798H351.781L354.106 171.438L354.931 171.783V176.208L353.851 175.938ZM365.804 175.938H356.234V175.098L357.644 173.988V165.558L355.979 165.123L356.474 164.148H361.784V164.988L360.359 166.098V174.798H363.734L366.059 171.438L366.884 171.783V176.208L365.804 175.938ZM380.802 175.938H375.222V175.098L376.857 174.123L375.942 171.888H371.307L370.482 173.898L372.777 174.963L372.297 175.938H367.452V175.098L369.072 173.883L372.912 164.628L375.507 163.863L379.767 174.198L381.297 174.963L380.802 175.938ZM373.647 166.233L371.787 170.733H375.477L373.647 166.233Z" fill="white"/>
<path d="M304.776 185.267L303.896 185.619L301.64 182.371H300.152V192.227L301.944 192.691L301.416 193.731H295.752V192.835L297.256 191.651V182.371H295.832L293.576 185.619L292.696 185.267V180.867L293.848 181.155H303.624L304.776 180.867V185.267ZM318.644 193.731H315.172L312.084 188.195L311.38 187.763L311.78 186.979H312.516C313.092 186.979 313.545 186.803 313.876 186.451C314.207 186.099 314.372 185.603 314.372 184.963C314.372 184.217 314.169 183.609 313.764 183.139C313.369 182.659 312.788 182.419 312.02 182.419C311.54 182.419 311.092 182.569 310.676 182.867V192.195L312.452 192.707L311.94 193.747H306.276V192.851L307.78 191.587V182.707L306.004 182.211L306.532 181.171H309.188C310.116 181.171 311.028 181.139 311.924 181.075C312.564 181.033 313.044 181.011 313.364 181.011C314.185 181.011 314.911 181.161 315.54 181.459C316.18 181.747 316.671 182.142 317.012 182.643C317.364 183.145 317.54 183.705 317.54 184.323C317.54 185.07 317.209 185.763 316.548 186.403C315.887 187.043 315.081 187.523 314.132 187.843L315.412 188.211L317.492 191.923L319.156 192.691L318.644 193.731ZM333.263 193.731H327.311V192.835L329.055 191.795L328.079 189.411H323.135L322.255 191.555L324.703 192.691L324.191 193.731H319.023V192.835L320.751 191.539L324.847 181.667L327.615 180.851L332.159 191.875L333.791 192.691L333.263 193.731ZM325.631 183.379L323.647 188.179H327.583L325.631 183.379ZM344.591 183.363L340.495 193.219L337.743 194.035L333.199 183.011L331.567 182.195L332.079 181.155H338.047V182.051L336.303 183.091L339.743 191.507L343.119 183.347L340.671 182.195L341.183 181.155H346.351L346.335 182.051L344.591 183.363ZM357.231 193.747H347.119V192.851L348.623 191.667V182.723L346.847 182.195L347.375 181.155H357.071L358.223 180.867V184.947L357.343 185.299L355.375 182.371H351.519V186.691H353.423L354.591 184.899H355.487V189.555L354.447 190.083L353.407 187.923H351.519V192.515H355.247L357.503 189.251L358.383 189.619V194.035L357.231 193.747ZM370.452 193.731H360.244V192.835L361.748 191.651V182.659L359.972 182.195L360.5 181.155H366.164V182.051L364.644 183.235V192.515H368.244L370.724 188.931L371.604 189.299V194.019L370.452 193.731Z" fill="white"/>
<path d="M269.899 0H156.917V72.0764C156.917 91.9821 173.779 108.118 194.58 108.118H269.899V72.0764H232.236C253.037 72.0764 269.899 55.9407 269.899 36.0414H232.236C253.037 36.0414 269.899 19.9056 269.899 0ZM112.982 36.0414C112.982 16.1357 96.1201 0 75.319 0C54.5178 0 37.6562 16.1357 37.6562 36.0414V0H0V72.0764C0 91.9821 16.8617 108.118 37.6562 108.118C58.4573 108.118 75.319 91.9821 75.319 72.0764C75.319 91.9821 92.1806 108.118 112.982 108.118C133.776 108.118 150.638 91.9821 150.638 72.0764V0C129.843 0 112.982 16.1357 112.982 36.0414ZM57.836 113.064H28.918C12.9486 113.064 0 125.456 0 140.737H28.918C12.9486 140.737 0 153.128 0 168.41C0 183.693 12.9486 196.084 28.918 196.084H57.836V168.41C57.836 183.693 70.778 196.084 86.7539 196.084V140.737C86.7539 125.456 73.8053 113.064 57.836 113.064ZM149.408 113.064H91.5726V196.084H120.491V168.41C120.491 183.693 133.439 196.084 149.408 196.084H178.327V168.41H149.408C165.377 168.41 178.327 156.019 178.327 140.737C178.327 125.456 165.377 113.064 149.408 113.064ZM240.981 140.737H269.899C269.899 156.019 256.951 168.41 240.981 168.41H269.899V196.084H212.063C196.094 196.084 183.146 183.693 183.146 168.41V113.064H269.899C269.899 128.346 256.951 140.737 240.981 140.737Z" fill="white"/>
</svg>
